<svg width="77" height="77" viewBox="0 0 77 77" fill="none" xmlns="http://www.w3.org/2000/svg">
<g clip-path="url(#clip0_145_187)">
<path d="M38.4996 76.6402C59.5638 76.6402 76.6397 59.5643 76.6397 38.5C76.6397 17.4358 59.5638 0.359863 38.4996 0.359863C17.4353 0.359863 0.359375 17.4358 0.359375 38.5C0.359375 59.5643 17.4353 76.6402 38.4996 76.6402Z" fill="white" stroke="#E0E0E0"/>
<path fill-rule="evenodd" clip-rule="evenodd" d="M49.4739 23.1489C48.0174 23.1493 46.5839 23.5107 45.3013 24.2008C44.0187 24.8909 42.9271 25.8881 42.1243 27.1033C38.6246 27.447 35.6362 29.7668 34.3352 33.0852C33.9789 33.031 33.6238 32.9668 33.2623 32.9655H33.2598C29.638 32.9655 26.6634 35.6353 26.0161 39.1628C25.5085 39.0343 25.0035 38.8869 24.4796 38.8857H24.4759C20.8993 38.8882 17.9902 41.8363 17.9902 45.4431C17.9902 49.0499 20.898 51.9917 24.4759 51.993C24.6219 51.993 24.7315 51.9779 24.8209 51.9728C24.7454 51.9728 24.7668 51.993 24.9633 51.993H51.3163C51.8805 51.993 52.3993 51.867 52.8728 51.6958C56.0754 50.7726 58.2868 47.817 58.2893 44.4571C58.2884 43.3069 58.0251 42.1721 57.5192 41.1391C57.0133 40.1062 56.2782 39.2023 55.3701 38.4965C56.2878 37.6735 57.022 36.6665 57.5249 35.5411C58.0279 34.4157 58.2883 33.197 58.2893 31.9643C58.2893 27.1033 54.335 23.1489 49.4739 23.1489ZM49.4739 24.4083C53.6549 24.4083 57.03 27.7833 57.03 31.9643C57.03 36.1454 53.6549 39.5204 49.4739 39.5204C45.2928 39.5204 41.9178 36.1454 41.9178 31.9643C41.9178 27.7833 45.2928 24.4083 49.4739 24.4083ZM41.3763 28.4835C40.9018 29.5826 40.6575 30.7672 40.6585 31.9643C40.6585 36.8254 44.6128 40.7798 49.4739 40.7798C51.2072 40.7809 52.9019 40.2682 54.3438 39.3063C55.1728 39.8861 55.8498 40.6571 56.3175 41.5542C56.7851 42.4513 57.0295 43.4479 57.03 44.4596C57.0262 47.273 55.1812 49.7324 52.5114 50.4956C52.4966 50.4997 52.4818 50.5043 52.4674 50.5095C52.082 50.6517 51.7041 50.7362 51.3163 50.7362H24.9633C25.0716 50.7362 25.0211 50.716 24.8083 50.716C24.7937 50.7155 24.779 50.7155 24.7642 50.716C24.6684 50.7263 24.5722 50.7322 24.4759 50.7336C21.5869 50.7336 19.2496 48.3774 19.2496 45.4431C19.2496 42.5088 21.5844 40.1513 24.4733 40.1501C25.0778 40.1501 25.6735 40.2609 26.2402 40.47C26.331 40.5036 26.4283 40.516 26.5245 40.5059C26.6208 40.4959 26.7135 40.4639 26.7954 40.4122C26.8772 40.3605 26.9461 40.2907 26.9966 40.2081C27.047 40.1255 27.0778 40.0324 27.0865 39.936C27.3787 36.6957 30.051 34.2312 33.2573 34.2299C33.6943 34.2299 34.1313 34.279 34.5582 34.3722C34.7105 34.4056 34.8696 34.3813 35.0051 34.3041C35.1404 34.2269 35.2423 34.1021 35.2911 33.9541C35.7359 32.5883 36.5324 31.3636 37.6006 30.4033C38.6688 29.443 39.971 28.7809 41.3763 28.4835ZM53.4509 28.9973C53.3091 29.0001 53.1725 29.0507 53.063 29.1409L48.0886 33.1204L46.4086 30.9657C46.3059 30.8339 46.1551 30.7483 45.9893 30.7278C45.8235 30.7072 45.6563 30.7534 45.5246 30.8561C45.3928 30.9588 45.3072 31.1096 45.2867 31.2754C45.2662 31.4413 45.3123 31.6084 45.415 31.7402L47.4891 34.3974C47.5406 34.4626 47.6044 34.5171 47.6769 34.5575C47.7494 34.598 47.8293 34.6237 47.9119 34.6332C47.9943 34.6427 48.0779 34.6357 48.1578 34.6128C48.2376 34.5898 48.3121 34.5513 48.377 34.4994L53.8501 30.1244C53.9548 30.0432 54.0311 29.9312 54.0684 29.8041C54.1057 29.677 54.102 29.5414 54.0577 29.4166C54.0136 29.2918 53.9311 29.1841 53.8221 29.1088C53.7132 29.0335 53.5833 28.9945 53.4509 28.9973Z" fill="url(#paint0_linear_145_187)"/>
</g>
<defs>
<linearGradient id="paint0_linear_145_187" x1="58.2893" y1="23.1489" x2="30.9863" y2="61.2949" gradientUnits="userSpaceOnUse">
<stop stop-color="#3FBBFF"/>
<stop offset="1" stop-color="#A8E26D"/>
</linearGradient>
<clipPath id="clip0_145_187">
<rect width="77" height="77" fill="white"/>
</clipPath>
</defs>
</svg>
