<svg width="77" height="77" viewBox="0 0 77 77" fill="none" xmlns="http://www.w3.org/2000/svg">
<g clip-path="url(#clip0_145_177)">
<path d="M38.4996 76.6402C59.5638 76.6402 76.6397 59.5643 76.6397 38.5C76.6397 17.4358 59.5638 0.359863 38.4996 0.359863C17.4353 0.359863 0.359375 17.4358 0.359375 38.5C0.359375 59.5643 17.4353 76.6402 38.4996 76.6402Z" fill="white" stroke="#E0E0E0"/>
<path d="M22.7178 45.6836V25.8033C22.719 25.0974 23.0003 24.4209 23.4999 23.9223C23.9994 23.4236 24.6765 23.1436 25.3823 23.1436H44.2326C44.9385 23.1436 45.6155 23.4236 46.1151 23.9223C46.6146 24.4209 46.8959 25.0974 46.8972 25.8033V28.7532M46.8972 48.8544V51.9171C46.8972 52.6238 46.6165 53.3015 46.1168 53.8012C45.6171 54.3009 44.9393 54.5817 44.2326 54.5817H32.3798" stroke="url(#paint0_linear_145_177)" stroke-width="1.5" stroke-linecap="round" stroke-linejoin="round"/>
<path d="M27.0605 37.4992H35.9795M46.9425 32.4972C48.2178 32.4972 49.4644 32.8754 50.5248 33.5839C51.585 34.2924 52.4115 35.2994 52.8995 36.4776C53.3876 37.6558 53.5152 38.9522 53.2665 40.203C53.0177 41.4538 52.4035 42.6027 51.5019 43.5044C50.6001 44.4062 49.4512 45.0203 48.2004 45.269C46.9496 45.5179 45.6532 45.3901 44.475 44.9022C43.2968 44.4141 42.2898 43.5877 41.5813 42.5273C40.8728 41.467 40.4947 40.2203 40.4947 38.9451C40.4947 37.235 41.174 35.595 42.3832 34.3858C43.5924 33.1766 45.2324 32.4972 46.9425 32.4972ZM27.0605 28.0063H42.105H27.0605ZM27.0605 31.1706H39.4727H27.0605ZM27.0605 34.3349H37.2691H27.0605Z" stroke="url(#paint1_linear_145_177)" stroke-width="1.5" stroke-linecap="round" stroke-linejoin="round"/>
<path d="M31.8396 49.5756V49.5795V53.3463L24.1006 46.2231H28.5405C29.4219 46.231 30.2643 46.5881 30.8828 47.2162C31.5017 47.8449 31.8459 48.6935 31.8396 49.5756ZM50.4865 37.002H50.4871C50.506 37.0015 50.5246 37.0072 50.5402 37.0179C50.5558 37.0287 50.5675 37.0441 50.5738 37.0619C50.5802 37.0797 50.5807 37.0991 50.5753 37.1173C50.57 37.1354 50.5592 37.1514 50.5442 37.163L50.5441 37.163L50.5379 37.1679L45.0648 41.5429L45.0647 41.543C45.0555 41.5504 45.0448 41.5559 45.0334 41.5592C45.022 41.5625 45.01 41.5634 44.9982 41.5621C44.9864 41.5607 44.9751 41.5571 44.9647 41.5512C44.9546 41.5456 44.9456 41.538 44.9383 41.5289C44.9382 41.5287 44.938 41.5286 44.9379 41.5284L42.8655 38.8734C42.8508 38.8546 42.8442 38.8306 42.8471 38.8069C42.8501 38.7831 42.8623 38.7615 42.8812 38.7469C42.9 38.7322 42.924 38.7256 42.9477 38.7285C42.9715 38.7315 42.9931 38.7437 43.0078 38.7625L43.0078 38.7626L44.6878 40.9173C44.7765 41.0312 44.9071 41.1047 45.0505 41.1215C45.1938 41.1383 45.3379 41.0971 45.4506 41.0069L50.425 37.0274V37.0275L50.4311 37.0225C50.4467 37.0096 50.4662 37.0024 50.4865 37.002Z" stroke="url(#paint2_linear_145_177)" stroke-width="1.5" stroke-linecap="round" stroke-linejoin="round"/>
</g>
<defs>
<linearGradient id="paint0_linear_145_177" x1="46.8972" y1="23.1436" x2="16.5121" y2="46.5131" gradientUnits="userSpaceOnUse">
<stop stop-color="#3FBBFF"/>
<stop offset="1" stop-color="#A8E26D"/>
</linearGradient>
<linearGradient id="paint1_linear_145_177" x1="53.3904" y1="28.0063" x2="37.4005" y2="52.2208" gradientUnits="userSpaceOnUse">
<stop stop-color="#3FBBFF"/>
<stop offset="1" stop-color="#A8E26D"/>
</linearGradient>
<linearGradient id="paint2_linear_145_177" x1="51.1187" y1="36.4623" x2="34.6937" y2="62.2151" gradientUnits="userSpaceOnUse">
<stop stop-color="#3FBBFF"/>
<stop offset="1" stop-color="#A8E26D"/>
</linearGradient>
<clipPath id="clip0_145_177">
<rect width="77" height="77" fill="white"/>
</clipPath>
</defs>
</svg>
