<svg width="77" height="77" viewBox="0 0 77 77" fill="none" xmlns="http://www.w3.org/2000/svg">
<g clip-path="url(#clip0_148_249)">
<path d="M38.5 77C59.763 77 77 59.763 77 38.5C77 17.237 59.763 0 38.5 0C17.237 0 0 17.237 0 38.5C0 59.763 17.237 77 38.5 77Z" fill="white"/>
<path d="M49.5833 32.9589H46.8125C46.3024 32.9589 45.8889 33.3724 45.8889 33.8825C45.8889 34.3927 46.3024 34.8062 46.8125 34.8062H49.5833C51.6227 34.8088 53.2753 36.4612 53.2777 38.5006V51.4312C53.2753 53.4705 51.6227 55.123 49.5833 55.1256H27.4167C25.3773 55.123 23.7248 53.4705 23.7223 51.4312V38.5006C23.7248 36.4612 25.3773 34.8088 27.4167 34.8062H32.0348C32.5447 34.8062 32.9583 34.3927 32.9583 33.8825C32.9583 33.3724 32.5447 32.9589 32.0348 32.9589H27.4167C24.3574 32.9622 21.8783 35.4413 21.875 38.5006V51.4312C21.8783 54.4904 24.3574 56.9694 27.4167 56.9727H49.5833C52.6426 56.9694 55.1217 54.4904 55.125 51.4312V38.5006C55.1217 35.4413 52.6426 32.9622 49.5833 32.9589ZM32.704 28.054L37.5764 23.1815V48.6613C37.5767 49.1711 37.9902 49.5842 38.5 49.5839H38.5011C39.0108 49.5835 39.424 49.1702 39.4236 48.6602V23.1815L44.296 28.054C44.4689 28.2276 44.7041 28.3249 44.9491 28.3245C45.1939 28.3245 45.4288 28.2272 45.602 28.0542C45.9627 27.6937 45.9627 27.1088 45.602 26.748L39.1536 20.2996C39.0682 20.214 38.966 20.1464 38.8526 20.0995C38.7455 20.0554 38.632 20.0343 38.5179 20.032C38.5116 20.0318 38.5063 20.0283 38.5 20.0283C38.4956 20.0283 38.4919 20.0308 38.4874 20.0308C38.3715 20.0323 38.2559 20.0546 38.147 20.0995C38.034 20.1464 37.9319 20.214 37.8467 20.2992L31.398 26.7481C31.3936 26.7523 31.3892 26.7567 31.3847 26.7613C31.0278 27.1256 31.0336 27.7103 31.398 28.0673C31.7621 28.4241 32.347 28.4183 32.704 28.054Z" fill="url(#paint0_linear_148_249)"/>
</g>
<defs>
<linearGradient id="paint0_linear_148_249" x1="55.125" y1="20.0283" x2="18.3847" y2="53.0946" gradientUnits="userSpaceOnUse">
<stop stop-color="#3FBBFF"/>
<stop offset="1" stop-color="#A8E26D"/>
</linearGradient>
<clipPath id="clip0_148_249">
<rect width="77" height="77" fill="white"/>
</clipPath>
</defs>
</svg>
