<svg width="77" height="77" viewBox="0 0 77 77" fill="none" xmlns="http://www.w3.org/2000/svg">
<g clip-path="url(#clip0_145_182)">
<path d="M38.4996 76.6402C59.5638 76.6402 76.6397 59.5643 76.6397 38.5C76.6397 17.4358 59.5638 0.359863 38.4996 0.359863C17.4353 0.359863 0.359375 17.4358 0.359375 38.5C0.359375 59.5643 17.4353 76.6402 38.4996 76.6402Z" fill="white"/>
<path fill-rule="evenodd" clip-rule="evenodd" d="M25.382 23.683C24.8191 23.683 24.2793 23.9063 23.8809 24.3039C23.4826 24.7014 23.2583 25.2407 23.2572 25.8035V45.6833C23.2572 45.9814 23.0155 46.223 22.7175 46.223C22.4193 46.223 22.1777 45.9814 22.1777 45.6833V25.802C22.1792 24.9532 22.5175 24.1396 23.1183 23.54C23.719 22.9403 24.5331 22.6035 25.382 22.6035H44.2323C45.0811 22.6035 45.8952 22.9403 46.496 23.54C47.0968 24.1396 47.435 24.9532 47.4366 25.802V28.7529C47.4366 29.0509 47.195 29.2926 46.8969 29.2926C46.5988 29.2926 46.3572 29.0509 46.3572 28.7529V25.8039C46.3561 25.241 46.1318 24.7016 45.7334 24.3039C45.335 23.9063 44.7952 23.683 44.2323 23.683H25.382ZM46.8969 48.3143C47.195 48.3143 47.4366 48.5559 47.4366 48.854V51.9168C47.4366 52.7666 47.099 53.5816 46.4981 54.1825C45.8971 54.7835 45.0821 55.121 44.2323 55.121H32.3795C32.0814 55.121 31.8398 54.8794 31.8398 54.5813C31.8398 54.2833 32.0814 54.0416 32.3795 54.0416H44.2323C44.7959 54.0416 45.3363 53.8177 45.7348 53.4192C46.1333 53.0207 46.3572 52.4803 46.3572 51.9168V48.854C46.3572 48.5559 46.5988 48.3143 46.8969 48.3143Z" fill="url(#paint0_linear_145_182)"/>
<path fill-rule="evenodd" clip-rule="evenodd" d="M26.5205 28.0065C26.5205 27.7084 26.7622 27.4668 27.0602 27.4668H42.1047C42.4027 27.4668 42.6444 27.7084 42.6444 28.0065C42.6444 28.3046 42.4027 28.5462 42.1047 28.5462H27.0602C26.7622 28.5462 26.5205 28.3046 26.5205 28.0065ZM26.5205 31.1708C26.5205 30.8727 26.7622 30.6311 27.0602 30.6311H39.4723C39.7704 30.6311 40.0121 30.8727 40.0121 31.1708C40.0121 31.4689 39.7704 31.7105 39.4723 31.7105H27.0602C26.7622 31.7105 26.5205 31.4689 26.5205 31.1708ZM46.9422 33.0371C45.3752 33.0371 43.8725 33.6596 42.7645 34.7676C41.6565 35.8756 41.0341 37.3784 41.0341 38.9453C41.0341 40.1138 41.3806 41.2561 42.0297 42.2276C42.6789 43.1993 43.6017 43.9565 44.6812 44.4037C45.7608 44.8509 46.9487 44.9678 48.0948 44.7399C49.2409 44.5119 50.2936 43.9492 51.1198 43.123C51.9461 42.2967 52.5088 41.244 52.7368 40.0979C52.9648 38.9518 52.8477 37.7639 52.4006 36.6843C51.9534 35.6048 51.1961 34.6821 50.2246 34.0328C49.253 33.3836 48.1107 33.0371 46.9422 33.0371ZM42.0012 34.0043C43.3116 32.6939 45.0889 31.9577 46.9422 31.9577C48.3242 31.9577 49.6752 32.3675 50.8243 33.1353C51.9734 33.9031 52.869 34.9944 53.3978 36.2713C53.9267 37.548 54.0651 38.953 53.7955 40.3085C53.5258 41.6639 52.8603 42.909 51.8832 43.8862C50.9059 44.8635 49.6609 45.529 48.3054 45.7986C46.9499 46.0682 45.545 45.9298 44.2681 45.401C42.9913 44.8721 41.9001 43.9765 41.1322 42.8274C40.3645 41.6783 39.9546 40.3273 39.9546 38.9453C39.9546 37.0921 40.6908 35.3148 42.0012 34.0043ZM26.5205 34.3351C26.5205 34.037 26.7622 33.7953 27.0602 33.7953H37.2688C37.5668 33.7953 37.8085 34.037 37.8085 34.3351C37.8085 34.6331 37.5668 34.8748 37.2688 34.8748H27.0602C26.7622 34.8748 26.5205 34.6331 26.5205 34.3351ZM26.5205 37.4993C26.5205 37.2013 26.7622 36.9596 27.0602 36.9596H35.9792C36.2773 36.9596 36.5189 37.2013 36.5189 37.4993C36.5189 37.7974 36.2773 38.039 35.9792 38.039H27.0602C26.7622 38.039 26.5205 37.7974 26.5205 37.4993Z" fill="url(#paint1_linear_145_182)"/>
<path fill-rule="evenodd" clip-rule="evenodd" d="M51.0617 34.8825C51.2251 35.059 51.252 35.3223 51.1277 35.5282L46.6674 42.9158C46.5727 43.0727 46.4048 43.1708 46.2217 43.1763C46.0385 43.1818 45.8651 43.0941 45.7611 42.9433L43.1287 39.1261C43.0401 38.9976 43.0115 38.8372 43.0501 38.686C43.0888 38.5349 43.191 38.4078 43.3304 38.3376L50.423 34.7671C50.6378 34.659 50.8982 34.706 51.0617 34.8825ZM44.369 39.0233L46.1753 41.6425L49.2358 36.5733L44.369 39.0233ZM22.2147 45.4873C22.2955 45.2801 22.4951 45.1438 22.7175 45.1438H28.5431V45.6834L28.5476 45.1438C29.7158 45.1535 30.8324 45.6265 31.6521 46.4589C32.4714 47.2909 32.9271 48.4139 32.9193 49.5814V54.5767C32.9193 54.7909 32.7926 54.9849 32.5964 55.0709C32.4002 55.157 32.1717 55.1189 32.014 54.9738L22.352 46.0806C22.1883 45.9299 22.1339 45.6944 22.2147 45.4873ZM28.5408 46.2232H24.1008L31.8398 53.3463V49.5757C31.8461 48.6935 31.5019 47.8449 30.883 47.2163C30.2645 46.5882 29.4222 46.231 28.5408 46.2232Z" fill="url(#paint2_linear_145_182)"/>
</g>
<defs>
<linearGradient id="paint0_linear_145_182" x1="47.4366" y1="22.6035" x2="15.9296" y2="47.0774" gradientUnits="userSpaceOnUse">
<stop stop-color="#3FBBFF"/>
<stop offset="1" stop-color="#A8E26D"/>
</linearGradient>
<linearGradient id="paint1_linear_145_182" x1="53.9298" y1="27.4668" x2="36.8158" y2="52.8689" gradientUnits="userSpaceOnUse">
<stop stop-color="#3FBBFF"/>
<stop offset="1" stop-color="#A8E26D"/>
</linearGradient>
<linearGradient id="paint2_linear_145_182" x1="51.2054" y1="34.7095" x2="32.003" y2="62.0237" gradientUnits="userSpaceOnUse">
<stop stop-color="#3FBBFF"/>
<stop offset="1" stop-color="#A8E26D"/>
</linearGradient>
<clipPath id="clip0_145_182">
<rect width="77" height="77" fill="white"/>
</clipPath>
</defs>
</svg>
