<?xml version="1.0" encoding="UTF-8"?> <svg xmlns="http://www.w3.org/2000/svg" width="241" height="67" viewBox="0 0 241 67" fill="none"><path d="M24.5222 54.621C17.1162 54.621 11.2742 52.321 6.99624 47.721C2.76424 43.075 0.648241 37.049 0.648241 29.643V29.091C0.648241 21.823 2.85624 15.82 7.27224 11.082C11.7342 6.298 17.4842 3.906 24.5222 3.906C29.8122 3.906 34.2972 5.217 37.9772 7.839C41.6572 10.415 43.8652 14.325 44.6012 19.569H38.5982C37.3102 12.301 32.6642 8.667 24.6602 8.667C19.0942 8.667 14.7242 10.53 11.5502 14.256C8.42224 17.936 6.85824 22.858 6.85824 29.022V29.574C6.85824 35.83 8.37624 40.775 11.4122 44.409C14.4482 47.997 18.8182 49.791 24.5222 49.791C29.6282 49.791 33.4692 48.342 36.0452 45.444C38.6212 42.546 39.9552 38.751 40.0472 34.059H25.6262V29.091H45.9122V32.748C45.9122 39.74 43.9572 45.145 40.0472 48.963C36.1832 52.735 31.0082 54.621 24.5222 54.621ZM54.1647 54V17.913H59.8917V24.399C61.1337 22.145 62.6517 20.42 64.4457 19.224C66.2857 18.028 68.7237 17.384 71.7597 17.292V22.674C67.8037 22.858 64.8367 23.778 62.8587 25.434C60.8807 27.09 59.8917 30.011 59.8917 34.197V54H54.1647ZM87.4292 54.621C83.8872 54.621 80.9892 53.747 78.7352 51.999C76.5272 50.205 75.4232 47.537 75.4232 43.995C75.4232 40.131 77.1252 37.302 80.5292 35.508C83.9792 33.714 88.3032 32.817 93.5012 32.817H98.6762V30.195C98.6762 27.297 98.0782 25.227 96.8822 23.985C95.6862 22.697 93.7082 22.053 90.9482 22.053C85.9802 22.053 83.2202 24.215 82.6682 28.539H76.9412C77.3092 24.675 78.8272 21.846 81.4952 20.052C84.1632 18.212 87.4062 17.292 91.2242 17.292C100.01 17.292 104.403 21.593 104.403 30.195V54H98.6762V49.446C95.9162 52.896 92.1672 54.621 87.4292 54.621ZM87.9812 50.067C91.1092 50.067 93.6622 49.308 95.6402 47.79C97.6642 46.226 98.6762 44.087 98.6762 41.373V36.888H93.7082C85.3362 36.888 81.1502 39.257 81.1502 43.995C81.1502 48.043 83.4272 50.067 87.9812 50.067ZM114.273 66.558V17.913H120V23.985C121.104 22.145 122.783 20.581 125.037 19.293C127.291 17.959 129.683 17.292 132.213 17.292C137.043 17.292 140.976 18.948 144.012 22.26C147.094 25.526 148.635 29.919 148.635 35.439V35.991C148.635 41.557 147.117 46.065 144.081 49.515C141.091 52.919 137.135 54.621 132.213 54.621C129.407 54.621 126.946 54.023 124.83 52.827C122.714 51.585 121.104 49.998 120 48.066V66.558H114.273ZM131.661 49.86C135.249 49.86 137.986 48.687 139.872 46.341C141.758 43.995 142.701 40.637 142.701 36.267V35.715C142.701 31.345 141.643 27.987 139.527 25.641C137.457 23.249 134.812 22.053 131.592 22.053C128.096 22.053 125.244 23.226 123.036 25.572C120.874 27.872 119.793 31.253 119.793 35.715V36.267C119.793 40.729 120.851 44.11 122.967 46.41C125.129 48.71 128.027 49.86 131.661 49.86ZM156.153 54V0.662996H161.88V23.64C162.754 21.8 164.203 20.282 166.227 19.086C168.251 17.89 170.666 17.292 173.472 17.292C177.428 17.292 180.533 18.465 182.787 20.811C185.041 23.157 186.168 26.837 186.168 31.851V54H180.441V31.437C180.441 28.263 179.751 25.94 178.371 24.468C176.991 22.996 174.852 22.26 171.954 22.26C169.148 22.26 166.756 23.134 164.778 24.882C162.846 26.63 161.88 29.045 161.88 32.127V54H156.153ZM196.149 54V17.913H201.876V54H196.149ZM201.531 9.288C200.795 10.024 199.921 10.392 198.909 10.392C197.897 10.392 197 10.024 196.218 9.288C195.482 8.552 195.114 7.655 195.114 6.597C195.114 5.539 195.482 4.642 196.218 3.906C197 3.17 197.897 2.802 198.909 2.802C199.921 2.802 200.795 3.17 201.531 3.906C202.313 4.642 202.704 5.539 202.704 6.597C202.704 7.655 202.313 8.552 201.531 9.288ZM212.218 54V0.662996H217.945V34.542L232.918 17.913H239.611L224.155 34.68L240.922 54H233.953L217.945 35.301V54H212.218Z" fill="black"></path></svg> 