<?xml version="1.0" encoding="UTF-8"?> <svg xmlns="http://www.w3.org/2000/svg" width="494" height="92" viewBox="0 0 494 92" fill="none"><path d="M28.9597 73C23.8875 73 19.6778 71.6025 16.3308 68.8076C12.9838 65.9782 11.3103 60.6299 11.3103 52.7627V30.5586H0.285889V19.793H11.3103V4.21387L23.8357 4.11035V19.793H39.7771V30.5586H23.8357V53.332C23.8357 59.5085 26.4063 62.5967 31.5476 62.5967H39.7771V73H28.9597ZM95.9116 45.4648C95.9116 46.638 95.8253 48.0527 95.6528 49.709H54.0912C54.5053 52.5384 55.4024 54.9883 56.7826 57.0586C58.1974 59.1289 59.9399 60.7161 62.0102 61.8203C64.115 62.89 66.3923 63.4248 68.8422 63.4248C71.9477 63.4248 74.4838 62.821 76.4506 61.6133C78.4519 60.3711 79.9184 58.5941 80.85 56.2822H94.5141C93.5825 59.5602 91.9435 62.5967 89.5971 65.3916C87.2507 68.1865 84.3005 70.4294 80.7465 72.1201C77.227 73.7764 73.3451 74.6045 69.101 74.6045C63.8907 74.6045 59.1808 73.3451 54.9711 70.8262C50.7615 68.3073 47.4662 64.8913 45.0854 60.5781C42.7045 56.265 41.5141 51.5378 41.5141 46.3965C41.5141 41.2552 42.7045 36.528 45.0854 32.2148C47.4662 27.9017 50.7615 24.4857 54.9711 21.9668C59.1808 19.4479 63.8907 18.1885 69.101 18.1885C74.3113 18.1885 78.9522 19.4307 83.0239 21.915C87.0955 24.3994 90.2527 27.7292 92.4955 31.9043C94.7729 36.0449 95.9116 40.5651 95.9116 45.4648ZM83.1274 40.0303C82.9548 38.0635 82.213 36.252 80.9018 34.5957C79.5906 32.9049 77.8826 31.5765 75.7778 30.6104C73.7075 29.6097 71.4646 29.1094 69.0492 29.1094C65.7022 29.1094 62.7003 30.041 60.0434 31.9043C57.421 33.7331 55.6095 36.4417 54.6088 40.0303H83.1274ZM168.194 18.1885C174.785 18.1885 179.754 20.4313 183.101 24.917C186.482 29.4027 188.173 35.8724 188.173 44.3262V73H175.803V44.585C175.803 39.5127 174.819 35.7689 172.853 33.3535C170.92 30.9382 168.16 29.7305 164.571 29.7305C162.329 29.7305 160.224 30.4206 158.257 31.8008C156.29 33.1465 154.703 35.0443 153.495 37.4941C152.322 39.944 151.735 42.7217 151.735 45.8271V73H139.365V44.585C139.365 39.5127 138.382 35.7689 136.415 33.3535C134.483 30.9382 131.74 29.7305 128.186 29.7305C125.943 29.7305 123.838 30.4206 121.871 31.8008C119.904 33.1465 118.317 35.0443 117.109 37.4941C115.936 39.944 115.35 42.7217 115.35 45.8271V73H102.98V19.793H114.677L114.832 28.0742C116.247 25.1758 118.472 22.8122 121.509 20.9834C124.545 19.1201 127.979 18.1885 131.809 18.1885C136.225 18.1885 139.917 19.2064 142.885 21.2422C145.852 23.278 148.078 26.2627 149.562 30.1963C151.804 26.1592 154.496 23.1572 157.636 21.1904C160.81 19.1891 164.33 18.1885 168.194 18.1885ZM211.182 19.793V28.7471C213.115 25.5036 215.685 22.9502 218.894 21.0869C222.138 19.1891 225.657 18.2402 229.453 18.2402C234.387 18.2402 238.821 19.4997 242.755 22.0186C246.723 24.5374 249.811 27.9535 252.019 32.2666C254.262 36.5452 255.384 41.2552 255.384 46.3965C255.384 51.5723 254.262 56.3167 252.019 60.6299C249.776 64.9085 246.688 68.3073 242.755 70.8262C238.856 73.3451 234.473 74.6045 229.608 74.6045C225.778 74.6045 222.259 73.6901 219.05 71.8613C215.841 69.998 213.339 67.5137 211.545 64.4082L211.804 70.5674V91.167H199.278V19.793H211.182ZM227.331 63.0625C230.16 63.0625 232.765 62.3896 235.146 61.0439C237.527 59.6637 239.425 57.7142 240.84 55.1953C242.254 52.6764 242.962 49.7435 242.962 46.3965C242.962 43.153 242.254 40.2718 240.84 37.7529C239.459 35.234 237.562 33.2845 235.146 31.9043C232.765 30.4896 230.143 29.7822 227.279 29.7822C224.45 29.7822 221.827 30.5241 219.412 32.0078C217.031 33.457 215.133 35.4583 213.719 38.0117C212.338 40.5651 211.648 43.36 211.648 46.3965C211.648 49.571 212.356 52.4349 213.77 54.9883C215.185 57.5072 217.083 59.4912 219.464 60.9404C221.879 62.3551 224.501 63.0625 227.331 63.0625ZM263.176 0.0732422H275.702V73H263.176V0.0732422ZM337.84 45.4648C337.84 46.638 337.754 48.0527 337.581 49.709H296.02C296.434 52.5384 297.331 54.9883 298.711 57.0586C300.126 59.1289 301.868 60.7161 303.939 61.8203C306.043 62.89 308.321 63.4248 310.771 63.4248C313.876 63.4248 316.412 62.821 318.379 61.6133C320.38 60.3711 321.847 58.5941 322.778 56.2822H336.443C335.511 59.5602 333.872 62.5967 331.526 65.3916C329.179 68.1865 326.229 70.4294 322.675 72.1201C319.155 73.7764 315.274 74.6045 311.029 74.6045C305.819 74.6045 301.109 73.3451 296.9 70.8262C292.69 68.3073 289.395 64.8913 287.014 60.5781C284.633 56.265 283.443 51.5378 283.443 46.3965C283.443 41.2552 284.633 36.528 287.014 32.2148C289.395 27.9017 292.69 24.4857 296.9 21.9668C301.109 19.4479 305.819 18.1885 311.029 18.1885C316.24 18.1885 320.881 19.4307 324.952 21.915C329.024 24.3994 332.181 27.7292 334.424 31.9043C336.701 36.0449 337.84 40.5651 337.84 45.4648ZM325.056 40.0303C324.883 38.0635 324.141 36.252 322.83 34.5957C321.519 32.9049 319.811 31.5765 317.706 30.6104C315.636 29.6097 313.393 29.1094 310.978 29.1094C307.631 29.1094 304.629 30.041 301.972 31.9043C299.349 33.7331 297.538 36.4417 296.537 40.0303H325.056ZM365.766 73C360.694 73 356.485 71.6025 353.138 68.8076C349.791 65.9782 348.117 60.6299 348.117 52.7627V30.5586H337.093V19.793H348.117V4.21387L360.642 4.11035V19.793H376.584V30.5586H360.642V53.332C360.642 59.5085 363.213 62.5967 368.354 62.5967H376.584V73H365.766ZM406.27 74.6045C400.991 74.6045 396.212 73.3451 391.933 70.8262C387.689 68.3073 384.359 64.9085 381.944 60.6299C379.528 56.3167 378.321 51.5723 378.321 46.3965C378.321 41.2552 379.528 36.528 381.944 32.2148C384.359 27.9017 387.689 24.4857 391.933 21.9668C396.212 19.4479 401.008 18.1885 406.322 18.1885C411.67 18.1885 416.484 19.4479 420.762 21.9668C425.041 24.4857 428.388 27.9017 430.803 32.2148C433.219 36.528 434.426 41.2552 434.426 46.3965C434.426 51.5723 433.219 56.3167 430.803 60.6299C428.388 64.943 425.024 68.359 420.71 70.8779C416.432 73.3623 411.618 74.6045 406.27 74.6045ZM406.374 62.959C409.341 62.959 411.998 62.2516 414.344 60.8369C416.725 59.4222 418.588 57.4554 419.934 54.9365C421.314 52.4176 422.004 49.571 422.004 46.3965C422.004 43.2565 421.314 40.4271 419.934 37.9082C418.588 35.3548 416.725 33.3708 414.344 31.9561C411.963 30.5068 409.306 29.7822 406.374 29.7822C403.441 29.7822 400.784 30.5068 398.403 31.9561C396.022 33.3708 394.141 35.3548 392.761 37.9082C391.416 40.4271 390.743 43.2565 390.743 46.3965C390.743 49.571 391.416 52.4176 392.761 54.9365C394.141 57.4554 396.005 59.4222 398.351 60.8369C400.732 62.2516 403.406 62.959 406.374 62.959ZM454.071 19.793V28.0742C455.624 25.1068 458.022 22.7259 461.266 20.9316C464.544 19.1029 468.201 18.1885 472.238 18.1885C479.312 18.1885 484.643 20.4313 488.232 24.917C491.82 29.4027 493.614 35.8724 493.614 44.3262V73H481.089V44.585C481.089 39.4782 480.019 35.7344 477.88 33.3535C475.741 30.9382 472.704 29.7305 468.771 29.7305C466.252 29.7305 463.923 30.3688 461.783 31.6455C459.644 32.8877 457.919 34.7337 456.608 37.1836C455.331 39.599 454.693 42.4801 454.693 45.8271V73H442.167V19.793H454.071Z" fill="white"></path></svg> 