<?xml version="1.0" encoding="UTF-8"?> <svg xmlns="http://www.w3.org/2000/svg" width="810" height="18" viewBox="0 0 810 18" fill="none"><path d="M3.84398 14.144C2.85998 14.144 2.07398 13.916 1.48598 13.46C0.909976 12.992 0.621976 12.338 0.621976 11.498C0.621976 9.614 2.03198 8.672 4.85198 8.672H7.19198V7.754C7.19198 6.794 6.98198 6.092 6.56198 5.648C6.14198 5.204 5.47598 4.982 4.56398 4.982C3.78398 4.982 3.12998 5.162 2.60198 5.522C2.08598 5.882 1.76798 6.428 1.64798 7.16H1.03598C1.14398 6.272 1.52798 5.6 2.18798 5.144C2.85998 4.676 3.65798 4.442 4.58198 4.442C6.72998 4.442 7.80398 5.546 7.80398 7.754V14H7.19198V12.398C6.89198 12.914 6.45398 13.334 5.87798 13.658C5.31398 13.982 4.63598 14.144 3.84398 14.144ZM3.87998 13.622C4.77998 13.622 5.55398 13.382 6.20198 12.902C6.86198 12.41 7.19198 11.816 7.19198 11.12V9.176H4.85198C3.72398 9.176 2.83598 9.344 2.18798 9.68C1.55198 10.016 1.23398 10.622 1.23398 11.498C1.23398 12.182 1.46198 12.71 1.91798 13.082C2.37398 13.442 3.02798 13.622 3.87998 13.622ZM36.5227 14.144C35.6587 14.144 34.9147 13.922 34.2907 13.478C33.6667 13.034 33.2167 12.494 32.9407 11.858V14H31.9867V0.0859989H32.9407V6.782C33.2287 6.134 33.6967 5.582 34.3447 5.126C35.0047 4.67 35.7307 4.442 36.5227 4.442C37.7347 4.442 38.7427 4.874 39.5467 5.738C40.3507 6.602 40.7527 7.754 40.7527 9.194V9.338C40.7527 10.79 40.3567 11.954 39.5647 12.83C38.7727 13.706 37.7587 14.144 36.5227 14.144ZM36.4507 13.334C37.4587 13.334 38.2627 12.986 38.8627 12.29C39.4627 11.582 39.7627 10.61 39.7627 9.374V9.23C39.7627 7.982 39.4447 7.01 38.8087 6.314C38.1727 5.606 37.3807 5.252 36.4327 5.252C35.4607 5.252 34.6327 5.606 33.9487 6.314C33.2647 7.022 32.9227 7.994 32.9227 9.23V9.374C32.9227 10.622 33.2527 11.594 33.9127 12.29C34.5847 12.986 35.4307 13.334 36.4507 13.334ZM68.2802 14.162C66.9482 14.162 65.8442 13.73 64.9682 12.866C64.1042 11.99 63.6722 10.832 63.6722 9.392V9.248C63.6722 7.832 64.1102 6.674 64.9862 5.774C65.8742 4.874 66.9602 4.424 68.2442 4.424C69.3242 4.424 70.2422 4.694 70.9982 5.234C71.7542 5.762 72.1982 6.59 72.3302 7.718H70.8542C70.6382 6.35 69.7682 5.666 68.2442 5.666C67.3682 5.666 66.6422 5.996 66.0662 6.656C65.5022 7.304 65.2202 8.168 65.2202 9.248V9.392C65.2202 10.52 65.4962 11.39 66.0482 12.002C66.6122 12.614 67.3622 12.92 68.2982 12.92C69.0062 12.92 69.6122 12.722 70.1162 12.326C70.6322 11.918 70.9262 11.348 70.9982 10.616H72.3842C72.2882 11.648 71.8562 12.5 71.0882 13.172C70.3322 13.832 69.3962 14.162 68.2802 14.162ZM99.2818 14.18C98.0578 14.18 97.0618 13.766 96.2938 12.938C95.5258 12.098 95.1418 10.934 95.1418 9.446V9.302C95.1418 7.814 95.5378 6.626 96.3298 5.738C97.1218 4.838 98.1358 4.388 99.3718 4.388C100.764 4.388 101.766 4.934 102.378 6.026V0.229999H104.556V14H102.378V12.416C102.114 12.908 101.694 13.328 101.118 13.676C100.554 14.012 99.9418 14.18 99.2818 14.18ZM99.8218 12.452C100.614 12.452 101.25 12.188 101.73 11.66C102.21 11.132 102.45 10.358 102.45 9.338V9.194C102.45 8.174 102.228 7.406 101.784 6.89C101.34 6.362 100.716 6.098 99.9118 6.098C99.1078 6.098 98.4838 6.374 98.0398 6.926C97.5958 7.466 97.3738 8.24 97.3738 9.248V9.392C97.3738 10.388 97.5958 11.15 98.0398 11.678C98.4958 12.194 99.0898 12.452 99.8218 12.452ZM132.668 14.198C131.216 14.198 130.034 13.772 129.122 12.92C128.21 12.056 127.754 10.886 127.754 9.41V9.266C127.754 7.802 128.21 6.62 129.122 5.72C130.046 4.82 131.204 4.37 132.596 4.37C133.916 4.37 135.008 4.772 135.872 5.576C136.748 6.38 137.186 7.574 137.186 9.158V9.878H130.4C130.436 10.658 130.658 11.264 131.066 11.696C131.474 12.128 132.032 12.344 132.74 12.344C133.868 12.344 134.522 11.906 134.702 11.03H137.168C137.012 12.05 136.544 12.836 135.764 13.388C134.984 13.928 133.952 14.198 132.668 14.198ZM130.436 8.276H134.648C134.564 6.872 133.88 6.17 132.596 6.17C132.008 6.17 131.522 6.356 131.138 6.728C130.766 7.088 130.532 7.604 130.436 8.276ZM160.513 14V6.782H159.325V4.586H160.513V3.758C160.513 2.618 160.837 1.76 161.485 1.184C162.145 0.595999 163.051 0.301999 164.203 0.301999C164.659 0.301999 165.151 0.367999 165.679 0.499999V2.858C165.403 2.774 165.109 2.732 164.797 2.732C164.077 2.732 163.717 3.074 163.717 3.758V4.586H165.625V6.782H163.717V14H160.513ZM192.728 17.492C189.632 17.492 187.952 16.304 187.688 13.928H191.198C191.366 14.672 191.882 15.044 192.746 15.044C193.946 15.044 194.546 14.444 194.546 13.244V11.786C194.294 12.266 193.916 12.662 193.412 12.974C192.92 13.286 192.344 13.442 191.684 13.442C190.556 13.442 189.614 13.052 188.858 12.272C188.114 11.48 187.742 10.382 187.742 8.978V8.834C187.742 7.466 188.12 6.374 188.876 5.558C189.632 4.73 190.562 4.316 191.666 4.316C193.01 4.316 193.97 4.838 194.546 5.882V4.586H198.092V13.19C198.092 14.594 197.636 15.662 196.724 16.394C195.812 17.126 194.48 17.492 192.728 17.492ZM192.998 10.922C193.514 10.922 193.916 10.748 194.204 10.4C194.504 10.052 194.654 9.578 194.654 8.978V8.852C194.654 8.264 194.51 7.802 194.222 7.466C193.934 7.118 193.526 6.944 192.998 6.944C192.47 6.944 192.062 7.118 191.774 7.466C191.486 7.802 191.342 8.27 191.342 8.87V9.014C191.342 9.602 191.486 10.07 191.774 10.418C192.062 10.754 192.47 10.922 192.998 10.922ZM221.772 14V0.0859989H223.266V6.08C223.494 5.6 223.872 5.204 224.4 4.892C224.928 4.58 225.558 4.424 226.29 4.424C227.322 4.424 228.132 4.73 228.72 5.342C229.308 5.954 229.602 6.914 229.602 8.222V14H228.108V8.114C228.108 7.286 227.928 6.68 227.568 6.296C227.208 5.912 226.65 5.72 225.894 5.72C225.162 5.72 224.538 5.948 224.022 6.404C223.518 6.86 223.266 7.49 223.266 8.294V14H221.772ZM253.896 14V4.586H255.39V14H253.896ZM255.3 2.336C255.108 2.528 254.88 2.624 254.616 2.624C254.352 2.624 254.118 2.528 253.914 2.336C253.722 2.144 253.626 1.91 253.626 1.634C253.626 1.358 253.722 1.124 253.914 0.932C254.118 0.739999 254.352 0.643999 254.616 0.643999C254.88 0.643999 255.108 0.739999 255.3 0.932C255.504 1.124 255.606 1.358 255.606 1.634C255.606 1.91 255.504 2.144 255.3 2.336ZM278.428 17.438V16.178C278.932 16.13 279.286 15.986 279.49 15.746C279.706 15.506 279.814 15.164 279.814 14.72V4.586H281.308V14.594C281.308 15.518 281.08 16.214 280.624 16.682C280.18 17.15 279.448 17.402 278.428 17.438ZM281.218 2.336C281.026 2.528 280.798 2.624 280.534 2.624C280.27 2.624 280.036 2.528 279.832 2.336C279.64 2.144 279.544 1.91 279.544 1.634C279.544 1.358 279.64 1.124 279.832 0.932C280.036 0.739999 280.27 0.643999 280.534 0.643999C280.798 0.643999 281.026 0.739999 281.218 0.932C281.422 1.124 281.524 1.358 281.524 1.634C281.524 1.91 281.422 2.144 281.218 2.336ZM305.696 14V0.0859989H307.19V8.924L311.096 4.586H312.842L308.81 8.96L313.184 14H311.366L307.19 9.122V14H305.696ZM336.343 14V0.0859989H337.855V14H336.343ZM362.243 14V4.586H363.737V6.026C363.965 5.558 364.325 5.174 364.817 4.874C365.321 4.574 365.897 4.424 366.545 4.424C367.925 4.424 368.843 5.012 369.299 6.188C369.599 5.612 370.049 5.174 370.649 4.874C371.261 4.574 371.885 4.424 372.521 4.424C373.445 4.424 374.201 4.73 374.789 5.342C375.389 5.942 375.689 6.884 375.689 8.168V14H374.195V8.06C374.195 6.5 373.529 5.72 372.197 5.72C371.525 5.72 370.943 5.942 370.451 6.386C369.959 6.83 369.713 7.448 369.713 8.24V14H368.219V8.06C368.219 6.5 367.553 5.72 366.221 5.72C365.549 5.72 364.967 5.942 364.475 6.386C363.983 6.83 363.737 7.448 363.737 8.24V14H362.243ZM399.955 14V4.586H401.449V6.08C401.677 5.6 402.055 5.204 402.583 4.892C403.111 4.58 403.741 4.424 404.473 4.424C405.505 4.424 406.315 4.73 406.903 5.342C407.491 5.954 407.785 6.914 407.785 8.222V14H406.291V8.114C406.291 7.286 406.111 6.68 405.751 6.296C405.391 5.912 404.833 5.72 404.077 5.72C403.345 5.72 402.721 5.948 402.205 6.404C401.701 6.86 401.449 7.49 401.449 8.294V14H399.955ZM435.967 12.92C436.903 12.92 437.647 12.596 438.199 11.948C438.763 11.3 439.045 10.442 439.045 9.374V9.248C439.045 8.156 438.763 7.286 438.199 6.638C437.647 5.99 436.903 5.666 435.967 5.666C435.019 5.666 434.269 5.99 433.717 6.638C433.165 7.286 432.889 8.15 432.889 9.23V9.374C432.889 10.454 433.165 11.318 433.717 11.966C434.269 12.602 435.019 12.92 435.967 12.92ZM435.949 14.162C434.617 14.162 433.513 13.712 432.637 12.812C431.773 11.9 431.341 10.754 431.341 9.374V9.23C431.341 7.826 431.773 6.674 432.637 5.774C433.513 4.874 434.623 4.424 435.967 4.424C437.311 4.424 438.415 4.874 439.279 5.774C440.155 6.662 440.593 7.808 440.593 9.212V9.356C440.593 10.772 440.155 11.93 439.279 12.83C438.403 13.718 437.293 14.162 435.949 14.162ZM464.236 17.276V4.586H465.73V6.17C466.018 5.69 466.456 5.282 467.044 4.946C467.632 4.598 468.256 4.424 468.916 4.424C470.176 4.424 471.202 4.856 471.994 5.72C472.798 6.572 473.2 7.718 473.2 9.158V9.302C473.2 10.754 472.804 11.93 472.012 12.83C471.232 13.718 470.2 14.162 468.916 14.162C468.184 14.162 467.542 14.006 466.99 13.694C466.438 13.37 466.018 12.956 465.73 12.452V17.276H464.236ZM468.772 12.92C469.708 12.92 470.422 12.614 470.914 12.002C471.406 11.39 471.652 10.514 471.652 9.374V9.23C471.652 8.09 471.376 7.214 470.824 6.602C470.284 5.978 469.594 5.666 468.754 5.666C467.842 5.666 467.098 5.972 466.522 6.584C465.958 7.184 465.676 8.066 465.676 9.23V9.374C465.676 10.538 465.952 11.42 466.504 12.02C467.068 12.62 467.824 12.92 468.772 12.92ZM503.62 17.276V12.38C503.332 12.86 502.888 13.28 502.288 13.64C501.688 13.988 501.058 14.162 500.398 14.162C499.138 14.162 498.112 13.742 497.32 12.902C496.54 12.062 496.15 10.922 496.15 9.482V9.338C496.15 7.898 496.558 6.722 497.374 5.81C498.19 4.886 499.246 4.424 500.542 4.424C501.934 4.424 502.96 4.982 503.62 6.098V4.586H505.114V17.276H503.62ZM500.56 12.92C501.484 12.92 502.234 12.62 502.81 12.02C503.386 11.408 503.674 10.52 503.674 9.356V9.212C503.674 8.036 503.41 7.154 502.882 6.566C502.366 5.966 501.634 5.666 500.686 5.666C499.75 5.666 499.018 5.984 498.49 6.62C497.962 7.244 497.698 8.126 497.698 9.266V9.41C497.698 10.55 497.962 11.42 498.49 12.02C499.03 12.62 499.72 12.92 500.56 12.92ZM529.467 14V4.586H530.961V6.278C531.285 5.69 531.681 5.24 532.149 4.928C532.629 4.616 533.265 4.448 534.057 4.424V5.828C533.025 5.876 532.251 6.116 531.735 6.548C531.219 6.98 530.961 7.742 530.961 8.834V14H529.467ZM560.392 14.162C559.264 14.162 558.376 13.892 557.728 13.352C557.092 12.812 556.75 12.062 556.702 11.102H558.16C558.28 12.314 559.018 12.92 560.374 12.92C561.742 12.92 562.426 12.422 562.426 11.426C562.426 10.958 562.252 10.616 561.904 10.4C561.568 10.172 561.01 9.986 560.23 9.842C559.006 9.614 558.154 9.302 557.674 8.906C557.194 8.498 556.954 7.886 556.954 7.07C556.954 6.254 557.278 5.612 557.926 5.144C558.586 4.664 559.324 4.424 560.14 4.424C562.18 4.424 563.314 5.33 563.542 7.142H562.102C561.994 6.626 561.784 6.254 561.472 6.026C561.16 5.786 560.71 5.666 560.122 5.666C559.582 5.666 559.15 5.792 558.826 6.044C558.502 6.284 558.34 6.608 558.34 7.016C558.34 7.448 558.49 7.766 558.79 7.97C559.102 8.174 559.684 8.354 560.536 8.51C561.1 8.618 561.55 8.726 561.886 8.834C562.234 8.93 562.57 9.08 562.894 9.284C563.23 9.488 563.47 9.758 563.614 10.094C563.77 10.418 563.848 10.82 563.848 11.3C563.848 12.176 563.548 12.872 562.948 13.388C562.36 13.904 561.508 14.162 560.392 14.162ZM590.317 14.126C589.489 14.126 588.859 13.904 588.427 13.46C587.995 13.016 587.779 12.41 587.779 11.642V5.846H586.429V4.586H587.779V2.444H589.273V4.586H591.469V5.846H589.273V11.498C589.273 12.41 589.663 12.866 590.443 12.866C590.875 12.866 591.259 12.8 591.595 12.668V13.928C591.223 14.06 590.797 14.126 590.317 14.126ZM615.419 14V5.846H614.069V4.586H615.419V3.056C615.419 2.084 615.653 1.34 616.121 0.823999C616.601 0.295999 617.303 0.0319996 618.227 0.0319996C618.611 0.0319996 618.983 0.0919995 619.343 0.211999V1.472C619.007 1.34 618.653 1.274 618.281 1.274C617.369 1.274 616.913 1.814 616.913 2.894V4.586H619.217V5.846H616.913V14H615.419ZM645.834 14.162C644.838 14.162 644.04 13.868 643.44 13.28C642.852 12.692 642.558 11.78 642.558 10.544V4.586H644.052V10.472C644.052 11.3 644.226 11.906 644.574 12.29C644.934 12.674 645.486 12.866 646.23 12.866C646.938 12.866 647.544 12.638 648.048 12.182C648.564 11.726 648.822 11.096 648.822 10.292V4.586H650.316V14H648.822V12.506C648.594 12.986 648.216 13.382 647.688 13.694C647.172 14.006 646.554 14.162 645.834 14.162ZM677.024 14L673.604 4.586H675.224L678.014 12.488L680.768 4.586H682.316L678.932 14H677.024ZM707.677 14L704.779 4.586H706.399L708.595 12.164L710.881 4.586H712.177L714.319 12.164L716.533 4.586H718.063L715.129 14H713.473L711.511 6.944L709.315 14H707.677ZM740.4 14L743.766 9.158L740.616 4.586H742.362L744.666 8.006L746.952 4.586H748.572L745.458 9.05L748.896 14H747.132L744.594 10.202L742.002 14H740.4ZM773.005 17.276L774.787 13.028L771.097 4.586H772.699L775.579 11.336L778.189 4.586H779.719L774.517 17.276H773.005ZM801.883 14V13.784L807.445 5.846H802.423V4.586H809.749V4.856L804.313 12.686H809.677V14H801.883Z" fill="black"></path></svg> 