<svg width="139" height="101" viewBox="0 0 139 101" fill="none" xmlns="http://www.w3.org/2000/svg">
<g clip-path="url(#clip0_307_540)">
<path d="M133.769 0H5.23118C2.34208 0 0 2.19816 0 4.90972V96.0903C0 98.8018 2.34208 101 5.23118 101H133.769C136.658 101 139 98.8018 139 96.0903V4.90972C139 2.19816 136.658 0 133.769 0Z" fill="white"/>
<path d="M9.45389 16.1319H8.48792L11.2818 8.99052H12.2329L15.0269 16.1319H14.0608L11.7871 10.1203H11.7277L9.45389 16.1319ZM9.81051 13.3423H13.7042V14.1095H9.81051V13.3423ZM18.4115 16.2435C17.8765 16.2435 17.4158 16.125 17.0294 15.8878C16.643 15.6507 16.3458 15.3241 16.1378 14.908C15.9297 14.4919 15.8256 14.0165 15.8256 13.4818C15.8256 12.9378 15.9322 12.4578 16.1452 12.0416C16.3607 11.6232 16.6604 11.2966 17.0443 11.0618C17.4307 10.8246 17.8815 10.7061 18.3967 10.7061C18.7979 10.7061 19.1595 10.7758 19.4815 10.9153C19.8036 11.0548 20.0673 11.2501 20.2729 11.5011C20.4785 11.7522 20.606 12.0451 20.6556 12.3799H19.7788C19.7119 12.1358 19.5633 11.9196 19.3329 11.7313C19.1051 11.5407 18.7979 11.4454 18.4115 11.4454C18.0697 11.4454 17.77 11.5291 17.5124 11.6964C17.2573 11.8615 17.0579 12.0951 16.9142 12.3973C16.7731 12.6972 16.7024 13.0494 16.7024 13.4539C16.7024 13.8677 16.7718 14.228 16.9106 14.5349C17.0517 14.8417 17.2498 15.08 17.505 15.2497C17.7626 15.4194 18.0648 15.5042 18.4115 15.5042C18.6394 15.5042 18.8463 15.4671 19.032 15.3927C19.2177 15.3183 19.3751 15.2113 19.5038 15.0718C19.6327 14.9324 19.7243 14.765 19.7788 14.5697H20.6556C20.606 14.8859 20.4835 15.1707 20.2877 15.4241C20.0946 15.6751 19.8382 15.8751 19.5187 16.0238C19.2017 16.1703 18.8326 16.2435 18.4115 16.2435ZM24.4192 10.7758V11.4733H21.4618V10.7758H24.4192ZM22.3238 9.49264H23.2006V14.5976C23.2006 14.8301 23.2365 15.0044 23.3083 15.1207C23.3827 15.2346 23.4767 15.3113 23.5907 15.3509C23.7071 15.388 23.8297 15.4066 23.9585 15.4066C24.0551 15.4066 24.1344 15.402 24.1963 15.3927C24.2582 15.3811 24.3078 15.3718 24.3449 15.3647L24.5232 16.104C24.4638 16.125 24.3808 16.1459 24.2743 16.1668C24.1678 16.1901 24.0328 16.2016 23.8693 16.2016C23.6217 16.2016 23.3789 16.1517 23.1411 16.0517C22.9058 15.9517 22.7102 15.7995 22.5541 15.5949C22.4005 15.3903 22.3238 15.1323 22.3238 14.8208V9.49264ZM25.7382 16.1319V10.7758H26.6149V16.1319H25.7382ZM26.184 9.88317C26.0131 9.88317 25.8657 9.82854 25.7418 9.71926C25.6205 9.61005 25.5598 9.47868 25.5598 9.32529C25.5598 9.17182 25.6205 9.04045 25.7418 8.93125C25.8657 8.82197 26.0131 8.76733 26.184 8.76733C26.3549 8.76733 26.501 8.82197 26.6224 8.93125C26.7462 9.04045 26.8082 9.17182 26.8082 9.32529C26.8082 9.47868 26.7462 9.61005 26.6224 9.71926C26.501 9.82854 26.3549 9.88317 26.184 9.88317ZM32.8873 10.7758L30.7771 16.1319H29.8854L27.7751 10.7758H28.7262L30.3015 15.044H30.361L31.9362 10.7758H32.8873ZM36.2331 16.2435C35.6832 16.2435 35.2089 16.1296 34.81 15.9018C34.4137 15.6717 34.1079 15.3509 33.8924 14.9393C33.6793 14.5256 33.5729 14.0444 33.5729 13.4957C33.5729 12.9471 33.6793 12.4636 33.8924 12.0451C34.1079 11.6244 34.4075 11.2966 34.7915 11.0618C35.1779 10.8246 35.6286 10.7061 36.1438 10.7061C36.4411 10.7061 36.7346 10.7526 37.0244 10.8456C37.3142 10.9386 37.578 11.0897 37.8158 11.2989C38.0535 11.5058 38.243 11.7801 38.3842 12.1219C38.5254 12.4636 38.596 12.8843 38.596 13.3842V13.7328H34.197V13.0215H37.7043C37.7043 12.7193 37.6399 12.4496 37.5111 12.2125C37.3847 11.9754 37.204 11.7883 36.9686 11.6511C36.7359 11.514 36.4609 11.4454 36.1438 11.4454C35.7946 11.4454 35.4924 11.5267 35.2373 11.6895C34.9847 11.8499 34.7902 12.0591 34.654 12.3171C34.5178 12.5752 34.4497 12.8518 34.4497 13.147V13.6213C34.4497 14.0258 34.524 14.3686 34.6726 14.65C34.8237 14.9289 35.033 15.1416 35.3005 15.2881C35.568 15.4322 35.8788 15.5042 36.2331 15.5042C36.4634 15.5042 36.6714 15.474 36.8572 15.4136C37.0455 15.3509 37.2077 15.2578 37.3439 15.1346C37.4802 15.0091 37.5854 14.8534 37.6597 14.6673L38.5068 14.8905C38.4176 15.1602 38.2678 15.3974 38.0572 15.6019C37.8467 15.8042 37.5867 15.9622 37.2771 16.0762C36.9674 16.1877 36.6194 16.2435 36.2331 16.2435ZM43.3033 8.99052L45.5622 15.0021H45.6514L47.9103 8.99052H48.8763L46.0823 16.1319H45.1312L42.3373 8.99052H43.3033ZM51.804 16.2435C51.2541 16.2435 50.7798 16.1296 50.381 15.9018C49.9847 15.6717 49.6788 15.3509 49.4633 14.9393C49.2503 14.5256 49.1438 14.0444 49.1438 13.4957C49.1438 12.9471 49.2503 12.4636 49.4633 12.0451C49.6788 11.6244 49.9785 11.2966 50.3624 11.0618C50.7488 10.8246 51.1996 10.7061 51.7148 10.7061C52.012 10.7061 52.3056 10.7526 52.5953 10.8456C52.8851 10.9386 53.1489 11.0897 53.3867 11.2989C53.6245 11.5058 53.8139 11.7801 53.9551 12.1219C54.0964 12.4636 54.1669 12.8843 54.1669 13.3842V13.7328H49.768V13.0215H53.2752C53.2752 12.7193 53.2109 12.4496 53.082 12.2125C52.9557 11.9754 52.7749 11.7883 52.5396 11.6511C52.3068 11.514 52.0318 11.4454 51.7148 11.4454C51.3655 11.4454 51.0634 11.5267 50.8083 11.6895C50.5556 11.8499 50.3612 12.0591 50.225 12.3171C50.0887 12.5752 50.0206 12.8518 50.0206 13.147V13.6213C50.0206 14.0258 50.0949 14.3686 50.2435 14.65C50.3946 14.9289 50.6039 15.1416 50.8714 15.2881C51.1389 15.4322 51.4498 15.5042 51.804 15.5042C52.0343 15.5042 52.2423 15.474 52.4281 15.4136C52.6164 15.3509 52.7786 15.2578 52.9149 15.1346C53.0511 15.0091 53.1563 14.8534 53.2307 14.6673L54.0777 14.8905C53.9886 15.1602 53.8388 15.3974 53.6282 15.6019C53.4176 15.8042 53.1576 15.9622 52.848 16.0762C52.5384 16.1877 52.1903 16.2435 51.804 16.2435ZM56.3775 12.9099V16.1319H55.5007V8.99052H56.3775V11.6127H56.4519C56.5856 11.3361 56.7862 11.1164 57.0537 10.9537C57.3237 10.7887 57.6829 10.7061 58.1312 10.7061C58.5201 10.7061 58.8606 10.7793 59.1529 10.9258C59.4452 11.0699 59.6718 11.2919 59.8328 11.5918C59.9962 11.8894 60.078 12.2683 60.078 12.7286V16.1319H59.2012V12.7844C59.2012 12.3589 59.0835 12.0301 58.8482 11.7975C58.6154 11.5628 58.2921 11.4454 57.8785 11.4454C57.5912 11.4454 57.3336 11.5023 57.1058 11.6162C56.8803 11.7301 56.702 11.8964 56.5707 12.1149C56.4419 12.3334 56.3775 12.5984 56.3775 12.9099ZM61.6821 16.1319V10.7758H62.5589V16.1319H61.6821ZM62.1279 9.88317C61.957 9.88317 61.8097 9.82854 61.6858 9.71926C61.5645 9.61005 61.5038 9.47868 61.5038 9.32529C61.5038 9.17182 61.5645 9.04045 61.6858 8.93125C61.8097 8.82197 61.957 8.76733 62.1279 8.76733C62.2989 8.76733 62.445 8.82197 62.5663 8.93125C62.6902 9.04045 62.7521 9.17182 62.7521 9.32529C62.7521 9.47868 62.6902 9.61005 62.5663 9.71926C62.445 9.82854 62.2989 9.88317 62.1279 9.88317ZM66.4832 16.2435C65.9482 16.2435 65.4876 16.125 65.1011 15.8878C64.7148 15.6507 64.4175 15.3241 64.2094 14.908C64.0014 14.4919 63.8973 14.0165 63.8973 13.4818C63.8973 12.9378 64.0038 12.4578 64.2169 12.0416C64.4324 11.6232 64.7321 11.2966 65.116 11.0618C65.5023 10.8246 65.9532 10.7061 66.4684 10.7061C66.8696 10.7061 67.2313 10.7758 67.5533 10.9153C67.8752 11.0548 68.139 11.2501 68.3446 11.5011C68.5502 11.7522 68.6778 12.0451 68.7273 12.3799H67.8505C67.7836 12.1358 67.635 11.9196 67.4046 11.7313C67.1768 11.5407 66.8696 11.4454 66.4832 11.4454C66.1415 11.4454 65.8417 11.5291 65.5841 11.6964C65.329 11.8615 65.1296 12.0951 64.986 12.3973C64.8448 12.6972 64.7742 13.0494 64.7742 13.4539C64.7742 13.8677 64.8435 14.228 64.9822 14.5349C65.1234 14.8417 65.3216 15.08 65.5767 15.2497C65.8343 15.4194 66.1364 15.5042 66.4832 15.5042C66.7111 15.5042 66.9179 15.4671 67.1037 15.3927C67.2895 15.3183 67.4467 15.2113 67.5755 15.0718C67.7043 14.9324 67.796 14.765 67.8505 14.5697H68.7273C68.6778 14.8859 68.5551 15.1707 68.3595 15.4241C68.1663 15.6751 67.9099 15.8751 67.5904 16.0238C67.2733 16.1703 66.9043 16.2435 66.4832 16.2435ZM70.8859 8.99052V16.1319H70.0091V8.99052H70.8859ZM74.8843 16.2435C74.3347 16.2435 73.8604 16.1296 73.4615 15.9018C73.0652 15.6717 72.7593 15.3509 72.5439 14.9393C72.3308 14.5256 72.2243 14.0444 72.2243 13.4957C72.2243 12.9471 72.3308 12.4636 72.5439 12.0451C72.7593 11.6244 73.059 11.2966 73.443 11.0618C73.8293 10.8246 74.2801 10.7061 74.7954 10.7061C75.0928 10.7061 75.3858 10.7526 75.6757 10.8456C75.9657 10.9386 76.2295 11.0897 76.4671 11.2989C76.7048 11.5058 76.8946 11.7801 77.0358 12.1219C77.1771 12.4636 77.2473 12.8843 77.2473 13.3842V13.7328H72.8485V13.0215H76.3558C76.3558 12.7193 76.2915 12.4496 76.1622 12.2125C76.0359 11.9754 75.8551 11.7883 75.6204 11.6511C75.3873 11.514 75.1123 11.4454 74.7954 11.4454C74.4461 11.4454 74.144 11.5267 73.8888 11.6895C73.6362 11.8499 73.4417 12.0591 73.3055 12.3171C73.1693 12.5752 73.1012 12.8518 73.1012 13.147V13.6213C73.1012 14.0258 73.1755 14.3686 73.3241 14.65C73.4752 14.9289 73.6844 15.1416 73.952 15.2881C74.2194 15.4322 74.5303 15.5042 74.8843 15.5042C75.1145 15.5042 75.323 15.474 75.5083 15.4136C75.6967 15.3509 75.8588 15.2578 75.9956 15.1346C76.1316 15.0091 76.237 14.8534 76.3109 14.6673L77.1584 14.8905C77.0695 15.1602 76.9193 15.3974 76.7085 15.6019C76.4985 15.8042 76.2385 15.9622 75.9283 16.0762C75.6189 16.1877 75.2707 16.2435 74.8843 16.2435ZM82.6235 11.9754L81.8358 12.1846C81.7865 12.0614 81.7133 11.9417 81.6169 11.8255C81.5227 11.7069 81.3934 11.6092 81.2305 11.5326C81.0668 11.4558 80.8576 11.4175 80.6028 11.4175C80.253 11.4175 79.9623 11.493 79.7292 11.6442C79.499 11.7929 79.3839 11.9824 79.3839 12.2125C79.3839 12.4171 79.4631 12.5786 79.6215 12.6972C79.78 12.8158 80.0281 12.9146 80.3644 12.9936L81.2118 13.1889C81.7222 13.3051 82.1019 13.4829 82.3522 13.7224C82.6026 13.9595 82.7274 14.2652 82.7274 14.6395C82.7274 14.9464 82.6332 15.2207 82.4449 15.4624C82.2595 15.7042 81.9995 15.8948 81.6647 16.0343C81.3306 16.1738 80.942 16.2435 80.4981 16.2435C79.916 16.2435 79.4347 16.125 79.0528 15.8878C78.6717 15.6507 78.4303 15.3043 78.3287 14.8487L79.1612 14.6534C79.2404 14.9417 79.3899 15.1579 79.6103 15.302C79.833 15.4462 80.1245 15.5182 80.4832 15.5182C80.892 15.5182 81.217 15.4368 81.4569 15.2741C81.6998 15.1091 81.8209 14.9114 81.8209 14.6813C81.8209 14.4954 81.7514 14.3396 81.6131 14.214C81.4741 14.0862 81.2611 13.9909 80.9742 13.9282L80.0228 13.7189C79.5005 13.6026 79.1164 13.4225 78.8712 13.1784C78.6284 12.932 78.5073 12.624 78.5073 12.2544C78.5073 11.9521 78.5977 11.6848 78.7778 11.4523C78.9617 11.2199 79.2105 11.0374 79.5251 10.9049C79.842 10.7724 80.2015 10.7061 80.6028 10.7061C81.167 10.7061 81.6101 10.8223 81.9322 11.0548C82.2573 11.2873 82.4875 11.5941 82.6235 11.9754Z" fill="#2B3354"/>
<path d="M10.0632 59.4905V66.6319H9.14185V59.4905H10.0632ZM12.6686 63.4099V66.6319H11.7917V61.2758H12.6389V62.1127H12.7132C12.8469 61.8407 13.0501 61.6222 13.3225 61.4572C13.5949 61.2898 13.9467 61.2061 14.3777 61.2061C14.764 61.2061 15.1021 61.2805 15.3919 61.4293C15.6817 61.5757 15.9071 61.7989 16.0681 62.0988C16.2291 62.3964 16.3096 62.7729 16.3096 63.2286V66.6319H15.4328V63.2844C15.4328 62.8636 15.3164 62.5358 15.0836 62.3011C14.8507 62.0639 14.5312 61.9454 14.125 61.9454C13.8451 61.9454 13.5949 62.0023 13.3745 62.1162C13.1566 62.2301 12.9844 62.3964 12.8581 62.6149C12.7318 62.8334 12.6686 63.0984 12.6686 63.4099ZM19.5912 66.7575C19.2296 66.7575 18.9014 66.6935 18.6066 66.5656C18.3119 66.4355 18.0778 66.2483 17.9045 66.0042C17.731 65.7578 17.6443 65.4602 17.6443 65.1116C17.6443 64.8047 17.7087 64.5559 17.8376 64.3654C17.9663 64.1724 18.1385 64.0213 18.354 63.9121C18.5695 63.8028 18.8072 63.7214 19.0673 63.6679C19.3299 63.6122 19.5937 63.568 19.8587 63.5354C20.2054 63.4936 20.4866 63.4622 20.7021 63.4413C20.92 63.4181 21.0785 63.3797 21.1776 63.3262C21.2792 63.2728 21.33 63.1798 21.33 63.0473V63.0193C21.33 62.6753 21.2296 62.4079 21.029 62.2174C20.8308 62.0267 20.5299 61.9314 20.1262 61.9314C19.7076 61.9314 19.3794 62.0174 19.1416 62.1895C18.9038 62.3615 18.7367 62.5451 18.64 62.7404L17.8078 62.4615C17.9565 62.136 18.1546 61.8826 18.4022 61.7013C18.6524 61.5176 18.9249 61.3897 19.2196 61.3177C19.5168 61.2433 19.8091 61.2061 20.0965 61.2061C20.2798 61.2061 20.4903 61.227 20.7281 61.2689C20.9684 61.3084 21.1999 61.3909 21.4228 61.5165C21.6483 61.642 21.8352 61.8315 21.9839 62.0848C22.1324 62.3382 22.2068 62.6776 22.2068 63.1031V66.6319H21.33V65.9066H21.2854C21.226 66.0228 21.1269 66.1472 20.9882 66.2798C20.8495 66.4122 20.6649 66.525 20.4345 66.618C20.2042 66.711 19.9231 66.7575 19.5912 66.7575ZM19.7249 66.0182C20.0717 66.0182 20.3639 65.9543 20.6017 65.8264C20.842 65.6986 21.0228 65.5335 21.1442 65.3313C21.268 65.129 21.33 64.9163 21.33 64.6931V63.9399C21.2928 63.9818 21.2111 64.0202 21.0847 64.055C20.9609 64.0876 20.8172 64.1166 20.6537 64.1422C20.4928 64.1654 20.3355 64.1864 20.1819 64.205C20.0309 64.2212 19.9082 64.2352 19.8141 64.2468C19.5862 64.2747 19.3732 64.32 19.175 64.3828C18.9794 64.4432 18.8209 64.535 18.6995 64.6583C18.5806 64.7791 18.5211 64.9442 18.5211 65.1534C18.5211 65.4393 18.6338 65.6556 18.8593 65.802C19.0871 65.9462 19.3757 66.0182 19.7249 66.0182ZM26.1255 66.7435C25.5905 66.7435 25.1298 66.625 24.7434 66.3878C24.357 66.1507 24.0598 65.8241 23.8517 65.408C23.6437 64.9919 23.5396 64.5165 23.5396 63.9818C23.5396 63.4378 23.6461 62.9578 23.8592 62.5416C24.0746 62.1232 24.3744 61.7966 24.7583 61.5618C25.1446 61.3246 25.5955 61.2061 26.1107 61.2061C26.5119 61.2061 26.8735 61.2758 27.1956 61.4153C27.5175 61.5548 27.7813 61.7501 27.9869 62.0011C28.1925 62.2522 28.32 62.5451 28.3696 62.8799H27.4928C27.4259 62.6358 27.2772 62.4196 27.0469 62.2313C26.8191 62.0407 26.5119 61.9454 26.1255 61.9454C25.7837 61.9454 25.484 62.0291 25.2264 62.1964C24.9713 62.3615 24.7719 62.5951 24.6282 62.8973C24.4871 63.1972 24.4165 63.5494 24.4165 63.9539C24.4165 64.3677 24.4858 64.728 24.6245 65.0349C24.7657 65.3417 24.9639 65.58 25.219 65.7497C25.4766 65.9194 25.7787 66.0042 26.1255 66.0042C26.3534 66.0042 26.5602 65.9671 26.746 65.8927C26.9318 65.8183 27.089 65.7113 27.2178 65.5718C27.3466 65.4324 27.4383 65.265 27.4928 65.0697H28.3696C28.32 65.3859 28.1974 65.6707 28.0018 65.9241C27.8086 66.1751 27.5522 66.3751 27.2327 66.5238C26.9156 66.6703 26.5466 66.7435 26.1255 66.7435ZM32.1332 61.2758V61.9733H29.1758V61.2758H32.1332ZM30.0377 59.9926H30.9145V65.0976C30.9145 65.3301 30.9505 65.5044 31.0223 65.6207C31.0966 65.7346 31.1908 65.8113 31.3046 65.8508C31.4211 65.888 31.5437 65.9066 31.6725 65.9066C31.7691 65.9066 31.8483 65.902 31.9103 65.8927C31.9722 65.8811 32.0218 65.8717 32.0589 65.8647L32.2372 66.604C32.1778 66.625 32.0948 66.6459 31.9883 66.6668C31.8818 66.6901 31.7468 66.7016 31.5833 66.7016C31.3357 66.7016 31.0929 66.6517 30.8551 66.5517C30.6198 66.4517 30.4242 66.2995 30.2681 66.0949C30.1146 65.8903 30.0377 65.6323 30.0377 65.3208V59.9926ZM33.4521 66.6319V61.2758H34.3289V66.6319H33.4521ZM33.898 60.3832C33.7271 60.3832 33.5797 60.3285 33.4559 60.2193C33.3345 60.1101 33.2738 59.9787 33.2738 59.8253C33.2738 59.6718 33.3345 59.5405 33.4559 59.4313C33.5797 59.322 33.7271 59.2673 33.898 59.2673C34.0689 59.2673 34.2151 59.322 34.3364 59.4313C34.4602 59.5405 34.5221 59.6718 34.5221 59.8253C34.5221 59.9787 34.4602 60.1101 34.3364 60.2193C34.2151 60.3285 34.0689 60.3832 33.898 60.3832ZM40.6014 61.2758L38.491 66.6319H37.5994L35.4891 61.2758H36.4402L38.0155 65.544H38.0749L39.6503 61.2758H40.6014ZM43.947 66.7435C43.3971 66.7435 42.9228 66.6296 42.524 66.4018C42.1277 66.1717 41.8219 65.8508 41.6063 65.4393C41.3934 65.0256 41.2869 64.5444 41.2869 63.9957C41.2869 63.4471 41.3934 62.9636 41.6063 62.5451C41.8219 62.1244 42.1215 61.7966 42.5054 61.5618C42.8919 61.3246 43.3426 61.2061 43.8578 61.2061C44.155 61.2061 44.4486 61.2526 44.7384 61.3456C45.0282 61.4386 45.2919 61.5897 45.5297 61.7989C45.7675 62.0058 45.957 62.2801 46.0982 62.6219C46.2394 62.9636 46.31 63.3843 46.31 63.8842V64.2328H41.911V63.5215H45.4183C45.4183 63.2193 45.3539 62.9496 45.225 62.7125C45.0987 62.4754 44.918 62.2883 44.6826 62.1511C44.4498 62.014 44.1749 61.9454 43.8578 61.9454C43.5086 61.9454 43.2064 62.0267 42.9513 62.1895C42.6987 62.3499 42.5042 62.5591 42.368 62.8171C42.2318 63.0752 42.1637 63.3518 42.1637 63.647V64.1213C42.1637 64.5258 42.238 64.8686 42.3866 65.15C42.5376 65.4289 42.747 65.6416 43.0144 65.7881C43.282 65.9322 43.5928 66.0042 43.947 66.0042C44.1774 66.0042 44.3854 65.974 44.5711 65.9136C44.7594 65.8508 44.9216 65.7578 45.0579 65.6346C45.1941 65.5091 45.2994 65.3534 45.3737 65.1673L46.2208 65.3905C46.1316 65.6602 45.9818 65.8974 45.7713 66.1019C45.5607 66.3042 45.3006 66.4622 44.991 66.5762C44.6814 66.6877 44.3334 66.7435 43.947 66.7435ZM51.0173 59.4905L53.2762 65.5021H53.3654L55.6243 59.4905H56.5902L53.7963 66.6319H52.8452L50.0513 59.4905H51.0173ZM59.518 66.7435C58.9681 66.7435 58.4938 66.6296 58.095 66.4018C57.6987 66.1717 57.3928 65.8508 57.1773 65.4393C56.9643 65.0256 56.8578 64.5444 56.8578 63.9957C56.8578 63.4471 56.9643 62.9636 57.1773 62.5451C57.3928 62.1244 57.6924 61.7966 58.0764 61.5618C58.4628 61.3246 58.9136 61.2061 59.4288 61.2061C59.726 61.2061 60.0195 61.2526 60.3093 61.3456C60.5991 61.4386 60.8629 61.5897 61.1007 61.7989C61.3384 62.0058 61.528 62.2801 61.6691 62.6219C61.8103 62.9636 61.8809 63.3843 61.8809 63.8842V64.2328H57.4819V63.5215H60.9892C60.9892 63.2193 60.9248 62.9496 60.796 62.7125C60.6697 62.4754 60.4889 62.2883 60.2536 62.1511C60.0208 62.014 59.7458 61.9454 59.4288 61.9454C59.0795 61.9454 58.7774 62.0267 58.5223 62.1895C58.2696 62.3499 58.0751 62.5591 57.9389 62.8171C57.8027 63.0752 57.7346 63.3518 57.7346 63.647V64.1213C57.7346 64.5258 57.8089 64.8686 57.9575 65.15C58.1086 65.4289 58.3179 65.6416 58.5854 65.7881C58.8529 65.9322 59.1638 66.0042 59.518 66.0042C59.7483 66.0042 59.9564 65.974 60.1421 65.9136C60.3304 65.8508 60.4926 65.7578 60.6289 65.6346C60.7651 65.5091 60.8703 65.3534 60.9446 65.1673L61.7918 65.3905C61.7026 65.6602 61.5527 65.8974 61.3422 66.1019C61.1317 66.3042 60.8716 66.4622 60.562 66.5762C60.2524 66.6877 59.9043 66.7435 59.518 66.7435ZM64.0915 63.4099V66.6319H63.2147V59.4905H64.0915V62.1127H64.1658C64.2996 61.8361 64.5002 61.6164 64.7677 61.4537C65.0377 61.2887 65.3969 61.2061 65.8452 61.2061C66.234 61.2061 66.5746 61.2793 66.8669 61.4258C67.1592 61.5699 67.3858 61.7919 67.5468 62.0918C67.7102 62.3894 67.792 62.7683 67.792 63.2286V66.6319H66.9152V63.2844C66.9152 62.8589 66.7975 62.5301 66.5622 62.2975C66.3294 62.0628 66.0061 61.9454 65.5925 61.9454C65.3052 61.9454 65.0476 62.0023 64.8197 62.1162C64.5943 62.2301 64.416 62.3964 64.2847 62.6149C64.1559 62.8334 64.0915 63.0984 64.0915 63.4099ZM69.3961 66.6319V61.2758H70.2729V66.6319H69.3961ZM69.8419 60.3832C69.671 60.3832 69.5237 60.3285 69.3998 60.2193C69.2784 60.1101 69.2177 59.9787 69.2177 59.8253C69.2177 59.6718 69.2784 59.5405 69.3998 59.4313C69.5237 59.322 69.671 59.2673 69.8419 59.2673C70.0129 59.2673 70.159 59.322 70.2803 59.4313C70.4041 59.5405 70.4661 59.6718 70.4661 59.8253C70.4661 59.9787 70.4041 60.1101 70.2803 60.2193C70.159 60.3285 70.0129 60.3832 69.8419 60.3832ZM74.1972 66.7435C73.6622 66.7435 73.2015 66.625 72.8151 66.3878C72.4287 66.1507 72.1315 65.8241 71.9234 65.408C71.7154 64.9919 71.6114 64.5165 71.6114 63.9818C71.6114 63.4378 71.7178 62.9578 71.9308 62.5416C72.1464 62.1232 72.446 61.7966 72.83 61.5618C73.2164 61.3246 73.6671 61.2061 74.1823 61.2061C74.5836 61.2061 74.9449 61.2758 75.267 61.4153C75.5891 61.5548 75.8529 61.7501 76.0584 62.0011C76.2639 62.2522 76.3917 62.5451 76.441 62.8799H75.5644C75.4979 62.6358 75.3492 62.4196 75.1183 62.2313C74.8911 62.0407 74.5836 61.9454 74.1972 61.9454C73.8554 61.9454 73.5557 62.0291 73.2981 62.1964C73.043 62.3615 72.8436 62.5951 72.7 62.8973C72.5587 63.1972 72.4882 63.5494 72.4882 63.9539C72.4882 64.3677 72.5575 64.728 72.6962 65.0349C72.8374 65.3417 73.0356 65.58 73.2906 65.7497C73.5482 65.9194 73.8504 66.0042 74.1972 66.0042C74.4251 66.0042 74.6319 65.9671 74.8178 65.8927C75.0032 65.8183 75.1609 65.7113 75.2894 65.5718C75.4187 65.4324 75.5099 65.265 75.5644 65.0697H76.441C76.3917 65.3859 76.2691 65.6707 76.0733 65.9241C75.8805 66.1751 75.6242 66.3751 75.3043 66.5238C74.9875 66.6703 74.6183 66.7435 74.1972 66.7435ZM78.6 59.4905V66.6319H77.7234V59.4905H78.6ZM82.5989 66.7435C82.0488 66.7435 81.5743 66.6296 81.1752 66.4018C80.7792 66.1717 80.4735 65.8508 80.2575 65.4393C80.0445 65.0256 79.9384 64.5444 79.9384 63.9957C79.9384 63.4471 80.0445 62.9636 80.2575 62.5451C80.4735 62.1244 80.7732 61.7966 81.1573 61.5618C81.5436 61.3246 81.9943 61.2061 82.5092 61.2061C82.8066 61.2061 83.1003 61.2526 83.3895 61.3456C83.6795 61.4386 83.9433 61.5897 84.1809 61.7989C84.4193 62.0058 84.6084 62.2801 84.7496 62.6219C84.8909 62.9636 84.9611 63.3843 84.9611 63.8842V64.2328H80.5624V63.5215H84.0696C84.0696 63.2193 84.0053 62.9496 83.8768 62.7125C83.7505 62.4754 83.5696 62.2883 83.3342 62.1511C83.1011 62.014 82.826 61.9454 82.5092 61.9454C82.1602 61.9454 81.8583 62.0267 81.6027 62.1895C81.3501 62.3499 81.1558 62.5591 81.0198 62.8171C80.883 63.0752 80.815 63.3518 80.815 63.647V64.1213C80.815 64.5258 80.8898 64.8686 81.0377 65.15C81.1894 65.4289 81.3987 65.6416 81.6662 65.7881C81.9337 65.9322 82.2446 66.0042 82.5989 66.0042C82.829 66.0042 83.0368 65.974 83.2229 65.9136C83.4112 65.8508 83.5733 65.7578 83.7094 65.6346C83.8454 65.5091 83.9507 65.3534 84.0255 65.1673L84.8722 65.3905C84.7832 65.6602 84.633 65.8974 84.423 66.1019C84.2123 66.3042 83.9522 66.4622 83.6429 66.5762C83.3327 66.6877 82.9852 66.7435 82.5989 66.7435ZM90.3373 62.4754L89.5496 62.6846C89.5003 62.5614 89.427 62.4417 89.3306 62.3255C89.2365 62.2069 89.1079 62.1092 88.9443 62.0326C88.7806 61.9558 88.5714 61.9175 88.3165 61.9175C87.9668 61.9175 87.6761 61.993 87.4429 62.1442C87.2128 62.2929 87.0977 62.4824 87.0977 62.7125C87.0977 62.9171 87.1769 63.0786 87.3353 63.1972C87.4937 63.3157 87.7419 63.4146 88.0789 63.4936L88.9256 63.6889C89.436 63.8051 89.8164 63.9829 90.066 64.2224C90.3163 64.4595 90.4419 64.7652 90.4419 65.1395C90.4419 65.4464 90.3477 65.7207 90.1594 65.9624C89.9733 66.2042 89.7133 66.3948 89.3792 66.5343C89.0444 66.6738 88.6558 66.7435 88.2127 66.7435C87.6305 66.7435 87.1485 66.625 86.7674 66.3878C86.3855 66.1507 86.1441 65.8043 86.0425 65.3487L86.875 65.1534C86.9542 65.4417 87.1036 65.6579 87.3241 65.802C87.5476 65.9462 87.8383 66.0182 88.1977 66.0182C88.6065 66.0182 88.9308 65.9368 89.1707 65.7741C89.4136 65.6091 89.5347 65.4114 89.5347 65.1813C89.5347 64.9954 89.4659 64.8396 89.3269 64.714C89.1879 64.5862 88.9749 64.4909 88.688 64.4282L87.7366 64.2189C87.2142 64.1026 86.8301 63.9225 86.585 63.6784C86.3421 63.432 86.2211 63.124 86.2211 62.7544C86.2211 62.4521 86.3115 62.1848 86.4923 61.9523C86.6754 61.7199 86.9243 61.5374 87.2389 61.4049C87.5558 61.2724 87.9152 61.2061 88.3165 61.2061C88.8808 61.2061 89.3247 61.3223 89.6468 61.5548C89.9711 61.7873 90.2013 62.0941 90.3373 62.4754Z" fill="#2B3354"/>
<path d="M9.45389 91.8819H8.48792L11.2818 84.7404H12.2329L15.0269 91.8819H14.0608L11.7871 85.8703H11.7277L9.45389 91.8819ZM9.81051 89.0925H13.7042V89.8591H9.81051V89.0925ZM16.97 84.7404V91.8819H16.0932V84.7404H16.97ZM19.4528 84.7404V91.8819H18.576V84.7404H19.4528ZM24.4322 84.7404L26.6912 90.752H26.7803L29.0392 84.7404H30.0052L27.2113 91.8819H26.2602L23.4662 84.7404H24.4322ZM32.9329 91.9934C32.383 91.9934 31.9087 91.8798 31.5099 91.6519C31.1136 91.4218 30.8077 91.1006 30.5922 90.6896C30.3792 90.2757 30.2727 89.7946 30.2727 89.2454C30.2727 88.6969 30.3792 88.2137 30.5922 87.7949C30.8077 87.3741 31.1074 87.0465 31.4914 86.8116C31.8777 86.5745 32.3285 86.456 32.8437 86.456C33.1409 86.456 33.4345 86.5023 33.7243 86.5955C34.0141 86.6888 34.2779 86.8396 34.5156 87.0486C34.7534 87.2556 34.9429 87.5298 35.0841 87.8721C35.2252 88.2137 35.2959 88.6345 35.2959 89.1339V89.4832H30.8969V88.7713H34.4042C34.4042 88.469 34.3397 88.1996 34.211 87.9626C34.0846 87.7255 33.9038 87.5382 33.6685 87.4014C33.4357 87.264 33.1608 87.1952 32.8437 87.1952C32.4945 87.1952 32.1923 87.2766 31.9372 87.4393C31.6845 87.5999 31.4901 87.8089 31.3539 88.0671C31.2176 88.3252 31.1495 88.6015 31.1495 88.8968V89.3709C31.1495 89.7756 31.2238 90.1186 31.3725 90.3999C31.5235 90.679 31.7328 90.8916 32.0004 91.0381C32.2678 91.1819 32.5787 91.2542 32.9329 91.2542C33.1633 91.2542 33.3713 91.224 33.5571 91.1637C33.7453 91.1006 33.9076 91.008 34.0437 90.8845C34.18 90.759 34.2853 90.6033 34.3596 90.4174L35.2067 90.6405C35.1175 90.9105 34.9676 91.1476 34.7571 91.3517C34.5466 91.5544 34.2865 91.7122 33.9769 91.8258C33.6673 91.938 33.3193 91.9934 32.9329 91.9934ZM37.5065 88.6597V91.8819H36.6297V84.7404H37.5065V87.3629H37.5808C37.7145 87.0858 37.9151 86.8663 38.1826 86.7036C38.4527 86.5387 38.8118 86.456 39.2601 86.456C39.649 86.456 39.9895 86.5296 40.2818 86.6755C40.5741 86.82 40.8007 87.0416 40.9617 87.3418C41.1252 87.6392 41.2069 88.018 41.2069 88.4788V91.8819H40.3301V88.5342C40.3301 88.1091 40.2124 87.7802 39.9772 87.5473C39.7443 87.3131 39.4211 87.1952 39.0075 87.1952C38.7201 87.1952 38.4625 87.252 38.2347 87.3664C38.0093 87.48 37.831 87.6462 37.6997 87.8651C37.5708 88.0832 37.5065 88.3483 37.5065 88.6597ZM42.8111 91.8819V86.5261H43.6878V91.8819H42.8111ZM43.2568 85.6332C43.086 85.6332 42.9385 85.5785 42.8147 85.4691C42.6933 85.3597 42.6327 85.2285 42.6327 85.0749C42.6327 84.922 42.6933 84.7902 42.8147 84.6815C42.9385 84.572 43.086 84.5173 43.2568 84.5173C43.4277 84.5173 43.5739 84.572 43.6953 84.6815C43.8191 84.7902 43.8811 84.922 43.8811 85.0749C43.8811 85.2285 43.8191 85.3597 43.6953 85.4691C43.5739 85.5785 43.4277 85.6332 43.2568 85.6332ZM47.6122 91.9934C47.0772 91.9934 46.6164 91.8749 46.2301 91.6378C45.8436 91.4008 45.5464 91.0739 45.3384 90.658C45.1303 90.2421 45.0263 89.7665 45.0263 89.2321C45.0263 88.6878 45.1328 88.208 45.3458 87.7914C45.5613 87.3734 45.861 87.0465 46.2449 86.8116C46.6313 86.5745 47.0821 86.456 47.5973 86.456C47.9985 86.456 48.3601 86.5261 48.6822 86.665C49.0042 86.8046 49.268 87.0003 49.4736 87.2513C49.6791 87.5024 49.8066 87.7949 49.8562 88.1302H48.9794C48.9125 87.8861 48.7639 87.6694 48.5335 87.4814C48.3057 87.2906 47.9985 87.1952 47.6122 87.1952C47.2703 87.1952 46.9707 87.2787 46.7131 87.4463C46.4579 87.6112 46.2585 87.8454 46.1148 88.147C45.9737 88.4472 45.9031 88.7993 45.9031 89.204C45.9031 89.6178 45.9725 89.9784 46.1112 90.2849C46.2523 90.5921 46.4505 90.8298 46.7056 90.9996C46.9632 91.1693 47.2654 91.2542 47.6122 91.2542C47.84 91.2542 48.0469 91.217 48.2326 91.1427C48.4184 91.0683 48.5757 90.9617 48.7044 90.8221C48.8333 90.6825 48.9249 90.5149 48.9794 90.3199H49.8562C49.8066 90.6355 49.6841 90.9203 49.4884 91.1742C49.2952 91.4253 49.0388 91.6252 48.7193 91.7739C48.4023 91.9205 48.0332 91.9934 47.6122 91.9934ZM52.0148 84.7404V91.8819H51.138V84.7404H52.0148ZM56.0134 91.9934C55.4636 91.9934 54.9892 91.8798 54.5905 91.6519C54.1942 91.4218 53.8883 91.1006 53.6728 90.6896C53.4598 90.2757 53.3532 89.7946 53.3532 89.2454C53.3532 88.6969 53.4598 88.2137 53.6728 87.7949C53.8883 87.3741 54.188 87.0465 54.5719 86.8116C54.9583 86.5745 55.4091 86.456 55.9243 86.456C56.2215 86.456 56.515 86.5023 56.8048 86.5955C57.0946 86.6888 57.3584 86.8396 57.5962 87.0486C57.834 87.2556 58.0234 87.5298 58.1646 87.8721C58.3058 88.2137 58.3764 88.6345 58.3764 89.1339V89.4832H53.9775V88.7713H57.4847C57.4847 88.469 57.4203 88.1996 57.2915 87.9626C57.1652 87.7255 56.9843 87.5382 56.7491 87.4014C56.5162 87.264 56.2413 87.1952 55.9243 87.1952C55.5751 87.1952 55.2729 87.2766 55.0177 87.4393C54.7651 87.5999 54.5707 87.8089 54.4344 88.0671C54.2982 88.3252 54.23 88.6015 54.23 88.8968V89.3709C54.23 89.7756 54.3044 90.1186 54.453 90.3999C54.6041 90.679 54.8134 90.8916 55.0809 91.0381C55.3484 91.1819 55.6592 91.2542 56.0134 91.2542C56.2438 91.2542 56.4519 91.224 56.6376 91.1637C56.8258 91.1006 56.9881 91.008 57.1243 90.8845C57.2605 90.759 57.3658 90.6033 57.4401 90.4174L58.2872 90.6405C58.1981 90.9105 58.0482 91.1476 57.8377 91.3517C57.6271 91.5544 57.367 91.7122 57.0574 91.8258C56.7478 91.938 56.3998 91.9934 56.0134 91.9934ZM63.7524 87.7255L62.9648 87.9345C62.9153 87.8111 62.8422 87.6918 62.7456 87.5754C62.6515 87.4569 62.5227 87.3594 62.3592 87.2822C62.1957 87.2058 61.9865 87.1672 61.7313 87.1672C61.3821 87.1672 61.091 87.2429 60.8583 87.3944C60.6279 87.5431 60.5127 87.7325 60.5127 87.9626C60.5127 88.1674 60.592 88.3287 60.7505 88.4472C60.909 88.5657 61.1567 88.6646 61.4935 88.7439L62.3406 88.9389C62.8509 89.0553 63.231 89.2328 63.4812 89.4726C63.7314 89.7097 63.8565 90.0155 63.8565 90.3894C63.8565 90.6966 63.7624 90.9708 63.5741 91.2121C63.3884 91.4541 63.1283 91.6448 62.7939 91.7844C62.4595 91.924 62.0707 91.9934 61.6273 91.9934C61.0452 91.9934 60.5634 91.8749 60.182 91.6378C59.8006 91.4008 59.5591 91.0543 59.4576 90.5984L60.2898 90.4034C60.3691 90.6917 60.5189 90.9077 60.7394 91.0522C60.9623 91.196 61.2533 91.2682 61.6124 91.2682C62.0212 91.2682 62.3456 91.1868 62.5858 91.0241C62.8286 90.8593 62.95 90.6615 62.95 90.4314C62.95 90.2456 62.8806 90.0899 62.7419 89.9643C62.6032 89.836 62.3902 89.7406 62.1028 89.6782L61.1517 89.4691C60.6291 89.3527 60.2452 89.1725 60 88.9284C59.7572 88.6822 59.6359 88.3743 59.6359 88.0046C59.6359 87.7023 59.7263 87.4351 59.9071 87.2023C60.0904 86.9701 60.3393 86.7877 60.6539 86.6552C60.971 86.5226 61.33 86.456 61.7313 86.456C62.2961 86.456 62.7394 86.5724 63.0614 86.8046C63.3859 87.0374 63.6162 87.3439 63.7524 87.7255Z" fill="#2B3354"/>
<path d="M0 25.25H139" stroke="#EAEDF3"/>
<path d="M0 50.5H139" stroke="#EAEDF3"/>
<path d="M0 75.75H139" stroke="#EAEDF3"/>
<path d="M139 25.25H0V50.5H139V25.25Z" fill="#5F76E8"/>
<path d="M101.643 46.1525L101.536 46.1897C101.204 45.5205 99.9679 45.5081 99.5165 45.5205C99.1309 44.8637 98.0009 44.8886 97.6557 44.9009C97.6557 44.1079 97.6557 43.29 97.6557 42.6953C97.6557 41.3569 95.6626 41.3569 95.6626 42.6953C95.6626 44.3309 95.6626 48.8167 95.6626 48.8167C95.6626 48.2343 95.3039 47.9989 94.7987 47.5776C93.5627 46.5615 92.3797 47.8874 93.3766 48.8167C95.6095 50.8985 96.327 52.7325 96.327 54.7028C100.447 54.7028 102.307 54.7028 102.307 54.7028C102.307 54.7028 102.387 53.5875 102.838 52.5466C103.304 51.4561 103.636 49.87 103.636 48.6556C103.636 48.6556 103.636 48.6556 103.636 47.2925C103.636 45.9294 101.643 46.1525 101.643 46.1525Z" fill="white"/>
<path d="M103.503 46.2767C102.931 45.8058 101.988 45.8182 101.695 45.8429C101.642 45.781 101.575 45.7191 101.509 45.6571C100.938 45.1862 99.994 45.1986 99.7018 45.2234C99.6488 45.1614 99.5823 45.0995 99.5158 45.0375C99.0636 44.6657 98.3993 44.6038 97.9875 44.5914V42.6954C97.9875 41.828 97.3231 41.382 96.6588 41.382C95.9944 41.382 95.3293 41.828 95.3293 42.6954V47.6645C95.2367 47.5406 95.1305 47.4415 95.0237 47.3424C94.2263 46.6856 93.4162 46.8343 93.0037 47.2556C92.5785 47.6769 92.4858 48.4204 93.1367 49.0276C95.1171 50.874 95.9944 52.6212 95.9944 54.6906V55.0004H102.612L102.639 54.7154C102.639 54.703 102.719 53.6373 103.144 52.6584C103.636 51.5184 103.967 49.9074 103.967 48.6434V47.2804C103.967 46.8714 103.808 46.5245 103.503 46.2767ZM103.303 48.6558C103.303 49.8206 102.984 51.382 102.533 52.4353C102.2 53.1912 102.067 53.9843 102.014 54.3932H96.6588C96.5788 52.2742 95.6223 50.4774 93.615 48.6063C93.2436 48.2594 93.2966 47.8875 93.4954 47.6893C93.695 47.4911 94.094 47.4167 94.5857 47.8132C95.0237 48.1726 95.3293 48.8417 95.3293 49.3126H95.9944V42.6954C95.9944 42.2122 96.3262 42.0016 96.6588 42.0016C96.9906 42.0016 97.3232 42.2122 97.3232 42.6954V47.5778H97.9875V45.211C98.3201 45.211 98.7983 45.2729 99.0771 45.496C99.237 45.6323 99.3162 45.8058 99.3162 46.0536V47.5654H99.9806V46.0536C99.9806 45.9793 99.9679 45.9049 99.9679 45.8306C100.3 45.8306 100.791 45.8925 101.071 46.1156C101.23 46.2519 101.31 46.4254 101.31 46.6732V48.185H101.974V46.6732C101.974 46.5988 101.961 46.5245 101.961 46.4501C102.294 46.4501 102.785 46.4997 103.064 46.7352C103.223 46.8714 103.303 47.045 103.303 47.2928V48.6558Z" fill="black"/>
<path d="M15.1755 34.2405V41.3819H14.2838L10.1375 35.7748H10.0632V41.3819H9.14185V34.2405H10.0335L14.1946 39.8616H14.269V34.2405H15.1755ZM19.293 41.4935C18.7432 41.4935 18.2688 41.3796 17.8701 41.1518C17.4738 40.9217 17.1678 40.6009 16.9524 40.1893C16.7393 39.7756 16.6328 39.2944 16.6328 38.7457C16.6328 38.1971 16.7393 37.7136 16.9524 37.2951C17.1678 36.8744 17.4676 36.5466 17.8515 36.3118C18.2379 36.0746 18.6887 35.9561 19.2039 35.9561C19.5011 35.9561 19.7946 36.0026 20.0844 36.0956C20.3742 36.1886 20.638 36.3397 20.8758 36.5489C21.1136 36.7558 21.303 37.0301 21.4442 37.3719C21.5854 37.7136 21.656 38.1343 21.656 38.6342V38.9828H17.2571V38.2715H20.7643C20.7643 37.9693 20.6999 37.6996 20.5711 37.4625C20.4448 37.2254 20.2639 37.0383 20.0287 36.9011C19.7958 36.764 19.5209 36.6954 19.2039 36.6954C18.8546 36.6954 18.5524 36.7767 18.2973 36.9395C18.0446 37.0999 17.8502 37.3091 17.714 37.5671C17.5778 37.8252 17.5096 38.1018 17.5096 38.397V38.8713C17.5096 39.2758 17.584 39.6186 17.7326 39.9C17.8837 40.1789 18.093 40.3916 18.3605 40.5381C18.628 40.6822 18.9388 40.7542 19.293 40.7542C19.5234 40.7542 19.7314 40.724 19.9172 40.6636C20.1054 40.6008 20.2677 40.5078 20.4039 40.3846C20.5401 40.2591 20.6454 40.1034 20.7197 39.9173L21.5668 40.1405C21.4776 40.4102 21.3278 40.6474 21.1172 40.8519C20.9067 41.0542 20.6466 41.2122 20.337 41.3262C20.0274 41.4377 19.6794 41.4935 19.293 41.4935ZM24.2827 41.3819L22.5439 36.0258H23.4653L24.6988 40.1266H24.7583L25.9769 36.0258H26.9131L28.1169 40.1126H28.1764L29.4098 36.0258H30.3313L28.5925 41.3819H27.7306L26.4822 37.2672H26.393L25.1446 41.3819H24.2827ZM34.8639 34.2405L37.1228 40.2521H37.2121L39.471 34.2405H40.4369L37.643 41.3819H36.6919L33.898 34.2405H34.8639ZM43.3646 41.4935C42.8147 41.4935 42.3404 41.3796 41.9417 41.1518C41.5454 40.9217 41.2395 40.6009 41.024 40.1893C40.811 39.7756 40.7045 39.2944 40.7045 38.7457C40.7045 38.1971 40.811 37.7136 41.024 37.2951C41.2395 36.8744 41.5392 36.5466 41.9231 36.3118C42.3095 36.0746 42.7603 35.9561 43.2755 35.9561C43.5727 35.9561 43.8662 36.0026 44.156 36.0956C44.4458 36.1886 44.7096 36.3397 44.9473 36.5489C45.1851 36.7558 45.3747 37.0301 45.5158 37.3719C45.657 37.7136 45.7276 38.1343 45.7276 38.6342V38.9828H41.3286V38.2715H44.8359C44.8359 37.9693 44.7715 37.6996 44.6427 37.4625C44.5164 37.2254 44.3356 37.0383 44.1003 36.9011C43.8674 36.764 43.5925 36.6954 43.2755 36.6954C42.9262 36.6954 42.624 36.7767 42.3689 36.9395C42.1163 37.0999 41.9219 37.3091 41.7856 37.5671C41.6494 37.8252 41.5813 38.1018 41.5813 38.397V38.8713C41.5813 39.2758 41.6556 39.6186 41.8042 39.9C41.9553 40.1789 42.1646 40.3916 42.4321 40.5381C42.6996 40.6822 43.0105 40.7542 43.3646 40.7542C43.595 40.7542 43.8031 40.724 43.9888 40.6636C44.177 40.6008 44.3393 40.5078 44.4755 40.3846C44.6117 40.2591 44.717 40.1034 44.7913 39.9173L45.6384 40.1405C45.5492 40.4102 45.3994 40.6474 45.1889 40.8519C44.9783 41.0542 44.7182 41.2122 44.4086 41.3262C44.099 41.4377 43.7511 41.4935 43.3646 41.4935ZM47.9382 38.1599V41.3819H47.0614V34.2405H47.9382V36.8627H48.0125C48.1463 36.5861 48.3469 36.3664 48.6144 36.2037C48.8843 36.0387 49.2435 35.9561 49.6918 35.9561C50.0807 35.9561 50.4213 36.0293 50.7135 36.1758C51.0058 36.3199 51.2325 36.5419 51.3934 36.8418C51.5569 37.1394 51.6387 37.5183 51.6387 37.9786V41.3819H50.7619V38.0344C50.7619 37.6089 50.6442 37.2801 50.4089 37.0475C50.1761 36.8128 49.8529 36.6954 49.4392 36.6954C49.1519 36.6954 48.8943 36.7523 48.6664 36.8662C48.441 36.9801 48.2626 37.1464 48.1314 37.3649C48.0026 37.5834 47.9382 37.8484 47.9382 38.1599ZM53.2427 41.3819V36.0258H54.1196V41.3819H53.2427ZM53.6886 35.1332C53.5177 35.1332 53.3703 35.0785 53.2465 34.9693C53.1251 34.8601 53.0644 34.7287 53.0644 34.5753C53.0644 34.4218 53.1251 34.2905 53.2465 34.1812C53.3703 34.072 53.5177 34.0173 53.6886 34.0173C53.8595 34.0173 54.0057 34.072 54.127 34.1812C54.2509 34.2905 54.3128 34.4218 54.3128 34.5753C54.3128 34.7287 54.2509 34.8601 54.127 34.9693C54.0057 35.0785 53.8595 35.1332 53.6886 35.1332ZM58.0439 41.4935C57.5089 41.4935 57.0482 41.375 56.6618 41.1378C56.2754 40.9007 55.9782 40.5741 55.7701 40.158C55.5621 39.7419 55.458 39.2665 55.458 38.7318C55.458 38.1878 55.5646 37.7078 55.7775 37.2916C55.9931 36.8732 56.2927 36.5466 56.6766 36.3118C57.0631 36.0746 57.5138 35.9561 58.029 35.9561C58.4303 35.9561 58.7919 36.0258 59.1139 36.1653C59.4359 36.3048 59.6997 36.5001 59.9052 36.7511C60.1108 37.0022 60.2384 37.2951 60.2879 37.6299H59.4111C59.3442 37.3858 59.1957 37.1696 58.9653 36.9813C58.7374 36.7907 58.4303 36.6954 58.0439 36.6954C57.7021 36.6954 57.4023 36.7791 57.1448 36.9464C56.8897 37.1115 56.6903 37.3451 56.5466 37.6473C56.4054 37.9472 56.3348 38.2994 56.3348 38.7039C56.3348 39.1177 56.4042 39.478 56.5429 39.7849C56.6841 40.0917 56.8822 40.33 57.1373 40.4997C57.3949 40.6694 57.6972 40.7542 58.0439 40.7542C58.2718 40.7542 58.4786 40.7171 58.6643 40.6427C58.8501 40.5683 59.0074 40.4613 59.1362 40.3218C59.265 40.1824 59.3566 40.015 59.4111 39.8197H60.2879C60.2384 40.1359 60.1158 40.4207 59.9201 40.6741C59.7269 40.9251 59.4706 41.1251 59.1511 41.2738C58.834 41.4203 58.465 41.4935 58.0439 41.4935ZM62.4466 34.2405V41.3819H61.5697V34.2405H62.4466ZM66.4452 41.4935C65.8953 41.4935 65.421 41.3796 65.0222 41.1518C64.6259 40.9217 64.32 40.6009 64.1045 40.1893C63.8915 39.7756 63.785 39.2944 63.785 38.7457C63.785 38.1971 63.8915 37.7136 64.1045 37.2951C64.32 36.8744 64.6197 36.5466 65.0036 36.3118C65.3901 36.0746 65.8408 35.9561 66.356 35.9561C66.6532 35.9561 66.9468 36.0026 67.2365 36.0956C67.5263 36.1886 67.7901 36.3397 68.0279 36.5489C68.2657 36.7558 68.4552 37.0301 68.5963 37.3719C68.7376 37.7136 68.8081 38.1343 68.8081 38.6342V38.9828H64.4092V38.2715H67.9164C67.9164 37.9693 67.8521 37.6996 67.7232 37.4625C67.5969 37.2254 67.4161 37.0383 67.1808 36.9011C66.948 36.764 66.673 36.6954 66.356 36.6954C66.0067 36.6954 65.7046 36.7767 65.4495 36.9395C65.1968 37.0999 65.0024 37.3091 64.8662 37.5671C64.73 37.8252 64.6618 38.1018 64.6618 38.397V38.8713C64.6618 39.2758 64.7362 39.6186 64.8847 39.9C65.0358 40.1789 65.2452 40.3916 65.5126 40.5381C65.7802 40.6822 66.091 40.7542 66.4452 40.7542C66.6755 40.7542 66.8836 40.724 67.0693 40.6636C67.2576 40.6008 67.4198 40.5078 67.5561 40.3846C67.6923 40.2591 67.7975 40.1034 67.8719 39.9173L68.719 40.1405C68.6298 40.4102 68.48 40.6474 68.2694 40.8519C68.0589 41.0542 67.7988 41.2122 67.4892 41.3262C67.1796 41.4377 66.8316 41.4935 66.4452 41.4935ZM74.1842 37.2254L73.3965 37.4346C73.347 37.3114 73.274 37.1917 73.1774 37.0755C73.0833 36.9569 72.9544 36.8592 72.791 36.7826C72.6275 36.7058 72.4182 36.6675 72.1631 36.6675C71.8138 36.6675 71.5228 36.743 71.2899 36.8942C71.0596 37.0429 70.9445 37.2324 70.9445 37.4625C70.9445 37.6671 71.0237 37.8286 71.1823 37.9472C71.3408 38.0658 71.5884 38.1646 71.9253 38.2436L72.7724 38.4389C73.2826 38.5551 73.6628 38.7329 73.913 38.9724C74.1631 39.2095 74.2882 39.5152 74.2882 39.8895C74.2882 40.1964 74.1941 40.4707 74.0059 40.7124C73.8201 40.9542 73.5601 41.1448 73.2256 41.2843C72.8913 41.4238 72.5024 41.4935 72.0591 41.4935C71.477 41.4935 70.9952 41.375 70.6138 41.1378C70.2323 40.9007 69.9908 40.5543 69.8893 40.0987L70.7215 39.9034C70.8007 40.1917 70.9507 40.4079 71.1711 40.552C71.394 40.6962 71.685 40.7682 72.0442 40.7682C72.4528 40.7682 72.7773 40.6868 73.0176 40.5241C73.2603 40.3591 73.3817 40.1614 73.3817 39.9313C73.3817 39.7454 73.3123 39.5896 73.1736 39.464C73.0349 39.3362 72.8219 39.2409 72.5346 39.1782L71.5835 38.9689C71.0609 38.8526 70.6769 38.6725 70.4317 38.4284C70.189 38.182 70.0676 37.874 70.0676 37.5044C70.0676 37.2021 70.1581 36.9348 70.3388 36.7023C70.5222 36.4699 70.7711 36.2874 71.0856 36.1549C71.4026 36.0224 71.7618 35.9561 72.1631 35.9561C72.7278 35.9561 73.1712 36.0723 73.4932 36.3048C73.8176 36.5373 74.048 36.8441 74.1842 37.2254Z" fill="white"/>
</g>
<defs>
<clipPath id="clip0_307_540">
<rect width="139" height="101" fill="white"/>
</clipPath>
</defs>
</svg>
