<svg width="320" height="93" viewBox="0 0 320 93" fill="none" xmlns="http://www.w3.org/2000/svg">
<g clip-path="url(#clip0_26_562)">
<path d="M307.817 0.404297H12.1828C5.67871 0.404297 0.406128 5.65424 0.406128 12.1304V80.8695C0.406128 87.3457 5.67871 92.5956 12.1828 92.5956H307.817C314.321 92.5956 319.594 87.3457 319.594 80.8695V12.1304C319.594 5.65424 314.321 0.404297 307.817 0.404297Z" fill="white" stroke="#EAEDF3"/>
<path d="M92.8009 28.4513V46.0956H89.0543V31.9923H88.9503L84.8918 34.5252V31.2169L89.2793 28.4513H92.8009ZM100.101 43.6833L100.006 44.631C99.931 45.3891 99.7865 46.1444 99.5737 46.8969C99.3658 47.655 99.1465 48.3413 98.9158 48.9559C98.6908 49.5705 98.5089 50.053 98.3708 50.4033H95.9822C96.0691 50.0644 96.1877 49.5905 96.3371 48.9818C96.4874 48.3787 96.6287 47.7009 96.7611 46.9485C96.8943 46.1961 96.9779 45.4293 97.012 44.6482L97.0551 43.6833H100.101ZM103.436 46.0956V43.4076L109.745 37.5922C110.281 37.0753 110.731 36.6101 111.094 36.1965C111.463 35.783 111.743 35.3781 111.933 34.9818C112.124 34.5797 112.219 34.1461 112.219 33.6808C112.219 33.1639 112.101 32.7188 111.864 32.3455C111.628 31.9664 111.305 31.6763 110.895 31.4754C110.485 31.2686 110.022 31.1651 109.502 31.1651C108.96 31.1651 108.487 31.2743 108.083 31.4926C107.679 31.7108 107.368 32.0238 107.149 32.4316C106.93 32.8395 106.82 33.3248 106.82 33.8876H103.263C103.263 32.7332 103.526 31.7309 104.051 30.8809C104.576 30.0308 105.312 29.3731 106.257 28.9079C107.203 28.4427 108.293 28.2101 109.528 28.2101C110.797 28.2101 111.902 28.4341 112.842 28.8821C113.788 29.3244 114.524 29.9389 115.048 30.7258C115.574 31.5126 115.836 32.4144 115.836 33.431C115.836 34.0973 115.703 34.7549 115.438 35.4039C115.178 36.053 114.714 36.7738 114.044 37.5664C113.376 38.3532 112.432 39.2981 111.216 40.4008L108.628 42.9251V43.0458H116.069V46.0956H103.436ZM125.257 46.3368C124.033 46.3368 122.943 46.1128 121.986 45.6648C121.034 45.2169 120.278 44.5994 119.718 43.8125C119.159 43.0256 118.868 42.1239 118.844 41.1073H122.479C122.519 41.7908 122.808 42.345 123.344 42.7701C123.881 43.1951 124.517 43.4076 125.257 43.4076C125.845 43.4076 126.364 43.2783 126.813 43.0199C127.269 42.7557 127.624 42.391 127.878 41.9258C128.137 41.4548 128.267 40.9149 128.267 40.3061C128.267 39.6858 128.135 39.1401 127.869 38.6692C127.609 38.1982 127.249 37.8306 126.787 37.5664C126.326 37.3022 125.798 37.1672 125.205 37.1615C124.685 37.1615 124.18 37.2677 123.69 37.4802C123.206 37.6928 122.828 37.9828 122.557 38.3504L119.225 37.7559L120.065 28.4513H130.898V31.5011H123.154L122.695 35.9208H122.799C123.111 35.4844 123.58 35.1225 124.21 34.8353C124.838 34.5482 125.542 34.4045 126.32 34.4045C127.388 34.4045 128.34 34.6544 129.176 35.1541C130.012 35.6538 130.673 36.3401 131.157 37.2131C131.642 38.0805 131.881 39.0798 131.875 40.2113C131.881 41.4002 131.605 42.457 131.045 43.3818C130.491 44.3007 129.715 45.0244 128.717 45.5528C127.725 46.0755 126.571 46.3368 125.257 46.3368ZM134.221 42.9941V40.0563L141.618 28.4513H144.162V32.5178H142.657L137.992 39.8667V40.0045H148.505V42.9941H134.221ZM142.726 46.0956V42.0981L142.795 40.7972V28.4513H146.307V46.0956H142.726ZM154.71 43.6833L154.614 44.631C154.539 45.3891 154.395 46.1444 154.182 46.8969C153.974 47.655 153.754 48.3413 153.524 48.9559C153.299 49.5705 153.118 50.053 152.979 50.4033H150.591C150.677 50.0644 150.796 49.5905 150.946 48.9818C151.095 48.3787 151.237 47.7009 151.37 46.9485C151.502 46.1961 151.586 45.4293 151.621 44.6482L151.664 43.6833H154.71ZM158.079 46.0956L165.425 31.6218V31.5011H156.868V28.4513H169.302V31.5443L161.947 46.0956H158.079ZM178.015 46.3368C176.723 46.3368 175.572 46.1157 174.562 45.6735C173.559 45.2254 172.766 44.6109 172.183 43.8298C171.606 43.0429 171.309 42.1354 171.292 41.1073H175.064C175.087 41.538 175.229 41.9172 175.488 42.2445C175.754 42.5662 176.106 42.816 176.544 42.9941C176.982 43.1721 177.476 43.2611 178.023 43.2611C178.595 43.2611 179.099 43.1606 179.538 42.9596C179.977 42.7586 180.319 42.48 180.568 42.1239C180.816 41.7678 180.94 41.3571 180.94 40.8919C180.94 40.421 180.807 40.0045 180.542 39.6427C180.282 39.2751 179.907 38.9879 179.417 38.7812C178.932 38.5744 178.355 38.471 177.686 38.471H176.033V35.7313H177.686C178.251 35.7313 178.75 35.6337 179.183 35.4384C179.622 35.2431 179.962 34.9731 180.204 34.6285C180.446 34.2782 180.568 33.8704 180.568 33.4051C180.568 32.9629 180.461 32.5752 180.247 32.2421C180.04 31.9032 179.745 31.639 179.365 31.4495C178.99 31.2599 178.551 31.1651 178.049 31.1651C177.542 31.1651 177.078 31.2571 176.656 31.4409C176.236 31.6189 175.898 31.8745 175.644 32.2076C175.39 32.5407 175.254 32.9313 175.237 33.3793H171.647C171.664 32.3627 171.955 31.4667 172.521 30.6913C173.086 29.9159 173.847 29.31 174.805 28.8735C175.768 28.4313 176.855 28.2101 178.067 28.2101C179.289 28.2101 180.36 28.4313 181.277 28.8735C182.194 29.3157 182.906 29.913 183.414 30.6654C183.928 31.4121 184.181 32.2507 184.176 33.1811C184.181 34.169 183.873 34.9933 183.25 35.6538C182.632 36.3143 181.827 36.7336 180.836 36.9116V37.0494C182.139 37.216 183.131 37.6669 183.812 38.4021C184.499 39.1315 184.839 40.0448 184.833 41.1418C184.839 42.1469 184.547 43.04 183.959 43.8211C183.376 44.6023 182.572 45.2169 181.545 45.6648C180.518 46.1128 179.341 46.3368 178.015 46.3368ZM194.474 46.4833C192.986 46.4775 191.705 46.1128 190.632 45.3891C189.565 44.6654 188.743 43.6173 188.167 42.2445C187.596 40.8718 187.313 39.2206 187.319 37.2907C187.319 35.3666 187.604 33.7268 188.175 32.3713C188.752 31.0159 189.574 29.9848 190.641 29.2784C191.714 28.5662 192.992 28.2101 194.474 28.2101C195.956 28.2101 197.231 28.5662 198.299 29.2784C199.371 29.9906 200.197 31.0244 200.773 32.38C201.35 33.7297 201.636 35.3666 201.63 37.2907C201.63 39.2263 201.341 40.8804 200.764 42.2532C200.193 43.6258 199.375 44.6741 198.307 45.3978C197.24 46.1215 195.963 46.4833 194.474 46.4833ZM194.474 43.3904C195.489 43.3904 196.3 42.8821 196.906 41.8655C197.512 40.8489 197.811 39.3239 197.806 37.2907C197.806 35.9525 197.667 34.8382 197.39 33.9479C197.119 33.0576 196.733 32.3885 196.231 31.9405C195.734 31.4926 195.149 31.2686 194.474 31.2686C193.464 31.2686 192.657 31.7711 192.051 32.7762C191.446 33.7813 191.14 35.2862 191.134 37.2907C191.134 38.6462 191.27 39.7777 191.541 40.6852C191.818 41.5869 192.207 42.2646 192.709 42.7184C193.211 43.1663 193.799 43.3904 194.474 43.3904Z" fill="#2B3354"/>
<path d="M85.0551 59.2473V58.2996H91.7003V59.2473H88.9145V67.1218H87.8417V59.2473H85.0551ZM94.9539 67.2596C94.3537 67.2596 93.8274 67.1175 93.3751 66.8331C92.9251 66.5488 92.5726 66.1511 92.3192 65.6399C92.0683 65.1287 91.9432 64.5314 91.9432 63.8479C91.9432 63.1587 92.0683 62.5571 92.3192 62.043C92.5726 61.529 92.9251 61.1298 93.3751 60.8455C93.8274 60.5611 94.3537 60.419 94.9539 60.419C95.5541 60.419 96.0788 60.5611 96.5288 60.8455C96.9811 61.1298 97.3336 61.529 97.5846 62.043C97.838 62.5571 97.9647 63.1587 97.9647 63.8479C97.9647 64.5314 97.838 65.1287 97.5846 65.6399C97.3336 66.1511 96.9811 66.5488 96.5288 66.8331C96.0788 67.1175 95.5541 67.2596 94.9539 67.2596ZM94.9539 66.3464C95.4096 66.3464 95.7848 66.2301 96.0788 65.9974C96.3728 65.7648 96.5905 65.459 96.7318 65.0799C96.8731 64.7008 96.9438 64.2902 96.9438 63.8479C96.9438 63.4056 96.8731 62.9935 96.7318 62.6116C96.5905 62.2296 96.3728 61.921 96.0788 61.6855C95.7848 61.45 95.4096 61.3322 94.9539 61.3322C94.4983 61.3322 94.1231 61.45 93.8291 61.6855C93.5351 61.921 93.3174 62.2296 93.1761 62.6116C93.0347 62.9935 92.9641 63.4056 92.9641 63.8479C92.9641 64.2902 93.0347 64.7008 93.1761 65.0799C93.3174 65.459 93.5351 65.7648 93.8291 65.9974C94.1231 66.2301 94.4983 66.3464 94.9539 66.3464ZM102.414 60.5052V61.3667H98.9694V60.5052H102.414ZM99.9732 58.92H100.994V65.2263C100.994 65.5136 101.036 65.7289 101.12 65.8726C101.206 66.0133 101.316 66.108 101.449 66.1568C101.585 66.2028 101.727 66.2257 101.877 66.2257C101.989 66.2257 102.082 66.22 102.154 66.2085C102.226 66.1942 102.284 66.1827 102.327 66.174L102.535 67.0873C102.465 67.1131 102.368 67.139 102.245 67.1649C102.121 67.1936 101.964 67.2079 101.773 67.2079C101.485 67.2079 101.202 67.1462 100.925 67.0227C100.651 66.8992 100.423 66.7111 100.241 66.4584C100.063 66.2057 99.9732 65.8869 99.9732 65.5021V58.92ZM105.905 67.2769C105.484 67.2769 105.101 67.1979 104.759 67.0399C104.415 66.8791 104.142 66.6479 103.941 66.3464C103.739 66.042 103.638 65.6743 103.638 65.2436C103.638 64.8645 103.713 64.5572 103.863 64.3217C104.013 64.0834 104.213 63.8968 104.464 63.7618C104.715 63.6268 104.992 63.5263 105.295 63.4602C105.601 63.3913 105.908 63.3367 106.216 63.2965C106.62 63.2449 106.947 63.206 107.198 63.1802C107.452 63.1515 107.637 63.1042 107.752 63.0381C107.87 62.972 107.929 62.8572 107.929 62.6934V62.659C107.929 62.234 107.812 61.9037 107.579 61.6682C107.348 61.4327 106.998 61.315 106.528 61.315C106.04 61.315 105.659 61.4213 105.382 61.6338C105.105 61.8463 104.91 62.0731 104.798 62.3144L103.828 61.9698C104.001 61.5677 104.231 61.2547 104.521 61.0307C104.811 60.8038 105.129 60.6459 105.472 60.5568C105.819 60.465 106.159 60.419 106.493 60.419C106.706 60.419 106.951 60.4448 107.228 60.4965C107.509 60.5454 107.778 60.6473 108.037 60.8024C108.3 60.9575 108.517 61.1915 108.691 61.5046C108.864 61.8176 108.95 62.2368 108.95 62.7624V67.1218H107.929V66.2257H107.877C107.808 66.3693 107.693 66.523 107.531 66.6867C107.37 66.8504 107.155 66.9896 106.887 67.1045C106.619 67.2194 106.291 67.2769 105.905 67.2769ZM106.061 66.3636C106.464 66.3636 106.804 66.2846 107.081 66.1267C107.361 65.9687 107.572 65.7648 107.713 65.515C107.857 65.2651 107.929 65.0024 107.929 64.7267V63.7962C107.886 63.8479 107.791 63.8953 107.643 63.9384C107.5 63.9786 107.332 64.0145 107.142 64.046C106.955 64.0747 106.771 64.1006 106.593 64.1236C106.416 64.1437 106.274 64.161 106.164 64.1753C105.899 64.2097 105.651 64.2658 105.421 64.3433C105.192 64.418 105.008 64.5314 104.867 64.6836C104.728 64.8329 104.659 65.0369 104.659 65.2953C104.659 65.6486 104.79 65.9156 105.053 66.0965C105.317 66.2746 105.654 66.3636 106.061 66.3636ZM111.835 58.2996V67.1218H110.814V58.2996H111.835ZM119.64 67.2596C119.087 67.2596 118.598 67.1203 118.174 66.8418C117.75 66.5604 117.418 66.164 117.179 65.6528C116.94 65.1388 116.82 64.5314 116.82 63.8307C116.82 63.1357 116.94 62.5326 117.179 62.0215C117.418 61.5103 117.751 61.1154 118.178 60.8368C118.606 60.5583 119.099 60.419 119.658 60.419C120.09 60.419 120.432 60.4908 120.683 60.6344C120.937 60.7751 121.131 60.936 121.263 61.1169C121.399 61.2949 121.503 61.4414 121.579 61.5562H121.665V58.2996H122.686V67.1218H121.7V66.1051H121.579C121.503 66.2257 121.397 66.378 121.259 66.5617C121.12 66.7426 120.923 66.9049 120.666 67.0485C120.409 67.1893 120.067 67.2596 119.64 67.2596ZM119.779 66.3464C120.188 66.3464 120.534 66.2401 120.817 66.0276C121.1 65.8122 121.315 65.515 121.462 65.1359C121.609 64.754 121.683 64.3132 121.683 63.8135C121.683 63.3195 121.611 62.8873 121.466 62.5169C121.322 62.1435 121.109 61.8534 120.826 61.6467C120.543 61.437 120.194 61.3322 119.779 61.3322C119.346 61.3322 118.986 61.4428 118.697 61.6639C118.412 61.8822 118.197 62.1794 118.053 62.5556C117.912 62.9289 117.841 63.3482 117.841 63.8135C117.841 64.2844 117.913 64.7123 118.057 65.0971C118.204 65.479 118.42 65.7835 118.706 66.0104C118.995 66.2344 119.352 66.3464 119.779 66.3464ZM124.698 67.1218V60.5052H125.719V67.1218H124.698ZM125.217 59.4023C125.019 59.4023 124.846 59.3349 124.703 59.1999C124.561 59.065 124.491 58.9027 124.491 58.7132C124.491 58.5236 124.561 58.3614 124.703 58.2264C124.846 58.0914 125.019 58.0239 125.217 58.0239C125.416 58.0239 125.586 58.0914 125.728 58.2264C125.872 58.3614 125.944 58.5236 125.944 58.7132C125.944 58.9027 125.872 59.065 125.728 59.1999C125.586 59.3349 125.416 59.4023 125.217 59.4023ZM132.296 61.987L131.379 62.2455C131.321 62.0933 131.236 61.9454 131.124 61.8017C131.014 61.6553 130.864 61.5347 130.674 61.4399C130.483 61.3452 130.239 61.2978 129.943 61.2978C129.536 61.2978 129.197 61.3911 128.926 61.5777C128.658 61.7616 128.523 61.9956 128.523 62.2799C128.523 62.5326 128.616 62.7322 128.8 62.8787C128.985 63.0251 129.274 63.1472 129.666 63.2449L130.652 63.4861C131.246 63.6296 131.689 63.8494 131.981 64.1451C132.271 64.4381 132.417 64.8157 132.417 65.2781C132.417 65.6571 132.308 65.996 132.089 66.2947C131.872 66.5934 131.569 66.8288 131.18 67.0012C130.791 67.1734 130.337 67.2596 129.822 67.2596C129.144 67.2596 128.582 67.1131 128.138 66.8202C127.695 66.5273 127.413 66.0994 127.295 65.5365L128.264 65.2953C128.357 65.6514 128.53 65.9185 128.787 66.0965C129.047 66.2746 129.386 66.3636 129.804 66.3636C130.28 66.3636 130.657 66.2631 130.938 66.062C131.22 65.8582 131.362 65.6141 131.362 65.3298C131.362 65.1 131.28 64.9076 131.12 64.7525C130.958 64.5946 130.709 64.4768 130.375 64.3993L129.268 64.1408C128.659 63.9973 128.212 63.7747 127.926 63.4732C127.643 63.1688 127.502 62.7882 127.502 62.3316C127.502 61.9583 127.608 61.628 127.818 61.3409C128.032 61.0536 128.322 60.8282 128.688 60.6646C129.057 60.5009 129.475 60.419 129.943 60.419C130.6 60.419 131.116 60.5626 131.492 60.8498C131.869 61.1369 132.137 61.516 132.296 61.987ZM136.844 60.5052V61.3667H133.4V60.5052H136.844ZM134.404 58.92H135.425V65.2263C135.425 65.5136 135.466 65.7289 135.55 65.8726C135.637 66.0133 135.747 66.108 135.879 66.1568C136.015 66.2028 136.158 66.2257 136.308 66.2257C136.42 66.2257 136.513 66.22 136.584 66.2085C136.656 66.1942 136.714 66.1827 136.758 66.174L136.965 67.0873C136.896 67.1131 136.799 67.139 136.675 67.1649C136.552 67.1936 136.394 67.2079 136.204 67.2079C135.916 67.2079 135.633 67.1462 135.356 67.0227C135.081 66.8992 134.854 66.7111 134.672 66.4584C134.493 66.2057 134.404 65.8869 134.404 65.5021V58.92ZM140.335 67.2769C139.914 67.2769 139.532 67.1979 139.189 67.0399C138.846 66.8791 138.573 66.6479 138.371 66.3464C138.169 66.042 138.069 65.6743 138.069 65.2436C138.069 64.8645 138.143 64.5572 138.294 64.3217C138.443 64.0834 138.644 63.8968 138.895 63.7618C139.146 63.6268 139.423 63.5263 139.726 63.4602C140.031 63.3913 140.338 63.3367 140.647 63.2965C141.05 63.2449 141.377 63.206 141.628 63.1802C141.883 63.1515 142.067 63.1042 142.182 63.0381C142.301 62.972 142.36 62.8572 142.36 62.6934V62.659C142.36 62.234 142.243 61.9037 142.009 61.6682C141.779 61.4327 141.429 61.315 140.958 61.315C140.471 61.315 140.089 61.4213 139.812 61.6338C139.535 61.8463 139.341 62.0731 139.228 62.3144L138.259 61.9698C138.432 61.5677 138.662 61.2547 138.951 61.0307C139.242 60.8038 139.559 60.6459 139.903 60.5568C140.249 60.465 140.589 60.419 140.923 60.419C141.137 60.419 141.382 60.4448 141.659 60.4965C141.939 60.5454 142.208 60.6473 142.468 60.8024C142.731 60.9575 142.948 61.1915 143.121 61.5046C143.294 61.8176 143.381 62.2368 143.381 62.7624V67.1218H142.36V66.2257H142.308C142.238 66.3693 142.123 66.523 141.962 66.6867C141.801 66.8504 141.585 66.9896 141.317 67.1045C141.049 67.2194 140.722 67.2769 140.335 67.2769ZM140.491 66.3636C140.895 66.3636 141.235 66.2846 141.512 66.1267C141.792 65.9687 142.002 65.7648 142.143 65.515C142.288 65.2651 142.36 65.0024 142.36 64.7267V63.7962C142.316 63.8479 142.221 63.8953 142.074 63.9384C141.931 63.9786 141.763 64.0145 141.572 64.046C141.385 64.0747 141.202 64.1006 141.023 64.1236C140.847 64.1437 140.704 64.161 140.595 64.1753C140.33 64.2097 140.081 64.2658 139.851 64.3433C139.623 64.418 139.438 64.5314 139.297 64.6836C139.159 64.8329 139.09 65.0369 139.09 65.2953C139.09 65.6486 139.22 65.9156 139.483 66.0965C139.748 66.2746 140.085 66.3636 140.491 66.3636ZM146.265 63.1414V67.1218H145.244V60.5052H146.231V61.539H146.317C146.473 61.203 146.709 60.933 147.027 60.7292C147.344 60.5224 147.754 60.419 148.256 60.419C148.706 60.419 149.099 60.5109 149.437 60.6947C149.774 60.8756 150.036 61.1513 150.224 61.5218C150.411 61.8893 150.505 62.3546 150.505 62.9174V67.1218H149.484V62.9864C149.484 62.4666 149.348 62.0617 149.078 61.7716C148.807 61.4787 148.435 61.3322 147.961 61.3322C147.635 61.3322 147.344 61.4026 147.087 61.5433C146.834 61.684 146.633 61.8893 146.486 62.1593C146.339 62.4292 146.265 62.7567 146.265 63.1414ZM155.07 67.2596C154.447 67.2596 153.911 67.1131 153.461 66.8202C153.011 66.5273 152.665 66.1238 152.423 65.6097C152.18 65.0957 152.059 64.5085 152.059 63.8479C152.059 63.1759 152.184 62.5829 152.431 62.0689C152.682 61.5519 153.032 61.1484 153.478 60.8584C153.928 60.5655 154.454 60.419 155.053 60.419C155.52 60.419 155.942 60.5052 156.317 60.6774C156.691 60.8497 156.998 61.091 157.238 61.4011C157.477 61.7113 157.626 62.0731 157.684 62.4867H156.663C156.585 62.1852 156.412 61.918 156.144 61.6855C155.878 61.45 155.52 61.3322 155.07 61.3322C154.672 61.3322 154.324 61.4356 154.023 61.6424C153.727 61.8463 153.494 62.1349 153.327 62.5082C153.162 62.8787 153.08 63.3138 153.08 63.8135C153.08 64.3246 153.161 64.7697 153.322 65.1489C153.487 65.5279 153.718 65.8223 154.015 66.0319C154.315 66.2416 154.666 66.3464 155.07 66.3464C155.336 66.3464 155.577 66.3004 155.793 66.2085C156.009 66.1166 156.193 65.9846 156.343 65.8122C156.492 65.6399 156.599 65.4331 156.663 65.1919H157.684C157.626 65.5825 157.483 65.9343 157.255 66.2473C157.03 66.5574 156.732 66.8044 156.36 66.9882C155.99 67.1691 155.561 67.2596 155.07 67.2596ZM161.962 67.2596C161.322 67.2596 160.77 67.1188 160.305 66.8374C159.844 66.5532 159.488 66.1568 159.237 65.6486C158.989 65.1374 158.865 64.5429 158.865 63.8651C158.865 63.1874 158.989 62.5901 159.237 62.0731C159.488 61.5533 159.837 61.1484 160.283 60.8584C160.733 60.5655 161.258 60.419 161.858 60.419C162.204 60.419 162.546 60.4765 162.884 60.5913C163.221 60.7062 163.528 60.8929 163.805 61.1513C164.082 61.4069 164.303 61.7458 164.467 62.1679C164.632 62.5901 164.714 63.1099 164.714 63.7273V64.158H159.591V63.2793H163.675C163.675 62.9059 163.6 62.5728 163.45 62.2799C163.303 61.987 163.093 61.7558 162.819 61.5864C162.548 61.417 162.228 61.3322 161.858 61.3322C161.451 61.3322 161.1 61.4327 160.802 61.6338C160.508 61.8319 160.282 62.0904 160.123 62.4092C159.965 62.7279 159.886 63.0696 159.886 63.4343V64.0202C159.886 64.5199 159.972 64.9435 160.145 65.291C160.321 65.6356 160.564 65.8984 160.876 66.0793C161.187 66.2573 161.55 66.3464 161.962 66.3464C162.23 66.3464 162.472 66.309 162.689 66.2344C162.908 66.1568 163.097 66.042 163.256 65.8898C163.414 65.7347 163.537 65.5423 163.623 65.3125L164.61 65.5882C164.506 65.9213 164.331 66.2142 164.086 66.467C163.841 66.7168 163.539 66.9121 163.178 67.0529C162.817 67.1907 162.412 67.2596 161.962 67.2596Z" fill="#9CAAB9"/>
<path d="M47.1066 69.5478C59.6662 69.5478 69.8477 59.41 69.8477 46.9043C69.8477 34.3987 59.6662 24.2609 47.1066 24.2609C34.547 24.2609 24.3655 34.3987 24.3655 46.9043C24.3655 59.41 34.547 69.5478 47.1066 69.5478Z" fill="#5E57C3"/>
<path d="M47.1065 72.7826C61.4603 72.7826 73.0964 61.1966 73.0964 46.9044C73.0964 32.6122 61.4603 21.0261 47.1065 21.0261C32.7527 21.0261 21.1167 32.6122 21.1167 46.9044C21.1167 61.1966 32.7527 72.7826 47.1065 72.7826Z" stroke="#5E57C3" stroke-opacity="0.1" stroke-width="8"/>
<path d="M43.0916 53.0235H52.6402C54.2688 53.0235 55.5893 51.7572 55.5893 50.1928C55.5893 48.6284 54.2688 47.3621 52.6402 47.3621H41.9339C40.3053 47.3621 38.9847 46.0958 38.9847 44.5314C38.9847 42.967 40.3053 41.6971 41.9339 41.6971H55.2353M52.4915 44.5349L55.3592 41.6937L52.4915 38.8174M43.0031 53.0691C43.0031 54.1307 42.1345 54.9913 41.063 54.9913C39.9914 54.9913 39.1228 54.1307 39.1228 53.0691C39.1228 52.0075 39.9914 51.1469 41.063 51.1469C42.1345 51.1469 43.0031 52.0075 43.0031 53.0691Z" stroke="white" stroke-width="1.8" stroke-miterlimit="10" stroke-linecap="round"/>
<path d="M289.949 32.7522H272.081C269.166 32.7522 266.802 35.1056 266.802 38.0087V55.8C266.802 58.7031 269.166 61.0565 272.081 61.0565H289.949C292.865 61.0565 295.228 58.7031 295.228 55.8V38.0087C295.228 35.1056 292.865 32.7522 289.949 32.7522Z" fill="white" stroke="#EAEDF3"/>
<path d="M282.445 43.086L285.107 40.4348L288.325 43.6388L278.548 53.3739H275.33V50.17L282.445 43.086ZM282.445 43.086L285.652 46.283" stroke="#A8B5C2" stroke-width="1.7" stroke-miterlimit="10" stroke-linecap="round" stroke-linejoin="round"/>
</g>
<defs>
<clipPath id="clip0_26_562">
<rect width="320" height="93" fill="white"/>
</clipPath>
</defs>
</svg>
