<svg width="321" height="94" viewBox="0 0 321 94" fill="none" xmlns="http://www.w3.org/2000/svg">
<g clip-path="url(#clip0_307_446)">
<path d="M308.81 0.405151H12.1899C5.68204 0.405151 0.406372 5.66581 0.406372 12.1552V81.8448C0.406372 88.3342 5.68204 93.5948 12.1899 93.5948H308.81C315.318 93.5948 320.594 88.3342 320.594 81.8448V12.1552C320.594 5.66581 315.318 0.405151 308.81 0.405151Z" fill="white" stroke="#EAEDF3"/>
<path d="M84.3279 46.1897V43.4962L90.6398 37.669C91.1762 37.151 91.6264 36.6848 91.9904 36.2704C92.3594 35.8561 92.6398 35.4504 92.8299 35.0532C93.0201 34.6503 93.116 34.2158 93.116 33.7496C93.116 33.2316 92.9973 32.7856 92.7608 32.4116C92.5243 32.0317 92.2009 31.741 91.7913 31.5396C91.3809 31.3324 90.9169 31.2288 90.3976 31.2288C89.8548 31.2288 89.3818 31.3382 88.9771 31.5569C88.5732 31.7756 88.262 32.0892 88.0425 32.4979C87.8231 32.9065 87.7134 33.3928 87.7134 33.9568H84.1548C84.1548 32.8 84.4181 31.7957 84.9431 30.9439C85.468 30.0921 86.2043 29.4331 87.1502 28.9669C88.097 28.5008 89.1884 28.2677 90.4228 28.2677C91.693 28.2677 92.7982 28.4922 93.7393 28.9411C94.6852 29.3843 95.4215 30.0001 95.9465 30.7885C96.4722 31.577 96.7347 32.4806 96.7347 33.4993C96.7347 34.1669 96.6015 34.8259 96.3365 35.4762C96.0765 36.1266 95.6116 36.8488 94.9428 37.6431C94.2732 38.4315 93.3289 39.3783 92.1115 40.4833L89.5232 43.0127V43.1336H96.968V46.1897H84.3279ZM100.386 46.1897L107.736 31.6864V31.5655H99.1735V28.5094H111.615V31.6087L104.256 46.1897H100.386ZM120.333 46.4314C119.04 46.4314 117.889 46.2099 116.879 45.7667C115.874 45.3178 115.08 44.702 114.498 43.9193C113.921 43.1307 113.623 42.2214 113.606 41.1912H117.381C117.404 41.6228 117.545 42.0027 117.805 42.3307C118.07 42.6531 118.422 42.9034 118.861 43.0819C119.3 43.2602 119.793 43.3494 120.342 43.3494C120.913 43.3494 121.418 43.2487 121.856 43.0473C122.295 42.8459 122.639 42.5667 122.887 42.2099C123.135 41.853 123.259 41.4416 123.259 40.9754C123.259 40.5035 123.127 40.0862 122.861 39.7236C122.602 39.3553 122.226 39.0675 121.735 38.8604C121.251 38.6532 120.673 38.5495 120.004 38.5495H118.351V35.8042H120.004C120.57 35.8042 121.069 35.7064 121.502 35.5107C121.94 35.3151 122.281 35.0445 122.524 34.6992C122.766 34.3482 122.887 33.9395 122.887 33.4734C122.887 33.0303 122.78 32.6417 122.567 32.3079C122.359 31.9684 122.064 31.7036 121.683 31.5137C121.309 31.3238 120.87 31.2288 120.368 31.2288C119.86 31.2288 119.395 31.3209 118.974 31.5051C118.552 31.6835 118.215 31.9396 117.961 32.2734C117.707 32.6072 117.571 32.9986 117.554 33.4475H113.961C113.979 32.4288 114.269 31.531 114.835 30.754C115.401 29.977 116.163 29.3699 117.121 28.9324C118.085 28.4893 119.173 28.2677 120.385 28.2677C121.609 28.2677 122.679 28.4893 123.597 28.9324C124.515 29.3756 125.227 29.9741 125.735 30.7281C126.249 31.4763 126.503 32.3166 126.498 33.2489C126.503 34.2388 126.194 35.0647 125.571 35.7266C124.953 36.3884 124.148 36.8086 123.155 36.987V37.1251C124.459 37.292 125.452 37.7438 126.133 38.4805C126.82 39.2114 127.161 40.1265 127.155 41.2258C127.161 42.2329 126.87 43.1279 126.281 43.9106C125.698 44.6933 124.893 45.3092 123.865 45.758C122.838 46.207 121.661 46.4314 120.333 46.4314ZM133.393 43.7724L133.298 44.7221C133.222 45.4818 133.078 46.2386 132.865 46.9926C132.657 47.7523 132.438 48.44 132.206 49.0558C131.981 49.6717 131.8 50.1551 131.661 50.5062H129.272C129.359 50.1666 129.477 49.6918 129.627 49.0817C129.777 48.4775 129.918 47.7983 130.051 47.0444C130.184 46.2904 130.267 45.5221 130.302 44.7393L130.345 43.7724H133.393ZM143.064 46.4314C141.84 46.4314 140.749 46.207 139.791 45.758C138.839 45.3092 138.083 44.6905 137.523 43.9019C136.963 43.1135 136.671 42.2099 136.648 41.1912H140.284C140.325 41.8761 140.613 42.4315 141.15 42.8574C141.687 43.2833 142.325 43.4962 143.064 43.4962C143.652 43.4962 144.171 43.3667 144.621 43.1077C145.078 42.843 145.432 42.4775 145.687 42.0114C145.946 41.5394 146.076 40.9984 146.076 40.3884C146.076 39.7668 145.944 39.22 145.678 38.7481C145.419 38.2762 145.058 37.9078 144.596 37.6431C144.134 37.3783 143.606 37.2431 143.012 37.2373C142.492 37.2373 141.987 37.3438 141.497 37.5568C141.012 37.7697 140.634 38.0603 140.362 38.4287L137.029 37.833L137.869 28.5094H148.708V31.5655H140.96L140.5 35.9942H140.604C140.917 35.5568 141.387 35.1942 142.016 34.9065C142.645 34.6187 143.349 34.4748 144.128 34.4748C145.196 34.4748 146.148 34.7252 146.985 35.2259C147.822 35.7266 148.483 36.4143 148.968 37.2891C149.453 38.1582 149.692 39.1596 149.687 40.2934C149.692 41.4847 149.415 42.5437 148.855 43.4703C148.301 44.3911 147.525 45.1163 146.526 45.6458C145.534 46.1695 144.379 46.4314 143.064 46.4314ZM159.106 46.4314C158.194 46.4257 157.314 46.2732 156.465 45.9739C155.622 45.6746 154.867 45.1883 154.197 44.5149C153.527 43.8416 152.997 42.9494 152.604 41.8387C152.217 40.7279 152.024 39.3639 152.024 37.7467C152.03 36.2618 152.2 34.9352 152.535 33.7669C152.876 32.5928 153.36 31.5972 153.989 30.7799C154.624 29.9626 155.383 29.3411 156.266 28.9152C157.149 28.4836 158.139 28.2677 159.235 28.2677C160.419 28.2677 161.464 28.4979 162.37 28.9584C163.276 29.413 164.003 30.0317 164.552 30.8145C165.105 31.5972 165.44 32.4748 165.555 33.4475H161.859C161.715 32.8316 161.412 32.3482 160.95 31.9972C160.489 31.6461 159.916 31.4705 159.235 31.4705C158.081 31.4705 157.204 31.9712 156.604 32.9726C156.009 33.9741 155.706 35.3352 155.695 37.0561H155.816C156.082 36.5323 156.439 36.0863 156.889 35.7179C157.345 35.3439 157.862 35.059 158.439 34.8633C159.023 34.6618 159.637 34.5612 160.283 34.5612C161.334 34.5612 162.269 34.8086 163.088 35.3036C163.908 35.7927 164.554 36.4661 165.028 37.3236C165.501 38.1812 165.738 39.1625 165.738 40.2675C165.738 41.4646 165.458 42.5294 164.898 43.4617C164.344 44.394 163.568 45.125 162.569 45.6545C161.576 46.1782 160.422 46.4372 159.106 46.4314ZM159.088 43.4962C159.666 43.4962 160.182 43.3581 160.638 43.0819C161.094 42.8056 161.452 42.4315 161.712 41.9595C161.972 41.4876 162.102 40.9581 162.102 40.3711C162.102 39.7841 161.972 39.2574 161.712 38.7912C161.458 38.3251 161.106 37.9538 160.656 37.6776C160.206 37.4013 159.692 37.2633 159.114 37.2633C158.682 37.2633 158.281 37.3438 157.911 37.505C157.548 37.6661 157.227 37.8905 156.95 38.1783C156.679 38.4661 156.465 38.7999 156.31 39.1797C156.154 39.5539 156.076 39.9538 156.076 40.3798C156.076 40.9495 156.206 41.4703 156.465 41.9423C156.731 42.4142 157.088 42.7912 157.539 43.0732C157.995 43.3552 158.511 43.4962 159.088 43.4962ZM175.347 46.5782C173.858 46.5724 172.577 46.207 171.503 45.4818C170.436 44.7566 169.613 43.7063 169.036 42.3307C168.465 40.9553 168.182 39.3006 168.188 37.3668C168.188 35.4388 168.474 33.7957 169.045 32.4374C169.622 31.0792 170.444 30.0461 171.512 29.3382C172.586 28.6246 173.864 28.2677 175.347 28.2677C176.831 28.2677 178.106 28.6246 179.174 29.3382C180.248 30.0518 181.073 31.0878 181.65 32.4461C182.227 33.7985 182.513 35.4388 182.508 37.3668C182.508 39.3064 182.219 40.9639 181.641 42.3394C181.07 43.7149 180.251 44.7653 179.183 45.4904C178.115 46.2156 176.837 46.5782 175.347 46.5782ZM175.347 43.4789C176.363 43.4789 177.174 42.9696 177.78 41.9509C178.387 40.9323 178.686 39.4042 178.681 37.3668C178.681 36.0259 178.543 34.9093 178.265 34.0173C177.994 33.1251 177.607 32.4547 177.105 32.0057C176.608 31.5569 176.023 31.3324 175.347 31.3324C174.338 31.3324 173.529 31.836 172.923 32.8432C172.318 33.8503 172.011 35.3582 172.006 37.3668C172.006 38.7251 172.141 39.8589 172.413 40.7682C172.69 41.6718 173.079 42.3509 173.581 42.8056C174.084 43.2545 174.672 43.4789 175.347 43.4789Z" fill="#2B3354"/>
<path d="M85.1406 67.2586H84.0159L87.2706 58.4185H88.379L91.6345 67.2586H90.509L87.8597 59.817H87.7899L85.1406 67.2586ZM85.5567 63.8054H90.0929V64.755H85.5567V63.8054ZM95.5776 67.3968C94.9542 67.3968 94.4179 67.2499 93.9677 66.9564C93.5175 66.6629 93.1713 66.2586 92.9283 65.7435C92.6861 65.2284 92.565 64.64 92.565 63.9781C92.565 63.3047 92.6886 62.7105 92.9372 62.1954C93.1883 61.6774 93.537 61.2731 93.9847 60.9825C94.435 60.689 94.9599 60.5421 95.5605 60.5421C96.0278 60.5421 96.4495 60.6285 96.8242 60.8011C97.1996 60.9738 97.5068 61.2155 97.7465 61.5263C97.9863 61.8371 98.1342 62.1997 98.1919 62.6141H97.1704C97.0924 62.3119 96.9193 62.0443 96.6511 61.8112C96.3853 61.5752 96.0278 61.4572 95.5776 61.4572C95.1794 61.4572 94.8299 61.5608 94.53 61.768C94.2326 61.9724 94.0002 62.2616 93.8328 62.6357C93.6686 63.0069 93.5865 63.4428 93.5865 63.9436C93.5865 64.4558 93.667 64.9018 93.8287 65.2817C93.9937 65.6615 94.2245 65.9564 94.5211 66.1665C94.8218 66.3766 95.1737 66.4816 95.5776 66.4816C95.8433 66.4816 96.0838 66.4356 96.3008 66.3435C96.517 66.2514 96.7007 66.1191 96.8502 65.9464C97.0005 65.7737 97.107 65.5665 97.1704 65.3248H98.1919C98.1342 65.7162 97.992 66.0687 97.7636 66.3824C97.5385 66.6931 97.2403 66.9406 96.8681 67.1248C96.4983 67.3061 96.0684 67.3968 95.5776 67.3968ZM102.577 60.6285V61.4918H99.1313V60.6285H102.577ZM100.136 59.0401H101.157V65.3593C101.157 65.6471 101.2 65.8629 101.283 66.0069C101.369 66.1479 101.479 66.2427 101.612 66.2917C101.747 66.3377 101.89 66.3607 102.041 66.3607C102.153 66.3607 102.245 66.355 102.318 66.3435C102.39 66.3291 102.448 66.3176 102.491 66.3089L102.699 67.2241C102.629 67.2499 102.532 67.2759 102.409 67.3018C102.284 67.3305 102.127 67.3449 101.937 67.3449C101.648 67.3449 101.365 67.2831 101.088 67.1593C100.814 67.0356 100.586 66.8471 100.404 66.5939C100.225 66.3406 100.136 66.0212 100.136 65.6356V59.0401ZM104.114 67.2586V60.6285H105.136V67.2586H104.114ZM104.634 59.5234C104.435 59.5234 104.262 59.4559 104.119 59.3206C103.977 59.1854 103.906 59.0227 103.906 58.8329C103.906 58.6429 103.977 58.4804 104.119 58.3451C104.262 58.2099 104.435 58.1422 104.634 58.1422C104.833 58.1422 105.003 58.2099 105.144 58.3451C105.289 58.4804 105.361 58.6429 105.361 58.8329C105.361 59.0227 105.289 59.1854 105.144 59.3206C105.003 59.4559 104.833 59.5234 104.634 59.5234ZM112.443 60.6285L109.985 67.2586H108.946L106.487 60.6285H107.595L109.431 65.9119H109.5L111.336 60.6285H112.443ZM116.342 67.3968C115.701 67.3968 115.149 67.2557 114.684 66.9737C114.222 66.6888 113.866 66.2917 113.615 65.7824C113.367 65.2702 113.242 64.6745 113.242 63.9953C113.242 63.3162 113.367 62.7177 113.615 62.1997C113.866 61.6788 114.215 61.2731 114.662 60.9825C115.112 60.689 115.638 60.5421 116.238 60.5421C116.584 60.5421 116.926 60.5997 117.264 60.7148C117.601 60.83 117.909 61.017 118.186 61.276C118.463 61.532 118.684 61.8717 118.848 62.2947C119.013 62.7177 119.095 63.2385 119.095 63.8572V64.2888H113.97V63.4083H118.056C118.056 63.0342 117.981 62.7004 117.831 62.4069C117.683 62.1134 117.473 61.8817 117.199 61.7119C116.928 61.5422 116.608 61.4572 116.238 61.4572C115.831 61.4572 115.479 61.558 115.181 61.7594C114.887 61.958 114.66 62.2169 114.502 62.5364C114.343 62.8558 114.264 63.1982 114.264 63.5637V64.1508C114.264 64.6515 114.351 65.0759 114.524 65.4241C114.699 65.7694 114.943 66.0327 115.255 66.214C115.567 66.3924 115.929 66.4816 116.342 66.4816C116.61 66.4816 116.853 66.4442 117.069 66.3694C117.289 66.2917 117.477 66.1766 117.636 66.0241C117.795 65.8687 117.918 65.6759 118.004 65.4457L118.991 65.7219C118.887 66.0557 118.712 66.3492 118.467 66.6025C118.222 66.8529 117.919 67.0486 117.558 67.1896C117.198 67.3276 116.792 67.3968 116.342 67.3968ZM129.514 60.6285L127.056 67.2586H126.016L123.558 60.6285H124.666L126.502 65.9119H126.571L128.407 60.6285H129.514ZM133.412 67.3968C132.772 67.3968 132.219 67.2557 131.755 66.9737C131.293 66.6888 130.936 66.2917 130.685 65.7824C130.437 65.2702 130.313 64.6745 130.313 63.9953C130.313 63.3162 130.437 62.7177 130.685 62.1997C130.936 61.6788 131.286 61.2731 131.733 60.9825C132.183 60.689 132.708 60.5421 133.308 60.5421C133.655 60.5421 133.997 60.5997 134.334 60.7148C134.672 60.83 134.979 61.017 135.256 61.276C135.534 61.532 135.755 61.8717 135.919 62.2947C136.083 62.7177 136.166 63.2385 136.166 63.8572V64.2888H131.04V63.4083H135.126C135.126 63.0342 135.052 62.7004 134.901 62.4069C134.754 62.1134 134.544 61.8817 134.27 61.7119C133.998 61.5422 133.678 61.4572 133.308 61.4572C132.901 61.4572 132.549 61.558 132.252 61.7594C131.958 61.958 131.731 62.2169 131.573 62.5364C131.414 62.8558 131.335 63.1982 131.335 63.5637V64.1508C131.335 64.6515 131.421 65.0759 131.595 65.4241C131.77 65.7694 132.014 66.0327 132.326 66.214C132.637 66.3924 133 66.4816 133.412 66.4816C133.681 66.4816 133.923 66.4442 134.14 66.3694C134.359 66.2917 134.548 66.1766 134.707 66.0241C134.866 65.8687 134.988 65.6759 135.074 65.4457L136.062 65.7219C135.958 66.0557 135.783 66.3492 135.538 66.6025C135.292 66.8529 134.99 67.0486 134.629 67.1896C134.268 67.3276 133.863 67.3968 133.412 67.3968ZM138.741 63.2702V67.2586H137.72V58.4185H138.741V61.6645H138.828C138.983 61.322 139.217 61.0501 139.529 60.8486C139.844 60.6443 140.262 60.5421 140.784 60.5421C141.238 60.5421 141.634 60.6328 141.975 60.8141C142.315 60.9925 142.579 61.2673 142.767 61.6385C142.957 62.0069 143.052 62.4759 143.052 63.0457V67.2586H142.031V63.1148C142.031 62.5882 141.894 62.181 141.62 61.8932C141.349 61.6025 140.972 61.4572 140.49 61.4572C140.155 61.4572 139.855 61.5278 139.59 61.6688C139.327 61.8098 139.119 62.0155 138.966 62.286C138.816 62.5565 138.741 62.8846 138.741 63.2702ZM144.921 67.2586V60.6285H145.943V67.2586H144.921ZM145.441 59.5234C145.242 59.5234 145.07 59.4559 144.926 59.3206C144.785 59.1854 144.714 59.0227 144.714 58.8329C144.714 58.6429 144.785 58.4804 144.926 58.3451C145.07 58.2099 145.242 58.1422 145.441 58.1422C145.64 58.1422 145.81 58.2099 145.952 58.3451C146.096 58.4804 146.168 58.6429 146.168 58.8329C146.168 59.0227 146.096 59.1854 145.952 59.3206C145.81 59.4559 145.64 59.5234 145.441 59.5234ZM150.516 67.3968C149.892 67.3968 149.355 67.2499 148.905 66.9564C148.455 66.6629 148.109 66.2586 147.866 65.7435C147.623 65.2284 147.502 64.64 147.502 63.9781C147.502 63.3047 147.627 62.7105 147.875 62.1954C148.126 61.6774 148.475 61.2731 148.922 60.9825C149.372 60.689 149.898 60.5421 150.498 60.5421C150.966 60.5421 151.387 60.6285 151.762 60.8011C152.137 60.9738 152.445 61.2155 152.684 61.5263C152.924 61.8371 153.072 62.1997 153.13 62.6141H152.108C152.03 62.3119 151.857 62.0443 151.589 61.8112C151.323 61.5752 150.966 61.4572 150.516 61.4572C150.117 61.4572 149.768 61.5608 149.468 61.768C149.171 61.9724 148.938 62.2616 148.771 62.6357C148.607 63.0069 148.524 63.4428 148.524 63.9436C148.524 64.4558 148.605 64.9018 148.767 65.2817C148.931 65.6615 149.162 65.9564 149.459 66.1665C149.759 66.3766 150.112 66.4816 150.516 66.4816C150.781 66.4816 151.022 66.4356 151.238 66.3435C151.455 66.2514 151.638 66.1191 151.788 65.9464C151.938 65.7737 152.045 65.5665 152.108 65.3248H153.13C153.072 65.7162 152.929 66.0687 152.702 66.3824C152.477 66.6931 152.178 66.9406 151.805 67.1248C151.436 67.3061 151.006 67.3968 150.516 67.3968ZM155.645 58.4185V67.2586H154.624V58.4185H155.645ZM160.304 67.3968C159.663 67.3968 159.11 67.2557 158.646 66.9737C158.184 66.6888 157.828 66.2917 157.577 65.7824C157.328 65.2702 157.205 64.6745 157.205 63.9953C157.205 63.3162 157.328 62.7177 157.577 62.1997C157.828 61.6788 158.177 61.2731 158.624 60.9825C159.075 60.689 159.6 60.5421 160.2 60.5421C160.546 60.5421 160.888 60.5997 161.226 60.7148C161.564 60.83 161.871 61.017 162.148 61.276C162.425 61.532 162.645 61.8717 162.81 62.2947C162.975 62.7177 163.057 63.2385 163.057 63.8572V64.2888H157.932V63.4083H162.018C162.018 63.0342 161.943 62.7004 161.793 62.4069C161.646 62.1134 161.435 61.8817 161.161 61.7119C160.89 61.5422 160.569 61.4572 160.2 61.4572C159.793 61.4572 159.441 61.558 159.144 61.7594C158.849 61.958 158.623 62.2169 158.464 62.5364C158.306 62.8558 158.226 63.1982 158.226 63.5637V64.1508C158.226 64.6515 158.312 65.0759 158.485 65.4241C158.662 65.7694 158.906 66.0327 159.218 66.214C159.529 66.3924 159.891 66.4816 160.304 66.4816C160.572 66.4816 160.815 66.4442 161.031 66.3694C161.25 66.2917 161.439 66.1766 161.598 66.0241C161.757 65.8687 161.88 65.6759 161.966 65.4457L162.953 65.7219C162.849 66.0557 162.675 66.3492 162.429 66.6025C162.184 66.8529 161.881 67.0486 161.521 67.1896C161.16 67.3276 160.754 67.3968 160.304 67.3968ZM169.321 62.1134L168.403 62.3724C168.345 62.2199 168.26 62.0717 168.148 61.9277C168.038 61.781 167.888 61.6602 167.698 61.5652C167.507 61.4702 167.263 61.4227 166.966 61.4227C166.559 61.4227 166.22 61.5162 165.949 61.7033C165.68 61.8875 165.546 62.122 165.546 62.4069C165.546 62.6601 165.638 62.8601 165.823 63.0069C166.008 63.1536 166.297 63.2759 166.689 63.3738L167.676 63.6155C168.271 63.7594 168.714 63.9795 169.004 64.2759C169.296 64.5695 169.442 64.9478 169.442 65.4112C169.442 65.791 169.332 66.1306 169.113 66.4299C168.896 66.7291 168.593 66.9651 168.204 67.1378C167.815 67.3104 167.361 67.3968 166.844 67.3968C166.167 67.3968 165.605 67.2499 165.161 66.9564C164.716 66.6629 164.435 66.2342 164.317 65.6702L165.287 65.4284C165.378 65.7852 165.553 66.0529 165.81 66.2312C166.07 66.4097 166.409 66.4989 166.827 66.4989C167.304 66.4989 167.681 66.3982 167.962 66.1967C168.245 65.9924 168.386 65.7479 168.386 65.463C168.386 65.2327 168.305 65.0399 168.143 64.8845C167.981 64.7263 167.733 64.6083 167.399 64.5306L166.291 64.2716C165.682 64.1277 165.235 63.9047 164.949 63.6026C164.666 63.2975 164.524 62.9162 164.524 62.4587C164.524 62.0846 164.63 61.7537 164.84 61.4659C165.054 61.1781 165.344 60.9522 165.711 60.7882C166.08 60.6242 166.498 60.5421 166.966 60.5421C167.624 60.5421 168.141 60.686 168.515 60.9738C168.894 61.2616 169.162 61.6414 169.321 62.1134Z" fill="#9CAAB9"/>
<path d="M47.1342 69.6896C59.7011 69.6896 69.8886 59.5311 69.8886 47C69.8886 34.4688 59.7011 24.3103 47.1342 24.3103C34.5673 24.3103 24.3798 34.4688 24.3798 47C24.3798 59.5311 34.5673 69.6896 47.1342 69.6896Z" fill="#FB4E6E"/>
<path d="M47.1342 72.931C61.4964 72.931 73.1393 61.3213 73.1393 47C73.1393 32.6787 61.4964 21.069 47.1342 21.069C32.772 21.069 21.1292 32.6787 21.1292 47C21.1292 61.3213 32.772 72.931 47.1342 72.931Z" stroke="#FB4E6E" stroke-opacity="0.1" stroke-width="8"/>
<path d="M53.2508 43.0209L48.4819 50.3452H39.4569M45.8667 44.0599L46.841 41.099H52.5842M49.7126 38.0862H51.4561L55.9687 50.2414M52.5842 44.1118H39.4918C39.4918 44.1118 44.354 44.0571 45.2095 50.1894M42.7387 50.3452C42.7387 52.5256 40.9939 54.2931 38.8415 54.2931C36.6892 54.2931 34.9443 52.5256 34.9443 50.3452C34.9443 48.1649 36.6892 46.3974 38.8415 46.3974C40.9939 46.3974 42.7387 48.1649 42.7387 50.3452ZM59.8659 50.3452C59.8659 52.5256 58.121 54.2931 55.9687 54.2931C53.8163 54.2931 52.0714 52.5256 52.0714 50.3452C52.0714 48.1649 53.8163 46.3974 55.9687 46.3974C58.121 46.3974 59.8659 48.1649 59.8659 50.3452Z" stroke="white" stroke-width="1.8" stroke-miterlimit="10" stroke-linecap="round" stroke-linejoin="round"/>
<path d="M290.932 32.819H273.053C270.136 32.819 267.771 35.1772 267.771 38.0862V55.9138C267.771 58.8228 270.136 61.181 273.053 61.181H290.932C293.849 61.181 296.214 58.8228 296.214 55.9138V38.0862C296.214 35.1772 293.849 32.819 290.932 32.819Z" fill="white" stroke="#EAEDF3"/>
<path d="M283.423 43.1738L286.086 40.5172L289.306 43.7277L279.523 53.4827H276.304V50.2722L283.423 43.1738ZM283.423 43.1738L286.632 46.3773" stroke="#A8B5C2" stroke-width="1.7" stroke-miterlimit="10" stroke-linecap="round" stroke-linejoin="round"/>
</g>
<defs>
<clipPath id="clip0_307_446">
<rect width="321" height="94" fill="white"/>
</clipPath>
</defs>
</svg>
