<svg width="234" height="92" viewBox="0 0 234 92" fill="none" xmlns="http://www.w3.org/2000/svg">
<g clip-path="url(#clip0_307_686)">
<path d="M222.102 0.400024H11.8983C5.54609 0.400024 0.396606 5.59352 0.396606 12V80C0.396606 86.4065 5.54609 91.6 11.8983 91.6H222.102C228.454 91.6 233.603 86.4065 233.603 80V12C233.603 5.59352 228.454 0.400024 222.102 0.400024Z" fill="white" stroke="#EAEDF3"/>
<path d="M83.1041 45.6V42.9409L89.2651 37.1881C89.7886 36.6768 90.228 36.2165 90.5834 35.8074C90.9435 35.3984 91.2172 34.9978 91.4028 34.6057C91.5884 34.2079 91.682 33.779 91.682 33.3187C91.682 32.8074 91.5662 32.3671 91.3354 31.9978C91.1046 31.6228 90.7889 31.3358 90.3891 31.137C89.9885 30.9324 89.5356 30.8301 89.0287 30.8301C88.4988 30.8301 88.0372 30.9381 87.6421 31.154C87.2479 31.37 86.9441 31.6795 86.7299 32.083C86.5158 32.4864 86.4087 32.9665 86.4087 33.5233H82.9352C82.9352 32.3813 83.1922 31.3898 83.7046 30.5489C84.217 29.708 84.9357 29.0574 85.859 28.5971C86.7831 28.137 87.8484 27.9068 89.0533 27.9068C90.2931 27.9068 91.3719 28.1284 92.2904 28.5716C93.2137 29.0092 93.9324 29.6171 94.4448 30.3955C94.958 31.1739 95.2142 32.066 95.2142 33.0716C95.2142 33.7308 95.0841 34.3813 94.8256 35.0233C94.5717 35.6654 94.118 36.3784 93.4652 37.1625C92.8116 37.9409 91.8898 38.8756 90.7016 39.9665L88.1752 42.4636V42.583H95.4419V45.6H83.1041ZM104.355 27.9068C105.245 27.9068 106.102 28.0574 106.925 28.3586C107.753 28.6597 108.49 29.1398 109.138 29.7989C109.792 30.458 110.308 31.333 110.685 32.4239C111.068 33.5092 111.263 34.8415 111.268 36.4211C111.268 37.904 111.102 39.2279 110.769 40.3927C110.442 41.5517 109.972 42.5375 109.358 43.35C108.744 44.1625 108.003 44.7819 107.136 45.2079C106.268 45.6284 105.299 45.8387 104.228 45.8387C103.073 45.8387 102.054 45.6143 101.17 45.1654C100.285 44.7108 99.5722 44.0944 99.0312 43.316C98.4966 42.5319 98.1722 41.6511 98.0595 40.6739H101.668C101.809 41.3103 102.105 41.8046 102.555 42.1568C103.006 42.5035 103.564 42.6768 104.228 42.6768C105.356 42.6768 106.211 42.1824 106.798 41.1938C107.384 40.1995 107.679 38.8387 107.685 37.1114H107.566C107.308 37.6227 106.958 38.0631 106.518 38.4324C106.079 38.796 105.575 39.0773 105.006 39.2762C104.443 39.4751 103.843 39.5744 103.206 39.5744C102.187 39.5744 101.277 39.333 100.476 38.85C99.6769 38.3671 99.0455 37.7023 98.5838 36.8557C98.1214 36.0091 97.8906 35.0432 97.8906 33.9579C97.885 32.7875 98.1531 31.7449 98.6933 30.8301C99.2343 29.9154 99.9894 29.1995 100.958 28.6824C101.933 28.1597 103.066 27.9011 104.355 27.9068ZM104.381 30.8046C103.812 30.8046 103.305 30.9409 102.859 31.2136C102.42 31.4864 102.071 31.8529 101.811 32.3131C101.558 32.7733 101.435 33.2875 101.44 33.8557C101.44 34.4295 101.564 34.9466 101.811 35.4068C102.065 35.8614 102.409 36.225 102.843 36.4978C103.282 36.7648 103.783 36.8983 104.347 36.8983C104.769 36.8983 105.161 36.8188 105.521 36.6597C105.882 36.5006 106.195 36.2819 106.46 36.0035C106.73 35.7193 106.941 35.3927 107.094 35.0233C107.246 34.654 107.321 34.2619 107.321 33.8471C107.316 33.296 107.186 32.7904 106.932 32.3301C106.679 31.87 106.33 31.5006 105.885 31.2222C105.44 30.9438 104.938 30.8046 104.381 30.8046Z" fill="#2B3354"/>
<path d="M90.5056 60.4H89.4578C89.3959 60.096 89.288 59.829 89.1326 59.5989C88.9803 59.3687 88.7947 59.1756 88.5749 59.0193C88.3584 58.8603 88.1172 58.7409 87.8523 58.6614C87.5874 58.5819 87.3113 58.5421 87.0242 58.5421C86.5007 58.5421 86.0255 58.6756 85.6004 58.9427C85.1776 59.2097 84.8412 59.6031 84.5906 60.1231C84.3431 60.6429 84.2186 61.2807 84.2186 62.0364C84.2186 62.7921 84.3431 63.4299 84.5906 63.9497C84.8412 64.4696 85.1776 64.8631 85.6004 65.1301C86.0255 65.3971 86.5007 65.5307 87.0242 65.5307C87.3113 65.5307 87.5874 65.4909 87.8523 65.4114C88.1172 65.3319 88.3584 65.2139 88.5749 65.0577C88.7947 64.8986 88.9803 64.704 89.1326 64.4739C89.288 64.2409 89.3959 63.9739 89.4578 63.6727H90.5056C90.4271 64.1187 90.2835 64.5179 90.0749 64.8702C89.8663 65.2225 89.6077 65.5222 89.2976 65.7693C88.9874 66.0136 88.64 66.1997 88.2537 66.3275C87.8706 66.4554 87.4613 66.5193 87.0242 66.5193C86.2865 66.5193 85.6297 66.3375 85.0554 65.9739C84.4811 65.6103 84.029 65.0932 83.699 64.4227C83.3698 63.7523 83.2048 62.9568 83.2048 62.0364C83.2048 61.1159 83.3698 60.3205 83.699 59.65C84.029 58.9795 84.4811 58.4625 85.0554 58.0989C85.6297 57.7352 86.2865 57.5535 87.0242 57.5535C87.4613 57.5535 87.8706 57.6174 88.2537 57.7452C88.64 57.8731 88.9874 58.0605 89.2976 58.3077C89.6077 58.552 89.8663 58.8503 90.0749 59.2026C90.2835 59.552 90.4271 59.9511 90.5056 60.4ZM93.9736 66.5535C93.5627 66.5535 93.1891 66.4753 92.8544 66.3191C92.5188 66.1599 92.2531 65.9313 92.0556 65.633C91.8581 65.3319 91.7597 64.9682 91.7597 64.5421C91.7597 64.1671 91.8327 63.8631 91.9794 63.6301C92.1262 63.3943 92.3221 63.2097 92.5672 63.0762C92.8115 62.9427 93.082 62.8432 93.3779 62.7779C93.6769 62.7097 93.9768 62.6557 94.2782 62.6159C94.6724 62.5648 94.9921 62.5264 95.2372 62.5009C95.4855 62.4725 95.6655 62.4256 95.7782 62.3603C95.8932 62.2949 95.9511 62.1813 95.9511 62.0193V61.9852C95.9511 61.5648 95.8369 61.2381 95.6092 61.0051C95.3839 60.7722 95.0413 60.6557 94.582 60.6557C94.1061 60.6557 93.7333 60.7608 93.4628 60.9711C93.1923 61.1813 93.0019 61.4057 92.8924 61.6443L91.9461 61.3035C92.1151 60.9057 92.3404 60.596 92.6219 60.3744C92.9059 60.15 93.2161 59.9938 93.5516 59.9057C93.8895 59.8148 94.2219 59.7693 94.5487 59.7693C94.7573 59.7693 94.9961 59.7949 95.2665 59.846C95.5402 59.8943 95.8036 59.9952 96.0566 60.1486C96.3136 60.302 96.5262 60.5335 96.6951 60.8432C96.8641 61.1529 96.9482 61.5676 96.9482 62.0875V66.4H95.9511V65.5136H95.9003C95.8329 65.6557 95.7203 65.8077 95.5624 65.9696C95.4046 66.1315 95.1952 66.2693 94.9326 66.383C94.6708 66.4966 94.3512 66.5535 93.9736 66.5535ZM94.1259 65.65C94.5201 65.65 94.8525 65.5719 95.123 65.4156C95.3966 65.2594 95.6021 65.0577 95.7401 64.8105C95.8805 64.5634 95.9511 64.3035 95.9511 64.0307V63.1103C95.9091 63.1614 95.8162 63.2083 95.6727 63.2509C95.5315 63.2907 95.3681 63.3262 95.1825 63.3574C94.9992 63.3858 94.82 63.4114 94.6455 63.4341C94.4741 63.454 94.3345 63.4711 94.2274 63.4852C93.968 63.5193 93.7261 63.5747 93.5008 63.6515C93.2779 63.7253 93.0979 63.8375 92.9599 63.9881C92.8242 64.1358 92.7568 64.3375 92.7568 64.5932C92.7568 64.9427 92.8853 65.2068 93.1415 65.3858C93.4009 65.5619 93.7285 65.65 94.1259 65.65ZM99.7657 62.4625V66.4H98.7686V59.8546H99.7316V60.8773H99.8165C99.9688 60.5449 100.2 60.2779 100.509 60.0762C100.819 59.8716 101.219 59.7693 101.709 59.7693C102.149 59.7693 102.533 59.8603 102.862 60.0421C103.192 60.2211 103.449 60.4938 103.632 60.8603C103.815 61.2239 103.906 61.6841 103.906 62.2409V66.4H102.909V62.3091C102.909 61.7949 102.777 61.3943 102.512 61.1074C102.247 60.8176 101.884 60.6727 101.422 60.6727C101.104 60.6727 100.819 60.7423 100.568 60.8815C100.32 61.0207 100.125 61.2239 99.9814 61.4909C99.8371 61.7579 99.7657 62.0819 99.7657 62.4625ZM108.365 66.5364C107.757 66.5364 107.233 66.3915 106.794 66.1017C106.354 65.8119 106.015 65.4128 105.779 64.9043C105.543 64.3958 105.425 63.8148 105.425 63.1614C105.425 62.4966 105.545 61.9099 105.788 61.4015C106.033 60.8901 106.373 60.4909 106.81 60.204C107.25 59.9143 107.762 59.7693 108.348 59.7693C108.804 59.7693 109.216 59.8546 109.582 60.025C109.948 60.1955 110.248 60.4341 110.482 60.7409C110.716 61.0478 110.86 61.4057 110.917 61.8148H109.92C109.844 61.5165 109.675 61.2523 109.413 61.0222C109.153 60.7892 108.804 60.6727 108.365 60.6727C107.976 60.6727 107.635 60.775 107.343 60.9795C107.052 61.1813 106.825 61.4668 106.662 61.8361C106.502 62.2026 106.422 62.633 106.422 63.1273C106.422 63.633 106.5 64.0733 106.658 64.4483C106.819 64.8233 107.044 65.1145 107.334 65.3219C107.627 65.5293 107.971 65.633 108.365 65.633C108.624 65.633 108.859 65.5875 109.071 65.4966C109.282 65.4057 109.46 65.2751 109.607 65.1046C109.754 64.9341 109.858 64.7295 109.92 64.4909H110.917C110.86 64.8773 110.722 65.2253 110.499 65.535C110.279 65.8418 109.988 66.0861 109.624 66.2679C109.264 66.4469 108.844 66.5364 108.365 66.5364ZM115.096 66.5364C114.47 66.5364 113.931 66.3971 113.477 66.1187C113.027 65.8375 112.679 65.4455 112.434 64.9427C112.191 64.437 112.071 63.8489 112.071 63.1784C112.071 62.5079 112.191 61.9171 112.434 61.4057C112.679 60.8915 113.02 60.4909 113.457 60.204C113.896 59.9143 114.409 59.7693 114.995 59.7693C115.333 59.7693 115.667 59.8262 115.996 59.9398C116.326 60.0535 116.626 60.2381 116.896 60.4938C117.167 60.7466 117.382 61.0819 117.543 61.4995C117.703 61.9171 117.783 62.4313 117.783 63.0421V63.4682H112.78V62.5989H116.769C116.769 62.2295 116.696 61.9 116.549 61.6103C116.406 61.3205 116.2 61.0918 115.932 60.9242C115.667 60.7566 115.355 60.6727 114.995 60.6727C114.597 60.6727 114.254 60.7722 113.964 60.9711C113.676 61.1671 113.455 61.4227 113.3 61.7381C113.145 62.0535 113.068 62.3915 113.068 62.7523V63.3319C113.068 63.8262 113.152 64.2452 113.321 64.589C113.493 64.9299 113.731 65.1898 114.036 65.3687C114.34 65.5449 114.693 65.633 115.096 65.633C115.358 65.633 115.594 65.596 115.805 65.5222C116.02 65.4455 116.204 65.3319 116.359 65.1813C116.515 65.0279 116.634 64.8375 116.718 64.6103L117.681 64.883C117.581 65.2125 117.41 65.5023 117.171 65.7523C116.931 65.9995 116.635 66.1927 116.283 66.3319C115.931 66.4682 115.535 66.5364 115.096 66.5364ZM120.297 57.6727V66.4H119.3V57.6727H120.297ZM123.12 57.6727V66.4H122.123V57.6727H123.12ZM127.668 66.5364C127.043 66.5364 126.504 66.3971 126.05 66.1187C125.599 65.8375 125.251 65.4455 125.006 64.9427C124.764 64.437 124.643 63.8489 124.643 63.1784C124.643 62.5079 124.764 61.9171 125.006 61.4057C125.251 60.8915 125.592 60.4909 126.028 60.204C126.468 59.9143 126.981 59.7693 127.566 59.7693C127.904 59.7693 128.238 59.8262 128.568 59.9398C128.898 60.0535 129.197 60.2381 129.468 60.4938C129.738 60.7466 129.954 61.0819 130.114 61.4995C130.275 61.9171 130.355 62.4313 130.355 63.0421V63.4682H125.353V62.5989H129.342C129.342 62.2295 129.268 61.9 129.122 61.6103C128.978 61.3205 128.772 61.0918 128.505 60.9242C128.24 60.7566 127.927 60.6727 127.566 60.6727C127.17 60.6727 126.826 60.7722 126.536 60.9711C126.248 61.1671 126.028 61.4227 125.872 61.7381C125.717 62.0535 125.64 62.3915 125.64 62.7523V63.3319C125.64 63.8262 125.725 64.2452 125.894 64.589C126.066 64.9299 126.304 65.1898 126.607 65.3687C126.912 65.5449 127.265 65.633 127.668 65.633C127.93 65.633 128.167 65.596 128.378 65.5222C128.592 65.4455 128.777 65.3319 128.932 65.1813C129.086 65.0279 129.206 64.8375 129.291 64.6103L130.254 64.883C130.152 65.2125 129.982 65.5023 129.743 65.7523C129.504 65.9995 129.208 66.1927 128.855 66.3319C128.503 66.4682 128.107 66.5364 127.668 66.5364ZM134.323 66.5364C133.782 66.5364 133.305 66.3986 132.891 66.1231C132.477 65.8447 132.153 65.4526 131.919 64.9469C131.685 64.4383 131.568 63.8375 131.568 63.1443C131.568 62.4568 131.685 61.8603 131.919 61.3546C132.153 60.8489 132.478 60.4583 132.895 60.1827C133.312 59.9071 133.793 59.7693 134.34 59.7693C134.763 59.7693 135.096 59.8403 135.341 59.9824C135.589 60.1216 135.778 60.2807 135.907 60.4597C136.04 60.6358 136.143 60.7807 136.216 60.8943H136.301V57.6727H137.298V66.4H136.334V65.3943H136.216C136.143 65.5136 136.038 65.6643 135.903 65.846C135.768 66.025 135.575 66.1855 135.324 66.3275C135.074 66.4668 134.74 66.5364 134.323 66.5364ZM134.458 65.633C134.858 65.633 135.196 65.5279 135.473 65.3176C135.749 65.1046 135.958 64.8105 136.102 64.4355C136.245 64.0577 136.317 63.6216 136.317 63.1273C136.317 62.6387 136.247 62.2111 136.106 61.8447C135.965 61.4753 135.756 61.1883 135.48 60.9839C135.204 60.7764 134.864 60.6727 134.458 60.6727C134.035 60.6727 133.684 60.7821 133.401 61.0009C133.123 61.2168 132.913 61.5108 132.772 61.883C132.634 62.2523 132.565 62.6671 132.565 63.1273C132.565 63.5932 132.636 64.0165 132.776 64.3971C132.92 64.775 133.132 65.0762 133.41 65.3006C133.692 65.5222 134.042 65.633 134.458 65.633Z" fill="#9CAAB9"/>
<path d="M153.091 28.8H127.708C123.328 28.8 119.776 32.3817 119.776 36.8C119.776 41.2183 123.328 44.8 127.708 44.8H153.091C157.472 44.8 161.024 41.2183 161.024 36.8C161.024 32.3817 157.472 28.8 153.091 28.8Z" fill="#84C864" fill-opacity="0.11"/>
<path d="M46.0068 68.8C58.2731 68.8 68.217 58.7712 68.217 46.4C68.217 34.0288 58.2731 24 46.0068 24C33.7405 24 23.7966 34.0288 23.7966 46.4C23.7966 58.7712 33.7405 68.8 46.0068 68.8Z" fill="#84C864"/>
<path d="M46.0068 72C60.0254 72 71.3898 60.5385 71.3898 46.4C71.3898 32.2615 60.0254 20.8 46.0068 20.8C31.9881 20.8 20.6237 32.2615 20.6237 46.4C20.6237 60.5385 31.9881 72 46.0068 72Z" stroke="#84C864" stroke-opacity="0.1" stroke-width="8"/>
<path d="M128.898 35.2L131.675 38.4H126.122L128.898 35.2Z" fill="#84C864"/>
<path d="M137.205 40.0955C136.873 40.0932 136.55 40.0352 136.235 39.9216C135.919 39.8057 135.635 39.6182 135.383 39.3591C135.131 39.0978 134.93 38.7511 134.781 38.3193C134.632 37.8852 134.559 37.3478 134.561 36.7068C134.561 36.1091 134.625 35.5762 134.751 35.1079C134.877 34.6398 135.058 34.2443 135.295 33.9216C135.531 33.5966 135.817 33.3489 136.15 33.1784C136.485 33.0079 136.861 32.9227 137.275 32.9227C137.71 32.9227 138.096 33.0091 138.431 33.1819C138.77 33.3546 139.042 33.5909 139.25 33.8909C139.457 34.1887 139.585 34.525 139.635 34.9H138.401C138.338 34.6319 138.208 34.4182 138.012 34.2591C137.819 34.0978 137.573 34.0171 137.275 34.0171C136.796 34.0171 136.426 34.2273 136.167 34.6478C135.91 35.0682 135.78 35.6455 135.778 36.3795H135.825C135.936 36.1795 136.079 36.0079 136.255 35.8648C136.431 35.7216 136.629 35.6114 136.85 35.5341C137.072 35.4546 137.308 35.4148 137.556 35.4148C137.962 35.4148 138.326 35.5125 138.648 35.7079C138.972 35.9035 139.229 36.1727 139.419 36.5159C139.608 36.8568 139.701 37.2478 139.699 37.6887C139.701 38.1478 139.598 38.5603 139.388 38.9262C139.178 39.2898 138.887 39.5762 138.513 39.7852C138.139 39.9943 137.702 40.0978 137.205 40.0955ZM137.198 39.0727C137.444 39.0727 137.663 39.0125 137.857 38.8921C138.05 38.7716 138.204 38.6091 138.317 38.4046C138.43 38.2 138.484 37.9705 138.482 37.7159C138.484 37.4659 138.43 37.2398 138.32 37.0375C138.211 36.8352 138.062 36.675 137.87 36.5568C137.679 36.4387 137.46 36.3795 137.214 36.3795C137.032 36.3795 136.862 36.4148 136.704 36.4852C136.547 36.5557 136.409 36.6535 136.292 36.7784C136.174 36.9011 136.082 37.0443 136.015 37.2079C135.949 37.3693 135.916 37.5421 135.914 37.7262C135.916 37.9693 135.972 38.1932 136.082 38.3978C136.193 38.6023 136.345 38.7659 136.539 38.8887C136.732 39.0114 136.952 39.0727 137.198 39.0727ZM140.842 40V39.0864L143.245 36.7103C143.475 36.4762 143.666 36.2682 143.82 36.0864C143.973 35.9046 144.088 35.7284 144.165 35.5579C144.241 35.3875 144.28 35.2057 144.28 35.0125C144.28 34.7921 144.23 34.6035 144.13 34.4466C144.031 34.2875 143.895 34.1648 143.722 34.0784C143.548 33.9921 143.351 33.9489 143.13 33.9489C142.903 33.9489 142.703 33.9966 142.532 34.0921C142.361 34.1852 142.228 34.3182 142.133 34.4909C142.04 34.6636 141.994 34.8693 141.994 35.1079H140.801C140.801 34.6648 140.901 34.2795 141.102 33.9523C141.303 33.625 141.579 33.3716 141.93 33.1921C142.284 33.0125 142.689 32.9227 143.147 32.9227C143.611 32.9227 144.019 33.0103 144.371 33.1852C144.722 33.3603 144.995 33.6 145.189 33.9046C145.385 34.2091 145.483 34.5568 145.483 34.9478C145.483 35.2091 145.433 35.4659 145.334 35.7182C145.235 35.9705 145.06 36.25 144.81 36.5568C144.562 36.8636 144.214 37.2352 143.766 37.6716L142.573 38.8955V38.9432H145.588V40H140.842ZM150.455 38.6909V38.3227C150.455 38.0523 150.511 37.8035 150.624 37.5762C150.739 37.3489 150.905 37.1659 151.124 37.0273C151.342 36.8887 151.607 36.8193 151.918 36.8193C152.239 36.8193 152.507 36.8887 152.723 37.0273C152.939 37.1636 153.103 37.3455 153.213 37.5727C153.326 37.8 153.382 38.05 153.382 38.3227V38.6909C153.382 38.9614 153.326 39.2103 153.213 39.4375C153.1 39.6648 152.935 39.8478 152.716 39.9864C152.5 40.1251 152.234 40.1943 151.918 40.1943C151.603 40.1943 151.336 40.1251 151.117 39.9864C150.899 39.8478 150.733 39.6648 150.621 39.4375C150.51 39.2103 150.455 38.9614 150.455 38.6909ZM151.337 38.3227V38.6909C151.337 38.8705 151.38 39.0352 151.465 39.1852C151.551 39.3352 151.703 39.4103 151.918 39.4103C152.137 39.4103 152.287 39.3364 152.368 39.1887C152.451 39.0387 152.493 38.8727 152.493 38.6909V38.3227C152.493 38.1409 152.454 37.9751 152.375 37.825C152.296 37.6727 152.144 37.5966 151.918 37.5966C151.707 37.5966 151.557 37.6727 151.469 37.825C151.381 37.9751 151.337 38.1409 151.337 38.3227ZM146.936 34.6955V34.3273C146.936 34.0546 146.994 33.8046 147.108 33.5773C147.223 33.35 147.391 33.1682 147.609 33.0319C147.828 32.8932 148.092 32.8239 148.403 32.8239C148.721 32.8239 148.988 32.8932 149.204 33.0319C149.423 33.1682 149.587 33.35 149.698 33.5773C149.808 33.8046 149.863 34.0546 149.863 34.3273V34.6955C149.863 34.9682 149.807 35.2182 149.694 35.4455C149.584 35.6705 149.42 35.8511 149.201 35.9875C148.983 36.1239 148.716 36.1921 148.403 36.1921C148.085 36.1921 147.817 36.1239 147.598 35.9875C147.383 35.8511 147.218 35.6693 147.105 35.4421C146.992 35.2148 146.936 34.9659 146.936 34.6955ZM147.825 34.3273V34.6955C147.825 34.8773 147.867 35.0432 147.95 35.1932C148.036 35.3409 148.187 35.4148 148.403 35.4148C148.619 35.4148 148.768 35.3409 148.849 35.1932C148.933 35.0432 148.975 34.8773 148.975 34.6955V34.3273C148.975 34.1455 148.935 33.9795 148.856 33.8295C148.777 33.6773 148.626 33.6011 148.403 33.6011C148.189 33.6011 148.039 33.6773 147.954 33.8295C147.868 33.9819 147.825 34.1478 147.825 34.3273ZM147.322 40L152.081 33.0182H152.926L148.166 40H147.322Z" fill="#84C864"/>
<path d="M43.6271 44L46.0068 46.4M46.0068 46.4L48.3864 48.8M46.0068 46.4L43.6271 48.8M46.0068 46.4L48.3864 44M41.2475 54.4H50.7661C52.5184 54.4 53.939 52.9673 53.939 51.2V41.6C53.939 39.8327 52.5184 38.4 50.7661 38.4H41.2475C39.4952 38.4 38.0746 39.8327 38.0746 41.6V51.2C38.0746 52.9673 39.4952 54.4 41.2475 54.4Z" stroke="white" stroke-width="1.8" stroke-linecap="round"/>
</g>
<defs>
<clipPath id="clip0_307_686">
<rect width="234" height="92" fill="white"/>
</clipPath>
</defs>
</svg>
