<svg width="236" height="92" viewBox="0 0 236 92" fill="none" xmlns="http://www.w3.org/2000/svg">
<g clip-path="url(#clip0_307_716)">
<path d="M224 0.400024H12C5.59352 0.400024 0.400024 5.59352 0.400024 12V80C0.400024 86.4065 5.59352 91.6 12 91.6H224C230.407 91.6 235.6 86.4065 235.6 80V12C235.6 5.59352 230.407 0.400024 224 0.400024Z" fill="white" stroke="#EAEDF3"/>
<path d="M90.2664 45.8386C88.9936 45.8386 87.86 45.6199 86.8656 45.1824C85.8776 44.7392 85.096 44.1313 84.5224 43.3586C83.9536 42.5801 83.6616 41.6824 83.644 40.6654H87.36C87.3832 41.0914 87.5224 41.4665 87.7776 41.7903C88.0392 42.1086 88.3856 42.3557 88.8176 42.5318C89.2496 42.7079 89.7352 42.796 90.2752 42.796C90.8376 42.796 91.3344 42.6966 91.7664 42.4978C92.1984 42.2989 92.536 42.0233 92.7808 41.671C93.0248 41.3187 93.1472 40.9125 93.1472 40.4522C93.1472 39.9864 93.0168 39.5744 92.7552 39.2165C92.4992 38.8529 92.1304 38.5687 91.6472 38.3642C91.1696 38.1597 90.6016 38.0574 89.9424 38.0574H88.3144V35.3471H89.9424C90.4992 35.3471 90.9912 35.2506 91.4168 35.0574C91.8488 34.8642 92.184 34.5971 92.4224 34.2562C92.6616 33.9097 92.7808 33.5062 92.7808 33.046C92.7808 32.6086 92.6752 32.225 92.4656 31.8954C92.2608 31.5602 91.9712 31.2989 91.596 31.1114C91.2264 30.9238 90.7952 30.8301 90.3008 30.8301C89.8008 30.8301 89.3432 30.921 88.9288 31.1029C88.5136 31.279 88.1816 31.5318 87.9312 31.8614C87.6816 32.1909 87.548 32.5773 87.5304 33.0205H83.9936C84.0104 32.0148 84.2976 31.1284 84.8544 30.3614C85.4112 29.5943 86.1616 28.9949 87.1048 28.563C88.0536 28.1256 89.1248 27.9068 90.3176 27.9068C91.5224 27.9068 92.576 28.1256 93.4792 28.563C94.3832 29.0006 95.0848 29.5914 95.5848 30.3358C96.0904 31.0744 96.34 31.904 96.3344 32.8244C96.34 33.8017 96.036 34.617 95.4224 35.2705C94.8144 35.9238 94.0224 36.3386 93.0448 36.5148V36.6511C94.3288 36.8159 95.3064 37.2619 95.9768 37.9892C96.6528 38.7108 96.988 39.6142 96.9824 40.6994C96.988 41.6938 96.7008 42.5773 96.1216 43.35C95.548 44.1227 94.7552 44.7307 93.744 45.1738C92.732 45.617 91.5736 45.8386 90.2664 45.8386ZM106.146 45.8386C104.834 45.8386 103.666 45.6256 102.644 45.1994C101.626 44.7676 100.828 44.1795 100.249 43.4352C99.6688 42.6909 99.3792 41.8471 99.3792 40.904C99.3792 40.1767 99.544 39.5091 99.8736 38.9011C100.209 38.2875 100.663 37.779 101.238 37.3756C101.811 36.9665 102.454 36.7051 103.163 36.5914V36.4722C102.232 36.2846 101.476 35.833 100.897 35.117C100.317 34.3954 100.027 33.5574 100.027 32.6029C100.027 31.6994 100.291 30.8954 100.82 30.1909C101.348 29.4807 102.073 28.9238 102.993 28.5205C103.919 28.1114 104.97 27.9068 106.146 27.9068C107.322 27.9068 108.371 28.1114 109.291 28.5205C110.218 28.9295 110.945 29.4892 111.473 30.1994C112.002 30.904 112.269 31.7051 112.274 32.6029C112.269 33.563 111.973 34.4011 111.388 35.117C110.802 35.833 110.053 36.2846 109.138 36.4722V36.5914C109.837 36.7051 110.47 36.9665 111.038 37.3756C111.612 37.779 112.067 38.2875 112.402 38.9011C112.743 39.5091 112.916 40.1767 112.922 40.904C112.916 41.8471 112.624 42.6909 112.044 43.4352C111.465 44.1795 110.663 44.7676 109.641 45.1994C108.624 45.6256 107.459 45.8386 106.146 45.8386ZM106.146 43.1284C106.732 43.1284 107.243 43.0233 107.681 42.813C108.118 42.5971 108.459 42.3017 108.703 41.9267C108.954 41.546 109.078 41.1086 109.078 40.6142C109.078 40.1086 108.95 39.6625 108.694 39.2762C108.439 38.8841 108.093 38.5773 107.655 38.3557C107.218 38.1284 106.714 38.0148 106.146 38.0148C105.584 38.0148 105.081 38.1284 104.638 38.3557C104.194 38.5773 103.846 38.8841 103.59 39.2762C103.34 39.6625 103.214 40.1086 103.214 40.6142C103.214 41.1086 103.337 41.546 103.581 41.9267C103.826 42.3017 104.169 42.5971 104.612 42.813C105.055 43.0233 105.567 43.1284 106.146 43.1284ZM106.146 35.3301C106.635 35.3301 107.07 35.2307 107.45 35.0318C107.831 34.833 108.13 34.5574 108.346 34.2051C108.562 33.8529 108.669 33.4466 108.669 32.9864C108.669 32.5318 108.562 32.1341 108.346 31.7932C108.13 31.4466 107.834 31.1767 107.459 30.9835C107.084 30.7846 106.646 30.6852 106.146 30.6852C105.652 30.6852 105.214 30.7846 104.834 30.9835C104.454 31.1767 104.155 31.4466 103.939 31.7932C103.729 32.1341 103.624 32.5318 103.624 32.9864C103.624 33.4466 103.732 33.8529 103.947 34.2051C104.163 34.5574 104.462 34.833 104.842 35.0318C105.223 35.2307 105.658 35.3301 106.146 35.3301ZM116.193 45.6L123.429 31.2818V31.1625H114.999V28.1454H127.246V31.2051L120.002 45.6H116.193Z" fill="#2B3354"/>
<path d="M85.8425 66.4L83.4561 57.6727H84.5297L86.3537 64.7807H86.4385L88.2969 57.6727H89.4897L91.3481 64.7807H91.4329L93.2569 57.6727H94.3305L91.9441 66.4H90.8537L88.9273 59.4455H88.8593L86.9329 66.4H85.8425ZM96.8281 66.5535C96.4129 66.5535 96.0369 66.4753 95.6985 66.3191C95.3609 66.1599 95.0921 65.9313 94.8929 65.633C94.6945 65.3319 94.5953 64.9682 94.5953 64.5421C94.5953 64.1671 94.6689 63.8631 94.8169 63.6301C94.9641 63.3943 95.1617 63.2097 95.4089 63.0762C95.6561 62.9427 95.9289 62.8432 96.2273 62.7779C96.5281 62.7097 96.8305 62.6557 97.1345 62.6159C97.5321 62.5648 97.8553 62.5264 98.1017 62.5009C98.3521 62.4725 98.5337 62.4256 98.6473 62.3603C98.7641 62.2949 98.8225 62.1813 98.8225 62.0193V61.9852C98.8225 61.5648 98.7073 61.2381 98.4769 61.0051C98.2497 60.7722 97.9049 60.6557 97.4417 60.6557C96.9617 60.6557 96.5849 60.7608 96.3121 60.9711C96.0393 61.1813 95.8481 61.4057 95.7369 61.6443L94.7825 61.3035C94.9529 60.9057 95.1801 60.596 95.4641 60.3744C95.7513 60.15 96.0641 59.9938 96.4017 59.9057C96.7425 59.8148 97.0777 59.7693 97.4073 59.7693C97.6177 59.7693 97.8593 59.7949 98.1321 59.846C98.4073 59.8943 98.6729 59.9952 98.9289 60.1486C99.1873 60.302 99.4017 60.5335 99.5721 60.8432C99.7425 61.1529 99.8281 61.5676 99.8281 62.0875V66.4H98.8225V65.5136H98.7713C98.7033 65.6557 98.5897 65.8077 98.4305 65.9696C98.2713 66.1315 98.0593 66.2693 97.7953 66.383C97.5313 66.4966 97.2089 66.5535 96.8281 66.5535ZM96.9817 65.65C97.3793 65.65 97.7145 65.5719 97.9873 65.4156C98.2625 65.2594 98.4697 65.0577 98.6089 64.8105C98.7513 64.5634 98.8225 64.3035 98.8225 64.0307V63.1103C98.7793 63.1614 98.6857 63.2083 98.5409 63.2509C98.3993 63.2907 98.2345 63.3262 98.0465 63.3574C97.8617 63.3858 97.6817 63.4114 97.5057 63.4341C97.3321 63.454 97.1913 63.4711 97.0833 63.4852C96.8225 63.5193 96.5777 63.5747 96.3505 63.6515C96.1265 63.7253 95.9441 63.8375 95.8049 63.9881C95.6689 64.1358 95.6009 64.3375 95.6009 64.5932C95.6009 64.9427 95.7297 65.2068 95.9881 65.3858C96.2497 65.5619 96.5809 65.65 96.9817 65.65ZM101.663 66.4V59.8546H102.669V66.4H101.663ZM102.174 58.7636C101.978 58.7636 101.81 58.6969 101.668 58.5634C101.529 58.4299 101.459 58.2693 101.459 58.0819C101.459 57.8943 101.529 57.7339 101.668 57.6003C101.81 57.4668 101.978 57.4 102.174 57.4C102.371 57.4 102.538 57.4668 102.678 57.6003C102.82 57.7339 102.89 57.8943 102.89 58.0819C102.89 58.2693 102.82 58.4299 102.678 58.5634C102.538 58.6969 102.371 58.7636 102.174 58.7636ZM107.358 59.8546V60.7068H103.966V59.8546H107.358ZM104.954 58.2864H105.96V64.525C105.96 64.8091 106.001 65.0222 106.083 65.1643C106.169 65.3035 106.277 65.3971 106.407 65.4455C106.541 65.4909 106.682 65.5136 106.83 65.5136C106.94 65.5136 107.031 65.5079 107.102 65.4966C107.173 65.4824 107.23 65.4711 107.273 65.4625L107.477 66.3659C107.409 66.3915 107.314 66.4171 107.191 66.4427C107.07 66.4711 106.914 66.4852 106.727 66.4852C106.443 66.4852 106.165 66.4242 105.892 66.302C105.622 66.1799 105.398 65.9938 105.218 65.7438C105.042 65.4938 104.954 65.1784 104.954 64.7978V58.2864ZM108.87 66.4V59.8546H109.876V66.4H108.87ZM109.382 58.7636C109.186 58.7636 109.017 58.6969 108.874 58.5634C108.735 58.4299 108.666 58.2693 108.666 58.0819C108.666 57.8943 108.735 57.7339 108.874 57.6003C109.017 57.4668 109.186 57.4 109.382 57.4C109.578 57.4 109.746 57.4668 109.885 57.6003C110.026 57.7339 110.098 57.8943 110.098 58.0819C110.098 58.2693 110.026 58.4299 109.885 58.5634C109.746 58.6969 109.578 58.7636 109.382 58.7636ZM112.724 62.4625V66.4H111.718V59.8546H112.69V60.8773H112.775C112.928 60.5449 113.162 60.2779 113.474 60.0762C113.786 59.8716 114.19 59.7693 114.684 59.7693C115.127 59.7693 115.515 59.8603 115.847 60.0421C116.18 60.2211 116.438 60.4938 116.623 60.8603C116.807 61.2239 116.9 61.6841 116.9 62.2409V66.4H115.894V62.3091C115.894 61.7949 115.761 61.3943 115.494 61.1074C115.226 60.8176 114.86 60.6727 114.394 60.6727C114.074 60.6727 113.786 60.7423 113.534 60.8815C113.283 61.0207 113.086 61.2239 112.941 61.4909C112.796 61.7579 112.724 62.0819 112.724 62.4625ZM121.38 68.9909C120.894 68.9909 120.476 68.9284 120.127 68.8035C119.778 68.6813 119.486 68.5193 119.254 68.3176C119.023 68.1187 118.84 67.9057 118.703 67.6784L119.505 67.1159C119.595 67.2352 119.71 67.3716 119.85 67.525C119.989 67.6813 120.179 67.8162 120.421 67.9299C120.665 68.0463 120.985 68.1046 121.38 68.1046C121.908 68.1046 122.344 67.9767 122.688 67.7211C123.032 67.4654 123.203 67.0648 123.203 66.5193V65.1898H123.118C123.045 65.3091 122.939 65.4568 122.803 65.633C122.67 65.8063 122.476 65.9611 122.223 66.0975C121.974 66.231 121.635 66.2978 121.21 66.2978C120.681 66.2978 120.206 66.1727 119.786 65.9227C119.368 65.6727 119.038 65.3091 118.793 64.8319C118.551 64.3546 118.431 63.775 118.431 63.0932C118.431 62.4227 118.549 61.839 118.785 61.3418C119.02 60.8418 119.349 60.4554 119.769 60.1827C120.19 59.9071 120.675 59.7693 121.226 59.7693C121.653 59.7693 121.99 59.8403 122.241 59.9824C122.494 60.1216 122.686 60.2807 122.82 60.4597C122.956 60.6358 123.062 60.7807 123.135 60.8943H123.238V59.8546H124.21V66.5875C124.21 67.15 124.082 67.6074 123.826 67.9597C123.573 68.3148 123.232 68.5747 122.803 68.7395C122.377 68.9071 121.902 68.9909 121.38 68.9909ZM121.346 65.3943C121.749 65.3943 122.09 65.302 122.368 65.1174C122.646 64.9327 122.858 64.6671 123.003 64.3205C123.148 63.9739 123.221 63.5591 123.221 63.0762C123.221 62.6046 123.15 62.1883 123.007 61.8275C122.866 61.4668 122.655 61.1841 122.377 60.9795C122.098 60.775 121.754 60.6727 121.346 60.6727C120.919 60.6727 120.564 60.7807 120.28 60.9966C119.999 61.2125 119.787 61.5023 119.646 61.8659C119.506 62.2295 119.437 62.633 119.437 63.0762C119.437 63.5307 119.507 63.9327 119.65 64.2821C119.794 64.6287 120.007 64.9015 120.289 65.1003C120.573 65.2963 120.925 65.3943 121.346 65.3943ZM129.919 66.4H128.811L132.016 57.6727H133.107L136.311 66.4H135.203L132.595 59.0535H132.527L129.919 66.4ZM130.329 62.9909H134.794V63.9284H130.329V62.9909ZM140.194 66.5364C139.58 66.5364 139.051 66.3915 138.608 66.1017C138.165 65.8119 137.824 65.4128 137.586 64.9043C137.347 64.3958 137.228 63.8148 137.228 63.1614C137.228 62.4966 137.35 61.9099 137.594 61.4015C137.842 60.8901 138.185 60.4909 138.626 60.204C139.069 59.9143 139.586 59.7693 140.177 59.7693C140.637 59.7693 141.051 59.8546 141.421 60.025C141.79 60.1955 142.093 60.4341 142.329 60.7409C142.564 61.0478 142.71 61.4057 142.767 61.8148H141.762C141.685 61.5165 141.514 61.2523 141.25 61.0222C140.989 60.7892 140.637 60.6727 140.194 60.6727C139.802 60.6727 139.458 60.775 139.162 60.9795C138.87 61.1813 138.641 61.4668 138.476 61.8361C138.314 62.2026 138.234 62.633 138.234 63.1273C138.234 63.633 138.313 64.0733 138.472 64.4483C138.634 64.8233 138.862 65.1145 139.154 65.3219C139.45 65.5293 139.796 65.633 140.194 65.633C140.455 65.633 140.692 65.5875 140.906 65.4966C141.118 65.4057 141.298 65.2751 141.446 65.1046C141.594 64.9341 141.699 64.7295 141.762 64.4909H142.767C142.71 64.8773 142.57 65.2253 142.346 65.535C142.124 65.8418 141.83 66.0861 141.463 66.2679C141.1 66.4469 140.677 66.5364 140.194 66.5364ZM147.084 59.8546V60.7068H143.692V59.8546H147.084ZM144.681 58.2864H145.686V64.525C145.686 64.8091 145.728 65.0222 145.81 65.1643C145.895 65.3035 146.003 65.3971 146.134 65.4455C146.267 65.4909 146.408 65.5136 146.556 65.5136C146.666 65.5136 146.758 65.5079 146.829 65.4966C146.899 65.4824 146.956 65.4711 146.999 65.4625L147.203 66.3659C147.135 66.3915 147.04 66.4171 146.918 66.4427C146.796 66.4711 146.641 66.4852 146.454 66.4852C146.17 66.4852 145.891 66.4242 145.618 66.302C145.349 66.1799 145.124 65.9938 144.945 65.7438C144.769 65.4938 144.681 65.1784 144.681 64.7978V58.2864ZM148.597 66.4V59.8546H149.602V66.4H148.597ZM149.108 58.7636C148.912 58.7636 148.743 58.6969 148.602 58.5634C148.462 58.4299 148.393 58.2693 148.393 58.0819C148.393 57.8943 148.462 57.7339 148.602 57.6003C148.743 57.4668 148.912 57.4 149.108 57.4C149.305 57.4 149.472 57.4668 149.611 57.6003C149.754 57.7339 149.824 57.8943 149.824 58.0819C149.824 58.2693 149.754 58.4299 149.611 58.5634C149.472 58.6969 149.305 58.7636 149.108 58.7636ZM156.797 59.8546L154.377 66.4H153.354L150.934 59.8546H152.024L153.831 65.0705H153.899L155.706 59.8546H156.797ZM159.851 66.5535C159.437 66.5535 159.06 66.4753 158.722 66.3191C158.384 66.1599 158.115 65.9313 157.917 65.633C157.718 65.3319 157.618 64.9682 157.618 64.5421C157.618 64.1671 157.692 63.8631 157.84 63.6301C157.988 63.3943 158.185 63.2097 158.432 63.0762C158.679 62.9427 158.952 62.8432 159.25 62.7779C159.551 62.7097 159.854 62.6557 160.158 62.6159C160.556 62.5648 160.878 62.5264 161.126 62.5009C161.375 62.4725 161.558 62.4256 161.671 62.3603C161.787 62.2949 161.846 62.1813 161.846 62.0193V61.9852C161.846 61.5648 161.73 61.2381 161.501 61.0051C161.273 60.7722 160.928 60.6557 160.465 60.6557C159.985 60.6557 159.608 60.7608 159.336 60.9711C159.063 61.1813 158.871 61.4057 158.76 61.6443L157.806 61.3035C157.976 60.9057 158.203 60.596 158.488 60.3744C158.774 60.15 159.087 59.9938 159.425 59.9057C159.766 59.8148 160.102 59.7693 160.431 59.7693C160.641 59.7693 160.882 59.7949 161.155 59.846C161.431 59.8943 161.697 59.9952 161.952 60.1486C162.21 60.302 162.425 60.5335 162.595 60.8432C162.766 61.1529 162.851 61.5676 162.851 62.0875V66.4H161.846V65.5136H161.794C161.726 65.6557 161.613 65.8077 161.454 65.9696C161.294 66.1315 161.083 66.2693 160.818 66.383C160.554 66.4966 160.232 66.5535 159.851 66.5535ZM160.005 65.65C160.402 65.65 160.738 65.5719 161.01 65.4156C161.286 65.2594 161.494 65.0577 161.633 64.8105C161.774 64.5634 161.846 64.3035 161.846 64.0307V63.1103C161.803 63.1614 161.71 63.2083 161.564 63.2509C161.422 63.2907 161.258 63.3262 161.07 63.3574C160.886 63.3858 160.705 63.4114 160.529 63.4341C160.355 63.454 160.215 63.4711 160.107 63.4852C159.846 63.5193 159.602 63.5747 159.374 63.6515C159.15 63.7253 158.968 63.8375 158.829 63.9881C158.692 64.1358 158.624 64.3375 158.624 64.5932C158.624 64.9427 158.754 65.2068 159.012 65.3858C159.273 65.5619 159.604 65.65 160.005 65.65ZM167.534 59.8546V60.7068H164.142V59.8546H167.534ZM165.13 58.2864H166.136V64.525C166.136 64.8091 166.177 65.0222 166.259 65.1643C166.345 65.3035 166.453 65.3971 166.583 65.4455C166.717 65.4909 166.858 65.5136 167.005 65.5136C167.116 65.5136 167.206 65.5079 167.278 65.4966C167.349 65.4824 167.406 65.4711 167.448 65.4625L167.653 66.3659C167.585 66.3915 167.49 66.4171 167.367 66.4427C167.245 66.4711 167.09 66.4852 166.902 66.4852C166.618 66.4852 166.34 66.4242 166.067 66.302C165.798 66.1799 165.574 65.9938 165.394 65.7438C165.218 65.4938 165.13 65.1784 165.13 64.7978V58.2864ZM169.046 66.4V59.8546H170.052V66.4H169.046ZM169.558 58.7636C169.362 58.7636 169.193 58.6969 169.05 58.5634C168.911 58.4299 168.842 58.2693 168.842 58.0819C168.842 57.8943 168.911 57.7339 169.05 57.6003C169.193 57.4668 169.362 57.4 169.558 57.4C169.754 57.4 169.922 57.4668 170.061 57.6003C170.202 57.7339 170.274 57.8943 170.274 58.0819C170.274 58.2693 170.202 58.4299 170.061 58.5634C169.922 58.6969 169.754 58.7636 169.558 58.7636ZM174.553 66.5364C173.962 66.5364 173.444 66.3958 172.998 66.1145C172.554 65.8332 172.208 65.4398 171.958 64.9341C171.71 64.4284 171.587 63.8375 171.587 63.1614C171.587 62.4795 171.71 61.8844 171.958 61.3759C172.208 60.8674 172.554 60.4725 172.998 60.1912C173.444 59.9099 173.962 59.7693 174.553 59.7693C175.144 59.7693 175.661 59.9099 176.104 60.1912C176.55 60.4725 176.897 60.8674 177.144 61.3759C177.394 61.8844 177.519 62.4795 177.519 63.1614C177.519 63.8375 177.394 64.4284 177.144 64.9341C176.897 65.4398 176.55 65.8332 176.104 66.1145C175.661 66.3958 175.144 66.5364 174.553 66.5364ZM174.553 65.633C175.002 65.633 175.371 65.5179 175.661 65.2878C175.95 65.0577 176.165 64.7551 176.305 64.3801C176.444 64.0051 176.514 63.5989 176.514 63.1614C176.514 62.7239 176.444 62.3162 176.305 61.9383C176.165 61.5605 175.95 61.2551 175.661 61.0222C175.371 60.7892 175.002 60.6727 174.553 60.6727C174.104 60.6727 173.735 60.7892 173.445 61.0222C173.155 61.2551 172.941 61.5605 172.802 61.9383C172.662 62.3162 172.593 62.7239 172.593 63.1614C172.593 63.5989 172.662 64.0051 172.802 64.3801C172.941 64.7551 173.155 65.0577 173.445 65.2878C173.735 65.5179 174.104 65.633 174.553 65.633ZM180.06 62.4625V66.4H179.054V59.8546H180.026V60.8773H180.111C180.264 60.5449 180.498 60.2779 180.81 60.0762C181.122 59.8716 181.526 59.7693 182.02 59.7693C182.463 59.7693 182.851 59.8603 183.183 60.0421C183.516 60.2211 183.774 60.4938 183.959 60.8603C184.143 61.2239 184.236 61.6841 184.236 62.2409V66.4H183.23V62.3091C183.23 61.7949 183.097 61.3943 182.83 61.1074C182.562 60.8176 182.196 60.6727 181.73 60.6727C181.409 60.6727 181.122 60.7423 180.87 60.8815C180.619 61.0207 180.422 61.2239 180.277 61.4909C180.132 61.7579 180.06 62.0819 180.06 62.4625Z" fill="#9CAAB9"/>
<path d="M170.4 28.8H144.8C140.382 28.8 136.8 32.3817 136.8 36.8C136.8 41.2183 140.382 44.8 144.8 44.8H170.4C174.818 44.8 178.4 41.2183 178.4 36.8C178.4 32.3817 174.818 28.8 170.4 28.8Z" fill="#89949F" fill-opacity="0.11"/>
<path d="M46.4 68.8C58.7712 68.8 68.8 58.7712 68.8 46.4C68.8 34.0288 58.7712 24 46.4 24C34.0288 24 24 34.0288 24 46.4C24 58.7712 34.0288 68.8 46.4 68.8Z" fill="#89949F"/>
<path d="M46.4 72C60.5385 72 72 60.5385 72 46.4C72 32.2615 60.5385 20.8 46.4 20.8C32.2616 20.8 20.8 32.2615 20.8 46.4C20.8 60.5385 32.2616 72 46.4 72Z" stroke="#89949F" stroke-opacity="0.1" stroke-width="8"/>
<path d="M146 35.2L148.8 38.4H143.2L146 35.2Z" fill="#89949F"/>
<path d="M154.378 40.0955C154.043 40.0932 153.717 40.0352 153.399 39.9216C153.081 39.8057 152.794 39.6182 152.54 39.3591C152.286 39.0978 152.083 38.7511 151.933 38.3193C151.783 37.8852 151.709 37.3478 151.711 36.7068C151.711 36.1091 151.775 35.5762 151.902 35.1079C152.03 34.6398 152.213 34.2443 152.451 33.9216C152.69 33.5966 152.978 33.3489 153.314 33.1784C153.652 33.0079 154.03 32.9227 154.449 32.9227C154.887 32.9227 155.276 33.0091 155.614 33.1819C155.956 33.3546 156.23 33.5909 156.44 33.8909C156.649 34.1887 156.778 34.525 156.829 34.9H155.584C155.521 34.6319 155.39 34.4182 155.192 34.2591C154.997 34.0978 154.749 34.0171 154.449 34.0171C153.965 34.0171 153.592 34.2273 153.33 34.6478C153.071 35.0682 152.941 35.6455 152.938 36.3795H152.986C153.098 36.1795 153.242 36.0079 153.419 35.8648C153.597 35.7216 153.797 35.6114 154.019 35.5341C154.244 35.4546 154.482 35.4148 154.732 35.4148C155.141 35.4148 155.508 35.5125 155.833 35.7079C156.16 35.9035 156.419 36.1727 156.61 36.5159C156.801 36.8568 156.895 37.2478 156.893 37.6887C156.895 38.1478 156.791 38.5603 156.579 38.9262C156.368 39.2898 156.074 39.5762 155.697 39.7852C155.319 39.9943 154.879 40.0978 154.378 40.0955ZM154.37 39.0727C154.618 39.0727 154.84 39.0125 155.035 38.8921C155.23 38.7716 155.386 38.6091 155.499 38.4046C155.613 38.2 155.668 37.9705 155.666 37.7159C155.668 37.4659 155.614 37.2398 155.502 37.0375C155.393 36.8352 155.242 36.675 155.049 36.5568C154.856 36.4387 154.635 36.3795 154.387 36.3795C154.203 36.3795 154.032 36.4148 153.873 36.4852C153.714 36.5557 153.575 36.6535 153.457 36.7784C153.338 36.9011 153.246 37.0443 153.178 37.2079C153.111 37.3693 153.078 37.5421 153.075 37.7262C153.078 37.9693 153.134 38.1932 153.246 38.3978C153.357 38.6023 153.51 38.7659 153.706 38.8887C153.901 39.0114 154.122 39.0727 154.37 39.0727ZM158.046 40V39.0864L160.47 36.7103C160.701 36.4762 160.894 36.2682 161.049 36.0864C161.203 35.9046 161.319 35.7284 161.397 35.5579C161.474 35.3875 161.513 35.2057 161.513 35.0125C161.513 34.7921 161.462 34.6035 161.362 34.4466C161.262 34.2875 161.125 34.1648 160.95 34.0784C160.775 33.9921 160.576 33.9489 160.354 33.9489C160.124 33.9489 159.922 33.9966 159.75 34.0921C159.578 34.1852 159.443 34.3182 159.348 34.4909C159.254 34.6636 159.208 34.8693 159.208 35.1079H158.005C158.005 34.6648 158.106 34.2795 158.308 33.9523C158.51 33.625 158.789 33.3716 159.143 33.1921C159.5 33.0125 159.909 32.9227 160.37 32.9227C160.838 32.9227 161.25 33.0103 161.605 33.1852C161.959 33.3603 162.234 33.6 162.43 33.9046C162.627 34.2091 162.726 34.5568 162.726 34.9478C162.726 35.2091 162.676 35.4659 162.576 35.7182C162.476 35.9705 162.3 36.25 162.048 36.5568C161.798 36.8636 161.446 37.2352 160.994 37.6716L159.791 38.8955V38.9432H162.832V40H158.046ZM167.741 38.6909V38.3227C167.741 38.0523 167.798 37.8035 167.911 37.5762C168.027 37.3489 168.195 37.1659 168.416 37.0273C168.636 36.8887 168.903 36.8193 169.217 36.8193C169.54 36.8193 169.81 36.8887 170.029 37.0273C170.246 37.1636 170.411 37.3455 170.522 37.5727C170.636 37.8 170.693 38.05 170.693 38.3227V38.6909C170.693 38.9614 170.636 39.2103 170.522 39.4375C170.409 39.6648 170.242 39.8478 170.022 39.9864C169.803 40.1251 169.535 40.1943 169.217 40.1943C168.899 40.1943 168.63 40.1251 168.409 39.9864C168.189 39.8478 168.022 39.6648 167.908 39.4375C167.797 39.2103 167.741 38.9614 167.741 38.6909ZM168.63 38.3227V38.6909C168.63 38.8705 168.674 39.0352 168.76 39.1852C168.846 39.3352 168.999 39.4103 169.217 39.4103C169.438 39.4103 169.589 39.3364 169.67 39.1887C169.754 39.0387 169.797 38.8727 169.797 38.6909V38.3227C169.797 38.1409 169.757 37.9751 169.678 37.825C169.598 37.6727 169.444 37.5966 169.217 37.5966C169.003 37.5966 168.852 37.6727 168.764 37.825C168.675 37.9751 168.63 38.1409 168.63 38.3227ZM164.192 34.6955V34.3273C164.192 34.0546 164.25 33.8046 164.366 33.5773C164.482 33.35 164.65 33.1682 164.87 33.0319C165.091 32.8932 165.358 32.8239 165.671 32.8239C165.992 32.8239 166.262 32.8932 166.479 33.0319C166.7 33.1682 166.866 33.35 166.978 33.5773C167.089 33.8046 167.144 34.0546 167.144 34.3273V34.6955C167.144 34.9682 167.087 35.2182 166.974 35.4455C166.862 35.6705 166.697 35.8511 166.476 35.9875C166.256 36.1239 165.987 36.1921 165.671 36.1921C165.351 36.1921 165.081 36.1239 164.86 35.9875C164.642 35.8511 164.476 35.6693 164.362 35.4421C164.249 35.2148 164.192 34.9659 164.192 34.6955ZM165.089 34.3273V34.6955C165.089 34.8773 165.13 35.0432 165.214 35.1932C165.301 35.3409 165.454 35.4148 165.671 35.4148C165.89 35.4148 166.04 35.3409 166.122 35.1932C166.206 35.0432 166.248 34.8773 166.248 34.6955V34.3273C166.248 34.1455 166.208 33.9795 166.129 33.8295C166.049 33.6773 165.897 33.6011 165.671 33.6011C165.456 33.6011 165.305 33.6773 165.218 33.8295C165.132 33.9819 165.089 34.1478 165.089 34.3273ZM164.581 40L169.381 33.0182H170.233L165.433 40H164.581Z" fill="#89949F"/>
<path d="M46.4 41.6V46.4H50M54.4 46.4C54.4 50.8183 50.8183 54.4 46.4 54.4C41.9818 54.4 38.4 50.8183 38.4 46.4C38.4 41.9818 41.9818 38.4 46.4 38.4C50.8183 38.4 54.4 41.9818 54.4 46.4Z" stroke="white" stroke-width="1.8" stroke-linecap="round" stroke-linejoin="round"/>
</g>
<defs>
<clipPath id="clip0_307_716">
<rect width="236" height="92" fill="white"/>
</clipPath>
</defs>
</svg>
