<?xml version="1.0" encoding="utf-8"?>
<!-- Generator: Adobe Illustrator 23.0.0, SVG Export Plug-In . SVG Version: 6.00 Build 0)  -->
<svg version="1.1" id="Слой_1" xmlns="http://www.w3.org/2000/svg" xmlns:xlink="http://www.w3.org/1999/xlink" x="0px" y="0px"
	 viewBox="0 0 171 25" enable-background="new 0 0 171 25" xml:space="preserve">
<g>
	<path d="M18.621,20.973L15.813,9.979l-2.784,10.993H9.404L4.82,4.963h3.816l2.808,11.569l3.048-11.569h2.664l3.024,11.569
		l2.784-11.569h3.84l-4.56,16.009H18.621z"/>
	<path d="M28.412,20.973V4.963h11.329v3H31.82v3.384h7.753v3H31.82v3.625h7.921v3H28.412z"/>
	<path d="M42.404,20.973V4.963h8.425c3.048,0,4.608,1.944,4.608,4.081c0,2.016-1.248,3.36-2.76,3.672
		c1.704,0.264,3.072,1.92,3.072,3.937c0,2.4-1.608,4.32-4.656,4.32H42.404z M51.957,9.644c0-1.008-0.72-1.752-1.873-1.752h-4.272
		v3.48h4.272C51.237,11.372,51.957,10.651,51.957,9.644z M52.269,16.172c0-1.008-0.72-1.872-2.064-1.872h-4.392v3.721h4.392
		C51.501,18.021,52.269,17.324,52.269,16.172z"/>
	<path d="M57.547,12.979c0-4.92,3.721-8.28,8.521-8.28c3.528,0,5.568,1.92,6.696,3.912l-2.928,1.44
		c-0.672-1.296-2.112-2.328-3.768-2.328c-2.904,0-5.017,2.232-5.017,5.256c0,3.024,2.112,5.257,5.017,5.257
		c1.656,0,3.096-1.008,3.768-2.328l2.928,1.416c-1.152,1.992-3.168,3.937-6.696,3.937C61.268,21.261,57.547,17.9,57.547,12.979z"/>
	<path d="M83.853,20.973l-3.144-5.688h-2.497v5.688h-3.408V4.963h7.489c3.336,0,5.376,2.184,5.376,5.161
		c0,2.832-1.776,4.344-3.504,4.752l3.601,6.097H83.853z M84.188,10.124c0-1.345-1.032-2.161-2.4-2.161h-3.577v4.321h3.577
		C83.157,12.284,84.188,11.468,84.188,10.124z"/>
	<path d="M90.235,20.973V4.963h11.329v3h-7.921v3.384h7.753v3h-7.753v3.625h7.921v3H90.235z"/>
	<path d="M115.268,20.973l-0.984-2.712h-6.865l-1.008,2.712h-3.889l6.193-16.009h4.272l6.168,16.009H115.268z M110.852,8.371
		l-2.496,6.889h4.993L110.852,8.371z"/>
	<path d="M124.339,20.973V7.963h-4.68v-3h12.769v3h-4.656v13.009H124.339z"/>
	<path d="M133.842,12.979c0-4.824,3.528-8.28,8.353-8.28c4.848,0,8.376,3.456,8.376,8.28c0,4.825-3.528,8.281-8.376,8.281
		C137.371,21.261,133.842,17.805,133.842,12.979z M147.067,12.979c0-3-1.92-5.256-4.872-5.256c-2.953,0-4.849,2.256-4.849,5.256
		c0,2.977,1.896,5.257,4.849,5.257C145.147,18.236,147.067,15.956,147.067,12.979z"/>
	<path d="M162.02,20.973l-3.144-5.688h-2.497v5.688h-3.408V4.963h7.489c3.336,0,5.376,2.184,5.376,5.161
		c0,2.832-1.776,4.344-3.504,4.752l3.601,6.097H162.02z M162.355,10.124c0-1.345-1.032-2.161-2.4-2.161h-3.577v4.321h3.577
		C161.324,12.284,162.355,11.468,162.355,10.124z"/>
</g>
</svg>
