<svg width="321" height="93" viewBox="0 0 321 93" fill="none" xmlns="http://www.w3.org/2000/svg">
<g clip-path="url(#clip0_26_561)">
<path d="M308.81 0.404297H12.1899C5.68198 0.404297 0.406311 5.65424 0.406311 12.1304V80.8695C0.406311 87.3457 5.68198 92.5956 12.1899 92.5956H308.81C315.318 92.5956 320.594 87.3457 320.594 80.8695V12.1304C320.594 5.65424 315.318 0.404297 308.81 0.404297Z" fill="white" stroke="#EAEDF3"/>
<path d="M91.9458 46.3368C91.034 46.3311 90.1538 46.1789 89.3054 45.8802C88.4627 45.5815 87.7061 45.0962 87.0373 44.4242C86.3677 43.7522 85.8362 42.8619 85.4437 41.7535C85.0569 40.6449 84.8643 39.2837 84.8643 37.6698C84.8699 36.1879 85.0398 34.864 85.3746 33.6981C85.7151 32.5264 86.2003 31.5328 86.8293 30.7172C87.464 29.9016 88.223 29.2813 89.1063 28.8562C89.9889 28.4255 90.9787 28.2101 92.0758 28.2101C93.259 28.2101 94.3033 28.4398 95.2094 28.8993C96.1155 29.3531 96.8428 29.9705 97.3914 30.7517C97.9456 31.5328 98.2804 32.4087 98.3958 33.3793H94.699C94.5544 32.7647 94.2513 32.2823 93.7897 31.9319C93.3281 31.5816 92.7568 31.4064 92.0758 31.4064C90.921 31.4064 90.0441 31.9061 89.4436 32.9055C88.8495 33.9048 88.5464 35.2632 88.535 36.9805H88.6561C88.921 36.4579 89.2794 36.0128 89.7296 35.6452C90.1855 35.2719 90.7024 34.9875 91.2794 34.7922C91.8621 34.5912 92.4764 34.4907 93.1233 34.4907C94.1741 34.4907 95.1086 34.7377 95.9286 35.2317C96.7478 35.7198 97.3946 36.3918 97.8676 37.2476C98.3406 38.1034 98.5779 39.0827 98.5779 40.1855C98.5779 41.3801 98.2975 42.4427 97.7376 43.3731C97.1833 44.3036 96.4073 45.0331 95.4085 45.5615C94.4162 46.0841 93.2615 46.3426 91.9458 46.3368ZM91.9287 43.4076C92.5057 43.4076 93.0225 43.2698 93.4784 42.9941C93.9343 42.7184 94.2919 42.345 94.552 41.874C94.8112 41.4031 94.9412 40.8747 94.9412 40.2888C94.9412 39.703 94.8112 39.1775 94.552 38.7122C94.2976 38.247 93.9457 37.8765 93.4955 37.6008C93.0453 37.3251 92.5317 37.1873 91.9547 37.1873C91.5216 37.1873 91.1201 37.2677 90.7512 37.4286C90.3871 37.5893 90.0669 37.8133 89.7898 38.1005C89.5192 38.3877 89.3054 38.7209 89.1494 39.0999C88.9934 39.4733 88.9154 39.8724 88.9154 40.2975C88.9154 40.8661 89.0454 41.3858 89.3054 41.8568C89.5704 42.3278 89.9287 42.704 90.379 42.9854C90.8349 43.2669 91.3517 43.4076 91.9287 43.4076ZM107.789 46.3368C106.496 46.3368 105.345 46.1157 104.335 45.6735C103.33 45.2254 102.537 44.6109 101.954 43.8298C101.377 43.0429 101.079 42.1354 101.062 41.1073H104.837C104.86 41.538 105.001 41.9172 105.261 42.2445C105.527 42.5662 105.879 42.816 106.318 42.9941C106.756 43.1721 107.25 43.2611 107.797 43.2611C108.37 43.2611 108.874 43.1606 109.313 42.9596C109.752 42.7586 110.095 42.48 110.344 42.1239C110.591 41.7678 110.716 41.3571 110.716 40.8919C110.716 40.421 110.582 40.0045 110.318 39.6427C110.057 39.2751 109.682 38.9879 109.192 38.7812C108.707 38.5744 108.13 38.471 107.46 38.471H105.806V35.7313H107.46C108.026 35.7313 108.525 35.6337 108.958 35.4384C109.397 35.2431 109.737 34.9731 109.979 34.6285C110.222 34.2782 110.344 33.8704 110.344 33.4051C110.344 32.9629 110.236 32.5752 110.023 32.2421C109.815 31.9032 109.52 31.639 109.14 31.4495C108.765 31.2599 108.326 31.1651 107.823 31.1651C107.316 31.1651 106.852 31.2571 106.43 31.4409C106.009 31.6189 105.671 31.8745 105.417 32.2076C105.163 32.5407 105.027 32.9313 105.01 33.3793H101.417C101.434 32.3627 101.726 31.4667 102.292 30.6913C102.857 29.9159 103.619 29.31 104.577 28.8735C105.541 28.4313 106.629 28.2101 107.841 28.2101C109.064 28.2101 110.135 28.4313 111.053 28.8735C111.97 29.3157 112.684 29.913 113.192 30.6654C113.705 31.4121 113.959 32.2507 113.953 33.1811C113.959 34.169 113.65 34.9933 113.027 35.6538C112.409 36.3143 111.604 36.7336 110.612 36.9117V37.0495C111.916 37.216 112.909 37.6669 113.59 38.4021C114.277 39.1315 114.617 40.0448 114.612 41.1418C114.617 42.1469 114.326 43.04 113.737 43.8211C113.154 44.6023 112.349 45.2169 111.321 45.6648C110.294 46.1128 109.116 46.3368 107.789 46.3368Z" fill="#2B3354"/>
<path d="M92.7235 61.0565H91.65C91.5866 60.7492 91.4761 60.4793 91.3168 60.2467C91.1607 60.014 90.9706 59.8188 90.7455 59.6608C90.5236 59.5 90.2766 59.3794 90.0051 59.299C89.7337 59.2186 89.4509 59.1784 89.1567 59.1784C88.6204 59.1784 88.1336 59.3134 87.698 59.5833C87.2649 59.8533 86.9203 60.251 86.6635 60.7766C86.4099 61.3021 86.2824 61.9468 86.2824 62.7107C86.2824 63.4746 86.4099 64.1193 86.6635 64.6448C86.9203 65.1704 87.2649 65.5681 87.698 65.838C88.1336 66.108 88.6204 66.243 89.1567 66.243C89.4509 66.243 89.7337 66.2027 90.0051 66.1224C90.2766 66.042 90.5236 65.9228 90.7455 65.7648C90.9706 65.604 91.1607 65.4073 91.3168 65.1747C91.4761 64.9392 91.5866 64.6692 91.65 64.3648H92.7235C92.643 64.8157 92.4959 65.2192 92.2822 65.5753C92.0685 65.9314 91.8036 66.2344 91.4858 66.4842C91.1681 66.7312 90.8121 66.9193 90.4163 67.0485C90.0238 67.1777 89.6045 67.2423 89.1567 67.2423C88.401 67.2423 87.7281 67.0586 87.1397 66.691C86.5513 66.3234 86.0881 65.8007 85.7501 65.123C85.4128 64.4452 85.2438 63.6411 85.2438 62.7107C85.2438 61.7802 85.4128 60.9762 85.7501 60.2984C86.0881 59.6206 86.5513 59.098 87.1397 58.7304C87.7281 58.3628 88.401 58.179 89.1567 58.179C89.6045 58.179 90.0238 58.2437 90.4163 58.3729C90.8121 58.5021 91.1681 58.6916 91.4858 58.9415C91.8036 59.1884 92.0685 59.49 92.2822 59.8461C92.4959 60.1993 92.643 60.6028 92.7235 61.0565ZM97.0216 67.2596C96.4211 67.2596 95.8945 67.1175 95.441 66.8331C94.9908 66.5488 94.6389 66.1511 94.3854 65.6399C94.1343 65.1287 94.0083 64.5314 94.0083 63.8479C94.0083 63.1587 94.1343 62.5571 94.3854 62.043C94.6389 61.529 94.9908 61.1298 95.441 60.8455C95.8945 60.5611 96.4211 60.419 97.0216 60.419C97.6214 60.419 98.1463 60.5611 98.5966 60.8455C99.05 61.1298 99.4019 61.529 99.653 62.043C99.9074 62.5571 100.034 63.1587 100.034 63.8479C100.034 64.5314 99.9074 65.1287 99.653 65.6399C99.4019 66.1511 99.05 66.5488 98.5966 66.8331C98.1463 67.1175 97.6214 67.2596 97.0216 67.2596ZM97.0216 66.3464C97.4775 66.3464 97.8522 66.2301 98.1464 65.9974C98.4413 65.7648 98.6591 65.459 98.8005 65.0799C98.9419 64.7008 99.0126 64.2902 99.0126 63.8479C99.0126 63.4056 98.9419 62.9935 98.8005 62.6116C98.6591 62.2296 98.4413 61.921 98.1464 61.6855C97.8522 61.45 97.4775 61.3322 97.0216 61.3322C96.5649 61.3322 96.1903 61.45 95.8961 61.6855C95.6011 61.921 95.3833 62.2296 95.2419 62.6116C95.1005 62.9935 95.0298 63.4056 95.0298 63.8479C95.0298 64.2902 95.1005 64.7008 95.2419 65.0799C95.3833 65.459 95.6011 65.7648 95.8961 65.9974C96.1903 66.2301 96.5649 66.3464 97.0216 66.3464ZM105.784 64.4165V60.5052H106.805V67.1218H105.784V66.0018H105.715C105.559 66.3377 105.316 66.6235 104.987 66.859C104.658 67.0916 104.243 67.2079 103.741 67.2079C103.325 67.2079 102.956 67.1175 102.632 66.9366C102.31 66.7527 102.055 66.4771 101.871 66.1094C101.685 65.739 101.594 65.2723 101.594 64.7094V60.5052H102.615V64.6405C102.615 65.123 102.751 65.5078 103.022 65.795C103.296 66.0822 103.646 66.2257 104.07 66.2257C104.323 66.2257 104.582 66.1611 104.844 66.0319C105.11 65.9026 105.332 65.7045 105.511 65.4375C105.693 65.1704 105.784 64.8301 105.784 64.4165ZM109.698 63.1414V67.1218H108.677V60.5052H109.663V61.539H109.75C109.906 61.203 110.143 60.933 110.46 60.7292C110.777 60.5224 111.187 60.419 111.689 60.419C112.14 60.419 112.534 60.5109 112.871 60.6947C113.209 60.8756 113.471 61.1513 113.659 61.5218C113.847 61.8893 113.94 62.3546 113.94 62.9174V67.1218H112.919V62.9864C112.919 62.4666 112.783 62.0617 112.512 61.7716C112.24 61.4787 111.868 61.3322 111.395 61.3322C111.069 61.3322 110.777 61.4026 110.521 61.5433C110.266 61.684 110.066 61.8893 109.919 62.1593C109.771 62.4292 109.698 62.7567 109.698 63.1414ZM118.698 60.5052V61.3667H115.253V60.5052H118.698ZM116.257 58.92H117.279V65.2263C117.279 65.5136 117.321 65.7289 117.405 65.8726C117.491 66.0133 117.601 66.108 117.733 66.1568C117.869 66.2028 118.012 66.2257 118.162 66.2257C118.274 66.2257 118.367 66.22 118.439 66.2085C118.511 66.1942 118.569 66.1827 118.612 66.174L118.82 67.0873C118.75 67.1131 118.654 67.139 118.53 67.1649C118.406 67.1936 118.248 67.2079 118.058 67.2079C117.77 67.2079 117.487 67.1462 117.21 67.0227C116.936 66.8992 116.707 66.7111 116.525 66.4584C116.347 66.2057 116.257 65.8869 116.257 65.5021V58.92ZM120.235 67.1218V60.5052H121.223V61.5046H121.292C121.413 61.1771 121.632 60.9115 121.95 60.7076C122.267 60.5037 122.625 60.4017 123.023 60.4017C123.098 60.4017 123.192 60.4032 123.305 60.4061C123.417 60.4089 123.502 60.4132 123.56 60.419V61.4529C123.526 61.4442 123.446 61.4313 123.322 61.4141C123.201 61.394 123.072 61.3839 122.936 61.3839C122.613 61.3839 122.325 61.4514 122.071 61.5864C121.82 61.7184 121.621 61.9023 121.474 62.1378C121.329 62.3703 121.257 62.636 121.257 62.9347V67.1218H120.235ZM124.771 67.1218V60.5052H125.792V67.1218H124.771ZM125.291 59.4023C125.092 59.4023 124.919 59.3349 124.776 59.1999C124.634 59.065 124.563 58.9027 124.563 58.7132C124.563 58.5236 124.634 58.3614 124.776 58.2264C124.919 58.0914 125.092 58.0239 125.291 58.0239C125.49 58.0239 125.66 58.0914 125.801 58.2264C125.946 58.3614 126.017 58.5236 126.017 58.7132C126.017 58.9027 125.946 59.065 125.801 59.1999C125.66 59.3349 125.49 59.4023 125.291 59.4023ZM130.451 67.2596C129.811 67.2596 129.258 67.1188 128.793 66.8374C128.332 66.5532 127.975 66.1568 127.725 65.6486C127.476 65.1374 127.352 64.5429 127.352 63.8651C127.352 63.1874 127.476 62.5901 127.725 62.0731C127.975 61.5533 128.324 61.1484 128.772 60.8584C129.222 60.5655 129.747 60.419 130.347 60.419C130.694 60.419 131.035 60.4765 131.374 60.5913C131.711 60.7062 132.019 60.8929 132.296 61.1513C132.572 61.4069 132.793 61.7458 132.957 62.1679C133.122 62.5901 133.204 63.1099 133.204 63.7273V64.158H128.079V63.2793H132.166C132.166 62.9059 132.09 62.5728 131.941 62.2799C131.794 61.987 131.582 61.7558 131.308 61.5864C131.037 61.417 130.717 61.3322 130.347 61.3322C129.941 61.3322 129.589 61.4327 129.291 61.6338C128.997 61.8319 128.771 62.0904 128.611 62.4092C128.453 62.7279 128.374 63.0696 128.374 63.4343V64.0202C128.374 64.5199 128.46 64.9435 128.633 65.291C128.81 65.6356 129.053 65.8984 129.365 66.0793C129.677 66.2573 130.039 66.3464 130.451 66.3464C130.72 66.3464 130.962 66.309 131.178 66.2344C131.398 66.1568 131.587 66.042 131.746 65.8898C131.904 65.7347 132.027 65.5423 132.114 65.3125L133.1 65.5882C132.996 65.9213 132.822 66.2142 132.577 66.467C132.332 66.7168 132.029 66.9121 131.668 67.0529C131.307 67.1907 130.901 67.2596 130.451 67.2596ZM139.468 61.987L138.551 62.2455C138.493 62.0933 138.408 61.9454 138.295 61.8017C138.185 61.6553 138.036 61.5347 137.845 61.4399C137.655 61.3452 137.411 61.2978 137.113 61.2978C136.706 61.2978 136.367 61.3911 136.096 61.5777C135.828 61.7616 135.694 61.9956 135.694 62.2799C135.694 62.5326 135.786 62.7322 135.971 62.8787C136.155 63.0251 136.444 63.1472 136.836 63.2449L137.824 63.4861C138.418 63.6296 138.861 63.8494 139.152 64.1451C139.444 64.4381 139.589 64.8157 139.589 65.2781C139.589 65.6571 139.48 65.996 139.26 66.2947C139.044 66.5934 138.741 66.8288 138.352 67.0012C137.962 67.1734 137.509 67.2596 136.992 67.2596C136.314 67.2596 135.753 67.1131 135.308 66.8202C134.864 66.5273 134.583 66.0994 134.464 65.5365L135.434 65.2953C135.526 65.6514 135.701 65.9185 135.958 66.0965C136.217 66.2746 136.557 66.3636 136.975 66.3636C137.451 66.3636 137.829 66.2631 138.109 66.062C138.392 65.8582 138.533 65.6141 138.533 65.3298C138.533 65.1 138.453 64.9076 138.291 64.7525C138.129 64.5946 137.881 64.4768 137.546 64.3993L136.438 64.1408C135.829 63.9973 135.382 63.7747 135.096 63.4732C134.813 63.1688 134.672 62.7882 134.672 62.3316C134.672 61.9583 134.777 61.628 134.988 61.3409C135.201 61.0536 135.491 60.8282 135.858 60.6646C136.228 60.5009 136.646 60.419 137.113 60.419C137.772 60.419 138.288 60.5626 138.663 60.8498C139.041 61.1369 139.31 61.516 139.468 61.987Z" fill="#9CAAB9"/>
<path d="M47.1342 69.5478C59.7011 69.5478 69.8886 59.41 69.8886 46.9043C69.8886 34.3987 59.7011 24.2609 47.1342 24.2609C34.5673 24.2609 24.3798 34.3987 24.3798 46.9043C24.3798 59.41 34.5673 69.5478 47.1342 69.5478Z" fill="#5F76E8"/>
<path d="M47.1342 72.7826C61.4964 72.7826 73.1392 61.1966 73.1392 46.9044C73.1392 32.6122 61.4964 21.0261 47.1342 21.0261C32.772 21.0261 21.1291 32.6122 21.1291 46.9044C21.1291 61.1966 32.772 72.7826 47.1342 72.7826Z" stroke="#5F76E8" stroke-opacity="0.1" stroke-width="8"/>
<path d="M47.1342 54.9913C51.6223 54.9913 55.2607 51.3706 55.2607 46.9043C55.2607 42.4381 51.6223 38.8174 47.1342 38.8174M47.1342 54.9913C42.646 54.9913 39.0076 51.3706 39.0076 46.9043C39.0076 42.4381 42.646 38.8174 47.1342 38.8174M47.1342 54.9913C48.7968 54.9913 50.1448 51.3706 50.1448 46.9043C50.1448 42.4381 48.7968 38.8174 47.1342 38.8174M47.1342 54.9913C45.4715 54.9913 44.1235 51.3706 44.1235 46.9043C44.1235 42.4381 45.4715 38.8174 47.1342 38.8174M39.3023 46.9043H54.966" stroke="white" stroke-width="1.8" stroke-miterlimit="10"/>
<path d="M290.932 32.7522H273.053C270.136 32.7522 267.771 35.1056 267.771 38.0087V55.8C267.771 58.7031 270.136 61.0565 273.053 61.0565H290.932C293.849 61.0565 296.214 58.7031 296.214 55.8V38.0087C296.214 35.1056 293.849 32.7522 290.932 32.7522Z" fill="white" stroke="#EAEDF3"/>
<path d="M283.423 43.086L286.086 40.4348L289.306 43.6388L279.523 53.3739H276.304V50.17L283.423 43.086ZM283.423 43.086L286.632 46.283" stroke="#A8B5C2" stroke-width="1.7" stroke-miterlimit="10" stroke-linecap="round" stroke-linejoin="round"/>
</g>
<defs>
<clipPath id="clip0_26_561">
<rect width="321" height="93" fill="white"/>
</clipPath>
</defs>
</svg>
