<svg width="423" height="280" viewBox="0 0 423 280" fill="none" xmlns="http://www.w3.org/2000/svg">
<g clip-path="url(#clip0_26_564)">
<path d="M401.744 0H21.2563C9.51676 0 0 9.98528 0 22.3027V433.788C0 446.106 9.51676 456.091 21.2563 456.091H401.744C413.483 456.091 423 446.106 423 433.788V22.3027C423 9.98528 413.483 0 401.744 0Z" fill="white"/>
<path d="M337.975 25.0906H314.593C310.778 25.0906 307.685 28.3358 307.685 32.339V56.872C307.685 60.8752 310.778 64.1204 314.593 64.1204H337.975C341.79 64.1204 344.883 60.8752 344.883 56.872V32.339C344.883 28.3358 341.79 25.0906 337.975 25.0906Z" fill="white" stroke="#EAEDF3"/>
<path d="M327.766 43.0512L333.377 37.1634M333.724 42.3684L333.634 36.893L328.416 36.7996M324.802 46.6417L319.191 52.5294M318.844 47.3243L318.934 52.7998L324.152 52.8933" stroke="#A8B5C2" stroke-width="1.7" stroke-miterlimit="10" stroke-linecap="round" stroke-linejoin="round"/>
<path d="M29.3723 40.2902V38.3196H39.2396V40.2902H35.4171V51.2958H33.1948V40.2902H29.3723ZM43.7459 51.486C42.8401 51.486 42.0551 51.2769 41.3908 50.8587C40.7266 50.4405 40.2113 49.8554 39.845 49.1036C39.4825 48.3516 39.3014 47.4731 39.3014 46.4678C39.3014 45.4624 39.4825 44.5818 39.845 43.8256C40.2113 43.0696 40.7266 42.4825 41.3908 42.0643C42.0551 41.6461 42.8401 41.437 43.7459 41.437C44.6518 41.437 45.4368 41.6461 46.101 42.0643C46.7653 42.4825 47.2786 43.0696 47.6409 43.8256C48.0073 44.5818 48.1904 45.4624 48.1904 46.4678C48.1904 47.4731 48.0073 48.3516 47.6409 49.1036C47.2786 49.8554 46.7653 50.4405 46.101 50.8587C45.4368 51.2769 44.6518 51.486 43.7459 51.486ZM43.758 49.6484C44.2492 49.6484 44.6598 49.5069 44.9899 49.2239C45.3201 48.9368 45.5656 48.5524 45.7266 48.0709C45.8917 47.5892 45.9742 47.0528 45.9742 46.4615C45.9742 45.8659 45.8917 45.3273 45.7266 44.8458C45.5656 44.36 45.3201 43.9735 44.9899 43.6862C44.6598 43.3991 44.2492 43.2555 43.758 43.2555C43.2548 43.2555 42.8362 43.3991 42.502 43.6862C42.1719 43.9735 41.9243 44.36 41.7592 44.8458C41.5982 45.3273 41.5176 45.8659 41.5176 46.4615C41.5176 47.0528 41.5982 47.5892 41.7592 48.0709C41.9243 48.5524 42.1719 48.9368 42.502 49.2239C42.8362 49.5069 43.2548 49.6484 43.758 49.6484ZM50.0459 54.9453V41.5637H52.1956V43.1731H52.3224C52.4352 42.9365 52.5942 42.6852 52.7995 42.4191C53.0048 42.1487 53.2826 41.9185 53.6329 41.7285C53.9831 41.5341 54.43 41.437 54.9734 41.437C55.69 41.437 56.3361 41.6292 56.9118 42.0135C57.4916 42.3937 57.9505 42.9576 58.2887 43.7053C58.6308 44.4487 58.802 45.3611 58.802 46.4424C58.802 47.5112 58.6349 48.4193 58.3007 49.1669C57.9666 49.9146 57.5117 50.4848 56.936 50.8777C56.3604 51.2705 55.7081 51.4669 54.9794 51.4669C54.448 51.4669 54.0072 51.374 53.657 51.1881C53.3068 51.0022 53.0249 50.7784 52.8115 50.5165C52.6022 50.2504 52.4392 49.999 52.3224 49.7625H52.2319V54.9453H50.0459ZM52.1896 46.4298C52.1896 47.0592 52.2742 47.6104 52.4432 48.0835C52.6163 48.5566 52.8639 48.9262 53.1859 49.1922C53.512 49.4542 53.9065 49.5851 54.3695 49.5851C54.8526 49.5851 55.2573 49.4499 55.5833 49.1796C55.9094 48.9051 56.155 48.5312 56.3201 48.0581C56.4892 47.5809 56.5737 47.038 56.5737 46.4298C56.5737 45.8257 56.4912 45.2893 56.3261 44.8204C56.1611 44.3515 55.9155 43.9841 55.5894 43.7179C55.2633 43.4518 54.8567 43.3188 54.3695 43.3188C53.9026 43.3188 53.5061 43.4476 53.1799 43.7053C52.8538 43.9629 52.6063 44.3241 52.4372 44.7888C52.2721 45.2533 52.1896 45.8004 52.1896 46.4298ZM69.8981 38.3196V51.2958H67.6577V40.607H67.5853L64.6927 42.5458V40.3916L67.7665 38.3196H69.8981ZM77.6095 51.5429C76.6151 51.5429 75.7617 51.2789 75.0491 50.751C74.3406 50.2187 73.7951 49.4521 73.4127 48.451C73.0342 47.4456 72.845 46.2354 72.845 44.8204C72.8491 43.4053 73.0403 42.2015 73.4186 41.2089C73.8011 40.212 74.3467 39.4517 75.0551 38.928C75.7678 38.4042 76.6192 38.1422 77.6095 38.1422C78.5998 38.1422 79.4514 38.4042 80.1639 38.928C80.8765 39.4517 81.4219 40.212 81.8004 41.2089C82.1829 42.2058 82.3741 43.4096 82.3741 44.8204C82.3741 46.2397 82.1829 47.4519 81.8004 48.4572C81.4219 49.4584 80.8765 50.223 80.1639 50.751C79.4554 51.2789 78.6039 51.5429 77.6095 51.5429ZM77.6095 49.5598C78.3825 49.5598 78.9925 49.1606 79.4393 48.3622C79.8902 47.5597 80.1156 46.3791 80.1156 44.8204C80.1156 43.7897 80.013 42.9238 79.8076 42.2226C79.6023 41.5214 79.3125 40.9935 78.938 40.6387C78.5637 40.2796 78.1208 40.1001 77.6095 40.1001C76.8406 40.1001 76.2327 40.5014 75.7858 41.304C75.339 42.1023 75.1135 43.2744 75.1096 44.8204C75.1055 45.8553 75.2042 46.7254 75.4055 47.4309C75.6107 48.1363 75.9006 48.6685 76.2749 49.0275C76.6494 49.3824 77.0943 49.5598 77.6095 49.5598ZM88.7193 51.2958V38.3196H93.357C94.3071 38.3196 95.1042 38.4928 95.7484 38.8392C96.3965 39.1857 96.8857 39.6714 97.2158 40.2966C97.5499 40.9175 97.717 41.6419 97.717 42.4697C97.717 43.3019 97.5479 44.0242 97.2097 44.6367C96.8756 45.245 96.3824 45.7159 95.7302 46.0497C95.078 46.3791 94.2769 46.5438 93.3268 46.5438H90.0236V44.5923H93.0249C93.5804 44.5923 94.0353 44.5121 94.3896 44.3515C94.7439 44.1868 95.0055 43.9482 95.1746 43.6356C95.3478 43.3188 95.4343 42.9302 95.4343 42.4697C95.4343 42.0093 95.3478 41.6165 95.1746 41.2913C95.0015 40.9619 94.7378 40.7126 94.3836 40.5437C94.0294 40.3705 93.5723 40.2838 93.0128 40.2838H90.9596V51.2958H88.7193ZM95.1082 45.416L98.1699 51.2958H95.6698L92.6626 45.416H95.1082ZM102.352 51.4922C101.764 51.4922 101.234 51.3825 100.763 51.1628C100.296 50.9389 99.9262 50.6095 99.6524 50.1743C99.3826 49.7393 99.2478 49.2028 99.2478 48.565C99.2478 48.0159 99.3444 47.5618 99.5376 47.2027C99.7308 46.8438 99.9946 46.5565 100.329 46.3411C100.663 46.1256 101.039 45.963 101.458 45.8532C101.881 45.7391 102.318 45.6568 102.768 45.6061C103.312 45.547 103.753 45.4941 104.091 45.4477C104.429 45.397 104.675 45.3209 104.828 45.2196C104.985 45.114 105.063 44.9514 105.063 44.7317V44.6937C105.063 44.2164 104.928 43.8468 104.658 43.5849C104.389 43.323 104 43.1921 103.493 43.1921C102.958 43.1921 102.533 43.3146 102.219 43.5596C101.909 43.8046 101.699 44.0939 101.591 44.4276L99.5497 44.1235C99.7107 43.5321 99.9764 43.0379 100.347 42.6408C100.717 42.2396 101.17 41.9396 101.706 41.7411C102.241 41.5384 102.833 41.437 103.481 41.437C103.928 41.437 104.373 41.4919 104.815 41.6017C105.258 41.7116 105.663 41.8932 106.029 42.1467C106.395 42.3958 106.689 42.7359 106.911 43.1667C107.136 43.5976 107.25 44.1361 107.25 44.7824V51.2958H105.148V49.9589H105.075C104.942 50.2293 104.755 50.4827 104.513 50.7193C104.276 50.9516 103.976 51.1395 103.614 51.2831C103.255 51.4225 102.835 51.4922 102.352 51.4922ZM102.919 49.8069C103.358 49.8069 103.739 49.716 104.061 49.5345C104.383 49.3486 104.63 49.1036 104.803 48.7995C104.98 48.4953 105.069 48.1637 105.069 47.8047V46.6579C105.001 46.717 104.884 46.7719 104.719 46.8226C104.558 46.8733 104.377 46.9177 104.175 46.9557C103.974 46.9936 103.775 47.0274 103.578 47.0571C103.38 47.0866 103.209 47.1119 103.064 47.133C102.738 47.1795 102.446 47.2556 102.189 47.3612C101.931 47.4668 101.728 47.6146 101.579 47.8047C101.43 47.9906 101.355 48.2313 101.355 48.5269C101.355 48.9494 101.502 49.2683 101.796 49.4837C102.09 49.6992 102.464 49.8069 102.919 49.8069ZM111.634 45.5935V51.2958H109.447V41.5637H111.537V43.2174H111.645C111.859 42.6725 112.199 42.2396 112.666 41.9185C113.137 41.5975 113.719 41.437 114.411 41.437C115.051 41.437 115.609 41.5806 116.084 41.8679C116.563 42.1551 116.933 42.5711 117.194 43.1161C117.46 43.6609 117.592 44.322 117.588 45.0992V51.2958H115.401V45.4541C115.401 44.8035 115.24 44.2945 114.918 43.927C114.6 43.5596 114.159 43.3758 113.596 43.3758C113.213 43.3758 112.873 43.4646 112.575 43.642C112.281 43.8152 112.05 44.0664 111.88 44.3959C111.716 44.7254 111.634 45.1245 111.634 45.5935ZM121.803 48.2419L121.796 45.473H122.147L125.48 41.5637H128.034L123.934 46.3538H123.481L121.803 48.2419ZM119.81 51.2958V38.3196H121.996V51.2958H119.81ZM125.631 51.2958L122.612 46.867L124.085 45.2512L128.245 51.2958H125.631ZM129.491 51.2958V41.5637H131.677V51.2958H129.491ZM130.59 40.1825C130.244 40.1825 129.946 40.062 129.696 39.8213C129.446 39.5763 129.322 39.2828 129.322 38.9407C129.322 38.5942 129.446 38.3007 129.696 38.0599C129.946 37.8149 130.244 37.6924 130.59 37.6924C130.941 37.6924 131.238 37.8149 131.484 38.0599C131.734 38.3007 131.858 38.5942 131.858 38.9407C131.858 39.2828 131.734 39.5763 131.484 39.8213C131.238 40.062 130.941 40.1825 130.59 40.1825ZM136.111 45.5935V51.2958H133.925V41.5637H136.015V43.2174H136.123C136.337 42.6725 136.677 42.2396 137.143 41.9185C137.615 41.5975 138.197 41.437 138.889 41.437C139.529 41.437 140.086 41.5806 140.561 41.8679C141.041 42.1551 141.412 42.5711 141.673 43.1161C141.939 43.6609 142.07 44.322 142.065 45.0992V51.2958H139.879V45.4541C139.879 44.8035 139.719 44.2945 139.397 43.927C139.078 43.5596 138.638 43.3758 138.073 43.3758C137.692 43.3758 137.351 43.4646 137.053 43.642C136.76 43.8152 136.528 44.0664 136.359 44.3959C136.193 44.7254 136.111 45.1245 136.111 45.5935ZM148.321 55.1481C147.537 55.1481 146.862 55.0362 146.298 54.8123C145.735 54.5926 145.282 54.297 144.94 53.9253C144.598 53.5535 144.36 53.1417 144.227 52.6897L146.195 52.1892C146.285 52.3793 146.413 52.5673 146.582 52.7531C146.751 52.9432 146.979 53.0995 147.265 53.222C147.555 53.3487 147.919 53.412 148.357 53.412C148.978 53.412 149.491 53.2537 149.897 52.9369C150.304 52.6243 150.507 52.109 150.507 51.3908V49.5471H150.399C150.286 49.7836 150.121 50.0265 149.904 50.2757C149.69 50.5249 149.406 50.734 149.052 50.903C148.701 51.0719 148.261 51.1564 147.73 51.1564C147.017 51.1564 146.371 50.9811 145.791 50.6305C145.215 50.2757 144.756 49.7477 144.414 49.0466C144.076 48.3412 143.907 47.4583 143.907 46.3981C143.907 45.3294 144.076 44.4276 144.414 43.6926C144.756 42.9534 145.218 42.3937 145.797 42.0135C146.377 41.6292 147.023 41.437 147.735 41.437C148.28 41.437 148.726 41.5341 149.077 41.7285C149.431 41.9185 149.712 42.1487 149.922 42.4191C150.131 42.6852 150.29 42.9365 150.399 43.1731H150.52V41.5637H152.675V51.4542C152.675 52.2864 152.486 52.9749 152.108 53.5197C151.729 54.0647 151.212 54.4723 150.556 54.7426C149.899 55.0129 149.154 55.1481 148.321 55.1481ZM148.339 49.357C148.802 49.357 149.197 49.2387 149.523 49.0022C149.849 48.7657 150.097 48.4256 150.266 47.9821C150.435 47.5386 150.52 47.0063 150.52 46.3854C150.52 45.7729 150.435 45.2365 150.266 44.7761C150.101 44.3156 149.856 43.9588 149.529 43.7053C149.207 43.4476 148.811 43.3188 148.339 43.3188C147.852 43.3188 147.446 43.4518 147.12 43.7179C146.794 43.9841 146.548 44.3494 146.383 44.8141C146.218 45.2745 146.136 45.7983 146.136 46.3854C146.136 46.981 146.218 47.5027 146.383 47.9504C146.552 48.3939 146.8 48.7403 147.125 48.9895C147.456 49.2345 147.861 49.357 148.339 49.357Z" fill="#2B3354"/>
<path d="M38.7141 91.441H37.4038C37.3263 91.0456 37.1907 90.6981 36.997 90.3987C36.8067 90.0994 36.5742 89.848 36.2994 89.6447C36.0282 89.4377 35.727 89.2825 35.3959 89.179C35.0648 89.0756 34.7196 89.0238 34.3602 89.0238C33.7051 89.0238 33.1115 89.1975 32.5796 89.5449C32.0513 89.8924 31.6303 90.4042 31.3168 91.0806C31.0067 91.757 30.8518 92.5868 30.8518 93.5699C30.8518 94.553 31.0067 95.3828 31.3168 96.0591C31.6303 96.7355 32.0513 97.2474 32.5796 97.5949C33.1115 97.9422 33.7051 98.116 34.3602 98.116C34.7196 98.116 35.0648 98.0642 35.3959 97.9607C35.727 97.8573 36.0282 97.7038 36.2994 97.5005C36.5742 97.2936 36.8067 97.0404 36.997 96.741C37.1907 96.438 37.3263 96.0905 37.4038 95.6988H38.7141C38.6155 96.279 38.4359 96.7983 38.1752 97.2566C37.9146 97.715 37.5904 98.1049 37.203 98.4264C36.8155 98.7442 36.3805 98.9863 35.8979 99.1527C35.4188 99.319 34.9063 99.4022 34.3602 99.4022C33.4374 99.4022 32.6166 99.1656 31.898 98.6925C31.1793 98.2195 30.614 97.5468 30.2019 96.6745C29.7897 95.8023 29.5836 94.7674 29.5836 93.5699C29.5836 92.3723 29.7897 91.3375 30.2019 90.4652C30.614 89.593 31.1793 88.9203 31.898 88.4472C32.6166 87.9741 33.4374 87.7376 34.3602 87.7376C34.9063 87.7376 35.4188 87.8208 35.8979 87.9871C36.3805 88.1533 36.8155 88.3973 37.203 88.7188C37.5904 89.0367 37.9146 89.4248 38.1752 89.8831C38.4359 90.3378 38.6155 90.857 38.7141 91.441ZM43.9598 99.4244C43.2271 99.4244 42.5842 99.2414 42.0312 98.8755C41.4816 98.5096 41.0519 97.9977 40.7419 97.3398C40.4354 96.6819 40.2822 95.9131 40.2822 95.0335C40.2822 94.1464 40.4354 93.3722 40.7419 92.7106C41.0519 92.0489 41.4816 91.5352 42.0312 91.1693C42.5842 90.8035 43.2271 90.6205 43.9598 90.6205C44.6925 90.6205 45.3336 90.8035 45.883 91.1693C46.4361 91.5352 46.8659 92.0489 47.1723 92.7106C47.4824 93.3722 47.6373 94.1464 47.6373 95.0335C47.6373 95.9131 47.4824 96.6819 47.1723 97.3398C46.8659 97.9977 46.4361 98.5096 45.883 98.8755C45.3336 99.2414 44.6925 99.4244 43.9598 99.4244ZM43.9598 98.249C44.5164 98.249 44.9742 98.0994 45.3336 97.7999C45.6929 97.5005 45.9588 97.107 46.1314 96.6191C46.304 96.1313 46.3903 95.6027 46.3903 95.0335C46.3903 94.4643 46.304 93.934 46.1314 93.4423C45.9588 92.9508 45.6929 92.5534 45.3336 92.2505C44.9742 91.9474 44.5164 91.7958 43.9598 91.7958C43.4032 91.7958 42.9452 91.9474 42.586 92.2505C42.2266 92.5534 41.9607 92.9508 41.7881 93.4423C41.6155 93.934 41.5292 94.4643 41.5292 95.0335C41.5292 95.6027 41.6155 96.1313 41.7881 96.6191C41.9607 97.107 42.2266 97.5005 42.586 97.7999C42.9452 98.0994 43.4032 98.249 43.9598 98.249ZM54.6556 95.7653V90.7313H55.9026V99.2469H54.6556V97.8055H54.5711C54.3809 98.238 54.085 98.6057 53.6835 98.9087C53.2818 99.2081 52.7745 99.3578 52.1616 99.3578C51.6544 99.3578 51.2035 99.2414 50.809 99.0085C50.4145 98.772 50.1044 98.4172 49.879 97.9441C49.6536 97.4673 49.5408 96.8667 49.5408 96.1423V90.7313H50.7878V96.0536C50.7878 96.6745 50.9534 97.1698 51.2846 97.5394C51.6192 97.909 52.0454 98.0938 52.5633 98.0938C52.8732 98.0938 53.1885 98.0106 53.5091 97.8443C53.8331 97.6779 54.1043 97.4229 54.3227 97.0792C54.5447 96.7355 54.6556 96.2975 54.6556 95.7653ZM59.4336 94.1242V99.2469H58.1866V90.7313H59.3913V92.0619H59.4969C59.6872 91.6294 59.9761 91.2821 60.3636 91.0197C60.7511 90.7535 61.2512 90.6205 61.8642 90.6205C62.4137 90.6205 62.8946 90.7388 63.3067 90.9753C63.7188 91.2081 64.0394 91.563 64.2683 92.0397C64.4973 92.5129 64.6117 93.1116 64.6117 93.836V99.2469H63.3648V93.9247C63.3648 93.2558 63.1993 92.7345 62.8681 92.3613C62.537 91.9843 62.0826 91.7958 61.5049 91.7958C61.1068 91.7958 60.7511 91.8864 60.4375 92.0675C60.1275 92.2486 59.8827 92.5128 59.703 92.8602C59.5234 93.2077 59.4336 93.629 59.4336 94.1242ZM70.4201 90.7313V91.8402H66.2141V90.7313H70.4201ZM67.44 88.6912H68.687V96.8076C68.687 97.1771 68.738 97.4544 68.8402 97.6391C68.9459 97.8202 69.0797 97.9422 69.2418 98.0051C69.4074 98.0642 69.5817 98.0938 69.7649 98.0938C69.9023 98.0938 70.015 98.0864 70.1031 98.0716C70.1911 98.0532 70.2616 98.0384 70.3144 98.0272L70.5681 99.2026C70.4835 99.2359 70.3655 99.2691 70.214 99.3024C70.0626 99.3394 69.8705 99.3578 69.6381 99.3578C69.2858 99.3578 68.9406 99.2784 68.6024 99.1195C68.2678 98.9605 67.9895 98.7184 67.7676 98.3932C67.5491 98.0679 67.44 97.6576 67.44 97.1624V88.6912ZM72.2959 99.2469V90.7313H73.5006V92.0175H73.5852C73.7331 91.5962 74.0007 91.2543 74.3882 90.9919C74.7757 90.7295 75.2126 90.5983 75.6987 90.5983C75.7903 90.5983 75.9048 90.6002 76.0421 90.6038C76.1795 90.6075 76.2835 90.6131 76.3539 90.6205V91.951C76.3116 91.9399 76.2147 91.9233 76.0632 91.9011C75.9153 91.8752 75.7585 91.8623 75.593 91.8623C75.1984 91.8623 74.8462 91.9492 74.5362 92.1229C74.2298 92.2929 73.9867 92.5295 73.8071 92.8326C73.6309 93.1319 73.5429 93.4738 73.5429 93.8582V99.2469H72.2959ZM78.8822 102.44C78.6709 102.44 78.4824 102.422 78.3168 102.385C78.1512 102.352 78.0368 102.318 77.9734 102.285L78.2905 101.132C78.5934 101.213 78.8611 101.243 79.0935 101.221C79.3261 101.198 79.5322 101.089 79.7118 100.894C79.895 100.701 80.0623 100.389 80.2137 99.9566L80.4463 99.2913L77.445 90.7313H78.7976L81.0381 97.5173H81.1226L83.363 90.7313H84.7156L81.2705 100.489C81.1155 100.929 80.9236 101.293 80.6946 101.581C80.4656 101.873 80.1997 102.089 79.8967 102.23C79.5973 102.37 79.2591 102.44 78.8822 102.44Z" fill="#FB4E6E"/>
<path d="M120.346 99.2472V87.8931H124.129C124.883 87.8931 125.504 88.0298 125.994 88.3034C126.483 88.5731 126.848 88.9372 127.088 89.3955C127.327 89.8502 127.447 90.3547 127.447 90.909C127.447 91.3969 127.364 91.7998 127.199 92.1176C127.037 92.4355 126.821 92.6869 126.555 92.8717C126.29 93.0564 126.003 93.1931 125.693 93.2819V93.3928C126.024 93.415 126.357 93.537 126.692 93.7586C127.026 93.9804 127.306 94.2983 127.531 94.7122C127.757 95.1262 127.869 95.6325 127.869 96.2313C127.869 96.8005 127.746 97.3124 127.499 97.767C127.253 98.2216 126.864 98.5819 126.332 98.848C125.8 99.1142 125.108 99.2472 124.256 99.2472H120.346ZM121.656 98.0275H124.256C125.111 98.0275 125.719 97.8539 126.078 97.5064C126.442 97.1554 126.623 96.7303 126.623 96.2313C126.623 95.847 126.529 95.4921 126.343 95.1668C126.156 94.8379 125.89 94.5755 125.545 94.3796C125.199 94.1801 124.791 94.0802 124.319 94.0802H121.656V98.0275ZM121.656 92.8827H124.087C124.481 92.8827 124.837 92.8014 125.154 92.6388C125.475 92.4761 125.728 92.247 125.915 91.9513C126.105 91.6556 126.2 91.3082 126.2 90.909C126.2 90.4101 126.035 89.9869 125.703 89.6394C125.373 89.2884 124.848 89.1128 124.129 89.1128H121.656V92.8827ZM129.854 99.2472V90.7316H131.059V92.0178H131.143C131.291 91.5965 131.558 91.2546 131.946 90.9922C132.334 90.7298 132.771 90.5986 133.257 90.5986C133.348 90.5986 133.463 90.6005 133.6 90.6041C133.737 90.6078 133.841 90.6134 133.912 90.6208V91.9513C133.87 91.9402 133.773 91.9236 133.621 91.9014C133.473 91.8755 133.316 91.8626 133.151 91.8626C132.756 91.8626 132.404 91.9494 132.094 92.1232C131.788 92.2932 131.544 92.5298 131.365 92.8329C131.188 93.1322 131.101 93.4741 131.101 93.8584V99.2472H129.854ZM137.778 99.4468C137.265 99.4468 136.797 99.3451 136.378 99.1419C135.959 98.9349 135.626 98.6374 135.379 98.2493C135.133 97.8576 135.009 97.3844 135.009 96.8301C135.009 96.3422 135.102 95.9467 135.284 95.6437C135.467 95.3369 135.713 95.0966 136.019 94.923C136.325 94.7492 136.663 94.6199 137.033 94.5348C137.407 94.4461 137.782 94.3759 138.158 94.3241C138.651 94.2577 139.052 94.2077 139.358 94.1745C139.669 94.1376 139.894 94.0766 140.034 93.9915C140.179 93.9065 140.251 93.7586 140.251 93.548V93.5036C140.251 92.9566 140.109 92.5315 139.823 92.2286C139.541 91.9255 139.114 91.7739 138.539 91.7739C137.944 91.7739 137.477 91.9106 137.139 92.1842C136.801 92.4577 136.563 92.7497 136.426 93.0601L135.242 92.6166C135.453 92.0992 135.735 91.6963 136.088 91.408C136.443 91.116 136.831 90.9127 137.25 90.7982C137.673 90.6799 138.088 90.6208 138.497 90.6208C138.758 90.6208 139.057 90.654 139.395 90.7206C139.737 90.7833 140.066 90.9146 140.383 91.1142C140.704 91.3138 140.969 91.615 141.181 92.0178C141.392 92.4207 141.498 92.9603 141.498 93.6368V99.2472H140.251V98.0941H140.188C140.103 98.2788 139.962 98.4766 139.765 98.6873C139.568 98.898 139.305 99.0772 138.978 99.225C138.65 99.3729 138.251 99.4468 137.778 99.4468ZM137.968 98.2715C138.461 98.2715 138.878 98.1699 139.216 97.9666C139.557 97.7633 139.814 97.5008 139.987 97.1793C140.163 96.8577 140.251 96.5196 140.251 96.1648V94.9672C140.198 95.0338 140.082 95.0948 139.902 95.1502C139.726 95.202 139.522 95.2481 139.289 95.2888C139.061 95.3257 138.836 95.3591 138.619 95.3886C138.404 95.4145 138.23 95.4367 138.096 95.4551C137.771 95.4995 137.469 95.5715 137.187 95.6713C136.908 95.7674 136.683 95.9134 136.51 96.1093C136.341 96.3015 136.257 96.5639 136.257 96.8965C136.257 97.3512 136.416 97.695 136.737 97.9278C137.062 98.157 137.472 98.2715 137.968 98.2715ZM145.021 94.1245V99.2472H143.774V90.7316H144.979V92.0622H145.085C145.275 91.6297 145.564 91.2824 145.951 91.02C146.339 90.7538 146.839 90.6208 147.452 90.6208C148.001 90.6208 148.483 90.7391 148.894 90.9756C149.306 91.2084 149.627 91.5633 149.856 92.04C150.085 92.5131 150.199 93.1119 150.199 93.8362V99.2472H148.952V93.925C148.952 93.256 148.786 92.7348 148.456 92.3616C148.124 91.9846 147.671 91.7961 147.092 91.7961C146.695 91.7961 146.339 91.8867 146.025 92.0678C145.715 92.2489 145.47 92.5131 145.291 92.8605C145.111 93.208 145.021 93.6293 145.021 94.1245ZM155.543 99.4247C154.867 99.4247 154.27 99.2453 153.752 98.8868C153.233 98.5246 152.828 98.0146 152.536 97.3567C152.244 96.6951 152.097 95.9134 152.097 95.0116C152.097 94.1172 152.244 93.341 152.536 92.6831C152.828 92.0253 153.235 91.517 153.757 91.1585C154.278 90.8001 154.881 90.6208 155.564 90.6208C156.092 90.6208 156.51 90.7132 156.816 90.898C157.126 91.0791 157.362 91.286 157.524 91.5189C157.69 91.748 157.818 91.9365 157.91 92.0844H158.016V87.8931H159.263V99.2472H158.057V97.9388H157.91C157.818 98.0941 157.688 98.29 157.519 98.5265C157.35 98.7594 157.108 98.9682 156.795 99.153C156.481 99.3341 156.064 99.4247 155.543 99.4247ZM155.712 98.2493C156.212 98.2493 156.634 98.1126 156.98 97.839C157.325 97.5618 157.588 97.1793 157.767 96.6914C157.947 96.1999 158.037 95.6325 158.037 94.9894C158.037 94.3537 157.949 93.7974 157.773 93.3207C157.596 92.8402 157.336 92.4669 156.99 92.2008C156.645 91.931 156.219 91.7961 155.712 91.7961C155.184 91.7961 154.744 91.9384 154.391 92.223C154.042 92.5039 153.78 92.8864 153.603 93.3706C153.431 93.8511 153.345 94.3907 153.345 94.9894C153.345 95.5956 153.433 96.1463 153.608 96.6416C153.788 97.1332 154.053 97.5249 154.401 97.8168C154.754 98.1052 155.191 98.2493 155.712 98.2493Z" fill="#9CAAB9"/>
<path d="M194.124 87.8927L197.336 97.4506H197.463L200.675 87.8927H202.049L198.076 99.2468H196.724L192.75 87.8927H194.124ZM206.213 99.4243C205.431 99.4243 204.756 99.2432 204.189 98.881C203.626 98.5151 203.191 98.005 202.884 97.3508C202.581 96.693 202.43 95.9279 202.43 95.0556C202.43 94.1833 202.581 93.4146 202.884 92.7493C203.191 92.0803 203.617 91.5592 204.163 91.1859C204.713 90.8088 205.354 90.6204 206.086 90.6204C206.509 90.6204 206.927 90.6943 207.339 90.8422C207.75 90.9899 208.125 91.2302 208.463 91.5629C208.803 91.8918 209.071 92.328 209.272 92.8713C209.473 93.4146 209.574 94.0835 209.574 94.8782V95.4325H203.317V94.3015H208.305C208.305 93.8211 208.214 93.3924 208.031 93.0153C207.851 92.6384 207.594 92.3409 207.259 92.1228C206.928 91.9048 206.537 91.7957 206.086 91.7957C205.59 91.7957 205.16 91.9251 204.797 92.1838C204.438 92.4388 204.161 92.7715 203.968 93.1817C203.773 93.592 203.677 94.0318 203.677 94.5012V95.2552C203.677 95.8983 203.783 96.4434 203.994 96.8907C204.209 97.3342 204.507 97.6724 204.887 97.9052C205.268 98.1344 205.71 98.2489 206.213 98.2489C206.541 98.2489 206.836 98.2008 207.101 98.1048C207.369 98.005 207.599 97.8572 207.793 97.6612C207.986 97.4616 208.136 97.2141 208.242 96.9183L209.447 97.2732C209.32 97.7019 209.106 98.079 208.808 98.4041C208.508 98.7257 208.138 98.977 207.698 99.1582C207.257 99.3355 206.763 99.4243 206.213 99.4243ZM212.718 94.1241V99.2468H211.47V87.8927H212.718V92.0618H212.823C213.013 91.622 213.298 91.2727 213.679 91.014C214.063 90.7516 214.574 90.6204 215.211 90.6204C215.765 90.6204 216.249 90.7368 216.664 90.9696C217.08 91.1988 217.403 91.5517 217.631 92.0286C217.864 92.5016 217.98 93.1041 217.98 93.8359V99.2468H216.733V93.9246C216.733 93.2482 216.566 92.7253 216.232 92.3556C215.9 91.9824 215.441 91.7957 214.852 91.7957C214.444 91.7957 214.077 91.8863 213.753 92.0674C213.432 92.2485 213.179 92.5128 212.992 92.8601C212.809 93.2076 212.718 93.6289 212.718 94.1241ZM220.262 99.2468V90.7312H221.508V99.2468H220.262ZM220.895 89.312C220.653 89.312 220.442 89.2251 220.267 89.0514C220.094 88.8777 220.008 88.6689 220.008 88.425C220.008 88.181 220.094 87.9721 220.267 87.7985C220.442 87.6248 220.653 87.5379 220.895 87.5379C221.139 87.5379 221.347 87.6248 221.519 87.7985C221.696 87.9721 221.784 88.181 221.784 88.425C221.784 88.6689 221.696 88.8777 221.519 89.0514C221.347 89.2251 221.139 89.312 220.895 89.312ZM227.089 99.4243C226.328 99.4243 225.674 99.2358 225.124 98.8588C224.575 98.4817 224.152 97.9624 223.856 97.3009C223.56 96.6393 223.412 95.8835 223.412 95.0334C223.412 94.1685 223.564 93.4053 223.867 92.7437C224.173 92.0784 224.599 91.5592 225.145 91.1859C225.695 90.8088 226.336 90.6204 227.068 90.6204C227.639 90.6204 228.153 90.7312 228.611 90.953C229.069 91.1748 229.444 91.4853 229.737 91.8844C230.029 92.2836 230.211 92.7493 230.281 93.2815H229.034C228.939 92.8935 228.728 92.5497 228.4 92.2504C228.076 91.9473 227.639 91.7957 227.089 91.7957C226.604 91.7957 226.177 91.9288 225.811 92.1948C225.448 92.4573 225.165 92.8288 224.96 93.3092C224.76 93.786 224.659 94.3459 224.659 94.989C224.659 95.647 224.757 96.2198 224.955 96.7077C225.156 97.1955 225.438 97.5744 225.8 97.8442C226.167 98.114 226.596 98.2489 227.089 98.2489C227.413 98.2489 227.708 98.1898 227.972 98.0715C228.236 97.9533 228.46 97.7832 228.643 97.5614C228.826 97.3397 228.957 97.0736 229.034 96.7631H230.281C230.211 97.2658 230.036 97.7185 229.758 98.1214C229.483 98.5206 229.118 98.8385 228.664 99.075C228.214 99.3078 227.689 99.4243 227.089 99.4243ZM233.351 87.8927V99.2468H232.104V87.8927H233.351ZM239.037 99.4243C238.256 99.4243 237.581 99.2432 237.014 98.881C236.451 98.5151 236.016 98.005 235.709 97.3508C235.406 96.693 235.255 95.9279 235.255 95.0556C235.255 94.1833 235.406 93.4146 235.709 92.7493C236.016 92.0803 236.442 91.5592 236.987 91.1859C237.537 90.8088 238.179 90.6204 238.911 90.6204C239.334 90.6204 239.751 90.6943 240.163 90.8422C240.575 90.9899 240.951 91.2302 241.288 91.5629C241.626 91.8918 241.896 92.328 242.097 92.8713C242.298 93.4146 242.398 94.0835 242.398 94.8782V95.4325H236.142V94.3015H241.13C241.13 93.8211 241.039 93.3924 240.856 93.0153C240.676 92.6384 240.419 92.3409 240.084 92.1228C239.753 91.9048 239.362 91.7957 238.911 91.7957C238.415 91.7957 237.984 91.9251 237.622 92.1838C237.263 92.4388 236.986 92.7715 236.792 93.1817C236.598 93.592 236.502 94.0318 236.502 94.5012V95.2552C236.502 95.8983 236.607 96.4434 236.818 96.8907C237.033 97.3342 237.332 97.6724 237.711 97.9052C238.092 98.1344 238.534 98.2489 239.037 98.2489C239.366 98.2489 239.661 98.2008 239.926 98.1048C240.193 98.005 240.424 97.8572 240.618 97.6612C240.811 97.4616 240.961 97.2141 241.066 96.9183L242.272 97.2732C242.145 97.7019 241.931 98.079 241.632 98.4041C241.333 98.7257 240.963 98.977 240.522 99.1582C240.082 99.3355 239.587 99.4243 239.037 99.4243ZM248.481 99.2468V90.7312H249.685V92.0618H249.791C249.96 91.6072 250.232 91.2542 250.609 91.0029C250.987 90.7479 251.439 90.6204 251.968 90.6204C252.503 90.6204 252.949 90.7479 253.305 91.0029C253.664 91.2542 253.943 91.6072 254.144 92.0618H254.229C254.437 91.622 254.749 91.2727 255.165 91.014C255.58 90.7516 256.079 90.6204 256.66 90.6204C257.385 90.6204 257.979 90.8588 258.44 91.3355C258.901 91.8087 259.132 92.546 259.132 93.5476V99.2468H257.885V93.5476C257.885 92.9193 257.722 92.4703 257.394 92.2004C257.066 91.9307 256.68 91.7957 256.237 91.7957C255.666 91.7957 255.224 91.9768 254.911 92.339C254.597 92.6975 254.441 93.1522 254.441 93.7028V99.2468H253.172V93.4146C253.172 92.9304 253.022 92.5404 252.723 92.2448C252.424 91.9454 252.038 91.7957 251.566 91.7957C251.242 91.7957 250.939 91.8863 250.657 92.0674C250.379 92.2485 250.153 92.4998 249.98 92.8213C249.811 93.1392 249.727 93.5069 249.727 93.9246V99.2468H248.481ZM264.71 99.4243C263.976 99.4243 263.334 99.2413 262.781 98.8754C262.231 98.5095 261.802 97.9976 261.492 97.3397C261.185 96.6818 261.032 95.913 261.032 95.0334C261.032 94.1463 261.185 93.3721 261.492 92.7105C261.802 92.0489 262.231 91.5351 262.781 91.1692C263.334 90.8034 263.976 90.6204 264.71 90.6204C265.442 90.6204 266.083 90.8034 266.632 91.1692C267.186 91.5351 267.615 92.0489 267.923 92.7105C268.232 93.3721 268.387 94.1463 268.387 95.0334C268.387 95.913 268.232 96.6818 267.923 97.3397C267.615 97.9976 267.186 98.5095 266.632 98.8754C266.083 99.2413 265.442 99.4243 264.71 99.4243ZM264.71 98.2489C265.266 98.2489 265.724 98.0993 266.083 97.7998C266.442 97.5004 266.709 97.1069 266.881 96.619C267.054 96.1312 267.14 95.6026 267.14 95.0334C267.14 94.4642 267.054 93.9339 266.881 93.4422C266.709 92.9507 266.442 92.5533 266.083 92.2504C265.724 91.9473 265.266 91.7957 264.71 91.7957C264.153 91.7957 263.695 91.9473 263.336 92.2504C262.976 92.5533 262.711 92.9507 262.537 93.4422C262.365 93.9339 262.279 94.4642 262.279 95.0334C262.279 95.6026 262.365 96.1312 262.537 96.619C262.711 97.1069 262.976 97.5004 263.336 97.7998C263.695 98.0993 264.153 98.2489 264.71 98.2489ZM273.356 99.4243C272.679 99.4243 272.081 99.245 271.564 98.8864C271.046 98.5242 270.641 98.0142 270.349 97.3564C270.057 96.6947 269.91 95.913 269.91 95.0112C269.91 94.1168 270.057 93.3406 270.349 92.6827C270.641 92.0249 271.048 91.5166 271.569 91.1581C272.091 90.7997 272.693 90.6204 273.376 90.6204C273.905 90.6204 274.322 90.7128 274.629 90.8976C274.938 91.0787 275.174 91.2857 275.337 91.5185C275.503 91.7477 275.631 91.9361 275.723 92.084H275.828V87.8927H277.076V99.2468H275.87V97.9385H275.723C275.631 98.0937 275.5 98.2896 275.331 98.5261C275.162 98.759 274.921 98.9678 274.608 99.1526C274.294 99.3337 273.877 99.4243 273.356 99.4243ZM273.525 98.2489C274.024 98.2489 274.447 98.1122 274.793 97.8386C275.138 97.5614 275.401 97.1789 275.58 96.6911C275.76 96.1995 275.849 95.6321 275.849 94.989C275.849 94.3533 275.761 93.7971 275.586 93.3203C275.409 92.8398 275.149 92.4665 274.803 92.2004C274.458 91.9307 274.032 91.7957 273.525 91.7957C272.996 91.7957 272.555 91.938 272.204 92.2226C271.855 92.5035 271.592 92.886 271.416 93.3702C271.244 93.8507 271.157 94.3903 271.157 94.989C271.157 95.5952 271.245 96.1459 271.421 96.6412C271.601 97.1328 271.866 97.5245 272.214 97.8165C272.566 98.1048 273.003 98.2489 273.525 98.2489ZM282.935 99.4243C282.153 99.4243 281.479 99.2432 280.911 98.881C280.348 98.5151 279.912 98.005 279.606 97.3508C279.303 96.693 279.151 95.9279 279.151 95.0556C279.151 94.1833 279.303 93.4146 279.606 92.7493C279.912 92.0803 280.338 91.5592 280.885 91.1859C281.434 90.8088 282.075 90.6204 282.808 90.6204C283.23 90.6204 283.648 90.6943 284.06 90.8422C284.473 90.9899 284.848 91.2302 285.186 91.5629C285.524 91.8918 285.794 92.328 285.995 92.8713C286.196 93.4146 286.295 94.0835 286.295 94.8782V95.4325H280.04V94.3015H285.028C285.028 93.8211 284.936 93.3924 284.752 93.0153C284.573 92.6384 284.315 92.3409 283.981 92.1228C283.65 91.9048 283.259 91.7957 282.808 91.7957C282.311 91.7957 281.882 91.9251 281.519 92.1838C281.16 92.4388 280.883 92.7715 280.689 93.1817C280.496 93.592 280.399 94.0318 280.399 94.5012V95.2552C280.399 95.8983 280.504 96.4434 280.716 96.8907C280.93 97.3342 281.228 97.6724 281.608 97.9052C281.989 98.1344 282.431 98.2489 282.935 98.2489C283.262 98.2489 283.559 98.2008 283.822 98.1048C284.09 98.005 284.321 97.8572 284.515 97.6612C284.709 97.4616 284.859 97.2141 284.964 96.9183L286.169 97.2732C286.041 97.7019 285.829 98.079 285.529 98.4041C285.229 98.7257 284.86 98.977 284.42 99.1582C283.98 99.3355 283.484 99.4243 282.935 99.4243ZM289.439 87.8927V99.2468H288.193V87.8927H289.439Z" fill="#9CAAB9"/>
<path d="M32.917 156.424V166.155H31.7938V157.659H31.7394L29.475 159.236V158.039L31.7938 156.424H32.917Z" fill="#2B3354"/>
<path d="M29.6561 212.991V212.135L32.7178 208.619C33.0771 208.207 33.373 207.849 33.6054 207.544C33.838 207.238 34.01 206.949 34.1218 206.68C34.2365 206.408 34.2938 206.123 34.2938 205.825C34.2938 205.483 34.2154 205.186 34.0584 204.936C33.9044 204.686 33.693 204.492 33.4243 204.356C33.1555 204.22 32.8536 204.152 32.5185 204.152C32.1622 204.152 31.8513 204.229 31.5856 204.385C31.3228 204.537 31.119 204.751 30.9741 205.026C30.8321 205.302 30.7612 205.625 30.7612 205.995H29.6924C29.6924 205.426 29.8177 204.925 30.0683 204.495C30.3189 204.063 30.6601 203.727 31.0919 203.486C31.5267 203.246 32.0143 203.125 32.5547 203.125C33.0982 203.125 33.5798 203.246 33.9995 203.486C34.4191 203.727 34.7483 204.052 34.9868 204.461C35.2254 204.869 35.3446 205.324 35.3446 205.825C35.3446 206.183 35.2827 206.533 35.159 206.875C35.0381 207.214 34.8268 207.592 34.5249 208.011C34.2259 208.425 33.8108 208.933 33.2794 209.532L31.196 211.869V211.945H35.5077V212.991H29.6561Z" fill="#2B3354"/>
<path d="M32.7903 259.96C32.1924 259.96 31.6595 259.853 31.1915 259.638C30.7265 259.422 30.3566 259.123 30.0819 258.739C29.8101 258.353 29.6622 257.905 29.6381 257.394H30.7793C30.8035 257.708 30.9061 257.979 31.0873 258.207C31.2685 258.432 31.5055 258.606 31.7983 258.73C32.0912 258.853 32.4158 258.915 32.7721 258.915C33.1706 258.915 33.5239 258.842 33.8319 258.697C34.1399 258.551 34.3814 258.348 34.5566 258.088C34.7317 257.828 34.8193 257.528 34.8193 257.186C34.8193 256.828 34.7347 256.512 34.5656 256.24C34.3965 255.965 34.149 255.748 33.8229 255.593C33.4967 255.438 33.0982 255.36 32.6272 255.36H31.8844V254.315H32.6272C32.9956 254.315 33.3186 254.245 33.5964 254.106C33.8772 253.966 34.0961 253.77 34.2531 253.517C34.4132 253.264 34.4931 252.966 34.4931 252.624C34.4931 252.294 34.4237 252.007 34.2848 251.763C34.1459 251.52 33.9497 251.329 33.696 251.193C33.4455 251.057 33.1495 250.989 32.8083 250.989C32.4883 250.989 32.1864 251.05 31.9025 251.174C31.6217 251.294 31.3922 251.471 31.2141 251.701C31.036 251.93 30.9394 252.205 30.9243 252.529H29.8373C29.8554 252.018 30.0019 251.572 30.2766 251.188C30.5513 250.801 30.9107 250.5 31.3545 250.285C31.8014 250.07 32.292 249.962 32.8265 249.962C33.4001 249.962 33.8923 250.084 34.303 250.329C34.7135 250.568 35.0291 250.887 35.2495 251.283C35.4699 251.679 35.5801 252.107 35.5801 252.567C35.5801 253.114 35.4427 253.582 35.168 253.968C34.8962 254.354 34.5264 254.622 34.0584 254.771V254.847C34.6441 254.949 35.1016 255.21 35.4306 255.631C35.7598 256.049 35.9243 256.568 35.9243 257.186C35.9243 257.714 35.787 258.189 35.5122 258.611C35.2405 259.029 34.869 259.359 34.3981 259.599C33.927 259.84 33.3911 259.96 32.7903 259.96Z" fill="#2B3354"/>
<path d="M57.8146 156.424H58.9378V163.38C58.9378 164.001 58.8292 164.528 58.6117 164.962C58.3944 165.397 58.0879 165.726 57.6924 165.951C57.2968 166.176 56.8303 166.288 56.2929 166.288C55.7856 166.288 55.3342 166.192 54.9387 165.998C54.5432 165.802 54.2322 165.523 54.0057 165.162C53.7793 164.802 53.666 164.372 53.666 163.875H54.7711C54.7711 164.15 54.8361 164.391 54.9658 164.596C55.0987 164.799 55.2799 164.958 55.5094 165.072C55.7388 165.186 56 165.243 56.2929 165.243C56.616 165.243 56.8907 165.172 57.1172 165.029C57.3436 164.886 57.5157 164.678 57.6335 164.402C57.7542 164.124 57.8146 163.782 57.8146 163.38V156.424ZM63.0909 166.326C62.6501 166.326 62.25 166.239 61.8908 166.065C61.5315 165.888 61.2461 165.632 61.0348 165.3C60.8234 164.964 60.7178 164.559 60.7178 164.084C60.7178 163.665 60.7962 163.326 60.9533 163.067C61.1103 162.803 61.3201 162.598 61.5828 162.449C61.8454 162.3 62.1354 162.189 62.4524 162.116C62.7724 162.041 63.094 161.98 63.417 161.936C63.8398 161.879 64.1825 161.835 64.4452 161.808C64.7109 161.775 64.9041 161.724 65.0248 161.65C65.1487 161.578 65.2105 161.451 65.2105 161.27V161.232C65.2105 160.764 65.0883 160.399 64.8437 160.139C64.6022 159.879 64.2353 159.75 63.7432 159.75C63.2328 159.75 62.8328 159.867 62.543 160.101C62.2531 160.336 62.0493 160.586 61.9315 160.852L60.9171 160.472C61.0982 160.029 61.3397 159.683 61.6417 159.436C61.9466 159.186 62.2787 159.012 62.6381 158.914C63.0004 158.812 63.3566 158.761 63.707 158.761C63.9304 158.761 64.187 158.79 64.4769 158.847C64.7698 158.9 65.052 159.013 65.3238 159.185C65.5985 159.355 65.8265 159.614 66.0076 159.959C66.1888 160.304 66.2794 160.767 66.2794 161.347V166.155H65.2105V165.167H65.1562C65.0837 165.326 64.963 165.495 64.7939 165.676C64.6248 165.857 64.3999 166.009 64.119 166.136C63.8382 166.264 63.4956 166.326 63.0909 166.326ZM63.254 165.319C63.6768 165.319 64.033 165.232 64.3229 165.058C64.6158 164.883 64.8362 164.659 64.9841 164.383C65.1351 164.107 65.2105 163.817 65.2105 163.514V162.487C65.1652 162.544 65.0657 162.596 64.9116 162.644C64.7606 162.688 64.5856 162.728 64.3863 162.762C64.19 162.794 63.9983 162.822 63.8111 162.848C63.6269 162.87 63.4775 162.889 63.3627 162.905C63.0849 162.943 62.8252 163.005 62.5837 163.09C62.3452 163.172 62.1519 163.297 62.004 163.466C61.859 163.631 61.7866 163.855 61.7866 164.14C61.7866 164.531 61.924 164.825 62.1987 165.025C62.4765 165.221 62.8283 165.319 63.254 165.319ZM68.2303 168.893V158.857H69.2629V160.016H69.3897C69.4683 159.89 69.5769 159.728 69.7158 159.532C69.8577 159.332 70.06 159.155 70.3226 158.999C70.5884 158.84 70.9477 158.761 71.4007 158.761C71.9864 158.761 72.5027 158.915 72.9495 159.223C73.3964 159.529 73.7451 159.965 73.9957 160.53C74.2463 161.093 74.3716 161.758 74.3716 162.525C74.3716 163.298 74.2463 163.968 73.9957 164.535C73.7451 165.099 73.3979 165.537 72.9541 165.847C72.5102 166.154 71.9985 166.307 71.4187 166.307C70.9718 166.307 70.6141 166.23 70.3454 166.075C70.0766 165.917 69.8698 165.737 69.7248 165.538C69.58 165.335 69.4683 165.167 69.3897 165.034H69.2992V168.893H68.2303ZM69.281 162.506C69.281 163.058 69.358 163.544 69.512 163.965C69.666 164.383 69.8909 164.711 70.1868 164.949C70.4827 165.183 70.845 165.3 71.2738 165.3C71.7207 165.3 72.0935 165.176 72.3925 164.93C72.6944 164.679 72.9209 164.343 73.0718 163.922C73.2258 163.497 73.3028 163.025 73.3028 162.506C73.3028 161.993 73.2273 161.53 73.0764 161.118C72.9285 160.704 72.7035 160.376 72.4015 160.135C72.1026 159.891 71.7267 159.769 71.2738 159.769C70.839 159.769 70.4737 159.884 70.1778 160.116C69.8819 160.343 69.6584 160.663 69.5075 161.076C69.3566 161.484 69.281 161.961 69.281 162.506ZM78.0492 166.326C77.6085 166.326 77.2083 166.239 76.8491 166.065C76.4897 165.888 76.2044 165.632 75.9931 165.3C75.7817 164.964 75.676 164.559 75.676 164.084C75.676 163.665 75.7545 163.326 75.9116 163.067C76.0685 162.803 76.2783 162.598 76.5411 162.449C76.8038 162.3 77.0936 162.189 77.4107 162.116C77.7307 162.041 78.0523 161.98 78.3754 161.936C78.7981 161.879 79.1407 161.835 79.4034 161.808C79.6691 161.775 79.8624 161.724 79.9831 161.65C80.1069 161.578 80.1689 161.451 80.1689 161.27V161.232C80.1689 160.764 80.0466 160.399 79.802 160.139C79.5604 159.879 79.1935 159.75 78.7015 159.75C78.1912 159.75 77.791 159.867 77.5012 160.101C77.2114 160.336 77.0075 160.586 76.8898 160.852L75.8753 160.472C76.0564 160.029 76.298 159.683 76.5999 159.436C76.9049 159.186 77.237 159.012 77.5963 158.914C77.9587 158.812 78.3149 158.761 78.6652 158.761C78.8886 158.761 79.1453 158.79 79.4351 158.847C79.728 158.9 80.0103 159.013 80.2821 159.185C80.5568 159.355 80.7848 159.614 80.966 159.959C81.1471 160.304 81.2376 160.767 81.2376 161.347V166.155H80.1689V165.167H80.1145C80.042 165.326 79.9212 165.495 79.7521 165.676C79.5831 165.857 79.3582 166.009 79.0774 166.136C78.7966 166.264 78.4538 166.326 78.0492 166.326ZM78.2122 165.319C78.635 165.319 78.9913 165.232 79.2811 165.058C79.574 164.883 79.7944 164.659 79.9424 164.383C80.0933 164.107 80.1689 163.817 80.1689 163.514V162.487C80.1235 162.544 80.0239 162.596 79.8699 162.644C79.719 162.688 79.5438 162.728 79.3446 162.762C79.1483 162.794 78.9565 162.822 78.7694 162.848C78.5852 162.87 78.4357 162.889 78.321 162.905C78.0433 162.943 77.7835 163.005 77.542 163.09C77.3034 163.172 77.1102 163.297 76.9623 163.466C76.8173 163.631 76.7449 163.855 76.7449 164.14C76.7449 164.531 76.8822 164.825 77.157 165.025C77.4348 165.221 77.7866 165.319 78.2122 165.319ZM84.2574 161.764V166.155H83.1885V158.857H84.2212V159.997H84.3117C84.4748 159.626 84.7224 159.329 85.0545 159.103C85.3867 158.876 85.8154 158.761 86.3407 158.761C86.8118 158.761 87.2239 158.862 87.5772 159.065C87.9305 159.265 88.2052 159.569 88.4014 159.978C88.5977 160.384 88.6958 160.896 88.6958 161.518V166.155H87.6271V161.593C87.6271 161.02 87.4851 160.573 87.2013 160.253C86.9174 159.931 86.528 159.769 86.0328 159.769C85.6916 159.769 85.3867 159.846 85.118 160.002C84.8523 160.157 84.6424 160.384 84.4884 160.681C84.3344 160.979 84.2574 161.34 84.2574 161.764Z" fill="#2B3354"/>
<path d="M257.647 164.015C257.294 164.015 256.975 163.94 256.691 163.793C256.407 163.645 256.18 163.442 256.009 163.184C255.838 162.926 255.744 162.633 255.728 162.303H256.452C256.48 162.597 256.607 162.841 256.832 163.032C257.06 163.222 257.332 163.318 257.647 163.318C257.901 163.318 258.127 163.255 258.324 163.13C258.523 163.006 258.679 162.835 258.792 162.617C258.907 162.398 258.964 162.149 258.964 161.873C258.964 161.589 258.905 161.337 258.786 161.115C258.67 160.891 258.508 160.715 258.303 160.587C258.098 160.457 257.863 160.392 257.6 160.391C257.41 160.388 257.216 160.418 257.017 160.482C256.817 160.543 256.654 160.622 256.525 160.72L255.825 160.63L256.199 157.438H259.412V158.135H256.827L256.609 160.048H256.645C256.773 159.942 256.931 159.854 257.122 159.785C257.314 159.715 257.514 159.68 257.721 159.68C258.099 159.68 258.436 159.775 258.732 159.966C259.03 160.153 259.263 160.411 259.432 160.738C259.603 161.066 259.689 161.44 259.689 161.86C259.689 162.274 259.601 162.643 259.423 162.969C259.248 163.292 259.007 163.547 258.699 163.736C258.39 163.921 258.041 164.015 257.647 164.015ZM262.869 164.015C262.455 164.015 262.088 163.937 261.77 163.783C261.454 163.627 261.208 163.413 261.03 163.139C260.853 162.865 260.766 162.553 260.768 162.203C260.766 161.927 260.817 161.674 260.922 161.442C261.026 161.207 261.17 161.012 261.35 160.856C261.533 160.697 261.738 160.597 261.964 160.554V160.517C261.667 160.436 261.432 160.262 261.257 159.994C261.081 159.724 260.995 159.416 260.997 159.072C260.995 158.742 261.075 158.448 261.236 158.188C261.397 157.928 261.618 157.723 261.9 157.574C262.184 157.424 262.507 157.348 262.869 157.348C263.227 157.348 263.547 157.424 263.83 157.574C264.112 157.723 264.333 157.928 264.494 158.188C264.657 158.448 264.74 158.742 264.741 159.072C264.74 159.416 264.649 159.724 264.473 159.994C264.297 160.262 264.065 160.436 263.775 160.517V160.554C263.999 160.597 264.2 160.697 264.379 160.856C264.558 161.012 264.701 161.207 264.808 161.442C264.914 161.674 264.968 161.927 264.97 162.203C264.968 162.553 264.878 162.865 264.699 163.139C264.522 163.413 264.275 163.627 263.96 163.783C263.645 163.937 263.281 164.015 262.869 164.015ZM262.869 163.318C263.149 163.318 263.391 163.27 263.594 163.175C263.797 163.079 263.954 162.945 264.065 162.772C264.175 162.6 264.232 162.397 264.234 162.164C264.232 161.919 264.171 161.703 264.053 161.515C263.934 161.327 263.772 161.179 263.566 161.071C263.363 160.964 263.131 160.909 262.869 160.909C262.605 160.909 262.37 160.964 262.162 161.071C261.957 161.179 261.796 161.327 261.677 161.515C261.56 161.703 261.502 161.919 261.504 162.164C261.502 162.397 261.555 162.6 261.665 162.772C261.775 162.945 261.933 163.079 262.139 163.175C262.344 163.27 262.587 163.318 262.869 163.318ZM262.869 160.238C263.09 160.238 263.287 160.192 263.458 160.098C263.631 160.006 263.767 159.875 263.866 159.709C263.964 159.542 264.015 159.347 264.017 159.123C264.015 158.903 263.965 158.712 263.868 158.549C263.772 158.384 263.639 158.258 263.467 158.169C263.296 158.079 263.097 158.033 262.869 158.033C262.637 158.033 262.435 158.079 262.262 158.169C262.089 158.258 261.955 158.384 261.86 158.549C261.766 158.712 261.72 158.903 261.722 159.123C261.72 159.347 261.767 159.542 261.864 159.709C261.962 159.875 262.099 160.006 262.272 160.098C262.444 160.192 262.644 160.238 262.869 160.238ZM269.28 162.709V162.367C269.28 162.13 269.327 161.914 269.419 161.718C269.514 161.519 269.651 161.361 269.829 161.242C270.011 161.122 270.23 161.062 270.487 161.062C270.75 161.062 270.969 161.122 271.146 161.242C271.323 161.361 271.457 161.519 271.548 161.718C271.638 161.914 271.683 162.13 271.683 162.367V162.709C271.683 162.945 271.637 163.163 271.545 163.361C271.454 163.558 271.32 163.716 271.14 163.836C270.962 163.956 270.746 164.015 270.487 164.015C270.226 164.015 270.006 163.956 269.826 163.836C269.648 163.716 269.512 163.558 269.419 163.361C269.327 163.163 269.28 162.945 269.28 162.709ZM269.896 162.367V162.709C269.896 162.905 269.94 163.081 270.029 163.239C270.117 163.392 270.271 163.469 270.487 163.469C270.699 163.469 270.848 163.392 270.935 163.239C271.023 163.081 271.068 162.905 271.068 162.709V162.367C271.068 162.17 271.025 161.995 270.941 161.841C270.856 161.685 270.705 161.606 270.487 161.606C270.277 161.606 270.125 161.685 270.031 161.841C269.941 161.995 269.896 162.17 269.896 162.367ZM266.2 158.997V158.654C266.2 158.418 266.247 158.2 266.339 158.004C266.434 157.806 266.571 157.647 266.749 157.529C266.931 157.409 267.15 157.348 267.408 157.348C267.67 157.348 267.889 157.409 268.066 157.529C268.244 157.647 268.378 157.806 268.468 158.004C268.558 158.2 268.604 158.418 268.604 158.654V158.997C268.604 159.233 268.557 159.45 268.465 159.649C268.374 159.845 268.239 160.004 268.06 160.124C267.883 160.242 267.666 160.301 267.408 160.301C267.146 160.301 266.926 160.242 266.747 160.124C266.568 160.004 266.432 159.845 266.339 159.649C266.247 159.45 266.2 159.233 266.2 158.997ZM266.816 158.654V158.997C266.816 159.193 266.861 159.369 266.949 159.525C267.037 159.679 267.19 159.756 267.408 159.756C267.62 159.756 267.769 159.679 267.855 159.525C267.943 159.369 267.988 159.193 267.988 158.997V158.654C267.988 158.458 267.945 158.282 267.861 158.128C267.776 157.972 267.625 157.894 267.408 157.894C267.197 157.894 267.045 157.972 266.952 158.128C266.861 158.282 266.816 158.458 266.816 158.654ZM266.43 163.926L270.681 157.438H271.369L267.118 163.926H266.43Z" fill="#2B3354"/>
<path d="M255.715 210.761V210.191L257.757 207.846C257.996 207.572 258.194 207.333 258.349 207.13C258.503 206.926 258.618 206.733 258.692 206.554C258.769 206.372 258.807 206.182 258.807 205.984C258.807 205.755 258.755 205.558 258.651 205.392C258.548 205.224 258.406 205.096 258.228 205.005C258.048 204.914 257.847 204.869 257.624 204.869C257.386 204.869 257.179 204.92 257.001 205.024C256.827 205.125 256.691 205.268 256.594 205.452C256.5 205.635 256.452 205.851 256.452 206.097H255.74C255.74 205.717 255.824 205.384 255.99 205.096C256.157 204.809 256.385 204.585 256.673 204.425C256.963 204.264 257.287 204.184 257.647 204.184C258.01 204.184 258.331 204.264 258.611 204.425C258.891 204.585 259.11 204.802 259.269 205.075C259.429 205.347 259.507 205.65 259.507 205.984C259.507 206.222 259.467 206.455 259.384 206.684C259.303 206.909 259.163 207.162 258.961 207.441C258.762 207.718 258.485 208.056 258.131 208.455L256.742 210.014V210.064H259.617V210.761H255.715ZM262.953 210.85C262.554 210.85 262.199 210.778 261.887 210.634C261.577 210.491 261.33 210.291 261.147 210.035C260.967 209.777 260.868 209.479 260.852 209.138H261.613C261.629 209.348 261.697 209.529 261.818 209.68C261.938 209.831 262.096 209.947 262.292 210.029C262.486 210.112 262.703 210.153 262.941 210.153C263.207 210.153 263.442 210.104 263.647 210.007C263.853 209.91 264.014 209.775 264.131 209.601C264.247 209.428 264.306 209.228 264.306 208.999C264.306 208.76 264.25 208.551 264.137 208.369C264.024 208.185 263.858 208.042 263.642 207.938C263.424 207.835 263.158 207.783 262.845 207.783H262.349V207.087H262.845C263.09 207.087 263.305 207.04 263.491 206.947C263.678 206.853 263.823 206.723 263.929 206.554C264.035 206.385 264.088 206.187 264.088 205.958C264.088 205.738 264.042 205.548 263.949 205.385C263.856 205.222 263.726 205.096 263.557 205.005C263.39 204.914 263.192 204.869 262.965 204.869C262.752 204.869 262.55 204.91 262.361 204.992C262.174 205.073 262.021 205.19 261.902 205.344C261.784 205.495 261.719 205.679 261.708 205.894H260.985C260.996 205.554 261.094 205.257 261.277 205.001C261.461 204.744 261.7 204.543 261.995 204.399C262.294 204.256 262.62 204.184 262.977 204.184C263.36 204.184 263.687 204.265 263.962 204.428C264.235 204.589 264.445 204.801 264.593 205.065C264.74 205.329 264.813 205.613 264.813 205.92C264.813 206.286 264.721 206.597 264.538 206.855C264.357 207.112 264.11 207.291 263.798 207.39V207.441C264.189 207.508 264.494 207.683 264.713 207.963C264.933 208.242 265.042 208.588 265.042 208.999C265.042 209.352 264.951 209.669 264.767 209.95C264.587 210.229 264.339 210.449 264.024 210.609C263.711 210.77 263.354 210.85 262.953 210.85ZM269.43 209.544V209.202C269.43 208.966 269.475 208.749 269.568 208.553C269.663 208.354 269.8 208.196 269.979 208.078C270.16 207.957 270.38 207.897 270.637 207.897C270.899 207.897 271.119 207.957 271.295 208.078C271.472 208.196 271.606 208.354 271.697 208.553C271.787 208.749 271.833 208.966 271.833 209.202V209.544C271.833 209.781 271.786 209.998 271.694 210.197C271.603 210.393 271.468 210.551 271.29 210.672C271.112 210.791 270.894 210.85 270.637 210.85C270.376 210.85 270.155 210.791 269.976 210.672C269.796 210.551 269.66 210.393 269.568 210.197C269.475 209.998 269.43 209.781 269.43 209.544ZM270.045 209.202V209.544C270.045 209.741 270.09 209.917 270.178 210.074C270.267 210.228 270.42 210.305 270.637 210.305C270.849 210.305 270.997 210.228 271.083 210.074C271.173 209.917 271.217 209.741 271.217 209.544V209.202C271.217 209.006 271.175 208.831 271.09 208.677C271.006 208.521 270.855 208.441 270.637 208.441C270.426 208.441 270.274 208.521 270.181 208.677C270.091 208.831 270.045 209.006 270.045 209.202ZM266.35 205.832V205.49C266.35 205.253 266.396 205.036 266.489 204.84C266.584 204.641 266.72 204.483 266.899 204.364C267.08 204.244 267.3 204.184 267.557 204.184C267.82 204.184 268.039 204.244 268.216 204.364C268.392 204.483 268.526 204.641 268.617 204.84C268.708 205.036 268.753 205.253 268.753 205.49V205.832C268.753 206.068 268.707 206.286 268.615 206.484C268.523 206.681 268.389 206.839 268.21 206.959C268.032 207.078 267.815 207.137 267.557 207.137C267.296 207.137 267.076 207.078 266.896 206.959C266.717 206.839 266.581 206.681 266.489 206.484C266.396 206.286 266.35 206.068 266.35 205.832ZM266.966 205.49V205.832C266.966 206.028 267.01 206.204 267.098 206.361C267.187 206.514 267.34 206.591 267.557 206.591C267.769 206.591 267.917 206.514 268.005 206.361C268.093 206.204 268.137 206.028 268.137 205.832V205.49C268.137 205.293 268.095 205.117 268.01 204.963C267.926 204.807 267.775 204.729 267.557 204.729C267.346 204.729 267.194 204.807 267.101 204.963C267.011 205.117 266.966 205.293 266.966 205.49ZM266.579 210.761L270.831 204.273H271.519L267.268 210.761H266.579Z" fill="#2B3354"/>
<path d="M257.89 251.109V257.597H257.141V251.932H257.104L255.595 252.985V252.186L257.141 251.109H257.89ZM261.636 251.02C261.89 251.022 262.144 251.073 262.397 251.173C262.651 251.272 262.883 251.436 263.092 251.667C263.302 251.894 263.47 252.206 263.596 252.601C263.723 252.996 263.786 253.491 263.786 254.087C263.786 254.663 263.734 255.176 263.629 255.623C263.527 256.069 263.378 256.445 263.183 256.751C262.989 257.057 262.753 257.289 262.476 257.448C262.201 257.607 261.888 257.686 261.54 257.686C261.194 257.686 260.885 257.614 260.613 257.47C260.343 257.325 260.122 257.123 259.949 256.865C259.777 256.606 259.668 256.305 259.62 255.962H260.357C260.423 256.26 260.554 256.506 260.752 256.7C260.951 256.892 261.214 256.989 261.54 256.989C262.017 256.989 262.393 256.771 262.669 256.332C262.947 255.895 263.086 255.278 263.086 254.48H263.037C262.924 254.658 262.79 254.81 262.636 254.939C262.481 255.068 262.309 255.167 262.12 255.237C261.931 255.307 261.729 255.341 261.516 255.341C261.161 255.341 260.836 255.25 260.54 255.066C260.247 254.879 260.011 254.625 259.834 254.302C259.658 253.977 259.571 253.605 259.571 253.187C259.571 252.79 259.656 252.427 259.825 252.097C259.996 251.766 260.235 251.502 260.544 251.305C260.854 251.109 261.218 251.014 261.636 251.02ZM261.636 251.717C261.383 251.717 261.155 251.784 260.951 251.917C260.75 252.048 260.589 252.225 260.471 252.45C260.354 252.67 260.296 252.917 260.296 253.187C260.296 253.458 260.352 253.704 260.465 253.925C260.58 254.145 260.736 254.321 260.933 254.451C261.132 254.581 261.359 254.644 261.613 254.644C261.803 254.644 261.982 254.605 262.146 254.527C262.312 254.447 262.456 254.339 262.579 254.201C262.703 254.062 262.801 253.904 262.871 253.729C262.942 253.551 262.978 253.366 262.978 253.174C262.978 252.921 262.919 252.684 262.802 252.462C262.687 252.24 262.528 252.06 262.325 251.923C262.124 251.786 261.895 251.717 261.636 251.717ZM268.126 256.38V256.038C268.126 255.802 268.173 255.585 268.265 255.389C268.36 255.191 268.497 255.032 268.675 254.914C268.857 254.794 269.076 254.733 269.333 254.733C269.596 254.733 269.815 254.794 269.992 254.914C270.169 255.032 270.302 255.191 270.394 255.389C270.484 255.585 270.529 255.802 270.529 256.038V256.38C270.529 256.617 270.483 256.834 270.391 257.033C270.3 257.229 270.165 257.387 269.986 257.508C269.808 257.627 269.591 257.686 269.333 257.686C269.072 257.686 268.852 257.627 268.672 257.508C268.494 257.387 268.357 257.229 268.265 257.033C268.173 256.834 268.126 256.617 268.126 256.38ZM268.742 256.038V256.38C268.742 256.577 268.786 256.753 268.875 256.91C268.963 257.064 269.116 257.141 269.333 257.141C269.545 257.141 269.693 257.064 269.781 256.91C269.869 256.753 269.913 256.577 269.913 256.38V256.038C269.913 255.842 269.871 255.667 269.787 255.513C269.702 255.357 269.551 255.278 269.333 255.278C269.123 255.278 268.971 255.357 268.878 255.513C268.787 255.667 268.742 255.842 268.742 256.038ZM265.046 252.668V252.326C265.046 252.089 265.093 251.872 265.185 251.676C265.28 251.477 265.417 251.319 265.595 251.201C265.777 251.08 265.996 251.02 266.254 251.02C266.516 251.02 266.735 251.08 266.912 251.201C267.09 251.319 267.223 251.477 267.314 251.676C267.404 251.872 267.45 252.089 267.45 252.326V252.668C267.45 252.905 267.403 253.122 267.311 253.32C267.22 253.517 267.085 253.675 266.906 253.796C266.729 253.914 266.511 253.973 266.254 253.973C265.993 253.973 265.772 253.914 265.593 253.796C265.413 253.675 265.277 253.517 265.185 253.32C265.093 253.122 265.046 252.905 265.046 252.668ZM265.662 252.326V252.668C265.662 252.864 265.707 253.041 265.795 253.197C265.883 253.351 266.036 253.428 266.254 253.428C266.466 253.428 266.614 253.351 266.701 253.197C266.79 253.041 266.833 252.864 266.833 252.668V252.326C266.833 252.129 266.791 251.953 266.707 251.799C266.622 251.643 266.471 251.565 266.254 251.565C266.043 251.565 265.891 251.643 265.798 251.799C265.708 251.953 265.662 252.129 265.662 252.326ZM265.275 257.597L269.527 251.109H270.215L265.964 257.597H265.275Z" fill="#2B3354"/>
<path d="M55.3871 203.259V212.991H54.2639V203.259H55.3871ZM60.5196 205.693V206.643H56.9146V205.693H60.5196ZM57.9653 203.943H59.0341V210.9C59.0341 211.217 59.0779 211.455 59.1655 211.613C59.2561 211.768 59.3708 211.873 59.5096 211.926C59.6516 211.978 59.8011 212.003 59.958 212.003C60.0758 212.003 60.1724 211.997 60.2479 211.984C60.3234 211.968 60.3838 211.955 60.4291 211.945L60.6464 212.953C60.5741 212.981 60.4729 213.01 60.343 213.039C60.2132 213.07 60.0486 213.086 59.8493 213.086C59.5475 213.086 59.2515 213.018 58.9617 212.882C58.6748 212.746 58.4363 212.538 58.2461 212.26C58.0589 211.981 57.9653 211.629 57.9653 211.205V203.943ZM64.1745 213.162C63.7338 213.162 63.3338 213.075 62.9744 212.901C62.6151 212.724 62.3298 212.468 62.1184 212.136C61.907 211.8 61.8014 211.394 61.8014 210.919C61.8014 210.501 61.8799 210.162 62.0369 209.902C62.1939 209.639 62.4038 209.434 62.6664 209.284C62.9291 209.136 63.219 209.025 63.536 208.952C63.856 208.876 64.1776 208.816 64.5007 208.772C64.9234 208.715 65.2661 208.671 65.5288 208.643C65.7945 208.611 65.9877 208.56 66.1084 208.486C66.2323 208.414 66.2942 208.286 66.2942 208.106V208.068C66.2942 207.6 66.1719 207.235 65.9273 206.975C65.6858 206.715 65.319 206.586 64.8268 206.586C64.3165 206.586 63.9164 206.703 63.6266 206.937C63.3367 207.171 63.1329 207.422 63.0151 207.688L62.0007 207.307C62.1818 206.865 62.4234 206.519 62.7253 206.271C63.0302 206.022 63.3623 205.848 63.7217 205.75C64.084 205.648 64.4403 205.597 64.7906 205.597C65.014 205.597 65.2706 205.626 65.5605 205.683C65.8534 205.736 66.1357 205.849 66.4074 206.02C66.6822 206.191 66.9101 206.45 67.0913 206.794C67.2724 207.14 67.363 207.603 67.363 208.183V212.991H66.2942V212.003H66.2398C66.1673 212.162 66.0466 212.331 65.8775 212.512C65.7084 212.692 65.4835 212.845 65.2027 212.972C64.9219 213.099 64.5792 213.162 64.1745 213.162ZM64.3377 212.155C64.7604 212.155 65.1166 212.068 65.4065 211.894C65.6994 211.719 65.9198 211.495 66.0677 211.219C66.2187 210.943 66.2942 210.653 66.2942 210.349V209.322C66.2489 209.379 66.1493 209.432 65.9953 209.48C65.8443 209.524 65.6692 209.563 65.4699 209.598C65.2736 209.63 65.0819 209.658 64.8947 209.684C64.7105 209.706 64.5611 209.725 64.4463 209.741C64.1686 209.779 63.9088 209.841 63.6674 209.926C63.4288 210.008 63.2356 210.133 63.0876 210.301C62.9427 210.467 62.8703 210.691 62.8703 210.976C62.8703 211.366 63.0076 211.661 63.2824 211.86C63.5601 212.057 63.9119 212.155 64.3377 212.155ZM70.3828 203.259V212.991H69.3139V203.259H70.3828ZM73.0289 215.729C72.8477 215.729 72.6862 215.712 72.5442 215.681C72.4023 215.652 72.3042 215.624 72.2499 215.595L72.5216 214.607C72.7813 214.676 73.0108 214.702 73.2101 214.683C73.4093 214.664 73.586 214.57 73.7399 214.403C73.897 214.238 74.0403 213.97 74.1702 213.599L74.3695 213.029L71.7969 205.693H72.9564L74.8767 211.508H74.9491L76.8694 205.693H78.029L75.0759 214.056C74.9431 214.433 74.7786 214.744 74.5824 214.992C74.3861 215.242 74.1581 215.428 73.8984 215.548C73.6418 215.669 73.3519 215.729 73.0289 215.729Z" fill="#2B3354"/>
<path d="M61.7277 253.136H60.6046C60.5381 252.797 60.422 252.499 60.2559 252.243C60.0928 251.986 59.8935 251.771 59.658 251.596C59.4256 251.419 59.1674 251.286 58.8836 251.197C58.5998 251.109 58.3039 251.064 57.9959 251.064C57.4343 251.064 56.9255 251.214 56.4696 251.511C56.0167 251.809 55.6559 252.247 55.3871 252.827C55.1214 253.407 54.9886 254.119 54.9886 254.961C54.9886 255.804 55.1214 256.515 55.3871 257.095C55.6559 257.675 56.0167 258.113 56.4696 258.411C56.9255 258.709 57.4343 258.858 57.9959 258.858C58.3039 258.858 58.5998 258.813 58.8836 258.724C59.1674 258.636 59.4256 258.504 59.658 258.33C59.8935 258.153 60.0928 257.936 60.2559 257.679C60.422 257.419 60.5381 257.122 60.6046 256.786H61.7277C61.6433 257.283 61.4893 257.728 61.2659 258.121C61.0424 258.513 60.7646 258.848 60.4325 259.123C60.1004 259.397 59.7274 259.604 59.3138 259.747C58.9032 259.888 58.4638 259.96 57.9959 259.96C57.2048 259.96 56.5013 259.758 55.8854 259.352C55.2693 258.946 54.7848 258.37 54.4315 257.622C54.0783 256.874 53.9016 255.988 53.9016 254.961C53.9016 253.935 54.0783 253.047 54.4315 252.3C54.7848 251.553 55.2693 250.975 55.8854 250.57C56.5013 250.164 57.2048 249.961 57.9959 249.961C58.4638 249.961 58.9032 250.033 59.3138 250.175C59.7274 250.318 60.1004 250.528 60.4325 250.803C60.7646 251.075 61.0424 251.408 61.2659 251.801C61.4893 252.191 61.6433 252.635 61.7277 253.136ZM66.224 259.979C65.596 259.979 65.0449 259.823 64.5709 259.508C64.0998 259.195 63.7315 258.756 63.4658 258.192C63.2031 257.628 63.0718 256.969 63.0718 256.215C63.0718 255.456 63.2031 254.791 63.4658 254.225C63.7315 253.657 64.0998 253.216 64.5709 252.903C65.0449 252.59 65.596 252.433 66.224 252.433C66.852 252.433 67.4016 252.59 67.8726 252.903C68.3466 253.216 68.715 253.657 68.9776 254.225C69.2433 254.791 69.3762 255.456 69.3762 256.215C69.3762 256.969 69.2433 257.628 68.9776 258.192C68.715 258.756 68.3466 259.195 67.8726 259.508C67.4016 259.823 66.852 259.979 66.224 259.979ZM66.224 258.972C66.7011 258.972 67.0936 258.843 67.4016 258.587C67.7095 258.33 67.9375 257.993 68.0854 257.574C68.2333 257.156 68.3073 256.704 68.3073 256.215C68.3073 255.728 68.2333 255.273 68.0854 254.851C67.9375 254.431 67.7095 254.09 67.4016 253.83C67.0936 253.57 66.7011 253.441 66.224 253.441C65.747 253.441 65.3544 253.57 65.0465 253.83C64.7385 254.09 64.5105 254.431 64.3626 254.851C64.2146 255.273 64.1407 255.728 64.1407 256.215C64.1407 256.704 64.2146 257.156 64.3626 257.574C64.5105 257.993 64.7385 258.33 65.0465 258.587C65.3544 258.843 65.747 258.972 66.224 258.972ZM72.0767 250.095V259.827H71.0078V250.095H72.0767ZM76.8604 259.979C76.2324 259.979 75.6814 259.823 75.2073 259.508C74.7363 259.195 74.368 258.756 74.1023 258.192C73.8396 257.628 73.7082 256.969 73.7082 256.215C73.7082 255.456 73.8396 254.791 74.1023 254.225C74.368 253.657 74.7363 253.216 75.2073 252.903C75.6814 252.59 76.2324 252.433 76.8604 252.433C77.4884 252.433 78.038 252.59 78.5091 252.903C78.9831 253.216 79.3514 253.657 79.6141 254.225C79.8798 254.791 80.0126 255.456 80.0126 256.215C80.0126 256.969 79.8798 257.628 79.6141 258.192C79.3514 258.756 78.9831 259.195 78.5091 259.508C78.038 259.823 77.4884 259.979 76.8604 259.979ZM76.8604 258.972C77.3375 258.972 77.73 258.843 78.038 258.587C78.346 258.33 78.5739 257.993 78.7218 257.574C78.8699 257.156 78.9438 256.704 78.9438 256.215C78.9438 255.728 78.8699 255.273 78.7218 254.851C78.5739 254.431 78.346 254.09 78.038 253.83C77.73 253.57 77.3375 253.441 76.8604 253.441C76.3834 253.441 75.9908 253.57 75.6829 253.83C75.3749 254.09 75.1469 254.431 74.999 254.851C74.8511 255.273 74.7771 255.728 74.7771 256.215C74.7771 256.704 74.8511 257.156 74.999 257.574C75.1469 257.993 75.3749 258.33 75.6829 258.587C75.9908 258.843 76.3834 258.972 76.8604 258.972ZM81.6442 259.827V252.528H82.6769V253.668H82.7674C82.9124 253.279 83.1463 252.977 83.4694 252.76C83.7925 252.542 84.1805 252.433 84.6334 252.433C85.0923 252.433 85.4743 252.542 85.7792 252.76C86.0872 252.977 86.3272 253.279 86.4994 253.668H86.5719C86.75 253.291 87.0172 252.992 87.3735 252.77C87.7297 252.545 88.157 252.433 88.6552 252.433C89.2772 252.433 89.7859 252.638 90.1815 253.046C90.577 253.452 90.7748 254.083 90.7748 254.942V259.827H89.7059V254.942C89.7059 254.403 89.5655 254.018 89.2847 253.787C89.0039 253.555 88.6733 253.441 88.2929 253.441C87.8037 253.441 87.4248 253.596 87.1561 253.906C86.8873 254.213 86.753 254.603 86.753 255.075V259.827H85.666V254.828C85.666 254.413 85.5377 254.078 85.2811 253.825C85.0244 253.569 84.6938 253.441 84.2892 253.441C84.0115 253.441 83.7517 253.518 83.5102 253.674C83.2716 253.829 83.0784 254.044 82.9305 254.319C82.7856 254.591 82.7131 254.907 82.7131 255.265V259.827H81.6442ZM92.8739 259.827V250.095H93.9428V253.687H94.0335C94.1119 253.561 94.2206 253.399 94.3595 253.203C94.5014 253.003 94.7037 252.826 94.9664 252.67C95.2321 252.512 95.5914 252.433 96.0443 252.433C96.63 252.433 97.1464 252.586 97.5933 252.894C98.0401 253.201 98.3889 253.637 98.6395 254.201C98.8901 254.764 99.0154 255.43 99.0154 256.196C99.0154 256.97 98.8901 257.639 98.6395 258.207C98.3889 258.771 98.0417 259.208 97.5977 259.518C97.1539 259.826 96.6422 259.979 96.0624 259.979C95.6156 259.979 95.2577 259.902 94.989 259.747C94.7204 259.588 94.5135 259.409 94.3686 259.209C94.2236 259.006 94.1119 258.839 94.0335 258.705H93.9066V259.827H92.8739ZM93.9247 256.177C93.9247 256.729 94.0017 257.215 94.1557 257.637C94.3097 258.055 94.5346 258.383 94.8306 258.62C95.1265 258.855 95.4888 258.972 95.9175 258.972C96.3643 258.972 96.7373 258.848 97.0361 258.601C97.3381 258.351 97.5646 258.015 97.7155 257.593C97.8695 257.169 97.9465 256.697 97.9465 256.177C97.9465 255.664 97.871 255.201 97.7201 254.79C97.5721 254.375 97.3472 254.047 97.0453 253.806C96.7463 253.562 96.3704 253.441 95.9175 253.441C95.4827 253.441 95.1173 253.555 94.8214 253.787C94.5256 254.015 94.3022 254.335 94.1511 254.748C94.0002 255.156 93.9247 255.633 93.9247 256.177ZM100.65 259.827V252.528H101.719V259.827H100.65ZM101.194 251.312C100.985 251.312 100.806 251.237 100.655 251.088C100.507 250.939 100.433 250.76 100.433 250.551C100.433 250.342 100.507 250.163 100.655 250.014C100.806 249.865 100.985 249.791 101.194 249.791C101.402 249.791 101.58 249.865 101.728 250.014C101.879 250.163 101.955 250.342 101.955 250.551C101.955 250.76 101.879 250.939 101.728 251.088C101.58 251.237 101.402 251.312 101.194 251.312ZM105.724 259.998C105.283 259.998 104.883 259.911 104.524 259.737C104.165 259.559 103.879 259.304 103.668 258.972C103.456 258.636 103.351 258.23 103.351 257.755C103.351 257.337 103.429 256.998 103.586 256.738C103.743 256.475 103.953 256.27 104.216 256.12C104.478 255.972 104.768 255.86 105.085 255.788C105.405 255.712 105.727 255.652 106.05 255.607C106.473 255.55 106.815 255.507 107.079 255.479C107.344 255.447 107.537 255.395 107.658 255.322C107.782 255.249 107.844 255.122 107.844 254.942V254.904C107.844 254.435 107.722 254.071 107.477 253.811C107.235 253.551 106.868 253.422 106.376 253.422C105.866 253.422 105.466 253.539 105.176 253.773C104.886 254.007 104.682 254.258 104.565 254.523L103.55 254.143C103.731 253.7 103.973 253.355 104.275 253.107C104.58 252.857 104.912 252.683 105.271 252.585C105.633 252.484 105.99 252.433 106.34 252.433C106.563 252.433 106.82 252.462 107.109 252.518C107.403 252.572 107.685 252.685 107.956 252.856C108.232 253.027 108.459 253.286 108.641 253.63C108.822 253.976 108.912 254.439 108.912 255.019V259.827H107.844V258.839H107.79C107.716 258.997 107.596 259.167 107.427 259.348C107.258 259.528 107.033 259.681 106.752 259.808C106.472 259.935 106.129 259.998 105.724 259.998ZM105.887 258.991C106.31 258.991 106.666 258.904 106.956 258.73C107.249 258.555 107.47 258.33 107.617 258.055C107.768 257.778 107.844 257.489 107.844 257.185V256.158C107.798 256.215 107.698 256.267 107.545 256.315C107.394 256.36 107.219 256.399 107.019 256.434C106.823 256.466 106.631 256.494 106.444 256.52C106.26 256.542 106.11 256.561 105.996 256.576C105.718 256.614 105.458 256.677 105.217 256.762C104.978 256.844 104.785 256.969 104.637 257.137C104.492 257.302 104.42 257.526 104.42 257.812C104.42 258.202 104.557 258.497 104.832 258.696C105.11 258.893 105.461 258.991 105.887 258.991Z" fill="#2B3354"/>
<path d="M314.868 155.308V165.04H313.188V157.023H313.134L310.965 158.477V156.861L313.27 155.308H314.868ZM318.655 163.71L318.597 164.233C318.554 164.632 318.479 165.037 318.37 165.448C318.265 165.864 318.152 166.245 318.036 166.593C317.918 166.942 317.822 167.217 317.75 167.416H316.644C316.687 167.222 316.744 166.96 316.816 166.627C316.892 166.294 316.965 165.921 317.034 165.506C317.103 165.09 317.15 164.67 317.175 164.241L317.207 163.71H318.655ZM320.474 165.04V163.766L323.694 160.454C324.002 160.128 324.258 159.838 324.464 159.585C324.67 159.331 324.824 159.086 324.926 158.848C325.029 158.61 325.08 158.357 325.08 158.088C325.08 157.78 325.014 157.517 324.881 157.299C324.748 157.077 324.565 156.906 324.333 156.786C324.1 156.665 323.836 156.605 323.54 156.605C323.235 156.605 322.968 156.672 322.738 156.805C322.509 156.935 322.331 157.12 322.204 157.361C322.081 157.602 322.019 157.888 322.019 158.221H320.419C320.419 157.603 320.554 157.066 320.823 156.609C321.091 156.153 321.461 155.8 321.933 155.55C322.407 155.3 322.95 155.174 323.563 155.174C324.185 155.174 324.731 155.297 325.202 155.541C325.673 155.784 326.038 156.119 326.298 156.544C326.561 156.967 326.692 157.452 326.692 157.998C326.692 158.361 326.626 158.719 326.493 159.072C326.361 159.423 326.127 159.812 325.791 160.24C325.459 160.669 324.993 161.186 324.391 161.794L322.793 163.5V163.567H326.832V165.04H320.474ZM331.62 165.173C331.016 165.173 330.476 165.054 329.999 164.817C329.521 164.576 329.143 164.246 328.861 163.828C328.584 163.41 328.436 162.931 328.418 162.393H330.048C330.078 162.792 330.243 163.118 330.542 163.372C330.841 163.623 331.201 163.747 331.62 163.747C331.949 163.747 332.242 163.668 332.498 163.51C332.755 163.352 332.957 163.131 333.105 162.85C333.254 162.568 333.326 162.245 333.323 161.884C333.326 161.517 333.252 161.19 333.101 160.906C332.95 160.621 332.743 160.398 332.48 160.236C332.218 160.071 331.916 159.988 331.575 159.988C331.297 159.985 331.024 160.04 330.755 160.15C330.486 160.26 330.274 160.406 330.116 160.587L328.599 160.326L329.083 155.308H334.464V156.781H330.474L330.207 159.362H330.261C330.433 159.149 330.677 158.974 330.99 158.834C331.305 158.691 331.649 158.62 332.023 158.62C332.584 158.62 333.086 158.759 333.527 159.038C333.967 159.314 334.315 159.694 334.569 160.179C334.822 160.663 334.949 161.217 334.949 161.842C334.949 162.485 334.807 163.058 334.523 163.562C334.242 164.063 333.851 164.457 333.35 164.745C332.852 165.03 332.275 165.173 331.62 165.173ZM336.299 163.234V161.833L340.235 155.308H341.348V157.303H340.669L338.02 161.709V161.785H343.513V163.234H336.299ZM340.723 165.04V162.806L340.741 162.18V155.308H342.326V165.04H340.723ZM346.641 163.71L346.583 164.233C346.54 164.632 346.465 165.037 346.356 165.448C346.251 165.864 346.138 166.245 346.022 166.593C345.904 166.942 345.808 167.217 345.736 167.416H344.63C344.673 167.222 344.73 166.96 344.802 166.627C344.878 166.294 344.951 165.921 345.02 165.506C345.089 165.09 345.136 164.67 345.161 164.241L345.193 163.71H346.641ZM348.293 163.234V161.833L352.228 155.308H353.342V157.303H352.663L350.013 161.709V161.785H355.507V163.234H348.293ZM352.717 165.04V162.806L352.735 162.18V155.308H354.321V165.04H352.717ZM360.179 165.173C359.576 165.173 359.035 165.054 358.557 164.817C358.08 164.576 357.702 164.246 357.421 163.828C357.143 163.41 356.995 162.931 356.977 162.393H358.607C358.637 162.792 358.802 163.118 359.101 163.372C359.4 163.623 359.759 163.747 360.179 163.747C360.508 163.747 360.801 163.668 361.057 163.51C361.314 163.352 361.516 163.131 361.664 162.85C361.813 162.568 361.885 162.245 361.882 161.884C361.885 161.517 361.811 161.19 361.66 160.906C361.509 160.621 361.303 160.398 361.039 160.236C360.777 160.071 360.475 159.988 360.134 159.988C359.856 159.985 359.583 160.04 359.314 160.15C359.045 160.26 358.833 160.406 358.675 160.587L357.158 160.326L357.642 155.308H363.023V156.781H359.034L358.766 159.362H358.82C358.992 159.149 359.235 158.974 359.549 158.834C359.864 158.691 360.208 158.62 360.582 158.62C361.143 158.62 361.645 158.759 362.086 159.038C362.526 159.314 362.873 159.694 363.127 160.179C363.38 160.663 363.508 161.217 363.508 161.842C363.508 162.485 363.366 163.058 363.082 163.562C362.801 164.063 362.41 164.457 361.91 164.745C361.411 165.03 360.834 165.173 360.179 165.173ZM368.323 165.173C367.649 165.173 367.051 165.054 366.529 164.817C366.009 164.579 365.602 164.254 365.306 163.842C365.013 163.427 364.868 162.957 364.871 162.432C364.868 162.022 364.952 161.647 365.125 161.305C365.297 160.963 365.529 160.677 365.822 160.45C366.118 160.218 366.447 160.071 366.809 160.007V159.941C366.332 159.83 365.946 159.575 365.65 159.175C365.357 158.774 365.212 158.309 365.215 157.784C365.212 157.283 365.345 156.836 365.613 156.443C365.882 156.051 366.251 155.742 366.719 155.517C367.186 155.289 367.721 155.174 368.323 155.174C368.917 155.174 369.447 155.289 369.911 155.517C370.38 155.742 370.748 156.051 371.017 156.443C371.289 156.836 371.425 157.283 371.425 157.784C371.425 158.309 371.275 158.774 370.976 159.175C370.68 159.575 370.298 159.83 369.831 159.941V160.007C370.193 160.071 370.518 160.218 370.808 160.45C371.102 160.677 371.334 160.963 371.506 161.305C371.681 161.647 371.769 162.022 371.769 162.432C371.769 162.957 371.62 163.427 371.325 163.842C371.028 164.254 370.621 164.579 370.102 164.817C369.586 165.054 368.992 165.173 368.323 165.173ZM368.323 163.814C368.669 163.814 368.971 163.752 369.228 163.628C369.484 163.502 369.684 163.325 369.825 163.096C369.968 162.869 370.04 162.606 370.043 162.308C370.04 161.997 369.964 161.723 369.813 161.485C369.664 161.245 369.461 161.057 369.2 160.919C368.944 160.783 368.651 160.715 368.323 160.715C367.99 160.715 367.694 160.783 367.434 160.919C367.175 161.057 366.97 161.245 366.819 161.485C366.671 161.723 366.598 161.997 366.601 162.308C366.598 162.606 366.668 162.869 366.809 163.096C366.952 163.321 367.15 163.497 367.407 163.624C367.667 163.751 367.972 163.814 368.323 163.814ZM368.323 159.381C368.606 159.381 368.856 159.32 369.074 159.2C369.294 159.079 369.468 158.911 369.595 158.696C369.721 158.481 369.786 158.232 369.789 157.95C369.786 157.671 369.723 157.427 369.599 157.218C369.476 157.005 369.304 156.842 369.084 156.729C368.862 156.612 368.609 156.553 368.323 156.553C368.029 156.553 367.771 156.612 367.548 156.729C367.328 156.842 367.156 157.005 367.031 157.218C366.91 157.427 366.852 157.671 366.855 157.95C366.852 158.232 366.912 158.481 367.035 158.696C367.163 158.908 367.336 159.076 367.556 159.2C367.781 159.32 368.036 159.381 368.323 159.381ZM377.934 162.749L377.929 160.673H378.192L380.692 157.741H382.608L379.533 161.333H379.193L377.934 162.749ZM376.439 165.04V155.308H378.079V165.04H376.439ZM380.805 165.04L378.54 161.718L379.646 160.507L382.766 165.04H380.805ZM383.7 165.04V157.741H385.268V158.981H385.349C385.494 158.563 385.734 158.236 386.069 158.002C386.404 157.765 386.805 157.645 387.269 157.645C387.74 157.645 388.138 157.766 388.461 158.007C388.787 158.244 389.017 158.569 389.149 158.981H389.222C389.376 158.575 389.635 158.252 390.001 158.011C390.368 157.768 390.805 157.645 391.309 157.645C391.949 157.645 392.472 157.858 392.877 158.282C393.281 158.707 393.484 159.326 393.484 160.141V165.04H391.839V160.406C391.839 159.954 391.725 159.623 391.495 159.414C391.265 159.201 390.985 159.095 390.652 159.095C390.257 159.095 389.948 159.226 389.724 159.484C389.503 159.742 389.394 160.075 389.394 160.488V165.04H387.786V160.335C387.786 159.958 387.677 159.657 387.46 159.433C387.245 159.208 386.964 159.095 386.617 159.095C386.382 159.095 386.167 159.159 385.974 159.285C385.78 159.408 385.627 159.585 385.512 159.812C385.398 160.037 385.34 160.301 385.34 160.602V165.04H383.7Z" fill="#2B3354"/>
<path d="M324.741 202.01C325.184 202.013 325.615 202.096 326.035 202.258C326.458 202.416 326.839 202.676 327.177 203.037C327.515 203.395 327.784 203.875 327.983 204.477C328.182 205.079 328.282 205.823 328.282 206.71C328.285 207.547 328.2 208.294 328.028 208.953C327.859 209.609 327.617 210.163 327.299 210.617C326.982 211.069 326.601 211.415 326.153 211.653C325.707 211.89 325.204 212.008 324.645 212.008C324.059 212.008 323.54 211.888 323.087 211.647C322.637 211.407 322.274 211.077 321.995 210.659C321.718 210.241 321.547 209.762 321.484 209.224H323.137C323.222 209.611 323.394 209.917 323.653 210.146C323.916 210.371 324.246 210.483 324.645 210.483C325.288 210.483 325.783 210.191 326.131 209.604C326.478 209.018 326.652 208.204 326.652 207.162H326.588C326.44 207.441 326.249 207.682 326.013 207.883C325.777 208.083 325.51 208.237 325.211 208.345C324.915 208.452 324.601 208.507 324.269 208.507C323.726 208.507 323.237 208.371 322.802 208.098C322.37 207.825 322.027 207.452 321.773 206.977C321.524 206.501 321.396 205.958 321.393 205.347C321.393 204.713 321.532 204.144 321.809 203.64C322.091 203.134 322.482 202.735 322.983 202.443C323.484 202.148 324.07 202.004 324.741 202.01ZM324.745 203.436C324.419 203.436 324.124 203.52 323.862 203.688C323.602 203.852 323.396 204.078 323.245 204.363C323.098 204.645 323.024 204.96 323.024 205.309C323.026 205.653 323.101 205.968 323.245 206.25C323.394 206.531 323.594 206.755 323.848 206.919C324.105 207.084 324.397 207.166 324.727 207.166C324.971 207.166 325.199 207.117 325.41 207.019C325.622 206.921 325.806 206.785 325.963 206.61C326.123 206.433 326.247 206.232 326.335 206.007C326.425 205.783 326.469 205.544 326.466 205.294C326.466 204.962 326.39 204.654 326.239 204.372C326.092 204.09 325.887 203.863 325.628 203.693C325.371 203.522 325.077 203.436 324.745 203.436ZM333.015 212.008C332.411 212.008 331.87 211.89 331.394 211.653C330.917 211.412 330.537 211.082 330.257 210.664C329.979 210.245 329.831 209.767 329.812 209.228H331.443C331.474 209.628 331.638 209.954 331.937 210.207C332.236 210.458 332.595 210.583 333.015 210.583C333.344 210.583 333.636 210.504 333.894 210.346C334.15 210.187 334.353 209.967 334.5 209.686C334.648 209.403 334.72 209.081 334.717 208.72C334.72 208.353 334.647 208.026 334.496 207.742C334.345 207.456 334.138 207.233 333.876 207.072C333.613 206.907 333.311 206.824 332.969 206.824C332.692 206.821 332.418 206.875 332.15 206.986C331.881 207.096 331.668 207.242 331.511 207.423L329.994 207.162L330.479 202.144H335.859V203.617H331.869L331.602 206.197H331.656C331.829 205.984 332.071 205.809 332.385 205.67C332.699 205.527 333.043 205.456 333.417 205.456C333.98 205.456 334.48 205.595 334.921 205.874C335.362 206.149 335.71 206.53 335.963 207.015C336.217 207.499 336.343 208.053 336.343 208.677C336.343 209.321 336.202 209.894 335.918 210.398C335.637 210.899 335.247 211.292 334.745 211.581C334.246 211.866 333.67 212.008 333.015 212.008ZM341.158 212.008C340.485 212.008 339.887 211.89 339.365 211.653C338.845 211.415 338.437 211.089 338.142 210.678C337.848 210.263 337.704 209.793 337.707 209.267C337.704 208.858 337.789 208.482 337.961 208.141C338.132 207.799 338.365 207.513 338.658 207.286C338.954 207.054 339.283 206.907 339.646 206.843V206.777C339.168 206.666 338.781 206.41 338.486 206.011C338.193 205.61 338.048 205.145 338.051 204.619C338.048 204.119 338.181 203.672 338.45 203.279C338.719 202.887 339.087 202.578 339.555 202.352C340.023 202.125 340.557 202.01 341.158 202.01C341.753 202.01 342.282 202.125 342.748 202.352C343.216 202.578 343.584 202.887 343.853 203.279C344.124 203.672 344.26 204.119 344.26 204.619C344.26 205.145 344.11 205.61 343.812 206.011C343.516 206.41 343.134 206.666 342.666 206.777V206.843C343.029 206.907 343.355 207.054 343.645 207.286C343.937 207.513 344.17 207.799 344.342 208.141C344.518 208.482 344.605 208.858 344.605 209.267C344.605 209.793 344.457 210.263 344.16 210.678C343.865 211.089 343.457 211.415 342.938 211.653C342.422 211.89 341.829 212.008 341.158 212.008ZM341.158 210.65C341.506 210.65 341.807 210.588 342.063 210.464C342.321 210.338 342.519 210.161 342.662 209.932C342.803 209.704 342.877 209.441 342.879 209.144C342.877 208.832 342.799 208.559 342.648 208.321C342.5 208.081 342.296 207.892 342.037 207.755C341.78 207.619 341.487 207.551 341.158 207.551C340.826 207.551 340.53 207.619 340.271 207.755C340.01 207.892 339.805 208.081 339.654 208.321C339.506 208.559 339.434 208.832 339.437 209.144C339.434 209.441 339.503 209.704 339.646 209.932C339.787 210.157 339.987 210.332 340.243 210.459C340.503 210.587 340.807 210.65 341.158 210.65ZM341.158 206.216C341.442 206.216 341.693 206.156 341.909 206.036C342.13 205.915 342.304 205.747 342.43 205.532C342.558 205.316 342.623 205.068 342.626 204.786C342.623 204.507 342.559 204.263 342.435 204.054C342.311 203.841 342.139 203.678 341.919 203.565C341.699 203.447 341.445 203.388 341.158 203.388C340.865 203.388 340.607 203.447 340.383 203.565C340.163 203.678 339.991 203.841 339.868 204.054C339.747 204.263 339.688 204.507 339.69 204.786C339.688 205.068 339.748 205.316 339.872 205.532C339.998 205.744 340.172 205.912 340.393 206.036C340.616 206.156 340.871 206.216 341.158 206.216ZM347.762 210.545L347.704 211.068C347.661 211.468 347.586 211.872 347.477 212.284C347.371 212.7 347.26 213.081 347.142 213.429C347.025 213.778 346.929 214.052 346.857 214.252H345.751C345.794 214.058 345.851 213.796 345.924 213.463C345.999 213.13 346.071 212.757 346.141 212.342C346.211 211.926 346.257 211.505 346.282 211.077L346.314 210.545H347.762ZM352.694 212.008C352.09 212.008 351.549 211.89 351.072 211.653C350.595 211.412 350.216 211.082 349.936 210.664C349.657 210.245 349.51 209.767 349.491 209.228H351.122C351.152 209.628 351.316 209.954 351.616 210.207C351.915 210.458 352.274 210.583 352.694 210.583C353.022 210.583 353.315 210.504 353.572 210.346C353.829 210.187 354.031 209.967 354.179 209.686C354.327 209.403 354.4 209.081 354.396 208.72C354.4 208.353 354.325 208.026 354.174 207.742C354.023 207.456 353.817 207.233 353.554 207.072C353.291 206.907 352.989 206.824 352.648 206.824C352.371 206.821 352.098 206.875 351.829 206.986C351.56 207.096 351.347 207.242 351.19 207.423L349.672 207.162L350.157 202.144H355.538V203.617H351.548L351.28 206.197H351.334C351.507 205.984 351.75 205.809 352.064 205.67C352.378 205.527 352.722 205.456 353.097 205.456C353.658 205.456 354.159 205.595 354.6 205.874C355.042 206.149 355.388 206.53 355.642 207.015C355.896 207.499 356.022 208.053 356.022 208.677C356.022 209.321 355.88 209.894 355.596 210.398C355.316 210.899 354.925 211.292 354.424 211.581C353.926 211.866 353.348 212.008 352.694 212.008ZM360.837 212.008C360.163 212.008 359.566 211.89 359.043 211.653C358.524 211.415 358.116 211.089 357.821 210.678C357.527 210.263 357.383 209.793 357.385 209.267C357.383 208.858 357.467 208.482 357.639 208.141C357.811 207.799 358.044 207.513 358.336 207.286C358.633 207.054 358.961 206.907 359.324 206.843V206.777C358.846 206.666 358.461 206.41 358.164 206.011C357.872 205.61 357.727 205.145 357.729 204.619C357.727 204.119 357.86 203.672 358.128 203.279C358.397 202.887 358.766 202.578 359.233 202.352C359.701 202.125 360.235 202.01 360.837 202.01C361.431 202.01 361.962 202.125 362.426 202.352C362.895 202.578 363.262 202.887 363.531 203.279C363.803 203.672 363.939 204.119 363.939 204.619C363.939 205.145 363.79 205.61 363.491 206.011C363.194 206.41 362.813 206.666 362.345 206.777V206.843C362.708 206.907 363.033 207.054 363.323 207.286C363.616 207.513 363.848 207.799 364.02 208.141C364.196 208.482 364.284 208.858 364.284 209.267C364.284 209.793 364.135 210.263 363.839 210.678C363.544 211.089 363.136 211.415 362.616 211.653C362.101 211.89 361.507 212.008 360.837 212.008ZM360.837 210.65C361.183 210.65 361.485 210.588 361.743 210.464C361.999 210.338 362.198 210.161 362.34 209.932C362.482 209.704 362.555 209.441 362.558 209.144C362.555 208.832 362.478 208.559 362.327 208.321C362.178 208.081 361.975 207.892 361.715 207.755C361.459 207.619 361.165 207.551 360.837 207.551C360.504 207.551 360.209 207.619 359.949 207.755C359.689 207.892 359.484 208.081 359.333 208.321C359.185 208.559 359.112 208.832 359.115 209.144C359.112 209.441 359.182 209.704 359.324 209.932C359.466 210.157 359.665 210.332 359.922 210.459C360.181 210.587 360.486 210.65 360.837 210.65ZM360.837 206.216C361.121 206.216 361.371 206.156 361.588 206.036C361.808 205.915 361.983 205.747 362.109 205.532C362.236 205.316 362.301 205.068 362.304 204.786C362.301 204.507 362.238 204.263 362.113 204.054C361.99 203.841 361.818 203.678 361.598 203.565C361.377 203.447 361.124 203.388 360.837 203.388C360.544 203.388 360.285 203.447 360.062 203.565C359.842 203.678 359.67 203.841 359.546 204.054C359.426 204.263 359.366 204.507 359.369 204.786C359.366 205.068 359.427 205.316 359.55 205.532C359.677 205.744 359.851 205.912 360.071 206.036C360.295 206.156 360.55 206.216 360.837 206.216ZM366.112 211.876L370.057 203.683V203.617H365.477V202.144H371.796V203.65L367.856 211.876H366.112ZM377.933 209.585L377.929 207.509H378.192L380.691 204.577H382.608L379.533 208.169H379.193L377.933 209.585ZM376.439 211.876V202.144H378.079V211.876H376.439ZM380.805 211.876L378.54 208.554L379.646 207.343L382.766 211.876H380.805ZM383.7 211.876V204.577H385.268V205.817H385.349C385.494 205.399 385.733 205.072 386.069 204.838C386.404 204.601 386.805 204.481 387.269 204.481C387.74 204.481 388.138 204.602 388.461 204.842C388.787 205.08 389.016 205.405 389.149 205.817H389.222C389.376 205.411 389.635 205.088 390.001 204.847C390.368 204.604 390.805 204.481 391.309 204.481C391.949 204.481 392.472 204.694 392.877 205.118C393.281 205.543 393.483 206.162 393.483 206.977V211.876H391.839V207.242C391.839 206.79 391.725 206.458 391.495 206.25C391.265 206.037 390.985 205.931 390.652 205.931C390.257 205.931 389.948 206.061 389.724 206.32C389.503 206.578 389.394 206.911 389.394 207.324V211.876H387.786V207.171C387.786 206.794 387.677 206.493 387.459 206.269C387.245 206.043 386.964 205.931 386.617 205.931C386.382 205.931 386.167 205.994 385.974 206.12C385.78 206.244 385.627 206.42 385.512 206.648C385.398 206.873 385.34 207.136 385.34 207.437V211.876H383.7Z" fill="#2B3354"/>
<path d="M323.753 258.712L327.697 250.519V250.454H323.119V248.981H329.437V250.487L325.496 258.712H323.753ZM334.008 258.845C333.336 258.845 332.737 258.727 332.216 258.489C331.696 258.252 331.289 257.926 330.992 257.515C330.7 257.1 330.554 256.629 330.558 256.104C330.554 255.695 330.639 255.319 330.812 254.978C330.984 254.635 331.216 254.35 331.509 254.122C331.805 253.89 332.134 253.743 332.496 253.68V253.614C332.019 253.502 331.633 253.247 331.337 252.848C331.044 252.446 330.899 251.981 330.902 251.456C330.899 250.955 331.032 250.508 331.3 250.116C331.569 249.723 331.938 249.414 332.406 249.189C332.873 248.962 333.408 248.847 334.008 248.847C334.604 248.847 335.134 248.962 335.598 249.189C336.067 249.414 336.435 249.723 336.704 250.116C336.976 250.508 337.112 250.955 337.112 251.456C337.112 251.981 336.962 252.446 336.663 252.848C336.367 253.247 335.985 253.502 335.518 253.614V253.68C335.879 253.743 336.205 253.89 336.495 254.122C336.789 254.35 337.021 254.635 337.193 254.978C337.368 255.319 337.455 255.695 337.455 256.104C337.455 256.629 337.307 257.1 337.012 257.515C336.715 257.926 336.308 258.252 335.789 258.489C335.272 258.727 334.679 258.845 334.008 258.845ZM334.008 257.487C334.356 257.487 334.658 257.424 334.915 257.301C335.171 257.175 335.371 256.997 335.512 256.769C335.655 256.541 335.727 256.278 335.73 255.98C335.727 255.669 335.651 255.396 335.499 255.157C335.351 254.918 335.147 254.729 334.887 254.592C334.631 254.456 334.338 254.388 334.008 254.388C333.677 254.388 333.381 254.456 333.121 254.592C332.862 254.729 332.657 254.918 332.506 255.157C332.357 255.396 332.285 255.669 332.288 255.98C332.285 256.278 332.355 256.541 332.496 256.769C332.639 256.994 332.837 257.169 333.094 257.296C333.354 257.423 333.659 257.487 334.008 257.487ZM334.008 253.053C334.293 253.053 334.543 252.993 334.761 252.872C334.981 252.752 335.155 252.584 335.282 252.368C335.408 252.153 335.473 251.904 335.476 251.622C335.473 251.344 335.41 251.099 335.286 250.891C335.163 250.678 334.991 250.515 334.769 250.401C334.549 250.284 334.295 250.225 334.008 250.225C333.716 250.225 333.458 250.284 333.235 250.401C333.014 250.515 332.842 250.678 332.718 250.891C332.597 251.099 332.539 251.344 332.542 251.622C332.539 251.904 332.599 252.153 332.722 252.368C332.85 252.58 333.023 252.749 333.243 252.872C333.468 252.993 333.723 253.053 334.008 253.053ZM338.777 256.907V255.505L342.713 248.981H343.827V250.976H343.148L340.498 255.381V255.457H345.992V256.907H338.777ZM343.202 258.712V256.479L343.22 255.852V248.981H344.805V258.712H343.202ZM349.121 257.382L349.061 257.905C349.019 258.304 348.943 258.709 348.835 259.12C348.73 259.536 348.617 259.918 348.5 260.266C348.382 260.615 348.286 260.889 348.214 261.089H347.109C347.151 260.895 347.209 260.633 347.281 260.299C347.356 259.967 347.43 259.593 347.499 259.178C347.568 258.763 347.615 258.342 347.639 257.914L347.671 257.382H349.121ZM350.938 258.712V257.439L354.158 254.127C354.467 253.8 354.724 253.51 354.929 253.257C355.134 253.004 355.288 252.759 355.39 252.52C355.493 252.282 355.544 252.029 355.544 251.761C355.544 251.453 355.478 251.19 355.346 250.971C355.213 250.749 355.03 250.579 354.797 250.458C354.564 250.338 354.301 250.277 354.004 250.277C353.699 250.277 353.432 250.344 353.203 250.477C352.973 250.608 352.796 250.793 352.668 251.033C352.545 251.274 352.483 251.561 352.483 251.893H350.884C350.884 251.275 351.019 250.738 351.288 250.282C351.556 249.826 351.925 249.472 352.397 249.223C352.871 248.973 353.414 248.847 354.028 248.847C354.649 248.847 355.196 248.969 355.667 249.214C356.137 249.457 356.503 249.791 356.763 250.216C357.026 250.64 357.157 251.125 357.157 251.67C357.157 252.034 357.091 252.392 356.958 252.744C356.825 253.095 356.591 253.485 356.255 253.913C355.924 254.341 355.457 254.858 354.857 255.466L353.257 257.172V257.239H357.297V258.712H350.938ZM362.08 248.847C362.524 248.85 362.955 248.933 363.375 249.094C363.798 249.253 364.179 249.512 364.517 249.874C364.855 250.232 365.123 250.711 365.323 251.313C365.522 251.916 365.622 252.659 365.622 253.547C365.625 254.383 365.54 255.131 365.368 255.79C365.199 256.445 364.956 256.999 364.639 257.453C364.322 257.906 363.939 258.252 363.493 258.489C363.046 258.727 362.543 258.845 361.985 258.845C361.399 258.845 360.88 258.725 360.427 258.484C359.977 258.244 359.613 257.914 359.335 257.496C359.058 257.078 358.887 256.599 358.823 256.061H360.477C360.561 256.447 360.733 256.754 360.993 256.983C361.256 257.208 361.586 257.32 361.985 257.32C362.628 257.32 363.123 257.027 363.471 256.441C363.817 255.854 363.992 255.04 363.992 253.999H363.928C363.78 254.277 363.588 254.518 363.353 254.72C363.117 254.92 362.85 255.074 362.551 255.182C362.255 255.289 361.941 255.344 361.609 255.344C361.066 255.344 360.577 255.207 360.142 254.934C359.709 254.662 359.367 254.289 359.113 253.814C358.862 253.337 358.736 252.794 358.733 252.183C358.733 251.55 358.872 250.981 359.149 250.477C359.431 249.971 359.821 249.572 360.323 249.279C360.824 248.985 361.41 248.841 362.08 248.847ZM362.085 250.273C361.759 250.273 361.464 250.357 361.202 250.525C360.941 250.689 360.736 250.914 360.585 251.2C360.437 251.482 360.363 251.796 360.363 252.145C360.366 252.49 360.441 252.804 360.585 253.086C360.733 253.367 360.934 253.592 361.188 253.756C361.444 253.921 361.737 254.003 362.067 254.003C362.311 254.003 362.539 253.954 362.75 253.856C362.962 253.758 363.146 253.622 363.303 253.447C363.463 253.269 363.587 253.069 363.674 252.843C363.765 252.619 363.809 252.381 363.806 252.131C363.806 251.798 363.73 251.491 363.579 251.209C363.431 250.926 363.227 250.7 362.968 250.529C362.711 250.359 362.416 250.273 362.085 250.273ZM370.903 248.981V258.712H369.223V250.696H369.167L366.998 252.15V250.534L369.303 248.981H370.903ZM377.934 256.422L377.929 254.345H378.192L380.692 251.414H382.608L379.533 255.006H379.193L377.934 256.422ZM376.439 258.712V248.981H378.079V258.712H376.439ZM380.805 258.712L378.54 255.39L379.646 254.179L382.766 258.712H380.805ZM383.7 258.712V251.414H385.268V252.654H385.349C385.494 252.236 385.734 251.909 386.069 251.675C386.404 251.437 386.805 251.318 387.269 251.318C387.74 251.318 388.138 251.438 388.461 251.679C388.787 251.917 389.017 252.241 389.149 252.654H389.222C389.376 252.248 389.635 251.924 390.001 251.684C390.368 251.441 390.805 251.318 391.309 251.318C391.949 251.318 392.472 251.531 392.877 251.955C393.281 252.379 393.484 252.998 393.484 253.814V258.712H391.839V254.079C391.839 253.626 391.725 253.295 391.495 253.086C391.265 252.873 390.985 252.768 390.652 252.768C390.257 252.768 389.948 252.898 389.724 253.157C389.503 253.414 389.394 253.748 389.394 254.16V258.712H387.786V254.008C387.786 253.631 387.677 253.33 387.46 253.105C387.245 252.88 386.964 252.768 386.617 252.768C386.382 252.768 386.167 252.831 385.974 252.957C385.78 253.081 385.627 253.257 385.512 253.485C385.398 253.71 385.34 253.973 385.34 254.274V258.712H383.7Z" fill="#2B3354"/>
<path d="M190.244 161.695H249.761" stroke="#EAEDF3" stroke-width="2.3"/>
<path d="M190.244 208.53H249.761" stroke="#EAEDF3" stroke-width="2.3"/>
<path d="M190.244 255.366H249.761" stroke="#EAEDF3" stroke-width="2.3"/>
<path d="M190.244 161.695H235.945" stroke="#5F76E8" stroke-width="2.3"/>
<path d="M190.244 208.53H221.065" stroke="#5F76E8" stroke-width="2.3"/>
<path d="M190.244 255.366H210.437" stroke="#5F76E8" stroke-width="2.3"/>
<path d="M29.7588 113.744H394.304" stroke="#EAEDF3"/>
<path d="M29.2274 113.744H85.5566" stroke="#FB4E6E" stroke-width="2"/>
<path d="M386.864 25.0906H363.483C359.667 25.0906 356.574 28.3358 356.574 32.339V56.872C356.574 60.8752 359.667 64.1204 363.483 64.1204H386.864C390.68 64.1204 393.773 60.8752 393.773 56.872V32.339C393.773 28.3358 390.68 25.0906 386.864 25.0906Z" fill="white" stroke="#EAEDF3"/>
<path d="M378.549 44.6061H385.436M382.167 48.5519L385.801 44.6061L382.167 40.6604M371.731 44.6061H364.911M368.18 40.6603L364.545 44.6061L368.18 48.5519M375.173 41.0638V33.8379M378.934 37.2679L375.173 33.4546L371.413 37.2679M375.173 48.2181V55.3741M371.413 51.944L375.173 55.7573L378.934 51.944" stroke="#A8B5C2" stroke-width="1.7" stroke-miterlimit="10" stroke-linecap="round" stroke-linejoin="round"/>
</g>
<defs>
<clipPath id="clip0_26_564">
<rect width="423" height="280" rx="20" fill="white"/>
</clipPath>
</defs>
</svg>
