<svg width="239" height="93" viewBox="0 0 239 93" fill="none" xmlns="http://www.w3.org/2000/svg">
<g clip-path="url(#clip0_307_696)">
<path d="M226.847 0.404358H12.1525C5.66455 0.404358 0.405029 5.65431 0.405029 12.1304V80.8696C0.405029 87.3457 5.66455 92.5957 12.1525 92.5957H226.847C233.335 92.5957 238.595 87.3457 238.595 80.8696V12.1304C238.595 5.65431 233.335 0.404358 226.847 0.404358Z" fill="white" stroke="#EAEDF3"/>
<path d="M91.6642 46.3369C90.7552 46.3312 89.8778 46.179 89.0319 45.8803C88.1918 45.5816 87.4375 45.0963 86.7708 44.4242C86.1032 43.7523 85.5733 42.862 85.182 41.7535C84.7964 40.645 84.6044 39.2838 84.6044 37.6699C84.61 36.188 84.7794 34.8641 85.1132 33.6981C85.4526 32.5265 85.9363 31.5328 86.5634 30.7173C87.1961 29.9016 87.9528 29.2813 88.8335 28.8563C89.7133 28.4256 90.7001 28.2101 91.7938 28.2101C92.9734 28.2101 94.0145 28.4399 94.9178 28.8994C95.8212 29.3532 96.5463 29.9706 97.0931 30.7517C97.6457 31.5328 97.9795 32.4087 98.0945 33.3794H94.409C94.2648 32.7648 93.9626 32.2823 93.5025 31.932C93.0423 31.5817 92.4727 31.4064 91.7938 31.4064C90.6426 31.4064 89.7684 31.9061 89.1697 32.9055C88.5774 33.9049 88.2752 35.2633 88.2639 36.9806H88.3846C88.6487 36.4579 89.006 36.0128 89.4549 35.6452C89.9094 35.2719 90.4246 34.9876 90.9998 34.7923C91.5807 34.5912 92.1932 34.4908 92.8381 34.4908C93.8857 34.4908 94.8174 34.7378 95.6348 35.2317C96.4515 35.7199 97.0964 36.3919 97.5679 37.2476C98.0394 38.1035 98.276 39.0827 98.276 40.1856C98.276 41.3802 97.9965 42.4428 97.4383 43.3732C96.8857 44.3037 96.112 45.0331 95.1163 45.5615C94.1271 46.0842 92.9758 46.3426 91.6642 46.3369ZM91.6472 43.4076C92.2224 43.4076 92.7377 43.2698 93.1922 42.9942C93.6467 42.7185 94.0031 42.3451 94.2624 41.8741C94.5208 41.4031 94.6505 40.8747 94.6505 40.2889C94.6505 39.7031 94.5208 39.1775 94.2624 38.7123C94.0088 38.247 93.658 37.8766 93.2092 37.6009C92.7603 37.3252 92.2483 37.1874 91.6731 37.1874C91.2413 37.1874 90.8411 37.2678 90.4732 37.4286C90.1103 37.5894 89.7911 37.8134 89.5148 38.1006C89.245 38.3877 89.0319 38.7209 88.8764 39.1C88.7208 39.4733 88.6431 39.8725 88.6431 40.2976C88.6431 40.8661 88.7727 41.3859 89.0319 41.8569C89.2961 42.3279 89.6533 42.7041 90.1022 42.9855C90.5567 43.2669 91.072 43.4076 91.6472 43.4076ZM107.519 46.3369C106.191 46.3369 105.008 46.1215 103.972 45.6907C102.943 45.2542 102.134 44.6597 101.547 43.9073C100.96 43.1549 100.667 42.302 100.667 41.3486C100.667 40.6134 100.834 39.9386 101.167 39.324C101.506 38.7037 101.967 38.1896 102.548 37.7819C103.129 37.3683 103.779 37.1041 104.499 36.9892V36.8686C103.555 36.679 102.789 36.2225 102.203 35.4988C101.615 34.7693 101.322 33.9221 101.322 32.9573C101.322 32.044 101.59 31.2313 102.125 30.5191C102.66 29.8012 103.394 29.2382 104.326 28.8305C105.264 28.4169 106.328 28.2101 107.519 28.2101C108.711 28.2101 109.772 28.4169 110.704 28.8305C111.642 29.244 112.379 29.8097 112.914 30.5277C113.449 31.2399 113.719 32.0498 113.725 32.9573C113.719 33.9279 113.42 34.7751 112.827 35.4988C112.235 36.2225 111.475 36.679 110.549 36.8686V36.9892C111.257 37.1041 111.898 37.3683 112.473 37.7819C113.055 38.1896 113.515 38.7037 113.855 39.324C114.2 39.9386 114.376 40.6134 114.381 41.3486C114.376 42.302 114.079 43.1549 113.493 43.9073C112.905 44.6597 112.094 45.2542 111.058 45.6907C110.028 46.1215 108.849 46.3369 107.519 46.3369ZM107.519 43.5972C108.112 43.5972 108.63 43.4909 109.073 43.2784C109.516 43.0601 109.861 42.7615 110.109 42.3825C110.362 41.9976 110.488 41.5554 110.488 41.0557C110.488 40.5445 110.359 40.0936 110.1 39.7031C109.841 39.3067 109.49 38.9966 109.047 38.7726C108.604 38.5428 108.095 38.428 107.519 38.428C106.95 38.428 106.441 38.5428 105.992 38.7726C105.543 38.9966 105.189 39.3067 104.93 39.7031C104.677 40.0936 104.551 40.5445 104.551 41.0557C104.551 41.5554 104.674 41.9976 104.922 42.3825C105.169 42.7615 105.517 43.0601 105.966 43.2784C106.415 43.4909 106.933 43.5972 107.519 43.5972ZM107.519 35.7141C108.014 35.7141 108.454 35.6137 108.84 35.4126C109.225 35.2116 109.528 34.933 109.746 34.5769C109.965 34.2209 110.074 33.8101 110.074 33.345C110.074 32.8855 109.965 32.4834 109.746 32.1388C109.528 31.7884 109.229 31.5156 108.849 31.3203C108.469 31.1193 108.026 31.0187 107.519 31.0187C107.019 31.0187 106.576 31.1193 106.191 31.3203C105.805 31.5156 105.503 31.7884 105.284 32.1388C105.071 32.4834 104.965 32.8855 104.965 33.345C104.965 33.8101 105.074 34.2209 105.293 34.5769C105.512 34.933 105.814 35.2116 106.199 35.4126C106.584 35.6137 107.025 35.7141 107.519 35.7141ZM116.727 42.9942V40.0563L124.107 28.4514H126.644V32.5178H125.142L120.49 39.8668V40.0046H130.977V42.9942H116.727ZM125.211 46.0957V42.0981L125.28 40.7972V28.4514H128.785V46.0957H125.211Z" fill="#2B3354"/>
<path d="M92.7854 62.7107C92.7854 63.6411 92.6169 64.4452 92.2799 65.123C91.9436 65.8007 91.4819 66.3234 90.8945 66.691C90.3079 67.0586 89.6379 67.2423 88.8836 67.2423C88.1302 67.2423 87.4594 67.0586 86.8728 66.691C86.2862 66.3234 85.8244 65.8007 85.4874 65.123C85.1512 64.4452 84.9827 63.6411 84.9827 62.7107C84.9827 61.7802 85.1512 60.9762 85.4874 60.2984C85.8244 59.6206 86.2862 59.098 86.8728 58.7304C87.4594 58.3628 88.1302 58.179 88.8836 58.179C89.6379 58.179 90.3079 58.3628 90.8945 58.7304C91.4819 59.098 91.9436 59.6206 92.2799 60.2984C92.6169 60.9762 92.7854 61.7802 92.7854 62.7107ZM91.7492 62.7107C91.7492 61.9468 91.6212 61.3021 91.3652 60.7766C91.1124 60.251 90.7681 59.8533 90.3338 59.5833C89.902 59.3134 89.4192 59.1784 88.8836 59.1784C88.3489 59.1784 87.8636 59.3134 87.4294 59.5833C86.9976 59.8533 86.654 60.251 86.398 60.7766C86.1453 61.3021 86.0181 61.9468 86.0181 62.7107C86.0181 63.4746 86.1453 64.1193 86.398 64.6448C86.654 65.1704 86.9976 65.5681 87.4294 65.838C87.8636 66.108 88.3489 66.243 88.8836 66.243C89.4192 66.243 89.902 66.108 90.3338 65.838C90.7681 65.5681 91.1124 65.1704 91.3652 64.6448C91.6212 64.1193 91.7492 63.4746 91.7492 62.7107ZM95.4646 63.1414V67.1218H94.4463V60.5052H95.4306V61.539H95.5165C95.672 61.203 95.9078 60.9331 96.2246 60.7292C96.5414 60.5224 96.9497 60.419 97.4504 60.419C97.8992 60.419 98.2913 60.5109 98.6284 60.6947C98.9646 60.8756 99.2271 61.1513 99.4134 61.5218C99.6006 61.8893 99.6945 62.3546 99.6945 62.9174V67.1218H98.6762V62.9864C98.6762 62.4666 98.5409 62.0617 98.2703 61.7716C97.9997 61.4787 97.6286 61.3322 97.1571 61.3322C96.8314 61.3322 96.5414 61.4026 96.2853 61.5433C96.0318 61.684 95.8317 61.8893 95.685 62.1593C95.5384 62.4292 95.4646 62.7567 95.4646 63.1414ZM105.111 67.1218V58.2996H106.182V62.2283H110.894V58.2996H111.965V67.1218H110.894V63.1759H106.182V67.1218H105.111ZM116.662 67.2596C116.063 67.2596 115.538 67.1175 115.087 66.8331C114.638 66.5488 114.287 66.1511 114.034 65.6399C113.783 65.1287 113.659 64.5314 113.659 63.8479C113.659 63.1587 113.783 62.5571 114.034 62.043C114.287 61.529 114.638 61.1298 115.087 60.8455C115.538 60.5611 116.063 60.419 116.662 60.419C117.261 60.419 117.784 60.5611 118.233 60.8455C118.684 61.1298 119.036 61.529 119.286 62.043C119.539 62.5571 119.665 63.1587 119.665 63.8479C119.665 64.5314 119.539 65.1287 119.286 65.6399C119.036 66.1511 118.684 66.5488 118.233 66.8331C117.784 67.1175 117.261 67.2596 116.662 67.2596ZM116.662 66.3464C117.116 66.3464 117.491 66.2301 117.784 65.9974C118.077 65.7648 118.294 65.459 118.435 65.0799C118.576 64.7008 118.647 64.2902 118.647 63.8479C118.647 63.4056 118.576 62.9935 118.435 62.6116C118.294 62.2296 118.077 61.921 117.784 61.6855C117.491 61.45 117.116 61.3322 116.662 61.3322C116.207 61.3322 115.833 61.45 115.54 61.6855C115.247 61.921 115.029 62.2296 114.888 62.6116C114.747 62.9935 114.677 63.4056 114.677 63.8479C114.677 64.2902 114.747 64.7008 114.888 65.0799C115.029 65.459 115.247 65.7648 115.54 65.9974C115.833 66.2301 116.207 66.3464 116.662 66.3464ZM122.238 58.2996V67.1218H121.22V58.2996H122.238ZM126.607 67.2596C126.054 67.2596 125.567 67.1203 125.144 66.8418C124.721 66.5604 124.39 66.164 124.151 65.6528C123.913 65.1388 123.793 64.5314 123.793 63.8307C123.793 63.1357 123.913 62.5327 124.151 62.0215C124.39 61.5103 124.722 61.1154 125.148 60.8368C125.574 60.5583 126.066 60.419 126.625 60.419C127.056 60.419 127.397 60.4908 127.647 60.6344C127.901 60.7751 128.093 60.936 128.225 61.1169C128.361 61.2949 128.465 61.4414 128.541 61.5562H128.627V58.2996H129.645V67.1218H128.661V66.1051H128.541C128.465 66.2257 128.359 66.378 128.221 66.5617C128.083 66.7426 127.886 66.9049 127.63 67.0485C127.374 67.1893 127.033 67.2596 126.607 67.2596ZM126.745 66.3464C127.154 66.3464 127.499 66.2401 127.781 66.0276C128.063 65.8122 128.277 65.515 128.424 65.1359C128.571 64.754 128.644 64.3132 128.644 63.8135C128.644 63.3195 128.572 62.8873 128.428 62.5169C128.285 62.1435 128.072 61.8534 127.79 61.6467C127.508 61.437 127.159 61.3322 126.745 61.3322C126.313 61.3322 125.954 61.4428 125.666 61.6639C125.381 61.8822 125.167 62.1794 125.023 62.5556C124.882 62.9289 124.811 63.3482 124.811 63.8135C124.811 64.2845 124.884 64.7123 125.028 65.0971C125.174 65.4791 125.39 65.7835 125.675 66.0104C125.963 66.2344 126.319 66.3464 126.745 66.3464ZM134.777 57.886L131.928 68.4485H130.996L133.844 57.886H134.777ZM140.955 60.5052C140.903 60.0686 140.693 59.7298 140.325 59.4886C139.957 59.2473 139.505 59.1267 138.97 59.1267C138.579 59.1267 138.236 59.1899 137.943 59.3162C137.653 59.4426 137.425 59.6163 137.261 59.8374C137.1 60.0586 137.019 60.3099 137.019 60.5913C137.019 60.8268 137.076 61.0293 137.188 61.1987C137.303 61.3652 137.449 61.5046 137.627 61.6166C137.807 61.7257 137.993 61.8161 138.189 61.888C138.384 61.9569 138.564 62.0128 138.729 62.0559L139.626 62.2972C139.856 62.3575 140.112 62.4407 140.394 62.547C140.679 62.6532 140.951 62.7983 141.21 62.982C141.472 63.163 141.687 63.3956 141.857 63.68C142.027 63.9642 142.112 64.3132 142.112 64.7267C142.112 65.2034 141.986 65.6342 141.736 66.019C141.489 66.4038 141.127 66.7096 140.649 66.9366C140.174 67.1634 139.597 67.2769 138.918 67.2769C138.285 67.2769 137.737 67.1749 137.274 66.971C136.813 66.7671 136.451 66.4828 136.186 66.1181C135.925 65.7534 135.776 65.3298 135.742 64.8473H136.846C136.876 65.1804 136.987 65.4561 137.184 65.6744C137.382 65.8898 137.632 66.0506 137.935 66.1568C138.239 66.2603 138.567 66.3119 138.918 66.3119C139.326 66.3119 139.693 66.2459 140.018 66.1138C140.344 65.9787 140.601 65.7921 140.791 65.5538C140.981 65.3125 141.076 65.0311 141.076 64.7094C141.076 64.4165 140.994 64.1782 140.83 63.9944C140.666 63.8106 140.45 63.6613 140.183 63.5463C139.915 63.4315 139.626 63.331 139.315 63.2449L138.228 62.9347C137.537 62.7365 136.991 62.4536 136.588 62.0861C136.185 61.7185 135.984 61.2374 135.984 60.643C135.984 60.149 136.117 59.7183 136.385 59.3507C136.655 58.9802 137.018 58.693 137.473 58.4892C137.93 58.2824 138.441 58.179 139.005 58.179C139.574 58.179 140.081 58.2809 140.524 58.4849C140.966 58.6858 141.318 58.9615 141.576 59.3119C141.838 59.6623 141.976 60.0601 141.991 60.5052H140.955ZM147.911 64.4165V60.5052H148.929V67.1218H147.911V66.0018H147.841C147.687 66.3377 147.444 66.6235 147.116 66.859C146.789 67.0916 146.374 67.2079 145.873 67.2079C145.459 67.2079 145.091 67.1175 144.769 66.9366C144.447 66.7528 144.193 66.4771 144.009 66.1094C143.825 65.739 143.733 65.2723 143.733 64.7094V60.5052H144.751V64.6405C144.751 65.123 144.887 65.5078 145.157 65.795C145.43 66.0822 145.779 66.2257 146.202 66.2257C146.455 66.2257 146.713 66.1611 146.974 66.0319C147.239 65.9026 147.461 65.7045 147.639 65.4375C147.82 65.1704 147.911 64.8301 147.911 64.4165ZM155.49 61.987L154.575 62.2455C154.517 62.0933 154.433 61.9454 154.32 61.8018C154.211 61.6553 154.061 61.5347 153.871 61.4399C153.682 61.3452 153.439 61.2978 153.142 61.2978C152.736 61.2978 152.398 61.3911 152.128 61.5777C151.861 61.7616 151.727 61.9956 151.727 62.2799C151.727 62.5327 151.818 62.7322 152.003 62.8787C152.187 63.0251 152.475 63.1472 152.866 63.2449L153.85 63.4861C154.443 63.6297 154.884 63.8494 155.175 64.1451C155.465 64.4381 155.611 64.8157 155.611 65.2781C155.611 65.6571 155.501 65.9961 155.283 66.2947C155.067 66.5934 154.765 66.8288 154.376 67.0012C153.988 67.1734 153.536 67.2596 153.022 67.2596C152.345 67.2596 151.785 67.1131 151.343 66.8202C150.9 66.5273 150.619 66.0994 150.501 65.5366L151.468 65.2953C151.56 65.6514 151.734 65.9185 151.99 66.0965C152.249 66.2746 152.586 66.3636 153.004 66.3636C153.478 66.3636 153.856 66.2631 154.135 66.062C154.417 65.8582 154.558 65.6141 154.558 65.3298C154.558 65.1 154.477 64.9076 154.316 64.7525C154.155 64.5946 153.907 64.4768 153.574 64.3993L152.469 64.1408C151.862 63.9973 151.416 63.7747 151.131 63.4732C150.849 63.1688 150.708 62.7882 150.708 62.3316C150.708 61.9583 150.813 61.628 151.023 61.3409C151.236 61.0536 151.525 60.8282 151.891 60.6646C152.259 60.5009 152.676 60.419 153.142 60.419C153.798 60.419 154.313 60.5626 154.687 60.8498C155.064 61.1369 155.331 61.516 155.49 61.987ZM157.144 69.603V60.5052H158.128V61.5562H158.249C158.323 61.4414 158.427 61.2949 158.559 61.1169C158.694 60.936 158.887 60.7751 159.137 60.6344C159.39 60.4908 159.733 60.419 160.165 60.419C160.723 60.419 161.215 60.5583 161.64 60.8368C162.066 61.1154 162.398 61.5103 162.637 62.0215C162.876 62.5327 162.996 63.1357 162.996 63.8307C162.996 64.5314 162.876 65.1388 162.637 65.6528C162.398 66.164 162.068 66.5604 161.645 66.8418C161.222 67.1203 160.734 67.2596 160.182 67.2596C159.756 67.2596 159.415 67.1893 159.159 67.0485C158.903 66.9049 158.706 66.7426 158.568 66.5617C158.429 66.378 158.323 66.2257 158.249 66.1051H158.162V69.603H157.144ZM158.145 63.8135C158.145 64.3132 158.218 64.754 158.365 65.1359C158.512 65.515 158.726 65.8122 159.008 66.0276C159.29 66.2401 159.635 66.3464 160.044 66.3464C160.469 66.3464 160.825 66.2344 161.109 66.0104C161.397 65.7835 161.613 65.4791 161.757 65.0971C161.903 64.7123 161.977 64.2845 161.977 63.8135C161.977 63.3482 161.905 62.9289 161.762 62.5556C161.621 62.1794 161.406 61.8822 161.118 61.6639C160.833 61.4428 160.475 61.3322 160.044 61.3322C159.629 61.3322 159.282 61.437 159 61.6467C158.718 61.8534 158.505 62.1435 158.361 62.5169C158.217 62.8873 158.145 63.3195 158.145 63.8135ZM167.328 67.2596C166.69 67.2596 166.139 67.1188 165.676 66.8374C165.215 66.5532 164.86 66.1568 164.609 65.6486C164.362 65.1374 164.238 64.5429 164.238 63.8651C164.238 63.1874 164.362 62.5901 164.609 62.0732C164.86 61.5533 165.208 61.1484 165.654 60.8584C166.103 60.5655 166.627 60.419 167.225 60.419C167.57 60.419 167.911 60.4765 168.248 60.5913C168.584 60.7062 168.89 60.8929 169.167 61.1513C169.443 61.4069 169.663 61.7458 169.827 62.1679C169.991 62.5901 170.073 63.1099 170.073 63.7273V64.158H164.963V63.2793H169.037C169.037 62.9059 168.962 62.5728 168.813 62.2799C168.666 61.987 168.456 61.7558 168.183 61.5864C167.912 61.417 167.593 61.3322 167.225 61.3322C166.82 61.3322 166.468 61.4327 166.172 61.6338C165.878 61.8319 165.653 62.0904 165.494 62.4092C165.336 62.728 165.257 63.0696 165.257 63.4343V64.0202C165.257 64.5199 165.343 64.9435 165.516 65.291C165.691 65.6356 165.935 65.8984 166.245 66.0793C166.556 66.2573 166.917 66.3464 167.328 66.3464C167.596 66.3464 167.838 66.309 168.053 66.2344C168.272 66.1568 168.46 66.042 168.619 65.8898C168.777 65.7347 168.899 65.5423 168.986 65.3125L169.969 65.5882C169.866 65.9213 169.692 66.2142 169.447 66.467C169.203 66.7168 168.901 66.9121 168.541 67.0529C168.181 67.1907 167.777 67.2596 167.328 67.2596ZM172.641 63.1414V67.1218H171.622V60.5052H172.607V61.539H172.692C172.848 61.203 173.084 60.9331 173.401 60.7292C173.716 60.5224 174.126 60.419 174.626 60.419C175.075 60.419 175.467 60.5109 175.804 60.6947C176.141 60.8756 176.402 61.1513 176.589 61.5218C176.777 61.8893 176.87 62.3546 176.87 62.9174V67.1218H175.851V62.9864C175.851 62.4666 175.716 62.0617 175.446 61.7716C175.176 61.4787 174.805 61.3322 174.332 61.3322C174.007 61.3322 173.716 61.4026 173.46 61.5433C173.208 61.684 173.008 61.8893 172.861 62.1593C172.714 62.4292 172.641 62.7567 172.641 63.1414ZM181.234 67.2596C180.682 67.2596 180.194 67.1203 179.771 66.8418C179.348 66.5604 179.017 66.164 178.778 65.6528C178.539 65.1388 178.42 64.5314 178.42 63.8307C178.42 63.1357 178.539 62.5327 178.778 62.0215C179.017 61.5103 179.35 61.1154 179.776 60.8368C180.201 60.5583 180.693 60.419 181.251 60.419C181.683 60.419 182.024 60.4908 182.274 60.6344C182.527 60.7751 182.72 60.936 182.853 61.1169C182.987 61.2949 183.093 61.4414 183.167 61.5562H183.254V58.2996H184.272V67.1218H183.289V66.1051H183.167C183.093 66.2257 182.986 66.378 182.848 66.5617C182.71 66.7426 182.513 66.9049 182.256 67.0485C182 67.1893 181.66 67.2596 181.234 67.2596ZM181.372 66.3464C181.781 66.3464 182.126 66.2401 182.408 66.0276C182.69 65.8122 182.904 65.515 183.051 65.1359C183.198 64.754 183.271 64.3132 183.271 63.8135C183.271 63.3195 183.199 62.8873 183.055 62.5169C182.911 62.1435 182.699 61.8534 182.417 61.6467C182.135 61.437 181.787 61.3322 181.372 61.3322C180.941 61.3322 180.581 61.4428 180.293 61.6639C180.008 61.8822 179.794 62.1794 179.65 62.5556C179.509 62.9289 179.439 63.3482 179.439 63.8135C179.439 64.2845 179.511 64.7123 179.654 65.0971C179.802 65.4791 180.017 65.7835 180.302 66.0104C180.59 66.2344 180.946 66.3464 181.372 66.3464ZM189.058 67.2596C188.419 67.2596 187.869 67.1188 187.405 66.8374C186.945 66.5532 186.589 66.1568 186.34 65.6486C186.092 65.1374 185.968 64.5429 185.968 63.8651C185.968 63.1874 186.092 62.5901 186.34 62.0732C186.589 61.5533 186.938 61.1484 187.384 60.8584C187.833 60.5655 188.356 60.419 188.955 60.419C189.3 60.419 189.64 60.4765 189.977 60.5913C190.314 60.7062 190.621 60.8929 190.897 61.1513C191.172 61.4069 191.393 61.7458 191.557 62.1679C191.721 62.5901 191.803 63.1099 191.803 63.7273V64.158H186.693V63.2793H190.767C190.767 62.9059 190.692 62.5728 190.543 62.2799C190.396 61.987 190.186 61.7558 189.913 61.5864C189.642 61.417 189.323 61.3322 188.955 61.3322C188.549 61.3322 188.198 61.4327 187.902 61.6338C187.608 61.8319 187.382 62.0904 187.224 62.4092C187.066 62.728 186.987 63.0696 186.987 63.4343V64.0202C186.987 64.5199 187.073 64.9435 187.246 65.291C187.421 65.6356 187.664 65.8984 187.975 66.0793C188.286 66.2573 188.647 66.3464 189.058 66.3464C189.326 66.3464 189.567 66.309 189.783 66.2344C190.002 66.1568 190.19 66.042 190.348 65.8898C190.506 65.7347 190.629 65.5423 190.715 65.3125L191.699 65.5882C191.595 65.9213 191.422 66.2142 191.177 66.467C190.933 66.7168 190.63 66.9121 190.271 67.0529C189.911 67.1907 189.507 67.2596 189.058 67.2596ZM195.855 67.2596C195.303 67.2596 194.815 67.1203 194.392 66.8418C193.969 66.5604 193.639 66.164 193.4 65.6528C193.161 65.1388 193.041 64.5314 193.041 63.8307C193.041 63.1357 193.161 62.5327 193.4 62.0215C193.639 61.5103 193.971 61.1154 194.396 60.8368C194.822 60.5583 195.314 60.419 195.872 60.419C196.304 60.419 196.645 60.4908 196.895 60.6344C197.148 60.7751 197.341 60.936 197.473 61.1169C197.608 61.2949 197.714 61.4414 197.788 61.5562H197.875V58.2996H198.893V67.1218H197.909V66.1051H197.788C197.714 66.2257 197.608 66.378 197.469 66.5617C197.331 66.7426 197.134 66.9049 196.878 67.0485C196.622 67.1893 196.281 67.2596 195.855 67.2596ZM195.993 66.3464C196.402 66.3464 196.747 66.2401 197.029 66.0276C197.311 65.8122 197.525 65.515 197.672 65.1359C197.819 64.754 197.892 64.3132 197.892 63.8135C197.892 63.3195 197.82 62.8873 197.676 62.5169C197.532 62.1435 197.319 61.8534 197.037 61.6467C196.755 61.437 196.408 61.3322 195.993 61.3322C195.562 61.3322 195.202 61.4428 194.915 61.6639C194.629 61.8822 194.416 62.1794 194.271 62.5556C194.13 62.9289 194.06 63.3482 194.06 63.8135C194.06 64.2845 194.132 64.7123 194.275 65.0971C194.422 65.4791 194.638 65.7835 194.923 66.0104C195.21 66.2344 195.568 66.3464 195.993 66.3464Z" fill="#9CAAB9"/>
<path d="M174.186 29.113H148.261C143.787 29.113 140.159 32.7337 140.159 37.2C140.159 41.6663 143.787 45.2869 148.261 45.2869H174.186C178.661 45.2869 182.288 41.6663 182.288 37.2C182.288 32.7337 178.661 29.113 174.186 29.113Z" fill="#F66E78" fill-opacity="0.11"/>
<path d="M46.9898 69.5478C59.5182 69.5478 69.6745 59.41 69.6745 46.9043C69.6745 34.3987 59.5182 24.2609 46.9898 24.2609C34.4614 24.2609 24.3051 34.3987 24.3051 46.9043C24.3051 59.41 34.4614 69.5478 46.9898 69.5478Z" fill="#F66E78"/>
<path d="M46.9899 72.7826C61.3081 72.7826 72.9153 61.1965 72.9153 46.9043C72.9153 32.6122 61.3081 21.0261 46.9899 21.0261C32.6717 21.0261 21.0645 32.6122 21.0645 46.9043C21.0645 61.1965 32.6717 72.7826 46.9899 72.7826Z" stroke="#F66E78" stroke-opacity="0.1" stroke-width="8"/>
<path d="M149.476 35.5826L152.312 38.8174H146.641L149.476 35.5826Z" fill="#F66E78"/>
<path d="M157.909 40.5312C157.411 40.5312 156.97 40.4462 156.582 40.2763C156.198 40.1062 155.894 39.8696 155.671 39.5663C155.448 39.263 155.329 38.9127 155.315 38.5152H156.614C156.625 38.7059 156.688 38.8725 156.803 39.0149C156.919 39.1551 157.072 39.2643 157.263 39.3423C157.454 39.4204 157.668 39.4595 157.904 39.4595C158.158 39.4595 158.382 39.4159 158.578 39.3285C158.774 39.2389 158.927 39.1149 159.037 38.9564C159.148 38.7979 159.202 38.6152 159.199 38.4084C159.202 38.1948 159.146 38.0064 159.034 37.8433C158.921 37.6801 158.758 37.5527 158.544 37.4607C158.331 37.3688 158.076 37.3229 157.777 37.3229H157.152V36.3373H157.777C158.024 36.3373 158.238 36.2948 158.423 36.2098C158.609 36.1248 158.755 36.0053 158.861 35.8514C158.967 35.6952 159.018 35.5148 159.017 35.3104C159.018 35.1105 158.974 34.937 158.882 34.79C158.792 34.6406 158.664 34.5247 158.498 34.4419C158.335 34.3592 158.143 34.3179 157.922 34.3179C157.706 34.3179 157.506 34.3569 157.321 34.4351C157.137 34.5132 156.989 34.6245 156.876 34.7693C156.763 34.9118 156.703 35.0818 156.697 35.2793H155.464C155.473 34.8842 155.587 34.5373 155.805 34.2386C156.027 33.9376 156.321 33.7033 156.689 33.5356C157.058 33.3656 157.471 33.2806 157.929 33.2806C158.401 33.2806 158.81 33.369 159.158 33.5459C159.508 33.7205 159.778 33.956 159.97 34.2524C160.161 34.5488 160.256 34.8761 160.256 35.2345C160.258 35.632 160.141 35.9651 159.904 36.2339C159.669 36.5027 159.36 36.6785 158.979 36.7612V36.8163C159.475 36.8852 159.857 37.0691 160.121 37.3677C160.388 37.6641 160.521 38.0328 160.518 38.4739C160.518 38.869 160.405 39.2229 160.18 39.5353C159.957 39.8455 159.648 40.089 159.255 40.2659C158.864 40.4428 158.415 40.5312 157.909 40.5312ZM164.161 40.5312C163.701 40.5312 163.289 40.4451 162.925 40.2728C162.562 40.0982 162.273 39.8593 162.059 39.556C161.848 39.2528 161.734 38.9058 161.72 38.5152H162.963C162.987 38.8048 163.112 39.0414 163.34 39.2252C163.568 39.4067 163.841 39.4974 164.161 39.4974C164.413 39.4974 164.635 39.44 164.831 39.3251C165.027 39.2102 165.181 39.0506 165.294 38.8461C165.407 38.6416 165.462 38.4084 165.459 38.1466C165.462 37.88 165.406 37.6434 165.291 37.4366C165.175 37.2298 165.018 37.0678 164.818 36.9507C164.618 36.8312 164.387 36.7715 164.127 36.7715C163.915 36.7692 163.707 36.8083 163.502 36.8887C163.297 36.9691 163.135 37.0748 163.015 37.2057L161.859 37.0162L162.228 33.377H166.329V34.4454H163.288L163.085 36.3166H163.126C163.257 36.1627 163.442 36.0352 163.682 35.9341C163.921 35.8307 164.183 35.779 164.468 35.779C164.897 35.779 165.279 35.8801 165.615 36.0823C165.951 36.2822 166.216 36.5579 166.409 36.9093C166.602 37.2609 166.699 37.6629 166.699 38.1155C166.699 38.5819 166.591 38.9977 166.375 39.363C166.16 39.726 165.862 40.0121 165.48 40.2211C165.1 40.4279 164.661 40.5312 164.161 40.5312ZM171.636 39.1114V38.7393C171.636 38.4658 171.694 38.2143 171.809 37.9846C171.926 37.7548 172.096 37.5699 172.32 37.4297C172.543 37.2896 172.813 37.2195 173.131 37.2195C173.457 37.2195 173.732 37.2896 173.952 37.4297C174.173 37.5675 174.34 37.7514 174.453 37.9811C174.568 38.2109 174.626 38.4636 174.626 38.7393V39.1114C174.626 39.3848 174.568 39.6364 174.453 39.8662C174.338 40.0959 174.169 40.2809 173.946 40.421C173.725 40.5612 173.453 40.6312 173.131 40.6312C172.808 40.6312 172.536 40.5612 172.313 40.421C172.09 40.2809 171.92 40.0959 171.805 39.8662C171.693 39.6364 171.636 39.3848 171.636 39.1114ZM172.537 38.7393V39.1114C172.537 39.293 172.581 39.4595 172.668 39.6111C172.756 39.7627 172.91 39.8386 173.131 39.8386C173.354 39.8386 173.508 39.764 173.59 39.6146C173.675 39.463 173.718 39.2952 173.718 39.1114V38.7393C173.718 38.5554 173.678 38.3878 173.597 38.2361C173.516 38.0822 173.361 38.0052 173.131 38.0052C172.915 38.0052 172.761 38.0822 172.671 38.2361C172.582 38.3878 172.537 38.5554 172.537 38.7393ZM168.042 35.0725V34.7004C168.042 34.4247 168.1 34.172 168.218 33.9422C168.335 33.7125 168.506 33.5287 168.729 33.3909C168.952 33.2507 169.223 33.1806 169.54 33.1806C169.865 33.1806 170.137 33.2507 170.358 33.3909C170.582 33.5287 170.75 33.7125 170.862 33.9422C170.976 34.172 171.032 34.4247 171.032 34.7004V35.0725C171.032 35.3482 170.974 35.6009 170.859 35.8307C170.746 36.0582 170.579 36.2408 170.355 36.3787C170.132 36.5165 169.86 36.5855 169.54 36.5855C169.216 36.5855 168.942 36.5165 168.719 36.3787C168.497 36.2408 168.33 36.057 168.215 35.8273C168.1 35.5976 168.042 35.346 168.042 35.0725ZM168.95 34.7004V35.0725C168.95 35.2564 168.992 35.4241 169.078 35.5757C169.165 35.725 169.32 35.7997 169.54 35.7997C169.761 35.7997 169.913 35.725 169.996 35.5757C170.081 35.4241 170.123 35.2564 170.123 35.0725V34.7004C170.123 34.5166 170.084 34.3488 170.003 34.1972C169.923 34.0433 169.769 33.9663 169.54 33.9663C169.321 33.9663 169.168 34.0433 169.082 34.1972C168.994 34.3512 168.95 34.5189 168.95 34.7004ZM168.436 40.4348L173.297 33.377H174.16L169.299 40.4348H168.436Z" fill="#F66E78"/>
<path d="M47.3949 48.1893V44.2356M47.3949 50.8257V50.9074M52.3137 55.8H42.476C41.9542 55.8 41.4537 55.5917 41.0847 55.2209C40.7157 54.8502 40.5084 54.3475 40.5084 53.8232V39.9854C40.5084 39.4612 40.7157 38.9584 41.0847 38.5877C41.4537 38.2169 41.9542 38.0087 42.476 38.0087H47.9714C48.2323 38.0087 48.4824 38.1129 48.6669 38.2983L53.993 43.6495C54.1776 43.8348 54.2812 44.0862 54.2813 44.3483V53.8232C54.2813 54.3475 54.074 54.8502 53.705 55.2209C53.336 55.5917 52.8356 55.8 52.3137 55.8Z" stroke="white" stroke-width="1.8" stroke-linecap="round" stroke-linejoin="round"/>
</g>
<defs>
<clipPath id="clip0_307_696">
<rect width="239" height="93" fill="white"/>
</clipPath>
</defs>
</svg>
