<svg width="232" height="92" viewBox="0 0 232 92" fill="none" xmlns="http://www.w3.org/2000/svg">
<g clip-path="url(#clip0_307_706)">
<path d="M220.203 0.396545H11.7966C5.49866 0.396545 0.393188 5.54527 0.393188 11.8965V80.1034C0.393188 86.4547 5.49866 91.6034 11.7966 91.6034H220.203C226.501 91.6034 231.607 86.4547 231.607 80.1034V11.8965C231.607 5.54527 226.501 0.396545 220.203 0.396545Z" fill="white" stroke="#EAEDF3"/>
<path d="M81.6073 45.2069V42.5707L87.7156 36.8675C88.2347 36.3605 88.6704 35.9042 89.0227 35.4987C89.3797 35.0931 89.651 34.696 89.8351 34.3073C90.0191 33.913 90.1119 33.4877 90.1119 33.0315C90.1119 32.5245 89.9971 32.088 89.7682 31.7219C89.5394 31.3501 89.2264 31.0656 88.83 30.8685C88.4329 30.6657 87.9838 30.5643 87.4813 30.5643C86.9559 30.5643 86.4982 30.6713 86.1066 30.8854C85.7157 31.0995 85.4145 31.4064 85.2021 31.8064C84.9898 32.2063 84.8836 32.6823 84.8836 33.2343H81.4398C81.4398 32.1021 81.6946 31.1191 82.2027 30.2855C82.7107 29.4518 83.4232 28.8068 84.3386 28.3506C85.2548 27.8944 86.311 27.6662 87.5056 27.6662C88.7348 27.6662 89.8044 27.8859 90.7151 28.3253C91.6305 28.759 92.343 29.3617 92.8511 30.1334C93.3599 30.9051 93.6139 31.7895 93.6139 32.7865C93.6139 33.4399 93.4849 34.0849 93.2286 34.7213C92.9769 35.3579 92.5271 36.0648 91.8798 36.8421C91.2318 37.6138 90.3179 38.5404 89.1399 39.6219L86.635 42.0975V42.2158H93.8396V45.2069H81.6073ZM100.381 42.841L100.289 43.7705C100.217 44.514 100.077 45.2548 99.8701 45.9927C99.6695 46.7362 99.4572 47.4093 99.2338 48.012C99.016 48.6148 98.8398 49.0879 98.7053 49.4315H96.3932C96.4774 49.0992 96.5914 48.6344 96.7369 48.0374C96.8824 47.446 97.0192 46.7813 97.1474 46.0434C97.2756 45.3055 97.3566 44.5534 97.3904 43.7874L97.4321 42.841H100.381ZM103.645 45.2069L110.758 31.0121V30.8938H102.472V27.9028H114.511V30.9361L107.39 45.2069H103.645ZM123.053 45.4435C121.763 45.4435 120.615 45.2322 119.61 44.8098C118.609 44.3816 117.824 43.7986 117.255 43.0607C116.686 42.3228 116.4 41.4863 116.4 40.5514C116.4 39.8303 116.562 39.1685 116.886 38.5657C117.216 37.9574 117.663 37.4533 118.227 37.0534C118.791 36.6478 119.423 36.3887 120.121 36.276V36.1577C119.205 35.9718 118.462 35.524 117.892 34.8143C117.322 34.0989 117.037 33.268 117.037 32.3218C117.037 31.4261 117.297 30.6291 117.817 29.9306C118.336 29.2266 119.048 28.6745 119.953 28.2746C120.863 27.869 121.897 27.6662 123.053 27.6662C124.209 27.6662 125.24 27.869 126.144 28.2746C127.055 28.6801 127.77 29.235 128.29 29.9391C128.809 30.6376 129.071 31.4318 129.077 32.3218C129.071 33.2737 128.781 34.1045 128.206 34.8143C127.631 35.524 126.893 35.9718 125.994 36.1577V36.276C126.681 36.3887 127.303 36.6478 127.862 37.0534C128.426 37.4533 128.873 37.9574 129.203 38.5657C129.538 39.1685 129.708 39.8303 129.714 40.5514C129.708 41.4863 129.421 42.3228 128.85 43.0607C128.281 43.7986 127.494 44.3816 126.488 44.8098C125.488 45.2322 124.343 45.4435 123.053 45.4435ZM123.053 42.7566C123.628 42.7566 124.131 42.6524 124.561 42.4439C124.991 42.2299 125.326 41.937 125.566 41.5653C125.812 41.1878 125.935 40.7541 125.935 40.2641C125.935 39.7628 125.809 39.3205 125.558 38.9375C125.307 38.5488 124.966 38.2447 124.536 38.025C124.106 37.7997 123.611 37.6871 123.053 37.6871C122.5 37.6871 122.006 37.7997 121.57 38.025C121.135 38.2447 120.791 38.5488 120.539 38.9375C120.294 39.3205 120.17 39.7628 120.17 40.2641C120.17 40.7541 120.291 41.1878 120.531 41.5653C120.771 41.937 121.109 42.2299 121.545 42.4439C121.981 42.6524 122.483 42.7566 123.053 42.7566ZM123.053 35.0255C123.533 35.0255 123.96 34.927 124.335 34.7298C124.709 34.5326 125.002 34.2594 125.215 33.9102C125.427 33.561 125.533 33.1582 125.533 32.702C125.533 32.2514 125.427 31.857 125.215 31.5191C125.002 31.1754 124.712 30.9079 124.343 30.7164C123.974 30.5192 123.544 30.4206 123.053 30.4206C122.567 30.4206 122.137 30.5192 121.763 30.7164C121.389 30.9079 121.095 31.1754 120.883 31.5191C120.676 31.857 120.573 32.2514 120.573 32.702C120.573 33.1582 120.679 33.561 120.892 33.9102C121.104 34.2594 121.397 34.5326 121.771 34.7298C122.145 34.927 122.572 35.0255 123.053 35.0255ZM132.25 45.2069V42.5707L138.358 36.8675C138.878 36.3605 139.313 35.9042 139.665 35.4987C140.023 35.0931 140.293 34.696 140.478 34.3073C140.662 33.913 140.754 33.4877 140.754 33.0315C140.754 32.5245 140.64 32.088 140.41 31.7219C140.181 31.3501 139.868 31.0656 139.472 30.8685C139.076 30.6657 138.626 30.5643 138.123 30.5643C137.598 30.5643 137.14 30.6713 136.749 30.8854C136.359 31.0995 136.057 31.4064 135.844 31.8064C135.632 32.2063 135.526 32.6823 135.526 33.2343H132.083C132.083 32.1021 132.337 31.1191 132.845 30.2855C133.354 29.4518 134.065 28.8068 134.981 28.3506C135.898 27.8944 136.953 27.6662 138.148 27.6662C139.377 27.6662 140.447 27.8859 141.357 28.3253C142.273 28.759 142.986 29.3617 143.494 30.1334C144.002 30.9051 144.256 31.7895 144.256 32.7865C144.256 33.4399 144.128 34.0849 143.871 34.7213C143.62 35.3579 143.17 36.0648 142.522 36.8421C141.874 37.6138 140.961 38.5404 139.782 39.6219L137.277 42.0975V42.2158H144.482V45.2069H132.25Z" fill="#2B3354"/>
<path d="M82.3938 65.8276H81.3054L84.4551 57.1755H85.5278L88.6783 65.8276H87.5891L85.0253 58.5443H84.9576L82.3938 65.8276ZM82.7965 62.4478H87.1864V63.3773H82.7965V62.4478ZM92.4941 65.9628C91.8909 65.9628 91.3719 65.8191 90.9362 65.5318C90.5005 65.2446 90.1655 64.8489 89.9303 64.3447C89.696 63.8406 89.5788 63.2646 89.5788 62.6168C89.5788 61.9578 89.6983 61.3762 89.939 60.8721C90.182 60.3651 90.5194 59.9694 90.9527 59.685C91.3884 59.3977 91.8964 59.254 92.4776 59.254C92.9298 59.254 93.338 59.3385 93.7005 59.5075C94.0638 59.6765 94.3611 59.9131 94.5931 60.2172C94.8251 60.5215 94.9683 60.8763 95.0241 61.2819H94.0355C93.96 60.9861 93.7925 60.7242 93.533 60.4961C93.2758 60.2651 92.9298 60.1497 92.4941 60.1497C92.1088 60.1497 91.7706 60.251 91.4804 60.4538C91.1925 60.6538 90.9676 60.9369 90.8056 61.303C90.6468 61.6663 90.5673 62.093 90.5673 62.5831C90.5673 63.0844 90.6452 63.5209 90.8017 63.8927C90.9613 64.2644 91.1847 64.5531 91.4717 64.7587C91.7627 64.9643 92.1032 65.0671 92.4941 65.0671C92.7513 65.0671 92.9841 65.0221 93.194 64.9319C93.4032 64.8418 93.581 64.7123 93.7257 64.5433C93.8712 64.3743 93.9742 64.1715 94.0355 63.9349H95.0241C94.9683 64.318 94.8306 64.663 94.6096 64.97C94.3918 65.2741 94.1032 65.5164 93.743 65.6966C93.3851 65.874 92.9691 65.9628 92.4941 65.9628ZM99.2677 59.3386V60.1834H95.9332V59.3386H99.2677ZM96.9053 57.7839H97.8938V63.9687C97.8938 64.2504 97.9347 64.4616 98.0157 64.6025C98.0991 64.7405 98.2052 64.8333 98.3342 64.8812C98.4648 64.9263 98.6032 64.9488 98.7487 64.9488C98.8572 64.9488 98.9469 64.9432 99.0168 64.9319C99.0868 64.9179 99.1427 64.9066 99.1844 64.8981L99.3857 65.7938C99.3181 65.8191 99.2245 65.8445 99.1049 65.8698C98.9846 65.898 98.832 65.912 98.648 65.912C98.3688 65.912 98.0951 65.8515 97.827 65.7304C97.5619 65.6093 97.3409 65.4248 97.1648 65.177C96.9918 64.9291 96.9053 64.6165 96.9053 64.2391V57.7839ZM100.755 65.8276V59.3386H101.744V65.8276H100.755ZM101.258 58.257C101.066 58.257 100.899 58.1909 100.76 58.0585C100.623 57.9261 100.554 57.7669 100.554 57.5811C100.554 57.3952 100.623 57.2361 100.76 57.1037C100.899 56.9714 101.066 56.9052 101.258 56.9052C101.451 56.9052 101.615 56.9714 101.752 57.1037C101.892 57.2361 101.962 57.3952 101.962 57.5811C101.962 57.7669 101.892 57.9261 101.752 58.0585C101.615 58.1909 101.451 58.257 101.258 58.257ZM108.816 59.3386L106.437 65.8276H105.431L103.052 59.3386H104.124L105.901 64.5095H105.967L107.744 59.3386H108.816ZM111.819 65.9797C111.411 65.9797 111.041 65.9022 110.709 65.7473C110.376 65.5896 110.112 65.3629 109.917 65.0671C109.721 64.7686 109.624 64.4081 109.624 63.9857C109.624 63.6139 109.696 63.3125 109.841 63.0815C109.987 62.8478 110.18 62.6647 110.423 62.5324C110.666 62.4 110.935 62.3014 111.228 62.2366C111.524 62.1691 111.822 62.1155 112.121 62.0761C112.511 62.0254 112.828 61.9874 113.071 61.9621C113.317 61.9339 113.496 61.8874 113.608 61.8226C113.722 61.7578 113.779 61.6452 113.779 61.4846V61.4508C113.779 61.034 113.666 60.7101 113.44 60.4792C113.217 60.2482 112.877 60.1328 112.422 60.1328C111.95 60.1328 111.58 60.237 111.312 60.4454C111.044 60.6538 110.855 60.8763 110.747 61.1129L109.808 60.7749C109.975 60.3806 110.199 60.0736 110.478 59.8539C110.76 59.6314 111.067 59.4766 111.4 59.3892C111.735 59.2991 112.065 59.254 112.389 59.254C112.595 59.254 112.832 59.2794 113.1 59.3301C113.372 59.378 113.633 59.478 113.884 59.63C114.138 59.7821 114.349 60.0117 114.517 60.3187C114.684 60.6257 114.768 61.0368 114.768 61.5523V65.8276H113.779V64.9488H113.729C113.662 65.0897 113.55 65.2403 113.394 65.4009C113.237 65.5614 113.03 65.698 112.769 65.8107C112.51 65.9233 112.193 65.9797 111.819 65.9797ZM111.97 65.084C112.36 65.084 112.69 65.0065 112.958 64.8517C113.229 64.6968 113.433 64.4968 113.57 64.2517C113.709 64.0068 113.779 63.7491 113.779 63.4787V62.5662C113.737 62.6168 113.645 62.6633 113.503 62.7056C113.363 62.745 113.201 62.7802 113.017 62.8112C112.835 62.8393 112.658 62.8647 112.485 62.8872C112.315 62.907 112.176 62.9239 112.07 62.9379C111.813 62.9717 111.573 63.0266 111.35 63.1027C111.129 63.1759 110.95 63.2872 110.813 63.4364C110.679 63.5828 110.612 63.7829 110.612 64.0363C110.612 64.3828 110.74 64.6447 110.994 64.8221C111.251 64.9967 111.576 65.084 111.97 65.084ZM119.371 59.3386V60.1834H116.036V59.3386H119.371ZM117.008 57.7839H117.997V63.9687C117.997 64.2504 118.037 64.4616 118.118 64.6025C118.202 64.7405 118.308 64.8333 118.436 64.8812C118.568 64.9263 118.706 64.9488 118.851 64.9488C118.96 64.9488 119.05 64.9432 119.119 64.9319C119.189 64.9179 119.245 64.9066 119.287 64.8981L119.488 65.7938C119.421 65.8191 119.327 65.8445 119.207 65.8698C119.088 65.898 118.935 65.912 118.751 65.912C118.471 65.912 118.197 65.8515 117.93 65.7304C117.664 65.6093 117.444 65.4248 117.268 65.177C117.095 64.9291 117.008 64.6165 117.008 64.2391V57.7839ZM123.486 65.9628C122.866 65.9628 122.332 65.8247 121.882 65.5487C121.435 65.2699 121.091 64.8812 120.848 64.3828C120.607 63.8814 120.487 63.2984 120.487 62.6337C120.487 61.969 120.607 61.3833 120.848 60.8763C121.091 60.3665 121.428 59.9694 121.861 59.685C122.297 59.3977 122.805 59.254 123.386 59.254C123.721 59.254 124.052 59.3104 124.379 59.423C124.706 59.5357 125.003 59.7188 125.271 59.9722C125.54 60.2229 125.753 60.5552 125.912 60.9692C126.071 61.3832 126.151 61.8931 126.151 62.4986V62.921H121.191V62.0592H125.146C125.146 61.693 125.072 61.3664 124.928 61.0791C124.785 60.7918 124.581 60.5651 124.316 60.3989C124.053 60.2328 123.743 60.1497 123.386 60.1497C122.992 60.1497 122.652 60.2482 122.364 60.4454C122.079 60.6397 121.86 60.8932 121.706 61.2058C121.552 61.5185 121.476 61.8536 121.476 62.2113V62.7859C121.476 63.2759 121.559 63.6913 121.727 64.0321C121.898 64.3701 122.133 64.6278 122.435 64.8052C122.737 64.9798 123.087 65.0671 123.486 65.0671C123.746 65.0671 123.981 65.0305 124.19 64.9573C124.402 64.8812 124.586 64.7686 124.739 64.6194C124.892 64.4672 125.011 64.2786 125.095 64.0532L126.05 64.3236C125.95 64.6503 125.781 64.9375 125.543 65.1854C125.306 65.4305 125.013 65.622 124.663 65.76C124.314 65.8951 123.922 65.9628 123.486 65.9628ZM130.084 65.9628C129.548 65.9628 129.075 65.8261 128.664 65.553C128.254 65.277 127.933 64.8883 127.701 64.387C127.469 63.8828 127.353 63.2872 127.353 62.5999C127.353 61.9184 127.469 61.3269 127.701 60.8256C127.933 60.3243 128.255 59.937 128.669 59.6638C129.082 59.3907 129.559 59.254 130.101 59.254C130.52 59.254 130.851 59.3244 131.094 59.4653C131.34 59.6033 131.527 59.761 131.656 59.9385C131.786 60.113 131.888 60.2567 131.961 60.3693H132.045V57.1755H133.034V65.8276H132.079V64.8306H131.961C131.888 64.9488 131.785 65.0981 131.651 65.2783C131.517 65.4558 131.325 65.6149 131.077 65.7557C130.828 65.8938 130.498 65.9628 130.084 65.9628ZM130.218 65.0671C130.615 65.0671 130.95 64.9629 131.224 64.7545C131.498 64.5433 131.705 64.2517 131.848 63.88C131.991 63.5054 132.062 63.0731 132.062 62.5831C132.062 62.0986 131.992 61.6747 131.852 61.3115C131.712 60.9453 131.506 60.6608 131.233 60.4581C130.959 60.2524 130.621 60.1497 130.218 60.1497C129.8 60.1497 129.451 60.2581 129.171 60.475C128.895 60.689 128.687 60.9805 128.547 61.3495C128.41 61.7156 128.342 62.1268 128.342 62.5831C128.342 63.045 128.412 63.4646 128.551 63.8419C128.694 64.2165 128.903 64.5151 129.179 64.7376C129.459 64.9573 129.805 65.0671 130.218 65.0671Z" fill="#9CAAB9"/>
<path d="M186.386 28.5517H161.22C156.877 28.5517 153.356 32.1025 153.356 36.4827C153.356 40.8629 156.877 44.4138 161.22 44.4138H186.386C190.73 44.4138 194.251 40.8629 194.251 36.4827C194.251 32.1025 190.73 28.5517 186.386 28.5517Z" fill="#FFB65C" fill-opacity="0.1"/>
<path d="M45.6136 68.2069C57.7751 68.2069 67.6339 58.2645 67.6339 46C67.6339 33.7355 57.7751 23.7931 45.6136 23.7931C33.4521 23.7931 23.5933 33.7355 23.5933 46C23.5933 58.2645 33.4521 68.2069 45.6136 68.2069Z" fill="#FFB65C"/>
<path d="M45.6136 71.3793C59.5125 71.3793 70.7797 60.0166 70.7797 46C70.7797 31.9834 59.5125 20.6207 45.6136 20.6207C31.7148 20.6207 20.4475 31.9834 20.4475 46C20.4475 60.0166 31.7148 71.3793 45.6136 71.3793Z" stroke="#FFB65C" stroke-opacity="0.1" stroke-width="8"/>
<path d="M162.4 34.8965L165.153 38.069H159.647L162.4 34.8965Z" fill="#FFB65C"/>
<path d="M170.913 32.7335V39.6552H169.67V33.9536H169.63L168.025 34.9879V33.8387L169.73 32.7335H170.913ZM172.656 39.6552V38.7495L175.039 36.3938C175.267 36.1617 175.457 35.9555 175.608 35.7753C175.761 35.5951 175.875 35.4204 175.95 35.2514C176.027 35.0825 176.064 34.9022 176.064 34.7107C176.064 34.4922 176.015 34.3052 175.917 34.1496C175.818 33.992 175.684 33.8703 175.512 33.7846C175.339 33.6991 175.144 33.6562 174.925 33.6562C174.699 33.6562 174.502 33.7035 174.332 33.7982C174.162 33.8905 174.03 34.0223 173.936 34.1936C173.845 34.3648 173.799 34.5687 173.799 34.8053H172.616C172.616 34.366 172.715 33.984 172.914 33.6596C173.113 33.3351 173.387 33.0839 173.735 32.906C174.086 32.7279 174.488 32.6389 174.941 32.6389C175.402 32.6389 175.806 32.7257 176.155 32.8991C176.503 33.0727 176.774 33.3104 176.966 33.6123C177.16 33.9142 177.257 34.2589 177.257 34.6465C177.257 34.9056 177.209 35.1602 177.11 35.4103C177.012 35.6604 176.838 35.9375 176.591 36.2417C176.345 36.5458 176 36.9142 175.555 37.3469L174.372 38.5602V38.6075H177.361V39.6552H172.656ZM182.188 38.3574V37.9924C182.188 37.7242 182.244 37.4776 182.355 37.2522C182.468 37.0269 182.634 36.8455 182.851 36.7081C183.068 36.5707 183.33 36.5019 183.639 36.5019C183.956 36.5019 184.221 36.5707 184.436 36.7081C184.651 36.8432 184.813 37.0235 184.922 37.2488C185.034 37.4742 185.09 37.722 185.09 37.9924V38.3574C185.09 38.6255 185.034 38.8722 184.922 39.0976C184.81 39.3229 184.646 39.5043 184.429 39.6417C184.215 39.7792 183.951 39.8478 183.639 39.8478C183.326 39.8478 183.061 39.7792 182.844 39.6417C182.627 39.5043 182.463 39.3229 182.351 39.0976C182.242 38.8722 182.188 38.6255 182.188 38.3574ZM183.062 37.9924V38.3574C183.062 38.5354 183.105 38.6987 183.19 38.8474C183.275 38.9961 183.424 39.0705 183.639 39.0705C183.855 39.0705 184.004 38.9973 184.084 38.8508C184.167 38.7021 184.208 38.5376 184.208 38.3574V37.9924C184.208 37.8121 184.169 37.6477 184.091 37.4989C184.013 37.348 183.862 37.2725 183.639 37.2725C183.429 37.2725 183.28 37.348 183.193 37.4989C183.105 37.6477 183.062 37.8121 183.062 37.9924ZM178.698 34.3964V34.0314C178.698 33.761 178.756 33.5132 178.87 33.2878C178.984 33.0625 179.149 32.8822 179.365 32.7471C179.582 32.6097 179.845 32.5409 180.153 32.5409C180.468 32.5409 180.733 32.6097 180.947 32.7471C181.164 32.8822 181.327 33.0625 181.437 33.2878C181.546 33.5132 181.601 33.761 181.601 34.0314V34.3964C181.601 34.6667 181.545 34.9146 181.433 35.1399C181.324 35.363 181.161 35.5421 180.944 35.6773C180.727 35.8124 180.464 35.8801 180.153 35.8801C179.838 35.8801 179.572 35.8124 179.356 35.6773C179.141 35.5421 178.978 35.3618 178.867 35.1366C178.754 34.9112 178.698 34.6645 178.698 34.3964ZM179.58 34.0314V34.3964C179.58 34.5766 179.622 34.7411 179.704 34.8898C179.789 35.0362 179.938 35.1095 180.153 35.1095C180.368 35.1095 180.515 35.0362 180.595 34.8898C180.678 34.7411 180.719 34.5766 180.719 34.3964V34.0314C180.719 33.8511 180.68 33.6866 180.602 33.5379C180.524 33.387 180.374 33.3115 180.153 33.3115C179.941 33.3115 179.792 33.387 179.707 33.5379C179.622 33.6889 179.58 33.8534 179.58 34.0314ZM179.08 39.6552L183.799 32.7335H184.637L179.919 39.6552H179.08Z" fill="#FFB65C"/>
<path d="M43.1418 50.8468V48.9081M46.0068 50.8468V46.9693M48.8717 50.8468V45.0307M50.7816 54.7242H41.232C40.7254 54.7242 40.2396 54.5199 39.8814 54.1563C39.5233 53.7927 39.322 53.2997 39.322 52.7855V39.2145C39.322 38.7004 39.5233 38.2073 39.8814 37.8437C40.2396 37.4801 40.7254 37.2759 41.232 37.2759H46.5664C46.8196 37.276 47.0625 37.3781 47.2416 37.5599L52.4117 42.8079C52.5909 42.9897 52.6914 43.2362 52.6915 43.4933V52.7855C52.6915 53.2997 52.4903 53.7927 52.1321 54.1563C51.7739 54.5199 51.2881 54.7242 50.7816 54.7242Z" stroke="white" stroke-width="1.8" stroke-linecap="round" stroke-linejoin="round"/>
</g>
<defs>
<clipPath id="clip0_307_706">
<rect width="232" height="92" fill="white"/>
</clipPath>
</defs>
</svg>
