<svg width="77" height="77" viewBox="0 0 77 77" fill="none" xmlns="http://www.w3.org/2000/svg">
<g clip-path="url(#clip0_145_200)">
<path d="M38.4996 76.6402C59.5638 76.6402 76.6397 59.5643 76.6397 38.5C76.6397 17.4358 59.5638 0.359863 38.4996 0.359863C17.4353 0.359863 0.359375 17.4358 0.359375 38.5C0.359375 59.5643 17.4353 76.6402 38.4996 76.6402Z" fill="white"/>
<path d="M31.0568 18.6714C30.5991 18.6763 30.1614 18.8603 29.8378 19.184C29.5141 19.5077 29.3301 19.9453 29.3252 20.403V21.3072L20.5097 23.6698C20.0688 23.7938 19.6941 24.0857 19.466 24.4829C19.2378 24.8801 19.1745 25.3509 19.2895 25.7942L22.2414 36.6951C21.385 37.1737 20.7856 38.0565 20.7856 39.0955V56.2541C20.7856 57.7942 22.0663 59.0498 23.6191 59.0498H52.9379C54.4894 59.0498 55.7714 57.7942 55.7714 56.2541V39.0968C55.7714 37.9558 55.0763 36.9685 54.0789 36.5403L56.9918 25.7955C57.1075 25.3517 57.0445 24.8804 56.8163 24.4826C56.5881 24.0848 56.2129 23.7925 55.7714 23.6685L46.956 21.3085V20.4017C46.9505 19.9445 46.7662 19.5075 46.4426 19.1843C46.1189 18.8612 45.6817 18.6776 45.2244 18.6727H31.0568V18.6714ZM31.0568 19.9307H45.2244C45.2867 19.9299 45.3484 19.9415 45.4062 19.965C45.4638 19.9884 45.5163 20.0231 45.5602 20.0672C45.6043 20.1112 45.639 20.1636 45.6625 20.2212C45.6859 20.279 45.6975 20.3407 45.6967 20.403V21.7014C45.6963 21.7144 45.6963 21.7274 45.6967 21.7404V21.8198C45.693 21.8591 45.693 21.8988 45.6967 21.9381V36.3022H44.4373V23.1182C44.4373 22.9511 44.371 22.791 44.2529 22.6729C44.1348 22.5548 43.9747 22.4885 43.8076 22.4885C43.7196 22.4893 43.6323 22.4726 43.5507 22.4393C43.4693 22.406 43.3952 22.3567 43.3329 22.2945C43.2707 22.2322 43.2214 22.1582 43.1881 22.0767C43.1548 21.9951 43.1381 21.9078 43.139 21.8198C43.139 21.6527 43.0726 21.4926 42.9545 21.3745C42.8364 21.2564 42.6762 21.1901 42.5093 21.1901H33.7707C33.6037 21.1901 33.4435 21.2564 33.3254 21.3745C33.2073 21.4926 33.141 21.6527 33.141 21.8198C33.141 22.2014 32.84 22.4885 32.4723 22.4885C32.3053 22.4885 32.1451 22.5548 32.0271 22.6729C31.909 22.791 31.8426 22.9511 31.8426 23.1182V36.3022H30.5833V21.9381C30.6099 21.8349 30.6099 21.7266 30.5833 21.6233V20.4017C30.5826 20.3396 30.5944 20.278 30.6178 20.2204C30.6414 20.1629 30.6761 20.1106 30.7202 20.0667C30.7641 20.0228 30.8165 19.9882 30.8741 19.9648C30.9317 19.9415 30.9934 19.9299 31.0555 19.9307H31.0568ZM34.1271 22.4494H42.1542C42.3493 22.9494 42.6806 23.3133 43.178 23.5123V36.3022H33.1032V23.5123C33.6007 23.3133 33.9319 22.9494 34.1271 22.4494ZM36.8422 36.3022C37.8182 36.3022 38.5738 35.4257 38.5738 34.4132C38.5738 33.7999 38.9705 33.3894 39.439 33.3894C39.9087 33.3894 40.3444 33.7999 40.3444 34.4132C40.3444 35.0252 39.9087 35.4761 39.439 35.4761C38.8723 35.4585 38.8723 36.3098 39.439 36.3022C40.2651 36.3022 40.8772 35.6549 41.0535 34.8464H41.4854C42.0534 34.8628 42.0534 34.0115 41.4854 34.0191H41.0132C40.8369 33.2106 40.2638 32.5242 39.439 32.5242C38.5537 32.5242 37.7074 33.174 37.7074 34.3742V34.412C37.7074 35.0252 37.3107 35.4761 36.8422 35.4761C36.3788 35.4761 35.9481 35.0517 35.9367 34.4523V34.4132C35.9544 33.8138 36.38 33.3894 36.8422 33.3894C37.4089 33.407 37.4089 32.5154 36.8422 32.5242C36.0047 32.5242 35.3222 33.1967 35.1497 34.0191H34.7958C34.559 34.0191 34.3588 34.1765 34.3625 34.4132C34.3625 34.6449 34.564 34.8489 34.7958 34.8464H35.1497C35.3222 35.6688 36.0047 36.3022 36.8422 36.3022ZM29.3252 22.6069V23.9443L23.8156 25.4013C23.7315 25.4195 23.6521 25.4549 23.5822 25.505C23.5123 25.555 23.4534 25.6189 23.4091 25.6927C23.3649 25.7665 23.3362 25.8485 23.3249 25.9338C23.3136 26.019 23.3198 26.1057 23.3433 26.1885C23.4415 26.5562 23.2652 26.8798 22.9101 26.9755C22.826 26.9937 22.7466 27.0291 22.6767 27.0791C22.6068 27.1292 22.5479 27.1931 22.5037 27.2669C22.4594 27.3407 22.4308 27.4227 22.4194 27.508C22.4081 27.5932 22.4144 27.6799 22.4378 27.7626L24.721 36.301H23.6191C23.5662 36.301 23.5133 36.3388 23.4617 36.3413L20.5097 25.4404C20.4405 25.1822 20.6068 24.958 20.8637 24.8888L29.3252 22.6069ZM46.956 22.6069L55.4176 24.8888C55.6745 24.958 55.8407 25.1822 55.7714 25.4404L52.8195 36.3022H51.5602L53.8434 27.7626C53.8669 27.6799 53.8731 27.5932 53.8618 27.508C53.8505 27.4227 53.8217 27.3407 53.7776 27.2669C53.7333 27.1931 53.6744 27.1292 53.6045 27.0791C53.5346 27.0291 53.4552 26.9937 53.3711 26.9755C53.016 26.8798 52.8397 26.5562 52.9379 26.1885C52.9614 26.1057 52.9676 26.019 52.9563 25.9338C52.945 25.8485 52.9163 25.7665 52.8721 25.6927C52.8278 25.6189 52.7689 25.555 52.6991 25.505C52.6291 25.4549 52.5497 25.4195 52.4657 25.4013L46.956 23.943V22.6069ZM38.1406 23.7088C37.9752 23.7088 37.8114 23.7414 37.6587 23.8046C37.5059 23.8679 37.3671 23.9607 37.2501 24.0777C37.1332 24.1946 37.0404 24.3334 36.9771 24.4862C36.9138 24.639 36.8812 24.8027 36.8812 24.9681C36.8812 25.1335 36.9138 25.2973 36.9771 25.45C37.0404 25.6028 37.1332 25.7416 37.2501 25.8586C37.3671 25.9755 37.5059 26.0683 37.6587 26.1316C37.8114 26.1949 37.9752 26.2275 38.1406 26.2275C38.4746 26.2275 38.7949 26.0948 39.0311 25.8586C39.2672 25.6224 39.3999 25.3021 39.3999 24.9681C39.3999 24.6341 39.2672 24.3138 39.0311 24.0777C38.7949 23.8415 38.4746 23.7088 38.1406 23.7088ZM29.3252 25.2036V26.6998C29.1193 26.6416 28.9014 26.6416 28.6955 26.6998C28.3786 26.789 28.1092 26.9988 27.9451 27.2842C27.7811 27.5697 27.7353 27.908 27.8176 28.2268C27.8999 28.5456 28.1038 28.8195 28.3856 28.9897C28.6674 29.16 29.0046 29.2132 29.3252 29.1378V36.301H26.0194L23.7765 27.8004C24.2072 27.4792 24.4263 27.036 24.4842 26.5008L29.3252 25.2049V25.2036ZM46.956 25.2036L51.7969 26.5033C51.8549 27.0385 52.074 27.4805 52.5047 27.8004L50.2228 36.301H46.956V29.1404C47.2795 29.2238 47.6229 29.1754 47.9107 29.0057C48.1984 28.836 48.4071 28.559 48.4905 28.2355C48.574 27.912 48.5256 27.5686 48.3559 27.2808C48.1862 26.9931 47.9092 26.7845 47.5857 26.701C47.3798 26.6428 47.1619 26.6428 46.956 26.701V25.2036ZM23.6191 37.5629H52.9379C53.8295 37.5629 54.5121 38.2492 54.5121 39.098V43.8583H42.5093L40.6593 45.7095V50.8641L42.5093 52.6749H54.5121V56.2553C54.5121 57.1041 53.8295 57.7917 52.9379 57.7917H23.6191C22.7275 57.7917 22.0449 57.1041 22.0449 56.2553V39.0968C22.0449 38.2492 22.7275 37.5629 23.6191 37.5629ZM43.0206 45.1189H54.5121V51.4156H43.0206L41.9186 50.3515V46.2196L43.0206 45.1176V45.1189ZM44.9889 46.5747C44.5101 46.5786 44.052 46.7706 43.7132 47.1091C43.3745 47.4475 43.1823 47.9055 43.178 48.3844C43.178 49.3705 44.0016 50.155 44.9889 50.155C45.975 50.155 46.7986 49.3705 46.7986 48.3832C46.7943 47.9043 46.6021 47.4463 46.2634 47.1078C45.9246 46.7693 45.4665 46.5774 44.9877 46.5735L44.9889 46.5747ZM44.9889 47.8341C45.295 47.8341 45.5393 48.0783 45.5393 48.3856C45.5393 48.6917 45.295 48.8969 44.9877 48.8969C44.6816 48.8969 44.4373 48.6917 44.4373 48.3844C44.4373 48.0784 44.6816 47.8341 44.9889 47.8341Z" fill="url(#paint0_linear_145_200)"/>
</g>
<defs>
<linearGradient id="paint0_linear_145_200" x1="57.0484" y1="18.6714" x2="16.7568" y2="56.4052" gradientUnits="userSpaceOnUse">
<stop stop-color="#3FBBFF"/>
<stop offset="1" stop-color="#A8E26D"/>
</linearGradient>
<clipPath id="clip0_145_200">
<rect width="77" height="77" fill="white"/>
</clipPath>
</defs>
</svg>
