<svg width="77" height="77" viewBox="0 0 77 77" fill="none" xmlns="http://www.w3.org/2000/svg">
<g clip-path="url(#clip0_145_194)">
<path d="M38.4996 76.6402C59.5638 76.6402 76.6397 59.5643 76.6397 38.5C76.6397 17.4358 59.5638 0.359863 38.4996 0.359863C17.4353 0.359863 0.359375 17.4358 0.359375 38.5C0.359375 59.5643 17.4353 76.6402 38.4996 76.6402Z" fill="white"/>
<path fill-rule="evenodd" clip-rule="evenodd" d="M38.1398 21.1392C28.7564 21.1392 21.1387 28.7569 21.1387 38.1403C21.1387 47.5237 28.7564 55.1415 38.1398 55.1415C47.5233 55.1415 55.141 47.5237 55.141 38.1403C55.141 28.7569 47.5233 21.1392 38.1398 21.1392ZM38.1398 22.3985C46.828 22.3985 53.8817 29.4521 53.8817 38.1403C53.8817 46.8285 46.828 53.8821 38.1398 53.8821C29.4516 53.8821 22.398 46.8285 22.398 38.1403C22.398 29.4521 29.4516 22.3985 38.1398 22.3985Z" fill="url(#paint0_linear_145_194)"/>
<path fill-rule="evenodd" clip-rule="evenodd" d="M38.1397 23.6577C30.1466 23.6577 23.6572 30.1471 23.6572 38.1402C23.6572 46.1333 30.1466 52.6227 38.1397 52.6227C46.1328 52.6227 52.6222 46.1333 52.6222 38.1402C52.6222 30.1471 46.1328 23.6577 38.1397 23.6577ZM38.1397 24.9171C45.4376 24.9171 51.3628 30.8422 51.3628 38.1402C51.3628 45.4381 45.4376 51.3633 38.1397 51.3633C30.8418 51.3633 24.9166 45.4381 24.9166 38.1402C24.9166 30.8422 30.8418 24.9171 38.1397 24.9171Z" fill="url(#paint1_linear_145_194)"/>
<path fill-rule="evenodd" clip-rule="evenodd" d="M51.9925 37.5106H48.5293C48.1817 37.5106 47.8996 37.7927 47.8996 38.1403C47.8996 38.4879 48.1817 38.77 48.5293 38.77H51.9925C52.3401 38.77 52.6222 38.4879 52.6222 38.1403C52.6222 37.7927 52.3401 37.5106 51.9925 37.5106ZM38.7694 51.6783V48.2151C38.7694 47.8675 38.4873 47.5854 38.1397 47.5854C37.7921 47.5854 37.51 47.8675 37.51 48.2151V51.6783C37.51 52.0258 37.7921 52.3079 38.1397 52.3079C38.4873 52.3079 38.7694 52.0258 38.7694 51.6783ZM27.7501 37.5106H24.2869C23.9393 37.5106 23.6572 37.7927 23.6572 38.1403C23.6572 38.4879 23.9393 38.77 24.2869 38.77H27.7501C28.0977 38.77 28.3798 38.4879 28.3798 38.1403C28.3798 37.7927 28.0977 37.5106 27.7501 37.5106ZM38.7694 28.0655V24.6023C38.7694 24.2547 38.4873 23.9727 38.1397 23.9727C37.7921 23.9727 37.51 24.2547 37.51 24.6023V28.0655C37.51 28.4131 37.7921 28.6952 38.1397 28.6952C38.4873 28.6952 38.7694 28.4131 38.7694 28.0655ZM45.3047 49.6702L44.6877 48.6023C44.5139 48.3013 44.1285 48.1981 43.8276 48.3719C43.5265 48.5457 43.4233 48.931 43.5971 49.232L44.2141 50.2999C44.3873 50.6009 44.7733 50.7042 45.0743 50.5304C45.3753 50.3566 45.4785 49.9712 45.3047 49.6702ZM32.2881 50.2999L32.9046 49.232C33.0784 48.931 32.9751 48.5457 32.6741 48.3719C32.3731 48.1981 31.9878 48.3013 31.814 48.6023L31.1975 49.6702C31.0238 49.9712 31.127 50.3566 31.428 50.5304C31.729 50.7042 32.1143 50.6009 32.2881 50.2999ZM50.2993 44.2147L49.2314 43.5977C48.9304 43.4239 48.5451 43.5271 48.3713 43.8281C48.1975 44.1291 48.3008 44.5145 48.6017 44.6882L49.6696 45.3053C49.9706 45.4791 50.356 45.3758 50.5298 45.0749C50.7036 44.7739 50.6003 44.3879 50.2993 44.2147ZM26.8326 45.3053L27.9006 44.6882C28.2016 44.5145 28.3049 44.1291 28.1311 43.8281C27.9573 43.5271 27.5719 43.4239 27.2709 43.5977L26.203 44.2147C25.902 44.3879 25.7988 44.7739 25.9726 45.0749C26.1463 45.3758 26.5317 45.4791 26.8326 45.3053ZM32.9323 27.3188L32.2881 26.2036C32.1143 25.9026 31.729 25.7994 31.428 25.9731C31.127 26.1469 31.0238 26.5323 31.1975 26.8332L31.8417 27.9484C32.0155 28.2494 32.4009 28.3527 32.7018 28.1789C33.0029 28.0051 33.1061 27.6197 32.9323 27.3188ZM44.6606 27.9484L45.3047 26.8332C45.4785 26.5323 45.3753 26.1469 45.0743 25.9731C44.7733 25.7994 44.3873 25.9026 44.2141 26.2036L43.57 27.3188C43.3962 27.6197 43.4995 28.0051 43.8005 28.1789C44.1014 28.3527 44.4868 28.2494 44.6606 27.9484ZM27.9479 31.8423L26.8326 31.1981C26.5317 31.0243 26.1463 31.1276 25.9726 31.4286C25.7988 31.7296 25.902 32.1149 26.203 32.2887L27.3182 32.9329C27.6191 33.1067 28.0045 33.0035 28.1783 32.7024C28.3521 32.4015 28.2488 32.0161 27.9479 31.8423ZM49.1835 32.9329L50.2993 32.2887C50.6003 32.1149 50.7036 31.7296 50.5298 31.4286C50.356 31.1276 49.9706 31.0243 49.6696 31.1981L48.5538 31.8423C48.2529 32.0161 48.1496 32.4015 48.3234 32.7024C48.4972 33.0035 48.8826 33.1067 49.1835 32.9329ZM38.4602 40.4115L40.0828 44.063C40.2239 44.3803 40.5967 44.524 40.914 44.3829C41.2314 44.2419 41.375 43.8691 41.234 43.5517L39.6106 39.9002C39.4696 39.5829 39.0975 39.4393 38.7801 39.5803C38.4621 39.7214 38.3192 40.0942 38.4602 40.4115ZM40.1906 37.1145L46.1214 31.678C46.3777 31.4431 46.3947 31.0445 46.1599 30.7882C45.925 30.532 45.5264 30.515 45.2701 30.7498L39.3392 36.1864C39.0836 36.4213 39.0659 36.8199 39.3008 37.0761C39.5357 37.3324 39.9342 37.3494 40.1906 37.1145Z" fill="url(#paint2_linear_145_194)"/>
<path fill-rule="evenodd" clip-rule="evenodd" d="M38.1398 35.6216C36.7495 35.6216 35.6211 36.75 35.6211 38.1403C35.6211 39.5306 36.7495 40.659 38.1398 40.659C39.5301 40.659 40.6585 39.5306 40.6585 38.1403C40.6585 36.75 39.5301 35.6216 38.1398 35.6216ZM38.1398 36.8809C38.8349 36.8809 39.3991 37.4451 39.3991 38.1403C39.3991 38.8354 38.8349 39.3996 38.1398 39.3996C37.4446 39.3996 36.8804 38.8354 36.8804 38.1403C36.8804 37.4451 37.4446 36.8809 38.1398 36.8809Z" fill="url(#paint3_linear_145_194)"/>
</g>
<defs>
<linearGradient id="paint0_linear_145_194" x1="55.141" y1="21.1392" x2="21.1387" y2="55.1415" gradientUnits="userSpaceOnUse">
<stop stop-color="#3FBBFF"/>
<stop offset="1" stop-color="#A8E26D"/>
</linearGradient>
<linearGradient id="paint1_linear_145_194" x1="52.6222" y1="23.6577" x2="23.6572" y2="52.6227" gradientUnits="userSpaceOnUse">
<stop stop-color="#3FBBFF"/>
<stop offset="1" stop-color="#A8E26D"/>
</linearGradient>
<linearGradient id="paint2_linear_145_194" x1="52.6222" y1="23.9727" x2="24.2937" y2="52.9306" gradientUnits="userSpaceOnUse">
<stop stop-color="#3FBBFF"/>
<stop offset="1" stop-color="#A8E26D"/>
</linearGradient>
<linearGradient id="paint3_linear_145_194" x1="40.6585" y1="35.6216" x2="35.6211" y2="40.659" gradientUnits="userSpaceOnUse">
<stop stop-color="#3FBBFF"/>
<stop offset="1" stop-color="#A8E26D"/>
</linearGradient>
<clipPath id="clip0_145_194">
<rect width="77" height="77" fill="white"/>
</clipPath>
</defs>
</svg>
