<svg width="77" height="77" viewBox="0 0 77 77" fill="none" xmlns="http://www.w3.org/2000/svg">
<g clip-path="url(#clip0_145_190)">
<path d="M38.4996 76.6402C59.5638 76.6402 76.6397 59.5643 76.6397 38.5C76.6397 17.4358 59.5638 0.359863 38.4996 0.359863C17.4353 0.359863 0.359375 17.4358 0.359375 38.5C0.359375 59.5643 17.4353 76.6402 38.4996 76.6402Z" fill="white"/>
<path d="M24.6813 57.1086H47.1119C47.3136 57.1086 47.5069 57.0285 47.6496 56.8859C47.7921 56.7433 47.8722 56.5499 47.8722 56.3483V51.8621H51.598C51.7996 51.8621 51.9931 51.782 52.1356 51.6394C52.2783 51.4968 52.3584 51.3034 52.3584 51.1017V26.717C52.3587 26.6034 52.3337 26.4912 52.285 26.3886C52.2363 26.2859 52.1652 26.1955 52.0771 26.124L45.4771 20.8015L45.363 20.7178L45.2718 20.6646C45.1842 20.6316 45.0917 20.6136 44.9981 20.6113H29.1674C28.9657 20.6113 28.7723 20.6914 28.6297 20.8341C28.4871 20.9766 28.407 21.17 28.407 21.3717V25.8578H24.6813C24.4796 25.8578 24.2862 25.9379 24.1436 26.0805C24.001 26.2231 23.9209 26.4165 23.9209 26.6182V56.3483C23.9209 56.5499 24.001 56.7433 24.1436 56.8859C24.2862 57.0285 24.4796 57.1086 24.6813 57.1086ZM41.2723 28.2149L45.4163 31.5681H41.2723V28.2149ZM45.7585 22.9685L49.5602 26.0099H45.7585V22.9685ZM29.9278 22.132H44.2377V26.8007C44.2377 27.0023 44.3178 27.1957 44.4604 27.3383C44.603 27.4809 44.7964 27.561 44.9981 27.561H50.8377V50.3718H47.8722V31.9635C47.8727 31.8499 47.8475 31.7377 47.7989 31.6351C47.7502 31.5324 47.6791 31.442 47.5909 31.3704L40.991 26.0479C40.9573 26.0204 40.9185 25.9997 40.8769 25.9871L40.8009 25.911C40.7106 25.8781 40.6156 25.8601 40.5196 25.8578H29.9278V22.132ZM25.4416 27.3785H39.7516V32.3285C39.7516 32.5301 39.8317 32.7235 39.9743 32.8661C40.1169 33.0087 40.3103 33.0889 40.512 33.0889H46.3515V55.5879H25.4416V27.3785Z" fill="url(#paint0_linear_145_190)"/>
<path d="M42.626 35.6133H29.1676C28.9659 35.6133 28.7725 35.6934 28.6299 35.836C28.4873 35.9786 28.4072 36.172 28.4072 36.3736C28.4072 36.5753 28.4873 36.7687 28.6299 36.9113C28.7725 37.0539 28.9659 37.134 29.1676 37.134H42.626C42.8276 37.134 43.021 37.0539 43.1636 36.9113C43.3062 36.7687 43.3863 36.5753 43.3863 36.3736C43.3863 36.172 43.3062 35.9786 43.1636 35.836C43.021 35.6934 42.8276 35.6133 42.626 35.6133ZM42.626 39.2934H29.1676C28.9659 39.2934 28.7725 39.3735 28.6299 39.5161C28.4873 39.6587 28.4072 39.8521 28.4072 40.0537C28.4072 40.2554 28.4873 40.4488 28.6299 40.5914C28.7725 40.734 28.9659 40.8142 29.1676 40.8142H42.626C42.8276 40.8142 43.021 40.734 43.1636 40.5914C43.3062 40.4488 43.3863 40.2554 43.3863 40.0537C43.3863 39.8521 43.3062 39.6587 43.1636 39.5161C43.021 39.3735 42.8276 39.2934 42.626 39.2934ZM42.626 42.9735H29.1676C28.9659 42.9735 28.7725 43.0536 28.6299 43.1963C28.4873 43.3388 28.4072 43.5323 28.4072 43.7339C28.4072 43.9355 28.4873 44.129 28.6299 44.2715C28.7725 44.4142 28.9659 44.4943 29.1676 44.4943H42.626C42.8276 44.4943 43.021 44.4142 43.1636 44.2715C43.3062 44.129 43.3863 43.9355 43.3863 43.7339C43.3863 43.5323 43.3062 43.3388 43.1636 43.1963C43.021 43.0536 42.8276 42.9735 42.626 42.9735ZM42.626 46.6613H29.1676C28.9659 46.6613 28.7725 46.7414 28.6299 46.884C28.4873 47.0266 28.4072 47.22 28.4072 47.4216C28.4072 47.6233 28.4873 47.8167 28.6299 47.9593C28.7725 48.1019 28.9659 48.182 29.1676 48.182H42.626C42.8276 48.182 43.021 48.1019 43.1636 47.9593C43.3062 47.8167 43.3863 47.6233 43.3863 47.4216C43.3863 47.22 43.3062 47.0266 43.1636 46.884C43.021 46.7414 42.8276 46.6613 42.626 46.6613ZM42.626 50.3414H29.1676C28.9659 50.3414 28.7725 50.4215 28.6299 50.5642C28.4873 50.7067 28.4072 50.9002 28.4072 51.1018C28.4072 51.3034 28.4873 51.4969 28.6299 51.6394C28.7725 51.7821 28.9659 51.8622 29.1676 51.8622H42.626C42.8276 51.8622 43.021 51.7821 43.1636 51.6394C43.3062 51.4969 43.3863 51.3034 43.3863 51.1018C43.3863 50.9002 43.3062 50.7067 43.1636 50.5642C43.021 50.4215 42.8276 50.3414 42.626 50.3414Z" fill="url(#paint1_linear_145_190)"/>
</g>
<defs>
<linearGradient id="paint0_linear_145_190" x1="52.3584" y1="20.6113" x2="16.9686" y2="48.1859" gradientUnits="userSpaceOnUse">
<stop stop-color="#3FBBFF"/>
<stop offset="1" stop-color="#A8E26D"/>
</linearGradient>
<linearGradient id="paint1_linear_145_190" x1="43.3863" y1="35.6133" x2="27.1911" y2="50.5429" gradientUnits="userSpaceOnUse">
<stop stop-color="#3FBBFF"/>
<stop offset="1" stop-color="#A8E26D"/>
</linearGradient>
<clipPath id="clip0_145_190">
<rect width="77" height="77" fill="white"/>
</clipPath>
</defs>
</svg>
