<svg width="77" height="77" viewBox="0 0 77 77" fill="none" xmlns="http://www.w3.org/2000/svg">
<g clip-path="url(#clip0_145_204)">
<path d="M38.5 77C59.763 77 77 59.763 77 38.5C77 17.237 59.763 0 38.5 0C17.237 0 0 17.237 0 38.5C0 59.763 17.237 77 38.5 77Z" fill="white"/>
<path d="M49.9516 16.7949C48.3815 16.7949 46.719 17.1644 45.3335 17.9032C43.1168 17.1644 40.8078 16.7949 38.4989 16.7949C31.7565 16.7949 25.5683 19.8428 21.4121 25.1075C18.3641 28.9865 16.7939 33.6046 16.7939 38.4997C16.7939 43.395 18.3641 48.1053 21.4121 51.8921C24.2752 55.4943 28.0621 58.0803 32.4029 59.2809C34.3426 59.8352 36.3746 60.1122 38.4989 60.1122C45.2411 60.1122 51.4293 57.0644 55.5855 51.7997C58.6335 47.9206 60.2036 43.3026 60.2036 38.4075C60.2036 36.0059 59.8342 33.6046 59.0029 31.388C59.7418 29.5407 60.2036 28.1553 60.2036 26.9546C60.2036 21.4131 55.5855 16.7949 49.9516 16.7949ZM57.8022 33.974C58.0793 35.1747 58.2641 36.3755 58.2641 37.5762H55.6779C55.6779 37.5762 55.6779 37.5762 55.6779 37.4838C55.7703 37.299 55.8627 37.2068 55.9551 37.022C56.0474 36.8372 56.2322 36.6526 56.3246 36.3755C56.4168 36.2831 56.5092 36.0983 56.6016 36.0059C56.694 35.7289 56.8786 35.5443 56.971 35.2671C57.0634 35.1747 57.0634 34.9901 57.1558 34.8977C57.3404 34.6206 57.5252 34.2512 57.7099 33.974C57.8022 34.0664 57.8022 33.974 57.8022 33.974ZM32.0335 57.249C31.8489 57.1568 31.7565 57.1568 31.5717 57.0644C31.3871 56.972 31.2023 56.8796 31.0176 56.8796C30.8328 56.7872 30.7404 56.7872 30.5558 56.695C30.371 56.6026 30.1864 56.5102 30.0016 56.4178C29.9092 56.3255 29.7246 56.3256 29.6322 56.2331C29.4474 56.1407 29.2627 56.0483 29.0779 55.9559C28.9855 55.8637 28.8009 55.8637 28.7085 55.7713C28.5239 55.6789 28.3391 55.5865 28.1543 55.4019C28.0621 55.3095 27.8773 55.2171 27.7849 55.2171C27.6002 55.1247 27.4154 54.9401 27.2308 54.8477C27.1384 54.7553 27.046 54.663 26.9536 54.663C26.769 54.4782 26.5842 54.3858 26.3072 54.2012C26.2148 54.1088 26.1224 54.1088 26.0301 54.0164C25.8453 53.8318 25.5683 53.647 25.3835 53.4622C25.2911 53.37 25.2911 53.2776 25.1989 53.2776C24.6447 52.8158 24.1828 52.2615 23.721 51.7075C25.1989 51.0608 26.769 50.599 28.4315 50.1372C29.4474 53.1852 30.9252 55.6789 32.6801 57.4338C32.4029 57.4338 32.2183 57.3414 32.0335 57.249ZM22.4279 26.77C22.6127 26.8622 22.8898 26.9546 23.0746 27.047C23.3516 27.1394 23.6286 27.324 23.998 27.4164C24.3676 27.5088 24.6447 27.6934 25.0141 27.7858C25.2911 27.8782 25.6605 27.9706 25.9377 28.063C26.3072 28.1553 26.6766 28.2477 26.9536 28.3401C27.2308 28.4325 27.5078 28.5247 27.7849 28.6171C27.046 31.2956 26.5842 34.3434 26.4918 37.5762H18.6411C18.8259 33.6046 20.119 29.9102 22.4279 26.77ZM51.0599 53.924C50.8752 54.1088 50.6904 54.2012 50.4134 54.3858C50.321 54.4782 50.2286 54.4782 50.1364 54.5706C49.9516 54.7553 49.7668 54.8477 49.5821 54.9401C49.4897 55.0325 49.3974 55.0325 49.3051 55.1247C49.1203 55.2171 48.9355 55.4019 48.7509 55.4943C48.6585 55.5865 48.5661 55.5865 48.3815 55.6789C48.1967 55.7713 48.0121 55.8637 47.8273 55.9559C47.7349 56.0483 47.5502 56.0484 47.4578 56.1408C47.273 56.2332 47.0884 56.3255 46.9036 56.4178C46.8114 56.5102 46.6266 56.5102 46.5342 56.6026C46.3496 56.695 46.1648 56.7872 45.9801 56.8796C45.8877 56.972 45.7029 56.972 45.6105 57.0644C45.4259 57.1568 45.2411 57.249 45.0565 57.249C44.8717 57.3414 44.7793 57.3414 44.5947 57.3414H44.5023C46.2572 55.5865 47.7348 53.0928 48.7509 49.9526C50.4134 50.4144 51.9835 50.8762 53.4614 51.5227C52.8148 52.2615 52.0759 53.0005 51.3371 53.5546C51.1523 53.8318 51.0599 53.8318 51.0599 53.924ZM30.0016 29.0789C30.371 29.1713 30.7404 29.2637 31.2023 29.2637C31.4793 29.3559 31.8489 29.3559 32.1259 29.4483C32.4953 29.5407 32.9572 29.5407 33.419 29.6331C33.696 29.6331 33.973 29.7255 34.2502 29.7255C34.7121 29.8178 35.1739 29.8178 35.6355 29.8178C35.9127 29.8178 36.0974 29.8178 36.3746 29.9102C36.744 29.9102 37.2058 29.9102 37.6676 29.9102V37.5762H28.5239C28.6161 34.5282 29.0779 31.6651 29.7246 29.0789C29.8168 29.0789 29.9092 29.0789 30.0016 29.0789ZM42.2855 20.2122C42.1933 20.3046 42.1933 20.3046 42.1009 20.397C42.1009 20.397 42.1009 20.397 42.1009 20.4894C42.0085 20.674 41.8239 20.7664 41.7315 20.9512C41.7315 20.9512 41.7315 21.0434 41.6391 21.0434C41.5467 21.1358 41.4543 21.2282 41.4543 21.3206C41.3621 21.413 41.2697 21.5977 41.1773 21.6901C41.1773 21.7825 41.0849 21.7825 41.0849 21.8747C40.9926 21.9671 40.9926 22.0595 40.9002 22.1519C40.8078 22.3365 40.7154 22.4289 40.7154 22.6137C40.7154 22.7059 40.623 22.7059 40.623 22.7983C40.623 22.8907 40.5308 22.9831 40.5308 23.0755C40.4384 23.2602 40.4384 23.3526 40.346 23.5372C40.346 23.6296 40.2536 23.722 40.2536 23.8144C40.2536 23.9068 40.2536 23.999 40.1614 23.999C40.069 24.1838 40.069 24.3684 39.9766 24.5532C39.9766 24.6456 39.8842 24.738 39.8842 24.8303C39.8842 24.9227 39.8842 24.9227 39.8842 25.0151C39.8842 25.1997 39.7918 25.4769 39.7918 25.6615C39.7918 25.7539 39.7918 25.8463 39.7918 25.9387V26.0309C39.7918 26.4005 39.6996 26.6776 39.6996 27.047C39.6996 27.324 39.6996 27.6934 39.7918 28.063C39.6996 28.063 39.6072 28.063 39.5148 28.063V18.7345C40.4384 18.9193 41.3621 19.3809 42.2855 20.2122ZM41.6391 33.1428C42.3779 34.6206 43.3016 36.1907 44.2252 37.5762H39.4224V29.9102C39.5148 29.9102 39.6072 29.9102 39.6072 29.9102C39.6996 29.9102 39.7918 29.9102 39.8842 29.9102C39.9766 29.9102 40.069 29.9102 40.1614 29.9102V30.0026V30.095C40.1614 30.1872 40.2536 30.2796 40.2536 30.372C40.346 30.5568 40.346 30.649 40.4384 30.8338C40.5308 31.1108 40.623 31.388 40.8078 31.6651C40.9002 31.7575 40.9002 31.9421 40.9926 32.0345C41.0849 32.3115 41.2697 32.5887 41.3621 32.8657C41.5467 32.8657 41.5467 32.9582 41.6391 33.1428C41.5467 33.0506 41.5467 33.0506 41.6391 33.1428C41.6391 33.0506 41.6391 33.0506 41.6391 33.1428ZM37.5752 39.4233V47.0894C34.8967 47.1818 32.2183 47.4588 29.7246 48.013C28.9855 45.4269 28.5239 42.5637 28.5239 39.5157H37.5752V39.4233ZM37.5752 48.9365V58.2651C34.6197 57.7108 31.9411 54.3858 30.2786 49.6755C32.5877 49.2137 35.0815 48.9365 37.5752 48.9365ZM39.4224 58.2651V48.9365C41.9161 49.0289 44.4099 49.306 46.8114 49.7678C45.0565 54.4782 42.3779 57.7108 39.4224 58.2651ZM39.4224 47.0894V39.4233H45.3335C46.3496 40.9934 47.273 42.2865 48.0121 43.3026C48.1043 43.395 48.1043 43.4872 48.1967 43.5796C48.0121 45.1497 47.6426 46.6276 47.273 48.013C44.7793 47.3664 42.1009 47.0894 39.4224 47.0894ZM37.5752 18.7345V28.063C37.2058 28.063 36.8364 28.063 36.4668 28.063C36.2822 28.063 36.0051 28.063 35.8203 28.063C35.3585 28.063 34.8967 27.9706 34.4349 27.9706C34.1578 27.9706 33.8808 27.8782 33.696 27.8782C33.3266 27.7858 32.8648 27.7858 32.4953 27.6934C32.2183 27.6934 31.9411 27.6012 31.6641 27.6012C31.2947 27.5088 30.9252 27.5088 30.5558 27.4164C30.4634 27.4164 30.4634 27.4164 30.371 27.4164C31.9411 22.6137 34.6197 19.2887 37.5752 18.7345ZM26.5842 39.4233C26.6766 42.6559 27.1384 45.7039 27.8773 48.3825C26.0301 48.8443 24.1828 49.4907 22.5203 50.2296C20.119 47.0894 18.8259 43.395 18.6411 39.4233H26.5842ZM54.4772 50.2296C52.7224 49.4907 50.9676 48.8443 49.1203 48.3825C49.3974 47.4588 49.5821 46.5352 49.7668 45.6115L49.9516 45.7963L50.6904 44.8727C50.6904 44.8727 50.7828 44.688 50.9676 44.5956C51.0599 44.5032 51.0598 44.4108 51.1523 44.3184C51.1523 44.3184 51.1523 44.2262 51.2447 44.2262C51.3371 44.1338 51.4293 44.0414 51.5217 43.949C51.5217 43.8568 51.6141 43.8568 51.6141 43.7644C51.7065 43.672 51.7989 43.4872 51.8911 43.395C51.9835 43.3026 51.9835 43.3026 52.0759 43.2102C52.1683 43.1178 52.2605 42.9331 52.3529 42.8407C52.4453 42.7483 52.4453 42.6559 52.5377 42.5637C52.6301 42.3789 52.7224 42.2865 52.8148 42.1019C52.9072 42.0095 52.9996 41.8247 53.0918 41.7325C53.2766 41.5477 53.369 41.2706 53.5536 41.0858C53.646 40.9012 53.8308 40.7164 53.923 40.5318C54.0154 40.4394 54.1078 40.2546 54.2002 40.1622C54.2926 39.9776 54.4773 39.7928 54.5697 39.6081C54.5697 39.6081 54.5696 39.5157 54.662 39.5157H58.4489C58.1717 43.395 56.8786 47.0894 54.4772 50.2296ZM58.3565 27.047C58.3565 27.9706 57.987 29.3559 57.1558 31.0184C57.0634 31.2956 56.8786 31.5727 56.7864 31.8497C54.7543 36.0059 51.4293 40.7164 49.9516 42.7483C48.8433 41.2706 46.8114 38.4997 45.0565 35.4519C44.8717 35.1747 44.6871 34.8977 44.5947 34.6206C44.5947 34.5282 44.5023 34.5282 44.5023 34.4358C44.4099 34.1588 44.2252 33.974 44.1328 33.697C44.0404 33.6046 44.0404 33.5122 43.948 33.42C43.8558 33.2352 43.7634 33.0505 43.671 32.8657C43.5786 32.6809 43.4864 32.5887 43.4864 32.4039C43.394 32.2193 43.3016 32.1269 43.3016 31.9421C43.2092 31.7575 43.1168 31.5727 43.0246 31.388C42.9322 31.2956 42.9322 31.2032 42.8398 31.1108C42.7474 30.9262 42.6551 30.649 42.5627 30.4644C42.5627 30.372 42.4703 30.2796 42.4703 30.1872C42.3779 30.0026 42.2855 29.7255 42.1933 29.5408C42.1009 29.2637 42.0085 28.9865 41.9161 28.7095C41.7315 28.063 41.6391 27.5088 41.6391 27.047C41.6391 26.6776 41.6391 26.4005 41.7315 26.0309C41.7315 25.9387 41.7315 25.8463 41.8239 25.7539C41.8239 25.4769 41.9161 25.2921 42.0085 25.1075C42.0085 25.0151 42.1009 24.8303 42.1009 24.738C42.1933 24.5532 42.2855 24.2762 42.2855 24.0914C42.1009 23.9068 42.1933 23.8144 42.1933 23.722C42.2855 23.445 42.4703 23.1678 42.6551 22.8907C42.7474 22.7983 42.7474 22.7059 42.8398 22.6137C42.9322 22.4289 43.0246 22.2443 43.2092 22.1519C43.3016 22.0595 43.394 21.8747 43.4864 21.7825C43.5786 21.6901 43.671 21.5977 43.7634 21.413C43.8558 21.2282 44.0404 21.1358 44.2252 20.9512C44.3176 20.8588 44.4099 20.7664 44.5023 20.7664C44.6871 20.674 44.7793 20.4894 44.9641 20.397C45.2411 20.2122 45.5183 20.0276 45.7953 19.8428C46.996 19.1039 48.4739 18.7345 49.8592 18.7345C54.5697 18.6421 58.3565 22.4289 58.3565 27.047ZM32.6801 19.5657C30.9252 21.3206 29.4474 23.8144 28.4315 26.8622C28.2467 26.77 27.9697 26.77 27.7849 26.6776C27.4154 26.5852 27.046 26.4928 26.6766 26.4005C26.3996 26.3081 26.1224 26.2157 25.8453 26.1233C25.4759 26.0309 25.1065 25.8463 24.8293 25.7539C24.5523 25.6615 24.2752 25.5693 24.0904 25.4769C23.9058 25.3845 23.8134 25.2921 23.721 25.2921C26.1224 22.5213 29.1703 20.5818 32.6801 19.5657Z" fill="url(#paint0_linear_145_204)"/>
<path d="M49.9505 32.6816C53.0907 32.6816 55.5845 30.1879 55.5845 27.0477C55.5845 23.9073 53.0907 21.4136 49.9505 21.4136C46.8102 21.4136 44.3164 23.9073 44.3164 27.0477C44.3164 30.1879 46.8102 32.6816 49.9505 32.6816ZM49.9505 23.2609C52.0749 23.2609 53.7374 24.9234 53.7374 27.0477C53.7374 29.172 52.0749 30.8345 49.9505 30.8345C47.8262 30.8345 46.1637 29.172 46.1637 27.0477C46.1637 24.9234 47.8262 23.2609 49.9505 23.2609Z" fill="url(#paint1_linear_145_204)"/>
</g>
<defs>
<linearGradient id="paint0_linear_145_204" x1="60.2036" y1="16.7949" x2="16.8864" y2="60.2045" gradientUnits="userSpaceOnUse">
<stop stop-color="#3FBBFF"/>
<stop offset="1" stop-color="#A8E26D"/>
</linearGradient>
<linearGradient id="paint1_linear_145_204" x1="55.5845" y1="21.4136" x2="44.3164" y2="32.6817" gradientUnits="userSpaceOnUse">
<stop stop-color="#3FBBFF"/>
<stop offset="1" stop-color="#A8E26D"/>
</linearGradient>
<clipPath id="clip0_145_204">
<rect width="77" height="77" fill="white"/>
</clipPath>
</defs>
</svg>
