<svg width="77" height="77" viewBox="0 0 77 77" fill="none" xmlns="http://www.w3.org/2000/svg">
<g clip-path="url(#clip0_145_223)">
<path d="M38.5 77C59.763 77 77 59.763 77 38.5C77 17.237 59.763 0 38.5 0C17.237 0 0 17.237 0 38.5C0 59.763 17.237 77 38.5 77Z" fill="white"/>
<path d="M37.8069 17.0264C35.3131 17.0264 32.8887 17.442 30.5335 18.2733C30.1872 18.4119 29.9793 18.8275 30.1179 19.1738C30.2565 19.5201 30.6721 19.7279 31.0185 19.5894C33.1659 18.8275 35.4517 18.4119 37.8069 18.4119C39.331 18.4119 40.8549 18.6196 42.3096 18.8966L41.6861 20.767C41.4784 21.3904 41.5475 22.0832 41.7554 22.5681L42.2403 23.6071C42.3788 23.8841 42.7944 24.1613 43.1409 23.9534C43.4872 23.7457 43.6256 23.3994 43.4872 23.0529L43.0023 22.0139C42.8637 21.806 42.8637 21.529 43.0023 21.2519L43.6949 19.2431C50.3449 21.3212 55.6096 26.7935 57.2721 33.6514H55.471C55.0554 33.6514 54.7091 33.4435 54.5705 33.0972L54.1549 32.1966C53.7392 31.3654 52.908 30.8113 52.0074 30.8113H50.9685C50.6221 30.8113 50.3449 30.6034 50.2756 30.5341L48.8903 29.1488C48.1975 28.456 47.1585 28.2483 46.1194 28.6639C46.1194 28.6639 44.5262 29.4258 44.3185 29.4258H40.9242C40.3699 29.4258 39.885 28.9409 39.885 28.3869C39.885 27.9712 40.0929 27.6247 40.4392 27.4863L42.0324 26.7244C42.3788 26.5858 42.5174 26.1701 42.3788 25.8238C42.2403 25.4775 41.8247 25.3389 41.4784 25.4775L39.885 26.2394C39.0538 26.5858 38.4997 27.4863 38.4997 28.3869C38.4997 29.7722 39.5387 30.8113 40.9242 30.8113H44.3185C44.7341 30.8113 46.6736 29.9108 46.6736 29.9108C46.9506 29.7722 47.5049 29.7029 47.9205 30.1185L49.306 31.504C49.7216 31.9196 50.3449 32.1966 50.9685 32.1966H52.0074C52.3538 32.1966 52.7694 32.4738 52.908 32.7508L53.3236 33.6514C53.6699 34.4826 54.5705 35.0369 55.471 35.0369H57.6185C57.7569 35.9372 57.8955 36.8378 57.8955 37.8076H55.6788C54.9168 37.8076 54.2935 37.392 53.9471 37.115C53.9471 37.115 51.9381 35.106 51.6611 34.9676L48.544 32.8894C47.9205 32.4738 47.1585 32.1966 46.3966 32.1966H40.7163C39.4694 32.1966 38.2918 32.8201 37.5992 33.9284L35.7981 36.7685C35.5903 37.115 35.6596 37.5306 36.006 37.7383C36.3523 37.9462 36.7679 37.8769 36.9756 37.5306L38.7767 34.6904C39.1924 33.9977 39.9543 33.5821 40.7856 33.5821H46.4659C46.9506 33.5821 47.4356 33.7207 47.7819 33.9977L50.8992 36.0758C51.0378 36.1451 52.9773 38.0847 52.9773 38.0847C53.7392 38.7775 54.7091 39.1931 55.6788 39.1931H57.8955C57.7569 43.3494 56.233 47.2977 53.7392 50.6227C53.5315 50.8997 52.7694 52.1466 53.0466 52.3545C53.3929 52.6315 54.8475 51.5926 54.9861 51.3847C57.8262 47.644 59.281 43.2108 59.281 38.5003C59.281 26.6551 49.6523 17.0264 37.8069 17.0264ZM21.1819 36.2144L22.983 33.5128C22.983 33.4435 23.6756 32.8201 23.6756 32.8201C24.2992 32.2659 24.6455 31.4347 24.6455 30.5341C24.6455 30.5341 24.3685 29.3565 25.1997 28.5946L26.2387 27.5556C27.0006 26.7244 27.2778 25.6159 27.0006 24.5769L26.3773 22.0139C26.9315 21.5983 27.5549 21.2519 28.1784 20.9056C28.5247 20.6977 30.3949 19.4508 30.1872 19.1045C29.9793 18.7582 27.8319 19.4508 27.4856 19.6587C20.6278 23.3994 16.333 30.6034 16.333 38.5003C16.333 42.5872 17.5106 46.5358 19.658 49.9994C19.7966 50.2071 20.0043 50.3457 20.2122 50.3457C20.3506 50.3457 20.4892 50.3457 20.5585 50.2071C20.9049 49.9994 20.9742 49.5837 20.7663 49.2372C18.8267 46.0508 17.7185 42.3102 17.7185 38.5003C17.7185 32.3352 20.5585 26.6551 25.1997 22.8451L25.6846 24.854C25.8231 25.4082 25.6153 26.1008 25.269 26.5858L24.2299 27.6247C22.9137 28.5253 23.26 30.5341 23.26 30.5341C23.26 31.019 23.0523 31.4347 22.706 31.781C22.706 31.781 21.8747 32.6815 21.8747 32.7508L20.0736 35.5216C19.4503 36.4915 19.5887 38.154 20.0736 39.1931C20.2122 39.4701 20.5585 39.7472 20.9742 39.4701C21.3205 39.2622 21.4591 38.9159 21.2512 38.5696C20.9742 37.8769 20.9049 36.6994 21.1819 36.2144Z" fill="url(#paint0_linear_145_223)"/>
<path d="M49.5137 43.5568C48.9597 42.5872 47.8512 41.9636 46.7429 41.9636H41.9632V41.3403C41.9632 40.1627 40.9935 39.1929 39.8159 39.1929H24.7148C23.5372 39.1929 22.5674 40.1627 22.5674 41.3403V54.9866C22.5674 56.1642 23.5372 57.1341 24.7148 57.1341H25.4075C25.7538 58.7273 27.1393 59.9048 28.8018 59.9048C30.4643 59.9048 31.8497 58.7273 32.1961 57.1341H43.4179C43.7643 58.7273 45.1497 59.9048 46.8122 59.9048C47.2279 59.9048 48.544 59.2815 48.544 58.8658C48.544 58.4502 47.2279 58.5194 46.8122 58.5194C45.6347 58.5194 44.7341 57.619 44.7341 56.4412C44.7341 55.2636 45.6347 54.3631 46.8122 54.3631C47.9898 54.3631 48.8904 55.2636 48.8904 56.4412C48.8904 56.9954 48.2668 58.1919 47.8512 58.5384C47.8512 58.935 47.2279 59.3506 47.5049 59.6278C47.7819 59.9048 48.9597 59.1429 49.2367 58.8658C49.7216 58.3809 50.0679 57.7574 50.2065 57.1341H51.0378C52.1461 57.1341 53.0466 56.2335 53.0466 55.1252C53.0466 54.7096 52.7694 54.0861 52.3538 54.0861C51.9382 54.0861 51.6611 54.7096 51.6611 55.1252C51.6611 55.4715 51.3841 55.7486 51.0378 55.7486H50.2065C49.86 54.1554 48.4747 52.9778 46.8122 52.9778C45.1497 52.9778 43.7643 54.1554 43.4179 55.7486H41.9632V43.3491H43.3486V49.5835C43.3486 49.9991 43.6257 50.2761 44.0413 50.2761H51.6611V52.4929C51.6611 52.9085 51.9382 53.1855 52.3538 53.1855C52.7694 53.1855 53.0466 52.9085 53.0466 52.4929V49.4449C53.0466 49.3065 49.5137 43.5568 49.5137 43.5568ZM28.8018 58.5886C27.6242 58.5886 26.7236 57.6881 26.7236 56.5105C26.7236 55.333 27.6242 54.4324 28.8018 54.4324C29.9793 54.4324 30.8799 55.333 30.8799 56.5105C30.8799 57.6881 29.9793 58.5886 28.8018 58.5886ZM40.5779 50.2761H28.8018C28.3861 50.2761 28.1091 50.5533 28.1091 50.969C28.1091 51.3846 28.3861 51.6616 28.8018 51.6616H40.5779V55.8179H32.1961C31.8497 54.2247 30.4643 53.0471 28.8018 53.0471C27.1393 53.0471 25.7538 54.2247 25.4075 55.8179H24.7148C24.2992 55.8179 23.9529 55.4715 23.9529 55.0559V51.6616H26.031C26.4466 51.6616 26.7236 51.3846 26.7236 50.969C26.7236 50.5533 26.4466 50.2761 26.031 50.2761H23.9529V41.3403C23.9529 40.9247 24.2992 40.5783 24.7148 40.5783H39.7466C40.1622 40.5783 40.5086 40.9247 40.5086 41.3403V50.2761H40.5779ZM44.7341 48.8908V43.3491H46.7429C47.3663 43.3491 47.9898 43.6954 48.3361 44.2497L51.1069 48.8908H44.7341Z" fill="url(#paint1_linear_145_223)"/>
<path d="M51.6611 52.3545V55.1253H53.0466V52.7503H52.123" fill="url(#paint2_linear_145_223)"/>
<path d="M51.6611 52.3545V55.1253H53.0466V52.7503H52.123" stroke="#0074B9"/>
<path d="M27.416 41.9644H26.0305C25.6149 41.9644 25.3379 42.2414 25.3379 42.657V44.0425C25.3379 44.4581 25.6149 44.7351 26.0305 44.7351C26.4462 44.7351 26.7234 44.4581 26.7234 44.0425V43.3498H27.416C27.8316 43.3498 28.1087 43.0726 28.1087 42.657C28.1087 42.2414 27.8316 41.9644 27.416 41.9644ZM34.343 54.4331H38.4993C38.9149 54.4331 39.1921 54.1561 39.1921 53.7405C39.1921 53.3248 38.9149 53.0476 38.4993 53.0476H34.343C33.9274 53.0476 33.6504 53.3248 33.6504 53.7405C33.6504 54.1561 33.9274 54.4331 34.343 54.4331Z" fill="url(#paint3_linear_145_223)"/>
<path d="M46.8108 57.2033C47.1935 57.2033 47.5036 56.8931 47.5036 56.5105C47.5036 56.128 47.1935 55.8179 46.8108 55.8179C46.4283 55.8179 46.1182 56.128 46.1182 56.5105C46.1182 56.8931 46.4283 57.2033 46.8108 57.2033Z" fill="url(#paint4_linear_145_223)"/>
<path d="M28.802 57.2033C29.1846 57.2033 29.4949 56.8931 29.4949 56.5105C29.4949 56.128 29.1846 55.8179 28.802 55.8179C28.4195 55.8179 28.1094 56.128 28.1094 56.5105C28.1094 56.8931 28.4195 57.2033 28.802 57.2033Z" fill="url(#paint5_linear_145_223)"/>
</g>
<defs>
<linearGradient id="paint0_linear_145_223" x1="59.281" y1="17.0264" x2="24.5615" y2="59.1787" gradientUnits="userSpaceOnUse">
<stop stop-color="#3FBBFF"/>
<stop offset="1" stop-color="#A8E26D"/>
</linearGradient>
<linearGradient id="paint1_linear_145_223" x1="53.0466" y1="39.1929" x2="33.7897" y2="67.5309" gradientUnits="userSpaceOnUse">
<stop stop-color="#3FBBFF"/>
<stop offset="1" stop-color="#A8E26D"/>
</linearGradient>
<linearGradient id="paint2_linear_145_223" x1="53.0466" y1="52.3545" x2="50.8299" y2="53.4629" gradientUnits="userSpaceOnUse">
<stop stop-color="#3FBBFF"/>
<stop offset="1" stop-color="#A8E26D"/>
</linearGradient>
<linearGradient id="paint3_linear_145_223" x1="39.1921" y1="41.9644" x2="26.7923" y2="55.742" gradientUnits="userSpaceOnUse">
<stop stop-color="#3FBBFF"/>
<stop offset="1" stop-color="#A8E26D"/>
</linearGradient>
<linearGradient id="paint4_linear_145_223" x1="47.5036" y1="55.8179" x2="46.1182" y2="57.2033" gradientUnits="userSpaceOnUse">
<stop stop-color="#3FBBFF"/>
<stop offset="1" stop-color="#A8E26D"/>
</linearGradient>
<linearGradient id="paint5_linear_145_223" x1="29.4949" y1="55.8179" x2="28.1094" y2="57.2033" gradientUnits="userSpaceOnUse">
<stop stop-color="#3FBBFF"/>
<stop offset="1" stop-color="#A8E26D"/>
</linearGradient>
<clipPath id="clip0_145_223">
<rect width="77" height="77" fill="white"/>
</clipPath>
</defs>
</svg>
