<svg width="77" height="77" viewBox="0 0 77 77" fill="none" xmlns="http://www.w3.org/2000/svg">
<g clip-path="url(#clip0_146_232)">
<path d="M38.4996 76.6402C59.5638 76.6402 76.6397 59.5643 76.6397 38.5C76.6397 17.4358 59.5638 0.359863 38.4996 0.359863C17.4353 0.359863 0.359375 17.4358 0.359375 38.5C0.359375 59.5643 17.4353 76.6402 38.4996 76.6402Z" fill="white"/>
<path d="M50.3736 30.9437V25.9063C50.3736 24.3166 49.0849 23.0278 47.4951 23.0278H29.3048C27.8253 23.0278 26.626 24.2272 26.626 25.7066V45.7295V51.8129C26.626 53.4026 27.9148 54.6914 29.5045 54.6914H47.4951C49.0849 54.6914 50.3736 53.4026 50.3736 51.8129V50.7334" stroke="url(#paint0_linear_146_232)" stroke-width="1.5" stroke-linecap="round" stroke-linejoin="round"/>
<path d="M31.0756 27.939H32.1269L31.6097 26.3086L31.0756 27.939ZM31.129 25.3613H32.1073L33.5746 29.5048H32.6358L32.3687 28.653H30.8423L30.5555 29.5048H29.6504L31.129 25.3613ZM34.1031 25.3669H37.0407V26.095H34.9632V27.0479H36.782V27.7675H34.9632V29.5048H34.1031V25.3669ZM37.6225 25.3669H40.5601V26.095H38.4827V27.0479H40.3014V27.7675H38.4827V29.5048H37.6225V25.3669ZM41.9346 29.5048H41.0745V25.3613H41.9346V29.5048ZM30.7832 30.3987V33.1029H31.5816C31.9901 33.1029 32.275 32.9015 32.4361 32.4986C32.5242 32.2774 32.5683 32.0141 32.5683 31.7086C32.5683 31.287 32.5018 30.9637 32.3687 30.7388C32.2375 30.5121 31.9751 30.3987 31.5816 30.3987H30.7832ZM31.7277 29.6791C31.9845 29.6828 32.1982 29.7128 32.3687 29.769C32.6591 29.8646 32.8943 30.0398 33.0742 30.2947C33.2186 30.5008 33.317 30.7238 33.3694 30.9637C33.4219 31.2036 33.4481 31.4322 33.4481 31.6496C33.4481 32.2006 33.3375 32.6672 33.1164 33.0495C32.8166 33.5649 32.3537 33.8225 31.7277 33.8225H29.9428V29.6791H31.7277ZM35.2359 32.2568H36.2873L35.77 30.6264L35.2359 32.2568ZM35.2894 29.6791H36.2676L37.735 33.8225H36.7961L36.529 32.9708H35.0026L34.7159 33.8225H33.8108L35.2894 29.6791ZM40.2621 29.6791H41.1616L39.7477 33.8225H38.9297L37.5297 29.6791H38.4546L39.3541 32.8246L40.2621 29.6791ZM42.4687 33.8225H41.6086V29.6791H42.4687V33.8225ZM46.2889 29.6791V30.4127H45.0493V33.8225H44.1778V30.4127H42.9326V29.6791H46.2889Z" fill="url(#paint1_linear_146_232)"/>
<path d="M50.3738 44.0773C52.063 44.0773 53.4323 42.708 53.4323 41.0189C53.4323 39.3297 52.063 37.9604 50.3738 37.9604C48.6847 37.9604 47.3154 39.3297 47.3154 41.0189C47.3154 42.708 48.6847 44.0773 50.3738 44.0773Z" stroke="url(#paint2_linear_146_232)" stroke-width="1.5"/>
<path d="M30.9443 48.3527H43.1103M30.9443 45.1885H40.4779M30.9443 42.0242H38.994M30.9443 38.8599H37.7044" stroke="url(#paint3_linear_146_232)" stroke-width="1.5" stroke-linecap="round" stroke-linejoin="round"/>
<path d="M57.1257 41.5928L56.7022 41.912C56.5531 42.0234 56.4485 42.1845 56.4072 42.3663C56.3659 42.5482 56.3906 42.7389 56.4769 42.9041L56.7175 43.3689C56.9382 43.7952 56.6876 44.3139 56.2164 44.406L55.7067 44.5056C55.524 44.5411 55.3599 44.6408 55.2438 44.7868C55.1278 44.9328 55.0674 45.1155 55.0736 45.3022L55.0899 45.826C55.1049 46.3067 54.653 46.6666 54.1877 46.5444L53.6879 46.413C53.5078 46.3652 53.3167 46.3834 53.1488 46.4643C52.981 46.5451 52.8474 46.6835 52.772 46.8543L52.5606 47.3318C52.3656 47.7721 51.8014 47.9004 51.4352 47.5877L51.0402 47.2502C50.8986 47.129 50.7185 47.0625 50.5324 47.0627C50.3463 47.0628 50.1664 47.1297 50.025 47.2512L49.6308 47.5877C49.2646 47.9005 48.7005 47.7722 48.5055 47.3318L48.2944 46.855C48.2335 46.7157 48.1334 46.5972 48.0065 46.514C47.8796 46.4308 47.7312 46.3865 47.5796 46.3865C47.5118 46.3865 47.4443 46.3953 47.3788 46.4126L46.8783 46.5441C46.4131 46.6663 45.9612 46.3065 45.9761 45.8257L45.9924 45.303C45.9991 45.116 45.9389 44.9327 45.8226 44.7864C45.7064 44.64 45.5418 44.5402 45.3586 44.505L44.8496 44.4056C44.3785 44.3134 44.1279 43.7947 44.3486 43.3684L44.5886 42.9048C44.6751 42.7396 44.7001 42.5488 44.659 42.3669C44.6179 42.1849 44.5134 42.0235 44.3643 41.9118L43.9408 41.5928C43.5585 41.3046 43.5588 40.7304 43.9415 40.4427L44.3629 40.1261C44.5121 40.0147 44.6168 39.8535 44.6584 39.6715C44.6999 39.4896 44.6753 39.2987 44.5893 39.1332L44.3486 38.6686C44.1279 38.2423 44.3785 37.7235 44.8496 37.6314L45.358 37.532C45.5412 37.4971 45.7059 37.3975 45.8223 37.2514C45.9387 37.1052 45.999 36.9221 45.9925 36.7351L45.9762 36.2112C45.9612 35.7305 46.4132 35.3706 46.8784 35.4929L47.379 35.6245C47.5589 35.6725 47.75 35.6543 47.9178 35.5734C48.0856 35.4925 48.2191 35.3541 48.2941 35.1831L48.5057 34.7053C48.7007 34.2649 49.2648 34.1367 49.6311 34.4495L50.0238 34.7849C50.1653 34.9071 50.3458 34.9744 50.5325 34.9746C50.7191 34.9748 50.8997 34.9079 51.0414 34.786L51.4355 34.4495C51.8017 34.1367 52.3658 34.265 52.5608 34.7054L52.7728 35.184C52.8481 35.3547 52.9815 35.4929 53.1492 35.5737C53.3169 35.6544 53.5078 35.6725 53.6875 35.6245L54.188 35.4931C54.6533 35.3708 55.1052 35.7306 55.0901 36.2115L55.0738 36.7372C55.0679 36.9237 55.1285 37.1062 55.2447 37.252C55.3609 37.3977 55.5251 37.497 55.7077 37.5321L56.2166 37.6316C56.6878 37.7237 56.9384 38.2424 56.7176 38.6687L56.4774 39.1327C56.3909 39.2981 56.3661 39.489 56.4075 39.6711C56.4488 39.8531 56.5536 40.0144 56.703 40.1258L57.1249 40.4429C57.5076 40.7305 57.508 41.3047 57.1257 41.5928Z" stroke="url(#paint4_linear_146_232)" stroke-width="1.5"/>
</g>
<defs>
<linearGradient id="paint0_linear_146_232" x1="50.3736" y1="23.0278" x2="19.9766" y2="45.8256" gradientUnits="userSpaceOnUse">
<stop stop-color="#3FBBFF"/>
<stop offset="1" stop-color="#A8E26D"/>
</linearGradient>
<linearGradient id="paint1_linear_146_232" x1="46.7753" y1="25.187" x2="39.8669" y2="39.0039" gradientUnits="userSpaceOnUse">
<stop stop-color="#3FBBFF"/>
<stop offset="1" stop-color="#A8E26D"/>
</linearGradient>
<linearGradient id="paint2_linear_146_232" x1="53.972" y1="37.4207" x2="46.7757" y2="44.617" gradientUnits="userSpaceOnUse">
<stop stop-color="#3FBBFF"/>
<stop offset="1" stop-color="#A8E26D"/>
</linearGradient>
<linearGradient id="paint3_linear_146_232" x1="43.1103" y1="48.3527" x2="33.9023" y2="36.5519" gradientUnits="userSpaceOnUse">
<stop stop-color="#3FBBFF"/>
<stop offset="1" stop-color="#A8E26D"/>
</linearGradient>
<linearGradient id="paint4_linear_146_232" x1="57.8893" y1="33.8223" x2="43.5003" y2="48.531" gradientUnits="userSpaceOnUse">
<stop stop-color="#3FBBFF"/>
<stop offset="1" stop-color="#A8E26D"/>
</linearGradient>
<clipPath id="clip0_146_232">
<rect width="77" height="77" fill="white"/>
</clipPath>
</defs>
</svg>
