<svg width="641" height="188" viewBox="0 0 641 188" fill="none" xmlns="http://www.w3.org/2000/svg">
<path d="M32.4481 0.410889C38.9944 0.410889 44.6551 1.799 49.4304 4.57521C54.2057 7.35143 57.8251 11.1301 60.2899 15.9114C62.8315 20.6156 64.1791 25.8981 64.3333 31.759C64.4876 36.386 64.5644 39.8177 64.5644 42.0541C64.5644 44.2905 64.4876 47.7222 64.3333 52.3493C64.1023 58.21 62.716 63.5311 60.1744 68.3125C57.7096 73.0165 54.0902 76.7568 49.3149 79.533C44.617 82.3093 38.9944 83.6974 32.4481 83.6974C25.9018 83.6974 20.241 82.3093 15.4657 79.533C10.7678 76.7568 7.14779 73.0165 4.60621 68.3125C2.14146 63.5311 0.793847 58.21 0.562795 52.3493C0.48597 50.0357 0.447266 46.6041 0.447266 42.0541C0.447266 37.5042 0.48597 34.0725 0.562795 31.759C0.717022 25.8981 2.02593 20.6156 4.49068 15.9114C7.03226 11.1301 10.6904 7.35143 15.4657 4.57521C20.241 1.799 25.9018 0.410889 32.4481 0.410889ZM32.4481 10.8217C26.2865 10.8217 21.3188 12.6339 17.5452 16.2585C13.7715 19.883 11.7688 25.2426 11.5378 32.3374C11.461 34.6509 11.4223 37.8898 11.4223 42.0541C11.4223 46.2185 11.461 49.4574 11.5378 51.7709C11.7688 58.8659 13.7715 64.2251 17.5452 67.8498C21.3188 71.4745 26.2865 73.2866 32.4481 73.2866C38.6096 73.2866 43.5773 71.4745 47.3509 67.8498C51.1246 64.2251 53.1273 58.8659 53.3583 51.7709C53.5126 47.1439 53.5894 43.9049 53.5894 42.0541C53.5894 40.2033 53.5126 36.9644 53.3583 32.3374C53.1273 25.2426 51.1246 19.883 47.3509 16.2585C43.5773 12.6339 38.6096 10.8217 32.4481 10.8217ZM128.551 82.5406C127.55 82.5406 126.703 82.2323 126.01 81.6152C125.317 80.9981 124.624 80.1502 123.93 79.0703L86.3844 22.5049V79.4174C86.3844 80.2659 86.0765 80.9981 85.4602 81.6152C84.8439 82.2323 84.1126 82.5406 83.2652 82.5406H78.5286C77.6812 82.5406 76.95 82.2323 76.3336 81.6152C75.7173 80.9981 75.4094 80.2659 75.4094 79.4174V4.69089C75.4094 3.84258 75.7173 3.11001 76.3336 2.49305C76.95 1.8761 77.6812 1.56765 78.5286 1.56765H82.572C83.5731 1.56765 84.4205 1.8761 85.1136 2.49305C85.8068 3.11001 86.4999 3.95826 87.1931 5.03792L124.739 61.6033V4.69089C124.739 3.84258 125.047 3.11001 125.663 2.49305C126.28 1.8761 127.011 1.56765 127.858 1.56765H132.595C133.442 1.56765 134.174 1.8761 134.79 2.49305C135.406 3.11001 135.714 3.84258 135.714 4.69089V79.4174C135.714 80.2659 135.406 80.9981 134.79 81.6152C134.174 82.2323 133.442 82.5406 132.595 82.5406H128.551ZM160.822 46.7968H196.173C197.021 46.7968 197.752 46.4884 198.368 45.8714C198.984 45.2545 199.292 44.5219 199.292 43.6736V39.5093C199.292 38.661 198.984 37.9284 198.368 37.3114C197.752 36.6945 197.021 36.386 196.173 36.386H160.822V11.9785H198.715C199.562 11.9785 200.294 11.67 200.91 11.0531C201.526 10.4361 201.834 9.70352 201.834 8.85521V4.69089C201.834 3.84258 201.526 3.11001 200.91 2.49305C200.294 1.8761 199.562 1.56765 198.715 1.56765H152.966C152.119 1.56765 151.388 1.8761 150.771 2.49305C150.156 3.11001 149.847 3.84258 149.847 4.69089V79.4174C149.847 80.2659 150.156 80.9981 150.771 81.6152C151.388 82.2323 152.119 82.5406 152.966 82.5406H199.639C200.486 82.5406 201.218 82.2323 201.834 81.6152C202.45 80.9981 202.758 80.2659 202.758 79.4174V75.253C202.758 74.4046 202.45 73.6723 201.834 73.0552C201.218 72.4381 200.486 72.1298 199.639 72.1298H160.822V46.7968ZM289.049 21.3482C289.126 22.0422 288.895 22.6592 288.356 23.199C287.817 23.6617 287.201 23.8931 286.508 23.8931H281.771C280.847 23.8931 280.154 23.7388 279.692 23.4303C279.23 23.0447 278.729 22.3507 278.19 21.3482C276.957 18.9576 274.801 16.6055 271.72 14.292C268.717 11.9785 264.711 10.8217 259.706 10.8217C255.085 10.8217 251.157 11.8628 247.922 13.9449C244.764 16.0271 243.185 18.9961 243.185 22.852C243.185 25.4739 243.955 27.6332 245.496 29.3298C247.113 30.9493 249.501 32.3759 252.659 33.6098C255.893 34.7666 260.745 36.1932 267.215 37.8898C275.995 40.2033 282.195 43.0566 285.815 46.4498C289.511 49.7656 291.36 54.3158 291.36 60.0995C291.36 64.7266 290.05 68.814 287.432 72.3612C284.89 75.9083 281.27 78.6846 276.573 80.6898C271.874 82.695 266.444 83.6974 260.283 83.6974C254.584 83.6974 249.385 82.6175 244.687 80.4585C239.989 78.2994 236.292 75.5613 233.597 72.2455C230.901 68.8521 229.476 65.4975 229.322 62.1817C229.322 61.4876 229.553 60.9093 230.015 60.4466C230.554 59.9069 231.171 59.6368 231.864 59.6368H236.6C237.447 59.6368 238.14 59.8294 238.68 60.2152C239.219 60.5235 239.72 61.1794 240.182 62.1817C241.414 64.9579 243.648 67.5028 246.882 69.8163C250.194 72.1298 254.661 73.2866 260.283 73.2866C265.905 73.2866 270.642 72.091 274.493 69.7006C278.421 67.2327 280.385 64.0325 280.385 60.0995C280.385 57.5547 279.345 55.4338 277.266 53.7374C275.263 51.9635 272.49 50.4985 268.948 49.3417C265.405 48.108 260.206 46.6041 253.352 44.8303C245.881 42.9024 240.49 40.1262 237.178 36.5017C233.866 32.8001 232.21 28.2501 232.21 22.852C232.21 18.8419 233.25 15.1403 235.33 11.7471C237.409 8.35393 240.528 5.61629 244.687 3.53413C248.846 1.45197 253.852 0.410889 259.706 0.410889C265.559 0.410889 270.681 1.56765 275.071 3.88116C279.461 6.11758 282.849 8.89379 285.237 12.2098C287.624 15.5258 288.895 18.572 289.049 21.3482ZM329.387 0.410889C335.933 0.410889 341.594 1.799 346.369 4.57521C351.144 7.35143 354.764 11.1301 357.229 15.9114C359.771 20.6156 361.118 25.8981 361.272 31.759C361.426 36.386 361.503 39.8177 361.503 42.0541C361.503 44.2905 361.426 47.7222 361.272 52.3493C361.041 58.21 359.655 63.5311 357.113 68.3125C354.649 73.0165 351.029 76.7568 346.254 79.533C341.556 82.3093 335.933 83.6974 329.387 83.6974C322.84 83.6974 317.179 82.3093 312.405 79.533C307.706 76.7568 304.087 73.0165 301.545 68.3125C299.08 63.5311 297.733 58.21 297.502 52.3493C297.424 50.0357 297.386 46.6041 297.386 42.0541C297.386 37.5042 297.424 34.0725 297.502 31.759C297.655 25.8981 298.965 20.6156 301.43 15.9114C303.971 11.1301 307.629 7.35143 312.405 4.57521C317.179 1.799 322.84 0.410889 329.387 0.410889ZM329.387 10.8217C323.225 10.8217 318.258 12.6339 314.484 16.2585C310.71 19.883 308.708 25.2426 308.477 32.3374C308.399 34.6509 308.361 37.8898 308.361 42.0541C308.361 46.2185 308.399 49.4574 308.477 51.7709C308.708 58.8659 310.71 64.2251 314.484 67.8498C318.258 71.4745 323.225 73.2866 329.387 73.2866C335.548 73.2866 340.516 71.4745 344.29 67.8498C348.064 64.2251 350.066 58.8659 350.297 51.7709C350.451 47.1439 350.528 43.9049 350.528 42.0541C350.528 40.2033 350.451 36.9644 350.297 32.3374C350.066 25.2426 348.064 19.883 344.29 16.2585C340.516 12.6339 335.548 10.8217 329.387 10.8217ZM430.689 1.56765C431.536 1.56765 432.268 1.8761 432.885 2.49305C433.498 3.11001 433.81 3.84258 433.81 4.69089V50.9612C433.81 60.9862 431.228 68.9678 426.068 74.906C420.985 80.7667 413.206 83.6974 402.732 83.6974C392.103 83.6974 384.248 80.7667 379.164 74.906C374.158 68.9678 371.655 60.9862 371.655 50.9612V4.69089C371.655 3.84258 371.963 3.11001 372.579 2.49305C373.195 1.8761 373.927 1.56765 374.775 1.56765H379.511C380.358 1.56765 381.09 1.8761 381.706 2.49305C382.322 3.11001 382.63 3.84258 382.63 4.69089V51.5395C382.63 58.9428 384.363 64.534 387.829 68.3125C391.372 72.0141 396.339 73.8649 402.732 73.8649C409.124 73.8649 414.092 72.0141 417.635 68.3125C421.177 64.534 422.949 58.9428 422.949 51.5395V4.69089C422.949 3.84258 423.257 3.11001 423.873 2.49305C424.489 1.8761 425.221 1.56765 426.068 1.56765H430.689ZM478.316 1.56765C486.403 1.56765 493.063 3.57271 498.302 7.58278C503.536 11.5158 506.158 17.4923 506.158 25.5125C506.158 31.5276 504.656 36.4246 501.652 40.2033C498.649 43.982 494.605 46.6812 489.522 48.3006L506.967 78.7233C507.198 79.186 507.313 79.61 507.313 79.9958C507.313 80.6898 507.042 81.3069 506.505 81.8466C506.042 82.3093 505.465 82.5406 504.772 82.5406H499.804C497.644 82.5406 495.992 81.4995 494.836 79.4174L478.085 49.9201H458.215V79.4174C458.215 80.2659 457.903 80.9981 457.29 81.6152C456.672 82.2323 455.939 82.5406 455.095 82.5406H450.359C449.51 82.5406 448.776 82.2323 448.164 81.6152C447.546 80.9981 447.24 80.2659 447.24 79.4174V4.69089C447.24 3.84258 447.546 3.11001 448.164 2.49305C448.776 1.8761 449.51 1.56765 450.359 1.56765H478.316ZM477.738 39.5093C489.366 39.5093 495.183 34.8437 495.183 25.5125C495.183 20.7312 493.716 17.2995 490.793 15.2174C487.864 13.0581 483.515 11.9785 477.738 11.9785H458.215V39.5093H477.738ZM524.683 51.7709C524.914 58.3256 526.878 63.5698 530.574 67.5028C534.346 71.3588 539.586 73.2866 546.286 73.2866C553.062 73.2866 558.07 71.8215 561.304 68.8909C564.539 65.9602 566.694 62.1817 567.774 57.5547C567.93 56.7837 568.276 56.1666 568.814 55.7039C569.432 55.2412 570.084 55.0098 570.778 55.0098H576.092C576.785 55.0098 577.363 55.2799 577.825 55.8195C578.362 56.2822 578.633 56.8606 578.633 57.5547C578.477 61.3332 577.247 65.2662 574.937 69.3536C572.626 73.3635 569.045 76.7568 564.193 79.533C559.416 82.3093 553.449 83.6974 546.286 83.6974C539.817 83.6974 534.156 82.348 529.304 79.6487C524.452 76.9494 520.68 73.2478 517.982 68.5439C515.365 63.7624 513.939 58.3644 513.708 52.3493C513.633 50.0357 513.592 46.6041 513.592 42.0541C513.592 37.5042 513.633 34.0725 513.708 31.759C513.939 25.7439 515.365 20.3842 517.982 15.6801C520.68 10.8988 524.452 7.15866 529.304 4.45954C534.156 1.76042 539.817 0.410889 546.286 0.410889C553.449 0.410889 559.416 1.799 564.193 4.57521C569.045 7.35143 572.626 10.7831 574.937 14.8703C577.247 18.8804 578.477 22.7749 578.633 26.5536C578.633 27.2476 578.362 27.8646 577.825 28.4044C577.363 28.8671 576.785 29.0985 576.092 29.0985H570.778C570.084 29.0985 569.432 28.8671 568.814 28.4044C568.276 27.9417 567.93 27.3247 567.774 26.5536C566.694 21.9266 564.539 18.1478 561.304 15.2174C558.07 12.2869 553.062 10.8217 546.286 10.8217C539.586 10.8217 534.346 12.7882 530.574 16.7212C526.878 20.577 524.914 25.7824 524.683 32.3374C524.607 34.6509 524.567 37.8898 524.567 42.0541C524.567 46.2185 524.607 49.4574 524.683 51.7709ZM598.966 46.7968H634.317C635.16 46.7968 635.894 46.4884 636.512 45.8714C637.124 45.2545 637.436 44.5219 637.436 43.6736V39.5093C637.436 38.661 637.124 37.9284 636.512 37.3114C635.894 36.6945 635.16 36.386 634.317 36.386H598.966V11.9785H636.859C637.702 11.9785 638.436 11.67 639.054 11.0531C639.666 10.4361 639.978 9.70352 639.978 8.85521V4.69089C639.978 3.84258 639.666 3.11001 639.054 2.49305C638.436 1.8761 637.702 1.56765 636.859 1.56765H591.11C590.261 1.56765 589.528 1.8761 588.915 2.49305C588.297 3.11001 587.991 3.84258 587.991 4.69089V79.4174C587.991 80.2659 588.297 80.9981 588.915 81.6152C589.528 82.2323 590.261 82.5406 591.11 82.5406H637.783C638.626 82.5406 639.36 82.2323 639.978 81.6152C640.59 80.9981 640.902 80.2659 640.902 79.4174V75.253C640.902 74.4046 640.59 73.6723 639.978 73.0552C639.36 72.4381 638.626 72.1298 637.783 72.1298H598.966V46.7968ZM35.7983 105.676C43.8083 105.676 50.4315 107.758 55.6689 111.922C60.9831 116.087 63.6402 122.179 63.6402 130.199C63.6402 135.597 62.3694 140.186 59.8278 143.964C57.363 147.743 54.0128 150.558 49.777 152.409C45.6181 154.26 40.9583 155.185 35.7983 155.185H14.5415V183.525C14.5415 184.374 14.2336 185.106 13.6173 185.723C13.0009 186.34 12.2696 186.649 11.4223 186.649H6.68569C5.8383 186.649 5.10701 186.34 4.49068 185.723C3.87435 185.106 3.56647 184.374 3.56647 183.525V108.799C3.56647 107.951 3.87435 107.218 4.49068 106.601C5.10701 105.984 5.8383 105.676 6.68569 105.676H35.7983ZM35.2207 144.774C40.8428 144.774 45.1559 143.579 48.1596 141.188C51.1633 138.72 52.6652 135.057 52.6652 130.199C52.6652 120.791 46.8501 116.087 35.2207 116.087H14.5415V144.774H35.2207ZM102.763 105.676C110.85 105.676 117.512 107.681 122.749 111.691C127.986 115.624 130.605 121.6 130.605 129.621C130.605 135.636 129.103 140.533 126.099 144.311C123.096 148.09 119.052 150.789 113.969 152.409L131.414 182.831C131.645 183.294 131.76 183.718 131.76 184.104C131.76 184.798 131.49 185.415 130.952 185.955C130.489 186.417 129.912 186.649 129.219 186.649H124.251C122.094 186.649 120.439 185.608 119.283 183.525L102.532 154.028H82.6616V183.525C82.6616 184.374 82.3531 185.106 81.7374 185.723C81.121 186.34 80.3892 186.649 79.5424 186.649H74.8058C73.9584 186.649 73.2265 186.34 72.6108 185.723C71.9945 185.106 71.6866 184.374 71.6866 183.525V108.799C71.6866 107.951 71.9945 107.218 72.6108 106.601C73.2265 105.984 73.9584 105.676 74.8058 105.676H102.763ZM102.186 143.617C113.815 143.617 119.63 138.952 119.63 129.621C119.63 124.839 118.166 121.408 115.24 119.325C112.313 117.166 107.962 116.087 102.186 116.087H82.6616V143.617H102.186ZM170.042 104.519C176.588 104.519 182.249 105.907 187.024 108.683C191.799 111.46 195.419 115.238 197.883 120.02C200.425 124.723 201.773 130.006 201.927 135.867C202.081 140.494 202.158 143.926 202.158 146.162C202.158 148.399 202.081 151.83 201.927 156.457C201.696 162.318 200.31 167.639 197.768 172.421C195.303 177.125 191.684 180.865 186.908 183.641C182.211 186.417 176.588 187.805 170.042 187.805C163.495 187.805 157.835 186.417 153.059 183.641C148.361 180.865 144.741 177.125 142.2 172.421C139.735 167.639 138.387 162.318 138.156 156.457C138.08 154.144 138.041 150.712 138.041 146.162C138.041 141.612 138.08 138.181 138.156 135.867C138.311 130.006 139.62 124.723 142.084 120.02C144.626 115.238 148.284 111.46 153.059 108.683C157.835 105.907 163.495 104.519 170.042 104.519ZM170.042 114.93C163.88 114.93 158.912 116.742 155.139 120.367C151.365 123.991 149.362 129.351 149.131 136.445C149.055 138.759 149.016 141.998 149.016 146.162C149.016 150.327 149.055 153.565 149.131 155.879C149.362 162.974 151.365 168.333 155.139 171.958C158.912 175.583 163.88 177.395 170.042 177.395C176.203 177.395 181.171 175.583 184.945 171.958C188.718 168.333 190.721 162.974 190.952 155.879C191.106 151.252 191.183 148.013 191.183 146.162C191.183 144.311 191.106 141.073 190.952 136.445C190.721 129.351 188.718 123.991 184.945 120.367C181.171 116.742 176.203 114.93 170.042 114.93ZM220.974 155.879C221.205 162.434 223.169 167.678 226.866 171.611C230.64 175.467 235.877 177.395 242.578 177.395C249.355 177.395 254.361 175.93 257.596 172.999C260.831 170.068 262.987 166.29 264.066 161.663C264.22 160.892 264.566 160.275 265.105 159.812C265.722 159.349 266.376 159.118 267.069 159.118H272.384C273.077 159.118 273.654 159.388 274.116 159.928C274.655 160.39 274.925 160.969 274.925 161.663C274.771 165.441 273.539 169.374 271.228 173.462C268.918 177.472 265.336 180.865 260.484 183.641C255.709 186.417 249.74 187.805 242.578 187.805C236.108 187.805 230.447 186.456 225.595 183.757C220.743 181.058 216.97 177.356 214.274 172.652C211.655 167.871 210.23 162.473 209.999 156.457C209.922 154.144 209.884 150.712 209.884 146.162C209.884 141.612 209.922 138.181 209.999 135.867C210.23 129.852 211.655 124.492 214.274 119.788C216.97 115.007 220.743 111.267 225.595 108.568C230.447 105.868 236.108 104.519 242.578 104.519C249.74 104.519 255.709 105.907 260.484 108.683C265.336 111.46 268.918 114.891 271.228 118.978C273.539 122.988 274.771 126.883 274.925 130.662C274.925 131.356 274.655 131.973 274.116 132.512C273.654 132.975 273.077 133.207 272.384 133.207H267.069C266.376 133.207 265.722 132.975 265.105 132.512C264.566 132.05 264.22 131.433 264.066 130.662C262.987 126.035 260.831 122.256 257.596 119.325C254.361 116.395 249.355 114.93 242.578 114.93C235.877 114.93 230.64 116.896 226.866 120.829C223.169 124.685 221.205 129.891 220.974 136.445C220.897 138.759 220.859 141.998 220.859 146.162C220.859 150.327 220.897 153.565 220.974 155.879ZM295.257 150.905H330.608C331.455 150.905 332.187 150.597 332.803 149.98C333.419 149.362 333.727 148.63 333.727 147.782V143.617C333.727 142.769 333.419 142.037 332.803 141.42C332.187 140.802 331.455 140.494 330.608 140.494H295.257V116.087H333.15C333.997 116.087 334.728 115.778 335.345 115.161C335.961 114.544 336.269 113.812 336.269 112.963V108.799C336.269 107.951 335.961 107.218 335.345 106.601C334.728 105.984 333.997 105.676 333.15 105.676H287.401C286.554 105.676 285.822 105.984 285.206 106.601C284.59 107.218 284.282 107.951 284.282 108.799V183.525C284.282 184.374 284.59 185.106 285.206 185.723C285.822 186.34 286.554 186.649 287.401 186.649H334.074C334.921 186.649 335.653 186.34 336.269 185.723C336.885 185.106 337.193 184.374 337.193 183.525V179.361C337.193 178.513 336.885 177.78 336.269 177.163C335.653 176.546 334.921 176.238 334.074 176.238H295.257V150.905ZM401.056 125.456C401.132 126.15 400.901 126.767 400.362 127.307C399.823 127.77 399.207 128.001 398.514 128.001H393.777C392.853 128.001 392.16 127.847 391.698 127.538C391.236 127.153 390.735 126.459 390.196 125.456C388.964 123.066 386.807 120.714 383.727 118.4C380.723 116.087 376.718 114.93 371.712 114.93C367.091 114.93 363.163 115.971 359.928 118.053C356.77 120.135 355.192 123.104 355.192 126.96C355.192 129.582 355.962 131.742 357.502 133.438C359.12 135.057 361.507 136.484 364.665 137.718C367.9 138.875 372.752 140.302 379.221 141.998C388.001 144.311 394.201 147.165 397.821 150.558C401.518 153.874 403.366 158.424 403.366 164.208C403.366 168.835 402.057 172.922 399.438 176.469C396.897 180.016 393.277 182.793 388.579 184.798C383.881 186.803 378.451 187.805 372.29 187.805C366.59 187.805 361.391 186.726 356.693 184.567C351.996 182.407 348.299 179.669 345.603 176.354C342.907 172.96 341.483 169.606 341.328 166.29C341.328 165.596 341.56 165.017 342.022 164.555C342.561 164.015 343.177 163.745 343.87 163.745H348.607C349.454 163.745 350.147 163.938 350.686 164.323C351.225 164.632 351.726 165.287 352.188 166.29C353.42 169.066 355.654 171.611 358.888 173.924C362.2 176.238 366.667 177.395 372.29 177.395C377.912 177.395 382.648 176.199 386.499 173.809C390.427 171.341 392.391 168.141 392.391 164.208C392.391 161.663 391.351 159.542 389.272 157.845C387.269 156.072 384.497 154.607 380.954 153.45C377.411 152.216 372.213 150.712 365.358 148.938C357.887 147.011 352.496 144.235 349.184 140.61C345.873 136.908 344.217 132.358 344.217 126.96C344.217 122.95 345.256 119.249 347.336 115.855C349.415 112.462 352.535 109.724 356.693 107.642C360.852 105.56 365.859 104.519 371.712 104.519C377.565 104.519 382.687 105.676 387.077 107.989C391.467 110.226 394.856 113.002 397.243 116.318C399.631 119.634 400.901 122.68 401.056 125.456ZM466.694 125.456C466.769 126.15 466.538 126.767 466.001 127.307C465.464 127.77 464.846 128.001 464.153 128.001H459.416C458.492 128.001 457.799 127.847 457.337 127.538C456.874 127.153 456.372 126.459 455.835 125.456C454.604 123.066 452.444 120.714 449.365 118.4C446.362 116.087 442.359 114.93 437.35 114.93C432.729 114.93 428.801 115.971 425.566 118.053C422.408 120.135 420.83 123.104 420.83 126.96C420.83 129.582 421.6 131.742 423.14 133.438C424.758 135.057 427.145 136.484 430.303 137.718C433.538 138.875 438.39 140.302 444.86 141.998C453.64 144.311 459.838 147.165 463.459 150.558C467.156 153.874 469.005 158.424 469.005 164.208C469.005 168.835 467.693 172.922 465.077 176.469C462.535 180.016 458.913 182.793 454.217 184.798C449.521 186.803 444.091 187.805 437.928 187.805C432.228 187.805 427.029 186.726 422.332 184.567C417.633 182.407 413.936 179.669 411.241 176.354C408.545 172.96 407.12 169.606 406.966 166.29C406.966 165.596 407.198 165.017 407.66 164.555C408.199 164.015 408.815 163.745 409.508 163.745H414.245C415.091 163.745 415.785 163.938 416.324 164.323C416.863 164.632 417.364 165.287 417.826 166.29C419.058 169.066 421.292 171.611 424.526 173.924C427.838 176.238 432.305 177.395 437.928 177.395C443.548 177.395 448.285 176.199 452.138 173.809C456.066 171.341 458.03 168.141 458.03 164.208C458.03 161.663 456.99 159.542 454.91 157.845C452.906 156.072 450.133 154.607 446.593 153.45C443.052 152.216 437.853 150.712 430.996 148.938C423.525 147.011 418.134 144.235 414.822 140.61C411.51 136.908 409.855 132.358 409.855 126.96C409.855 122.95 410.894 119.249 412.974 115.855C415.053 112.462 418.173 109.724 422.332 107.642C426.49 105.56 431.496 104.519 437.35 104.519C443.202 104.519 448.325 105.676 452.715 107.989C457.105 110.226 460.496 113.002 462.882 116.318C465.267 119.634 466.538 122.68 466.694 125.456Z" fill="#002642"/>
</svg>
